<?xml version="1.0" encoding="utf-8"?>
<!-- Generator: Adobe Illustrator 16.0.0, SVG Export Plug-In . SVG Version: 6.00 Build 0)  -->
<!DOCTYPE svg PUBLIC "-//W3C//DTD SVG 1.1//EN" "http://www.w3.org/Graphics/SVG/1.1/DTD/svg11.dtd">
<svg version="1.1" id="Layer_1" xmlns="http://www.w3.org/2000/svg" xmlns:xlink="http://www.w3.org/1999/xlink" x="0px" y="0px"
	 width="595.44px" height="531px" viewBox="0 0 595.44 531" enable-background="new 0 0 595.44 531" xml:space="preserve">
<path d="M305.626,174.948l-31.8,54.931l31.8,53.97c1.93,2.89,1.93,6.743,0,9.636l-31.8,54.932l31.8,53.969
	c1.93,2.89,1.93,6.744,0,9.637l-32.764,55.896l13.49,46.259c0.962,3.854-0.964,8.674-4.82,11.563c0,0.965-0.962,0.965-2.89,0.965
	c-2.89,0-4.818-0.965-6.747-2.894c-1.926-1.926-171.531-186.959-209.113-223.58C-19.129,220.242,4.963,113.27,46.4,67.011
	C82.057,26.536,121.565,6.297,163.966,6.297c62.639,0,105.04,53.003,123.351,102.155l19.275,57.821
	C307.556,169.166,307.556,172.056,305.626,174.948L305.626,174.948z M269.008,114.232C253.59,71.829,216.971,25.57,163.971,25.57
	c-36.621,0-71.314,18.313-103.115,53.969C24.237,120.978,4.001,215.422,76.274,286.738
	c28.911,27.945,130.095,137.811,180.205,192.742l-2.892-10.603c-0.962-2.89,0-5.782,0.966-7.71l31.801-54.931l-30.839-53.007
	c-1.928-2.889-1.928-6.743,0-9.636l31.801-54.931l-31.801-54.932c-1.928-2.892-1.928-6.746,0-9.638l31.801-55.893L269.008,114.232
	L269.008,114.232z M533.051,300.23c-37.583,37.584-207.188,221.651-209.116,223.578c-1.927,1.93-3.854,2.893-6.746,2.893
	c-0.964,0-1.928,0-1.928,0c-2.89-0.963-5.78-2.893-6.744-6.746l-15.418-50.112c-0.964-2.891,0-5.782,0.964-7.711l31.802-54.932
	l-31.802-53.97c-1.928-2.889-1.928-6.743,0-9.636l31.802-54.931l-31.802-54.932c-1.928-2.892-1.928-6.746,0-9.638l31.802-55.893
	l-18.312-53.97c-0.961-1.926-0.961-4.818,0-6.746C331.646,46.772,380.793,6.297,431.865,6.297c42.403,0,83.84,21.201,117.567,60.713
	C589.906,114.232,613.035,220.241,533.051,300.23L533.051,300.23z M534.98,79.539c-30.839-35.657-65.532-53.967-103.115-53.967
	c-42.401,0-83.838,33.729-105.037,86.734l18.306,53.967c0.966,2.892,0.966,5.782-0.961,8.674l-31.802,54.931l31.802,53.97
	c1.927,2.89,1.927,6.743,0,9.636l-31.802,54.932l31.802,53.969c1.927,2.89,1.927,6.744,0,9.637l-31.802,55.896l8.673,29.874
	c39.511-42.405,166.713-179.251,198.518-211.053C590.872,215.422,570.634,120.978,534.98,79.539L534.98,79.539z"/>
</svg>
