<?xml version="1.0" encoding="utf-8"?>
<!-- Generator: Adobe Illustrator 16.0.0, SVG Export Plug-In . SVG Version: 6.00 Build 0)  -->
<!DOCTYPE svg PUBLIC "-//W3C//DTD SVG 1.1//EN" "http://www.w3.org/Graphics/SVG/1.1/DTD/svg11.dtd">
<svg version="1.1" id="Layer_1" xmlns="http://www.w3.org/2000/svg" xmlns:xlink="http://www.w3.org/1999/xlink" x="0px" y="0px"
	 width="586.667px" height="531.998px" viewBox="0 0 586.667 531.998" enable-background="new 0 0 586.667 531.998"
	 xml:space="preserve">
<path d="M3.393,527.997V37.088h179.545V2.998h40.91v34.091h138.634V2.998h40.912v34.091H582.94v490.908H3.393L3.393,527.997z
	 M542.031,77.996H403.395v27.274h-40.909V77.996H223.849v34.091h-40.91V77.996H44.303v68.182h497.728V77.996L542.031,77.996z
	 M542.031,187.088H44.303v300h497.728V187.088L542.031,187.088z M136.349,432.542V364.36h68.182v68.182H136.349L136.349,432.542z
	 M259.076,432.542V364.36h68.182v68.182H259.076L259.076,432.542z M381.803,432.542V364.36h68.182v68.182H381.803L381.803,432.542z
	 M259.076,309.815v-68.182h68.182v68.182H259.076L259.076,309.815z M381.803,309.815v-68.182h68.182v68.182H381.803L381.803,309.815
	z M136.349,309.815v-68.182h68.182v68.182H136.349L136.349,309.815z"/>
</svg>
