<?xml version="1.0" encoding="utf-8"?>
<!-- Generator: Adobe Illustrator 16.0.0, SVG Export Plug-In . SVG Version: 6.00 Build 0)  -->
<!DOCTYPE svg PUBLIC "-//W3C//DTD SVG 1.1//EN" "http://www.w3.org/Graphics/SVG/1.1/DTD/svg11.dtd">
<svg version="1.1" id="Layer_1" xmlns="http://www.w3.org/2000/svg" xmlns:xlink="http://www.w3.org/1999/xlink" x="0px" y="0px"
	 width="586px" height="507px" viewBox="0 0 586 507" enable-background="new 0 0 586 507" xml:space="preserve">
<path d="M293,6L3.023,183.661l98.726,60.489v115.558c0,19.282,16.027,37.945,45.53,53.486v3.934l-46.365,46.377l24.293,24.303
	l22.069-22.076v35.269h34.358V465.73l22.067,22.076l24.294-24.303l-31.079-31.091c29.711,8.3,62.759,12.763,96.083,12.763
	c46.597,0,92.693-8.686,129.803-24.453c39.626-16.836,61.448-38.506,61.448-61.016V244.148l98.727-60.487L293,6L293,6z
	 M147.279,372.623c-7.971-6.186-11.084-11.063-11.173-12.916v-94.508l11.173,6.845V372.623L147.279,372.623z M449.896,359.694
	c-0.161,3.373-10.248,16.685-41.313,29.727C376.22,403.013,334.09,410.805,293,410.805c-39.339,0-79.603-7.158-111.365-19.692
	v-98.019L293,361.322l156.894-96.123v94.495H449.896L449.896,359.694z M293,321.02l-95.654-58.604l104.625-64.101l-17.943-29.309
	l-119.57,73.258l-95.656-58.604L293,46.304l224.195,137.357L293,321.02L293,321.02z"/>
</svg>
