<?xml version="1.0" encoding="utf-8"?>
<!-- Generator: Adobe Illustrator 16.0.0, SVG Export Plug-In . SVG Version: 6.00 Build 0)  -->
<!DOCTYPE svg PUBLIC "-//W3C//DTD SVG 1.1//EN" "http://www.w3.org/Graphics/SVG/1.1/DTD/svg11.dtd">
<svg version="1.1" id="Layer_1" xmlns="http://www.w3.org/2000/svg" xmlns:xlink="http://www.w3.org/1999/xlink" x="0px" y="0px"
	 width="598.833px" height="553.328px" viewBox="0 0 598.833 553.328" enable-background="new 0 0 598.833 553.328"
	 xml:space="preserve">
<path fill-rule="evenodd" clip-rule="evenodd" d="M2.353,98.825c0-2.713,0-5.426,0-8.131c1.232-2.017,0.312-4.242,0.6-6.354
	C2.233,56,23.858,32.87,51.333,25.091c20.136-5.707,39.816-3.625,59.201,3.513c11.101,4.098,21.641,9.396,32.021,15.022
	c4.97,2.697,5.17,2.737,6.219-2.857c3.409-18.248,13.974-30.132,31.461-36.079c3.922-1.337,7.923-1.601,12.013-1.593
	c26.499,0.016,53.006,0.016,79.513,0.008c11.981-0.008,23.938-0.36,35.926-0.984c14.455-0.752,28.924,1.393,43.442,1.081
	c18.376-0.392,36.768-0.112,55.144-0.088c21.545,0.024,38.496,13.445,43.617,34.518c2.049,8.459,2.065,8.484,9.668,4.418
	c17.672-9.428,35.68-17.983,55.992-19.736c26.763-2.305,50.373,4.57,68.156,25.779c8.1,9.676,12.821,21.081,12.773,34.054
	c0,1.313-0.4,2.721,0.592,3.897c0,1.937,0,3.874,0,5.811c-1.265,2.321-0.305,4.818-0.607,7.219
	c0.672,22.193-7.283,42.177-16.504,61.633c-14.966,31.557-36.959,57.784-62.521,81.402c-22.842,21.097-47.428,39.737-73.742,56.191
	c-3.105,1.937-5.074,4.69-6.627,7.876c-16.936,34.861-44.355,57.943-80.306,71.453c-4.738,1.777-9.669,2.817-14.534,4.065
	c-4.146,1.073-6.115,3.458-6.099,7.859c0.063,19.544,0.097,39.104-0.032,58.648c-0.016,4.401,1.938,5.714,6.003,5.65
	c8.115-0.112,16.263-0.192,24.378,0.032c12.965,0.352,22.217,7.73,25.387,20.28c0.704,2.753,2.129,3.921,4.802,4.001
	c1.745,0.049,3.505,0.193,5.218,0.033c15.175-1.489,34.494,13.365,35.215,33.901c0.369,10.245,0.225,20.505,0.032,30.765
	c-0.112,5.683-1.296,6.707-6.883,7.027c-0.593,0.031-1.169,0.031-1.745,0.031c-85.523,1.506-171.047,1.17-256.57,1.17
	c-8.948,0-9.668-0.736-9.708-9.525c-0.048-9.092-0.112-18.183,0.016-27.291c0.272-20.744,15.398-35.838,36.039-36.063
	c7.723-0.08,7.723-0.08,9.9-7.748c2.473-8.755,13.421-16.086,25.13-16.551c7.547-0.304,15.103-0.047,22.649-0.096
	c7.019-0.048,7.283-0.271,7.291-7.123c0.032-17.223,0.016-34.445,0.016-51.669c0-11.604,0-11.604-11.013-14.55
	c-23.306-6.227-43.618-17.912-61.089-34.383c-11.621-10.965-21.089-23.705-27.916-38.224c-2.137-4.546-5.146-7.907-9.42-10.628
	c-31.773-20.232-61.57-43.019-87.637-70.294C37.127,196.538,15.03,161.972,4.906,120.539C3.153,113.359,3.713,105.997,2.353,98.825z
	 M148.974,243.709c1.2-48.532,0.728-97.064,0.976-145.604c0.008-2.569-1.104-3.786-2.905-5.026
	c-10.885-7.491-22.113-14.446-33.926-20.32c-13.021-6.475-26.339-12.494-41.458-11.061c-14.982,1.425-26.963,5.546-30.628,24.426
	c-1.369,7.059-0.296,14.238,1.265,21.209c5.434,24.314,16.054,46.267,30.692,66.332c20.689,28.364,46.708,51.165,75.375,72.238
	C148.694,244.75,148.966,244.23,148.974,243.709z M479.951,222.941c25.995-22.465,49.045-47.388,64.092-78.721
	c8.195-17.071,15.205-34.687,14.565-54.07c-0.496-14.79-7.315-23.242-20.696-26.883c-9.156-2.489-18.68-2.793-27.9-0.072
	c-21.528,6.354-40.272,18.047-58.615,30.581c-2.482,1.688-1.793,3.593-1.793,5.498c0.016,36.367,0.111,72.734,0.176,109.102
	c0.031,12.165,0.016,24.33,0.016,38.216C461.32,238.299,470.813,230.84,479.951,222.941z"/>
</svg>
