<?xml version="1.0" encoding="utf-8"?>
<!-- Generator: Adobe Illustrator 16.0.0, SVG Export Plug-In . SVG Version: 6.00 Build 0)  -->
<!DOCTYPE svg PUBLIC "-//W3C//DTD SVG 1.1//EN" "http://www.w3.org/Graphics/SVG/1.1/DTD/svg11.dtd">
<svg version="1.1" id="Layer_1" xmlns="http://www.w3.org/2000/svg" xmlns:xlink="http://www.w3.org/1999/xlink" x="0px" y="0px"
	 width="562px" height="560px" viewBox="198.5 0 562 560" enable-background="new 198.5 0 562 560" xml:space="preserve">
<path d="M729.152,39.863h-55.999v-8.075C673.153,17.016,661.135,5,646.364,5H310.635c-14.771,0-26.789,12.016-26.789,26.788v8.075
	h-55.998c-13.978,0-25.349,11.371-25.349,25.349v81.198c0,40.573,33.007,73.58,73.579,73.58h11.175
	c12.896,53.278,60.976,92.969,118.16,92.969h29.507v75.537h-1.209c-12.148,0-22.033,9.882-22.033,22.031v24.453h-3.231
	c-43.074,0-78.116,35.041-78.116,78.113v27.53c0,9.028,7.345,16.376,16.375,16.376h263.587c9.028,0,16.375-7.346,16.375-16.374
	v-27.532c0-0.008,0-0.016,0-0.024c0-0.004,0-0.008,0-0.013c0-0.01-0.001-0.021-0.001-0.028c-0.035-43.042-35.063-78.05-78.114-78.05
	h-3.232v-24.451c0-12.149-9.884-22.034-22.034-22.034h-1.208v-75.536h29.507c57.184,0,105.265-39.689,118.16-92.969h11.175
	c40.572,0,73.579-33.006,73.579-73.58V65.211C754.5,51.234,743.129,39.863,729.152,39.863z M276.079,202.557
	c-30.959,0-56.146-25.188-56.146-56.148V65.211c0-4.366,3.551-7.917,7.917-7.917h55.998v17.431h-37.77
	c-4.814,0-8.715,3.903-8.715,8.716v62.968c0,21.349,17.368,38.717,38.716,38.717h7.769v6.264c0,3.765,0.181,7.489,0.518,11.168
	H276.079L276.079,202.557z M283.848,92.157v75.537h-7.769c-11.737,0-21.285-9.548-21.285-21.285V92.157H283.848z M523.287,405.928
	c2.542,0,4.602,2.058,4.602,4.6v24.451h-10.344c-4.814,0-8.716,3.902-8.716,8.717c0,4.812,3.902,8.714,8.716,8.714h31.008
	c30.513,0,55.827,22.643,60.052,52.004l-71.672,0.29c-4.768,0.018-8.91,3.704-9.04,8.471c-0.137,4.931,3.82,8.96,8.711,8.96h0.035
	l72.597-0.291v17.724H347.764v-17.758h153.614c4.772,0,8.935-3.678,9.077-8.448c0.148-4.935-3.809-8.982-8.713-8.982H348.398
	c4.24-29.345,29.546-51.967,60.049-51.967h66.642c4.814,0,8.717-3.904,8.717-8.716c0-4.814-3.902-8.715-8.715-8.715h-45.98v-24.453
	c0-2.54,2.059-4.6,4.6-4.6H523.287L523.287,405.928z M452.353,388.493v-75.536h52.294v75.536H452.353L452.353,388.493z
	 M655.721,191.39c0,57.421-46.713,104.135-104.135,104.135H405.414c-57.421,0-104.135-46.714-104.135-104.135V31.788
	c0-5.159,4.195-9.356,9.356-9.356h335.729c5.159,0,9.356,4.197,9.356,9.356V191.39z M673.153,92.157h29.052v54.253
	c0,11.737-9.548,21.284-21.285,21.284h-7.768L673.153,92.157L673.153,92.157z M737.07,146.41h-0.002
	c0,30.96-25.188,56.148-56.146,56.148h-8.285c0.338-3.679,0.52-7.402,0.52-11.168v-6.264h7.769
	c21.348,0,38.715-17.368,38.715-38.716V83.442c0-4.814-3.899-8.715-8.715-8.715h-37.77V57.294h55.999
	c4.365,0,7.918,3.551,7.918,7.917v81.198H737.07z"/>
</svg>
