<?xml version="1.0" encoding="utf-8"?>
<!-- Generator: Adobe Illustrator 16.0.0, SVG Export Plug-In . SVG Version: 6.00 Build 0)  -->
<!DOCTYPE svg PUBLIC "-//W3C//DTD SVG 1.1//EN" "http://www.w3.org/Graphics/SVG/1.1/DTD/svg11.dtd">
<svg version="1.1" id="Layer_1" xmlns="http://www.w3.org/2000/svg" xmlns:xlink="http://www.w3.org/1999/xlink" x="0px" y="0px"
	 width="592px" height="590.665px" viewBox="0 0 592 590.665" enable-background="new 0 0 592 590.665" xml:space="preserve">
<path fill="#050505" d="M296,3.998c-160.6,0-292,131.4-292,292s131.401,292,292,292s292-131.4,292-292S456.6,3.998,296,3.998
	L296,3.998z M62.401,295.998C62.401,167.517,167.519,62.399,296,62.399c52.559,0,102.2,17.518,143.079,49.639L112.04,439.077
	C79.919,398.198,62.401,348.557,62.401,295.998L62.401,295.998z M296,529.598c-52.559,0-102.2-17.519-143.079-49.639l327.04-327.04
	c32.12,40.878,49.639,90.52,49.639,143.079C529.6,424.479,424.481,529.598,296,529.598L296,529.598z"/>
</svg>
