<?xml version="1.0" encoding="utf-8"?>
<!-- Generator: Adobe Illustrator 16.0.0, SVG Export Plug-In . SVG Version: 6.00 Build 0)  -->
<!DOCTYPE svg PUBLIC "-//W3C//DTD SVG 1.1//EN" "http://www.w3.org/Graphics/SVG/1.1/DTD/svg11.dtd">
<svg version="1.1" id="Layer_1" xmlns="http://www.w3.org/2000/svg" xmlns:xlink="http://www.w3.org/1999/xlink" x="0px" y="0px"
	 width="595.44px" height="594px" viewBox="0 0 595.44 594" enable-background="new 0 0 595.44 594" xml:space="preserve">
<path d="M562.047,197.163c-16.664-1.068-33.466,3.029-49.954,4.805c-51.081,5.485-102.738,9.459-133.897-38
	c-25.396-38.684-34.493-81.994-35.733-127.59c-0.063-1.898-0.413-3.568-0.902-5.149c0.188-7.248-3.357-14.681-12.027-17.72
	c-112.261-39.275-121.266,112.593-99.588,186.756c-3.101,0.234-6.211,0.356-9.309,0.479c-0.131-3.21-0.642-6.362-1.09-9.544
	c-0.104-0.683-0.226-1.365-0.329-2.039c0.053,0.173,0.041-0.285-0.041-1.538c-0.082-2.04-0.529-3.978-1.19-5.801
	c-0.257-5.059-2.509-10.104-7.536-13.816c-47.513-35.166-105.282-40.344-161.807-28.203c-2.437,0.511-4.426,1.438-6.117,2.572
	c-2.13,0.968-4.191,2.527-6.067,4.893c-28.66,36.184-29.362,78.782-6.791,116.996c-35.736,39.673-33.644,91.65,3.681,130.822
	c-8.247,36.51,3.571,69.312,31.67,93.975c-2.418,18.405-0.755,36.754,9.225,53.273c11.442,18.913,32.71,28.755,53.612,33.134
	c1.66,0.971,3.567,1.747,5.901,2.136c36.115,5.92,72.321,10.612,108.893,12.366c1.773,0.088,3.364-0.113,4.861-0.438
	c0.908-0.031,1.795-0.031,2.753-0.188c47.532-7.918,95.055-16.012,142.102-26.467c44.49-9.88,87.992-25.378,133.41-30.578
	c19.094-2.192,62.857,0.583,63.259-27.507c1.391-92.503,1.479-185.011,1.479-277.529c0-2.17-0.401-4.056-0.99-5.829
	C583.96,204.649,582.619,198.479,562.047,197.163L562.047,197.163z M477.212,503.963c-76.265,24.094-154.746,37.775-233.495,50.918
	c-0.366-0.037-0.683-0.138-1.068-0.15c-32.72-1.572-65.083-5.544-97.411-10.787c-1.478-0.777-3.101-1.435-5.049-1.792
	c-13.03-2.418-27.445-6.108-35.533-17.604c-7.859-11.2-6.33-25.966-3.536-38.558c2.03-9.134-2.59-16.037-9.034-19.527
	c-0.642-0.633-1.243-1.271-1.998-1.842c-24.021-18.167-28.936-43.438-19.79-71.14c3.12-9.479-1.632-16.563-8.576-19.746
	c-30.076-29.374-30.455-63.936,1.103-92.894c4.404-4.037,5.873-8.729,5.422-13.162c0.99-3.846,0.397-8.178-2.669-12.604
	c-17.75-25.5-25.052-55.444-5.008-81.8c43.802-8.901,86.391-4.67,123.828,19.464c0.194,1.507,0.419,3.007,0.632,4.517
	c0.113,0.683,0.226,1.366,0.338,2.039c-0.044-0.122-0.053,0.154,0,0.824c-11.633-0.836-23.267-2.302-34.903-4.526
	c-22.195-4.25-31.667,29.71-9.369,33.973c46.871,8.974,93.363,8.952,139.997-1.469c22.164-4.942,12.767-38.915-9.369-33.982
	c-2.151,0.489-4.304,0.836-6.452,1.265c-14.029-43.588-24.92-162.022,42.27-151.113c4.85,101,50.58,200.716,160.109,195.852
	c-6.766,88.186,1.229,175.727,11.752,263.38C478.69,503.649,477.977,503.719,477.212,503.963L477.212,503.963z M553.94,491.252
	c-13.469,0.865-26.95,1.754-40.444,2.65c-10.035-85.054-17.252-170.032-10.499-255.609c17.378-2.211,34.793-3.668,52.271-3.862
	C555.269,320.042,555.105,405.647,553.94,491.252L553.94,491.252z"/>
</svg>
