<?xml version="1.0" encoding="utf-8"?>
<!-- Generator: Adobe Illustrator 16.0.0, SVG Export Plug-In . SVG Version: 6.00 Build 0)  -->
<!DOCTYPE svg PUBLIC "-//W3C//DTD SVG 1.1//EN" "http://www.w3.org/Graphics/SVG/1.1/DTD/svg11.dtd">
<svg version="1.1" id="Capa_1" xmlns="http://www.w3.org/2000/svg" xmlns:xlink="http://www.w3.org/1999/xlink" x="0px" y="0px"
	 width="539px" height="542px" viewBox="210.5 9.5 539 542" enable-background="new 210.5 9.5 539 542" xml:space="preserve">
<path d="M740.85,519.42L611.809,390.379c34.614-39.795,55.572-91.719,55.572-148.468C667.381,116.99,565.772,15.5,440.97,15.5
	c-124.92,0-226.411,101.608-226.411,226.411c0,124.803,101.609,226.411,226.411,226.411c56.75,0,108.672-20.957,148.469-55.572
	l129.04,129.041c3.062,3.062,7.182,4.71,11.186,4.71s8.124-1.53,11.186-4.71C746.972,535.668,746.972,525.543,740.85,519.42z
	 M246.23,241.911c0-107.377,87.362-194.622,194.622-194.622c107.377,0,194.622,87.362,194.622,194.622
	c0,107.26-87.244,194.739-194.622,194.739C333.593,436.649,246.23,349.288,246.23,241.911z"/>
</svg>
