<?xml version="1.0" encoding="utf-8"?>
<!-- Generator: Adobe Illustrator 16.0.0, SVG Export Plug-In . SVG Version: 6.00 Build 0)  -->
<!DOCTYPE svg PUBLIC "-//W3C//DTD SVG 1.1//EN" "http://www.w3.org/Graphics/SVG/1.1/DTD/svg11.dtd">
<svg version="1.1" id="Layer_1" xmlns="http://www.w3.org/2000/svg" xmlns:xlink="http://www.w3.org/1999/xlink" x="0px" y="0px"
	 width="519px" height="558.332px" viewBox="0 0 519 558.332" enable-background="new 0 0 519 558.332" xml:space="preserve">
<path fill-rule="evenodd" clip-rule="evenodd" d="M248.396,557.332c-5.229-2.268-10.95-1.954-16.403-3.088
	c-44.509-9.265-77.135-34.208-98.237-74.249c-10.95-20.751-15.91-43.203-15.142-66.551c1.104-33.357,12.36-63,34.417-88.391
	c20.781-23.93,46.821-38.938,77.583-45.472c16.724-3.543,33.678-3.692,50.774-0.79c23.526,4.013,44.591,13.053,63.299,27.718
	c25.36,19.887,42.1,45.472,49.843,76.77c16.663,67.446-18.38,135.519-80.769,162.282c-13.979,5.997-28.524,9.831-43.771,10.696
	c-0.865,0.045-1.85-0.149-2.104,1.074C261.383,557.332,254.894,557.332,248.396,557.332z M57.859,3.047
	c-6.795,1.447-12.241,4.976-17.067,10.019c-9.6,10.018-19.573,19.691-29.381,29.508C-0.65,54.635-0.68,64.743,11.321,76.751
	c25.75,25.757,51.499,51.514,77.248,77.27c21.803,21.796,43.576,43.629,65.432,65.373c10.465,10.413,20.945,10.375,31.313,0.066
	c11.256-11.188,22.445-22.43,33.671-33.648c2.29-2.289,4.513-4.617,5.587-7.787c3.26-9.614,0.142-17.238-6.803-24.16
	C171.671,107.917,125.656,61.886,79.7,15.795C74.001,10.082,68.407,4.495,60.03,3.047C59.306,3.047,58.583,3.047,57.859,3.047z
	 M511.743,45.991c-11.219-11.219-22.438-22.452-33.656-33.671c-11.338-11.315-21.482-11.309-32.91,0.029
	C372.435,84.48,299.694,156.61,226.981,228.762c-2.036,2.021-3.841,4.282-5.743,6.438c-1.47,1.656-3.073,3.617-1.783,5.729
	c1.5,2.454,4.073,1.328,6.348,0.857c8.003-1.655,15.962-4.117,24.041-4.646c24.474-1.604,48.537,0.269,71.302,10.711
	c9.146,4.192,13.233,3.133,20.334-3.923c8.057-8.012,16.067-16.075,24.139-24.078C413.864,171.946,462.11,124.036,510.4,76.17
	c4.326-4.297,7.459-9.033,7.593-15.336C518.157,54.934,515.86,50.093,511.743,45.991z M188.902,388.515
	c-3.051,0.149-6.4,0.836-7.474,4.162c-0.962,2.984,1.477,5.117,3.566,6.729c6.661,5.162,13.329,10.354,20.304,15.083
	c10.726,7.279,17.35,23.004,11.897,36.355c-2.999,7.325-5.042,15.082-7.191,22.735c-0.895,3.178-2.133,7.176,1.097,9.488
	c2.976,2.134,6.229,0.06,8.899-1.805c6.31-4.416,12.576-8.906,18.774-13.472c13.121-9.667,26.741-9.593,39.974,0.164
	c6.191,4.58,12.472,9.056,18.798,13.457c2.67,1.864,5.907,3.834,8.861,1.491c2.879-2.282,1.85-5.982,0.939-9.056
	c-2.297-7.802-4.744-15.56-7.324-23.272c-1.775-5.341-2.283-10.592-1.209-16.216c1.969-10.368,8.727-16.799,16.843-22.542
	c6.28-4.445,13.038-8.354,18.261-14.143c3.595-3.968,2.789-6.34-2.119-8.384c-1.939-0.806-3.834-0.836-5.788-0.836
	c-7.937-0.015-15.873-0.015-23.81-0.015c-13.158,0-24.525-8.011-28.972-20.587c-2.954-8.34-5.595-16.799-8.593-25.123
	c-1-2.76-1.969-6.057-5.804-6.221c-4.251-0.164-5.139,3.446-6.191,6.34c-2.983,8.161-5.676,16.426-8.488,24.646
	c-3.648,10.667-11.129,16.977-21.893,20.035c-6.266,1.775-12.531,0.224-17.745,0.925
	C198.636,388.456,193.758,388.292,188.902,388.515z"/>
</svg>
