<?xml version="1.0" encoding="utf-8"?>
<!-- Generator: Adobe Illustrator 16.0.0, SVG Export Plug-In . SVG Version: 6.00 Build 0)  -->
<!DOCTYPE svg PUBLIC "-//W3C//DTD SVG 1.1//EN" "http://www.w3.org/Graphics/SVG/1.1/DTD/svg11.dtd">
<svg version="1.1" id="Layer_1" xmlns="http://www.w3.org/2000/svg" xmlns:xlink="http://www.w3.org/1999/xlink" x="0px" y="0px"
	 width="196.667px" height="141.667px" viewBox="0 0 196.667 141.667" enable-background="new 0 0 196.667 141.667"
	 xml:space="preserve">
<path d="M193.15,6.853c-2.54-3.427-6.543-5.373-10.709-5.373c-1.077,0-2.164,0.131-3.243,0.398L10.987,43.805
	c-5.207,1.298-9.111,5.57-9.896,10.829C0.306,59.89,2.793,65.1,7.396,67.834l35.571,21.133v46.355c0,1.755,1.01,3.356,2.601,4.127
	c1.592,0.771,3.488,0.576,4.887-0.501l33.363-25.711l27.407,16.28c2.139,1.272,4.493,1.877,6.819,1.877
	c4.462,0,8.816-2.228,11.322-6.261l64.386-103.613C196.584,16.965,196.346,11.167,193.15,6.853L193.15,6.853z M117.249,114.968
	L75.544,90.188l42.31-36.102c0.593-0.503,0.732-1.36,0.328-2.024c-0.401-0.664-1.227-0.943-1.956-0.666L51.779,76.071L20.478,57.474
	l156.78-39.078L117.249,114.968L117.249,114.968z"/>
</svg>
