<?xml version="1.0" encoding="utf-8"?>
<!-- Generator: Adobe Illustrator 16.0.0, SVG Export Plug-In . SVG Version: 6.00 Build 0)  -->
<!DOCTYPE svg PUBLIC "-//W3C//DTD SVG 1.1//EN" "http://www.w3.org/Graphics/SVG/1.1/DTD/svg11.dtd">
<svg version="1.1" id="Layer_1" xmlns="http://www.w3.org/2000/svg" xmlns:xlink="http://www.w3.org/1999/xlink" x="0px" y="0px"
	 width="176.5px" height="300px" viewBox="0 0 176.5 300" enable-background="new 0 0 176.5 300" xml:space="preserve">
<path d="M154.432,2.636H22.577C11.599,2.636,2.6,11.618,2.6,22.609v255.779c0,10.975,8.999,19.977,19.977,19.977h131.855
	c10.974,0,19.968-8.979,19.968-19.977V22.609C174.399,11.618,165.405,2.636,154.432,2.636L154.432,2.636z M67.403,17.031h42.198
	c1.329,0,2.409,1.081,2.409,2.426c0,1.329-1.08,2.41-2.409,2.41H67.403c-1.329,0-2.41-1.081-2.41-2.41
	C64.993,18.112,66.074,17.031,67.403,17.031L67.403,17.031z M88.502,288.389c-5.516,0-9.989-4.473-9.989-10.001
	c0-5.521,4.473-9.993,9.989-9.993c5.513,0,9.983,4.473,9.983,9.993C98.485,283.916,94.015,288.389,88.502,288.389L88.502,288.389z
	 M160.504,261.397H16.5V34.305h144.004V261.397L160.504,261.397z"/>
</svg>
