<?xml version="1.0" encoding="utf-8"?>
<!-- Generator: Adobe Illustrator 16.0.0, SVG Export Plug-In . SVG Version: 6.00 Build 0)  -->
<!DOCTYPE svg PUBLIC "-//W3C//DTD SVG 1.1//EN" "http://www.w3.org/Graphics/SVG/1.1/DTD/svg11.dtd">
<svg version="1.1" id="Layer_1" xmlns="http://www.w3.org/2000/svg" xmlns:xlink="http://www.w3.org/1999/xlink" x="0px" y="0px"
	 width="595.44px" height="533.329px" viewBox="0 0 595.44 533.329" enable-background="new 0 0 595.44 533.329"
	 xml:space="preserve">
<path d="M574.826,241.18c-35.528-88.39-131.482-132.586-287.854-132.586h-73.691V24.378c0-5.704-2.09-10.638-6.254-14.805
	c-4.166-4.172-9.095-6.254-14.799-6.254c-5.71,0-10.643,2.082-14.809,6.254L8.983,178.009c-4.167,4.172-6.254,9.107-6.254,14.803
	c0,5.704,2.087,10.639,6.254,14.805l168.436,168.44c4.172,4.167,9.106,6.254,14.809,6.254c5.698,0,10.633-2.087,14.799-6.254
	c4.164-4.164,6.254-9.103,6.254-14.804v-84.216h73.691c21.489,0,40.732,0.65,57.728,1.968c16.996,1.317,33.888,3.667,50.663,7.07
	c16.782,3.407,31.364,8.056,43.762,13.983c12.39,5.926,23.96,13.545,34.709,22.866c10.748,9.325,19.519,20.394,26.316,33.229
	c6.799,12.823,12.114,28.009,15.954,45.553c3.841,17.551,5.758,37.401,5.758,59.547c0,12.054-0.552,25.552-1.641,40.469
	c0,1.306-0.269,3.881-0.82,7.726c-0.544,3.836-0.82,6.742-0.82,8.718c0,3.289,0.923,6.025,2.784,8.222
	c1.869,2.197,4.456,3.285,7.737,3.285c3.509,0,6.576-1.865,9.211-5.6c1.538-1.968,2.957-4.381,4.282-7.232
	c1.309-2.851,2.792-6.139,4.44-9.861c1.648-3.738,2.8-6.356,3.446-7.895c27.854-62.5,41.791-111.957,41.791-148.36
	C592.272,307.086,586.452,270.563,574.826,241.18L574.826,241.18z"/>
</svg>
