<?xml version="1.0" encoding="utf-8"?>
<!-- Generator: Adobe Illustrator 16.0.0, SVG Export Plug-In . SVG Version: 6.00 Build 0)  -->
<!DOCTYPE svg PUBLIC "-//W3C//DTD SVG 1.1//EN" "http://www.w3.org/Graphics/SVG/1.1/DTD/svg11.dtd">
<svg version="1.1" id="Layer_1" xmlns="http://www.w3.org/2000/svg" xmlns:xlink="http://www.w3.org/1999/xlink" x="0px" y="0px"
	 width="224px" height="297.5px" viewBox="0 0 224 297.5" enable-background="new 0 0 224 297.5" xml:space="preserve">
<path d="M185.486,222.5h-73.318c-10.179,0-18.857-3.554-25.987-10.659c-7.154-7.105-10.719-15.772-10.719-25.88V160.01h104.502
	c9.411,0,17.573-3.373,24.296-10.035c6.723-6.734,10.107-14.765,10.107-24.14c0-9.387-3.385-17.429-10.132-24.115
	c-6.746-6.686-14.908-10.059-24.366-10.059H75.461V38.125c0-10.131-3.613-18.81-10.839-26.036C57.42,4.887,48.742,1.25,38.634,1.25
	c-10.395,0-19.218,3.565-26.42,10.671C4.988,19.027,1.399,27.778,1.399,38.173v147.788c0,30.394,10.815,56.369,32.47,77.927
	c21.654,21.607,47.822,32.362,78.347,32.362h73.318c10.179,0,18.917-3.602,26.168-10.851c7.298-7.202,10.898-15.894,10.898-26.024
	s-3.601-18.773-10.898-26.024C204.451,226.149,195.665,222.5,185.486,222.5L185.486,222.5z"/>
</svg>
