<?xml version="1.0" encoding="utf-8"?>
<!-- Generator: Adobe Illustrator 16.0.0, SVG Export Plug-In . SVG Version: 6.00 Build 0)  -->
<!DOCTYPE svg PUBLIC "-//W3C//DTD SVG 1.1//EN" "http://www.w3.org/Graphics/SVG/1.1/DTD/svg11.dtd">
<svg version="1.1" id="Layer_1" xmlns="http://www.w3.org/2000/svg" xmlns:xlink="http://www.w3.org/1999/xlink" x="0px" y="0px"
	 width="562px" height="560px" viewBox="198.5 0 562 560" enable-background="new 198.5 0 562 560" xml:space="preserve">
<path d="M480,178.387c48.013,0,87.072-38.778,87.072-86.444C567.072,44.278,528.013,5.5,480,5.5
	c-48.012,0-87.073,38.778-87.073,86.443C392.927,139.609,431.988,178.387,480,178.387z M480,23.021
	c38.281,0,69.424,30.918,69.424,68.922c0,38.003-31.143,68.923-69.424,68.923s-69.424-30.92-69.424-68.923
	C410.576,53.939,441.719,23.021,480,23.021z M347.287,336.709h26.184c4.873,0,8.824,3.92,8.824,8.76
	c0,4.839-3.951,8.761-8.824,8.761h-35.298c-4.874,0-8.825-3.922-8.825-8.761c0-82.468,67.581-149.56,150.651-149.56
	c83.069,0,150.651,67.092,150.651,149.56c0,4.839-3.95,8.761-8.824,8.761H408.769c-4.874,0-8.825-3.922-8.825-8.761
	c0-4.84,3.951-8.76,8.825-8.76h203.943C608.157,267.968,550.375,213.43,480,213.43C409.627,213.43,351.843,267.968,347.287,336.709z
	 M368.703,446.7l-48.408-8.066l-22.686-43.213c-1.52-2.896-4.536-4.712-7.826-4.712s-6.305,1.815-7.826,4.712l-22.686,43.213
	l-48.408,8.066c-3.244,0.541-5.917,2.826-6.933,5.933c-1.017,3.104-0.208,6.514,2.096,8.844l34.388,34.773l-7.232,48.198
	c-0.485,3.231,0.88,6.46,3.542,8.379c2.659,1.921,6.176,2.21,9.12,0.755l43.939-21.723l43.938,21.723
	c1.245,0.614,2.592,0.918,3.932,0.918c1.833,0,3.653-0.565,5.188-1.674c2.662-1.919,4.026-5.147,3.542-8.379l-7.233-48.198
	l34.389-34.773c2.304-2.33,3.112-5.74,2.096-8.845C374.62,449.526,371.947,447.241,368.703,446.7L368.703,446.7z M323.479,487.089
	c-1.938,1.96-2.84,4.709-2.431,7.428l5.385,35.887l-32.715-16.175c-2.477-1.226-5.39-1.226-7.868,0l-32.717,16.175l5.386-35.887
	c0.408-2.719-0.492-5.469-2.431-7.428l-25.605-25.893l36.044-6.005c2.729-0.456,5.086-2.156,6.365-4.593l16.891-32.176
	l16.891,32.176c1.279,2.437,3.636,4.137,6.365,4.593l36.044,6.005L323.479,487.089z M558.92,446.7l-48.408-8.066l-22.686-43.213
	c-1.521-2.896-4.537-4.712-7.826-4.712c-3.29,0-6.305,1.815-7.826,4.712l-22.686,43.213L401.08,446.7
	c-3.244,0.541-5.917,2.826-6.933,5.933c-1.017,3.104-0.208,6.514,2.095,8.844l34.388,34.773l-7.231,48.198
	c-0.485,3.231,0.879,6.46,3.542,8.379c2.66,1.921,6.175,2.21,9.12,0.755L480,531.859l43.939,21.723
	c1.244,0.614,2.592,0.918,3.932,0.918c1.832,0,3.652-0.565,5.188-1.674c2.662-1.919,4.026-5.147,3.541-8.379l-7.23-48.198
	l34.388-34.773c2.304-2.33,3.112-5.74,2.096-8.845S562.164,447.241,558.92,446.7L558.92,446.7z M513.695,487.089
	c-1.938,1.96-2.839,4.709-2.431,7.428l5.384,35.887l-32.715-16.175c-1.239-0.611-2.586-0.918-3.934-0.918
	c-1.347,0-2.695,0.307-3.934,0.918l-32.715,16.175l5.384-35.887c0.408-2.719-0.492-5.469-2.431-7.428L420.7,461.196l36.044-6.005
	c2.729-0.456,5.086-2.156,6.365-4.593L480,418.424l16.892,32.177c1.278,2.437,3.636,4.136,6.365,4.592l36.043,6.005L513.695,487.089
	L513.695,487.089z M756.068,452.633c-1.017-3.106-3.688-5.392-6.932-5.933l-48.409-8.066l-22.687-43.213
	c-1.52-2.896-4.535-4.712-7.826-4.712c-3.289,0-6.305,1.815-7.824,4.712l-22.687,43.213l-48.409,8.066
	c-3.244,0.541-5.916,2.826-6.933,5.933c-1.017,3.104-0.208,6.514,2.096,8.844l34.389,34.773l-7.232,48.198
	c-0.485,3.231,0.88,6.46,3.541,8.379c2.66,1.921,6.177,2.21,9.12,0.755l43.939-21.723l43.938,21.723
	c1.245,0.614,2.592,0.918,3.932,0.918c1.832,0,3.653-0.565,5.188-1.674c2.661-1.919,4.025-5.147,3.541-8.379l-7.232-48.198
	l34.389-34.773C756.276,459.146,757.084,455.737,756.068,452.633z M703.912,487.089c-1.938,1.96-2.84,4.709-2.431,7.428
	l5.385,35.887l-32.717-16.175c-1.239-0.611-2.586-0.918-3.933-0.918c-1.349,0-2.696,0.307-3.934,0.918l-32.715,16.175l5.386-35.887
	c0.407-2.719-0.492-5.469-2.432-7.428l-25.605-25.893l36.044-6.005c2.73-0.456,5.087-2.156,6.365-4.593l16.892-32.176l16.892,32.176
	c1.278,2.437,3.635,4.137,6.365,4.593l36.044,6.005L703.912,487.089L703.912,487.089z M449.809,117.973
	c-3.199-3.651-2.809-9.185,0.869-12.359c3.678-3.174,9.252-2.789,12.45,0.863c4.267,4.872,10.416,7.666,16.873,7.666
	c6.456,0,12.607-2.794,16.872-7.666c3.197-3.652,8.771-4.039,12.45-0.863c3.678,3.175,4.065,8.708,0.869,12.359
	c-7.62,8.701-18.624,13.691-30.191,13.691S457.428,126.673,449.809,117.973z"/>
</svg>
