<?xml version="1.0" encoding="utf-8"?>
<!-- Generator: Adobe Illustrator 16.0.0, SVG Export Plug-In . SVG Version: 6.00 Build 0)  -->
<!DOCTYPE svg PUBLIC "-//W3C//DTD SVG 1.1//EN" "http://www.w3.org/Graphics/SVG/1.1/DTD/svg11.dtd">
<svg version="1.1" id="Layer_1" xmlns="http://www.w3.org/2000/svg" xmlns:xlink="http://www.w3.org/1999/xlink" x="0px" y="0px"
	 width="469.898px" height="636px" viewBox="0 0 469.898 636" enable-background="new 0 0 469.898 636" xml:space="preserve">
<path fill-rule="evenodd" clip-rule="evenodd" fill="#1D1D1B" d="M186.909,178.808c-4.687-2.946-8.081-4.954-11.35-7.152
	c-50.525-33.968-55.162-98.118-10.057-138.847C203.811-1.782,271.326-1.134,308.964,34.19
	c43.303,40.637,38.455,103.254-10.622,136.918c-3.279,2.249-6.711,4.277-10.192,6.484c2.549,4.35,7.154,4.021,10.951,5.136
	c18.806,5.523,37.946,11.441,53.334,23.382c19.943,15.473,36.138,24.131,55.316-1.807c8.445-11.419,23.462-7.653,34.096,3.896
	c9.784,10.624,10.246,22.737,0.674,33.809c-7.152,8.273-20.132,15.536-20.933,24.138c-0.81,8.745,10.622,18.309,15.839,27.97
	c82.286,152.427-29.34,338.449-202.243,337.175C120.657,630.449,25.741,546.166,9.655,431.035
	C-5.531,322.34,64.417,215.281,171.486,183.339C176.122,181.958,180.768,180.612,186.909,178.808z M429.865,402.061
	c-0.199-103.523-86.431-190.064-187.752-192.593c-100.892-2.52-197.196,76.509-198.804,191.975
	c-1.472,105.701,86.229,193.736,192.146,194.148C342.348,596.003,430.074,508.677,429.865,402.061z M195.983,141.268
	c-16.028-8.566-23.15-21.525-19.991-36.373c3.547-16.665,16.119-26.664,34.815-27.029c16.044-0.309,32.101-0.138,48.15-0.047
	c20.995,0.124,33.106,8.377,37.551,25.392c4.229,16.205-2.019,28.574-20.694,38.344c-7.167,3.75-7.664,7.61-4.271,13.871
	c42.072-20.75,53.266-63.166,25.822-95.396c-26.063-30.606-77.317-35.557-110.526-10.376
	c-17.903,13.576-28.161,31.466-25.537,54.406c2.856,24.986,17.773,41.2,40.524,51.711
	C202.788,144.905,202.788,144.905,195.983,141.268z M249.483,259.784c0-4.51,0.683-9.152-0.162-13.497
	c-1.239-6.359-5.554-10.842-12.13-11.616c-5.555-0.656-10.184,2.84-11.755,7.675c-3.595,11.051-3.763,22.578,0.156,33.604
	c1.849,5.199,6.961,6.774,12.471,6.289c5.746-0.509,9.425-3.977,10.809-9.046c1.16-4.244,0.779-8.913,1.08-13.391
	C249.794,259.796,249.638,259.79,249.483,259.784z M249.689,544.627c-0.068-8.509-3.094-15.082-12.598-15.35
	c-10.333-0.291-13.741,6.449-13.745,15.691c-0.003,6.016-0.23,12.044,0.1,18.039c0.452,8.232,5.834,13.695,13.233,13.578
	c7.355-0.118,12.571-5.631,12.965-13.913c0.145-3,0.024-6.014,0.036-9.021C249.695,550.644,249.715,547.635,249.689,544.627z
	 M336.485,493.59c-5.147-4.489-10.67-2.573-14.829,1.263c-4.697,4.332-7.031,10.204-2.054,15.929
	c5.884,6.764,11.974,13.431,18.634,19.405c3.979,3.573,9.569,3.326,14.061,0.451c3.841-2.461,6.652-6.173,5.301-14.829
	C354.534,507.697,345.009,501.027,336.485,493.59z M134.116,489.907c-8.969,4.73-15.853,12.333-21.355,20.383
	c-5.575,8.159,1.884,19.049,11.61,18.67c8.746-0.342,27.557-20.06,27.305-28.624C151.392,490.717,142.717,485.366,134.116,489.907z
	 M112.779,299.394c5.341,8.867,12.525,16.986,21.943,21.807c8.234,4.216,18.441-2.608,18.32-11.26
	c-0.105-7.429-20.933-27.888-28.509-28C115.419,281.803,108.116,291.647,112.779,299.394z M361.768,295.626
	c0.147-4.88-1.898-8.779-5.919-11.307c-4.574-2.873-9.572-3.031-13.722,0.639c-6.305,5.576-12.595,11.263-18.151,17.554
	c-3.421,3.874-3.824,9.173-1.236,14.024c2.236,4.188,6.057,6.366,10.322,7.222C340.879,323.816,361.536,303.331,361.768,295.626z
	 M382.857,420.892c2.984,0,5.973,0.068,8.957-0.012c8.482-0.221,14.648-3.556,14.981-12.889
	c0.358-10.104-6.531-12.268-14.837-12.309c-6.47-0.032-12.937,0.009-19.406,0.012c-7.768,0-12.912,4.538-13.109,11.511
	c-0.212,7.506,4.541,12.948,12.98,13.354c3.47,0.168,6.955,0.026,10.434,0.026C382.857,420.688,382.857,420.792,382.857,420.892z
	 M88.678,420.589c3.972,0,7.958,0.224,11.91-0.047c8.203-0.565,13.336-5.701,12.917-13.308c-0.375-6.767-5.355-11.614-13.188-11.54
	c-7.944,0.073-15.911-0.142-23.828,0.376c-6.175,0.406-10.005,3.998-10.346,10.529c-0.354,6.808,2.717,11.708,9.211,13.444
	c4.231,1.131,8.858,0.789,13.305,1.107C88.666,420.963,88.672,420.774,88.678,420.589z M243.955,391.259v-78.708h-17.818v78.708
	c-8.995,3.552-15.37,12.314-15.37,22.578s6.375,19.028,15.37,22.578v19.282h17.818v-19.282c9.02-3.55,15.392-12.314,15.392-22.578
	S252.974,394.811,243.955,391.259L243.955,391.259z M243.955,391.259"/>
</svg>
