<?xml version="1.0" encoding="utf-8"?>
<!-- Generator: Adobe Illustrator 16.0.0, SVG Export Plug-In . SVG Version: 6.00 Build 0)  -->
<!DOCTYPE svg PUBLIC "-//W3C//DTD SVG 1.1//EN" "http://www.w3.org/Graphics/SVG/1.1/DTD/svg11.dtd">
<svg version="1.1" id="Layer_1" xmlns="http://www.w3.org/2000/svg" xmlns:xlink="http://www.w3.org/1999/xlink" x="0px" y="0px"
	 width="311.333px" height="400px" viewBox="0 0 311.333 400" enable-background="new 0 0 311.333 400" xml:space="preserve">
<g>
	<defs>
		<rect id="SVGID_1_" x="11.139" y="10.667" width="290.222" height="380.665"/>
	</defs>
	<clipPath id="SVGID_2_">
		<use xlink:href="#SVGID_1_"  overflow="visible"/>
	</clipPath>
	<path clip-path="url(#SVGID_2_)" fill="#ABABAB" d="M301.344,133.986c0-1.379,0-2.759,0-4.438c-2.7,0-4.875,0-7.05,0
		c-32.428,0.003-64.855,0.025-97.285,0.001c-11.47-0.008-18.794-7.389-18.8-18.863c-0.012-21.491,0.008-42.981,0.012-64.471
		c0.002-11.684,0.001-23.367,0.001-35.535c-1.53,0-2.417,0-3.304,0c-48.643-0.005-97.286-0.028-145.929,0.001
		c-10.736,0.007-17.719,7.376-17.719,18.525c0,114.143,0.107,228.285-0.131,342.427c-0.025,12.23,8.471,19.731,19.948,19.699
		c83.516-0.232,167.033-0.114,250.55-0.125c12.944-0.001,19.717-6.781,19.718-19.797
		C301.367,292.269,301.352,213.128,301.344,133.986"/>
	<path clip-path="url(#SVGID_2_)" fill="#ABABAB" d="M205.638,120.788c30.351,0.013,60.7,0.004,91.051,0.004h3.351
		c0.111-0.306,0.225-0.611,0.336-0.917c-37.218-36.083-74.439-72.166-112.499-109.062v4.985c0,29.063-0.019,58.128,0.01,87.191
		C187.897,114.895,193.796,120.783,205.638,120.788"/>
</g>
<circle fill="#FFFFFF" cx="157.987" cy="285.527" r="70.271"/>
<g>
	<defs>
		<rect id="SVGID_3_" x="116.56" y="251.655" width="82.854" height="67.745"/>
	</defs>
	<clipPath id="SVGID_4_">
		<use xlink:href="#SVGID_3_"  overflow="visible"/>
	</clipPath>
	<path clip-path="url(#SVGID_4_)" fill="#E76048" d="M150.352,319.4c-11.296-9.498-22.511-18.928-33.792-28.413
		c3.086-3.701,6.101-7.319,9.184-11.017c7.606,6.391,15.153,12.734,22.783,19.147c1.345-1.603,2.634-3.128,3.913-4.66
		c11.69-14.013,23.378-28.025,35.066-42.037c0.827-0.991,0.838-0.993,1.824-0.167c3.194,2.678,6.384,5.361,9.58,8.038
		c0.117,0.099,0.265,0.162,0.503,0.307C183.017,280.25,166.729,299.771,150.352,319.4"/>
</g>
</svg>
