<?xml version="1.0" standalone="no"?>
<!DOCTYPE svg PUBLIC "-//W3C//DTD SVG 1.1//EN" "http://www.w3.org/Graphics/SVG/1.1/DTD/svg11.dtd">
<svg xmlns="http://www.w3.org/2000/svg">
<metadata>Generated by Fontastic.me</metadata>
<defs>
<font id="lavishly" horiz-adv-x="512">
<font-face font-family="lavishly" units-per-em="512" ascent="480" descent="-32"/>
<missing-glyph horiz-adv-x="512" />

<glyph glyph-name="telephone" unicode="&#97;" d="M125 180c45-54 99-96 160-126 24-11 55-24 90-26 2 0 4-1 6-1 23 0 42 9 58 25 0 0 0 0 0 1 5 6 12 12 18 18 5 5 9 9 13 14 20 20 20 47 0 67l-56 57c-10 10-21 15-33 15-12 0-24-5-34-15l-34-34c-3 2-6 4-9 5-4 2-7 4-10 6-31 19-59 45-85 77-14 17-23 31-29 46 9 8 17 16 25 25 3 2 6 5 9 8 10 10 15 22 15 34 0 12-5 24-15 34l-28 28c-4 3-7 6-10 10-6 6-13 13-19 19-10 9-21 14-33 14-12 0-23-5-34-14l-35-36c-12-12-20-28-21-46-2-22 2-46 13-75 16-45 41-86 78-130z m-68 203c1 13 6 23 15 32l35 35c5 5 11 8 17 8 6 0 12-3 17-8 6-6 12-12 18-18 4-4 7-7 10-10l28-28c6-6 9-12 9-18 0-6-3-12-9-18-3-3-6-6-8-8-9-9-17-18-26-26-1 0-1 0-1 0-8-8-6-15-5-21 1 0 1 0 1-1 7-17 17-34 33-53 28-35 58-62 90-83 4-3 9-5 13-7 4-2 7-3 10-5 0-1 1-1 1-1 3-2 6-2 9-2 8 0 13 4 14 6l35 35c6 6 12 9 18 9 7 0 13-5 16-9l57-56c11-12 11-24 0-36-4-4-8-8-13-12-6-7-13-13-19-21-11-11-24-17-41-17-1 0-3 0-5 0-31 2-59 14-81 25-58 28-110 68-152 119-35 42-59 82-74 124-10 26-14 46-12 65z"/>
<glyph glyph-name="search" unicode="&#98;" d="M193 143c-96 0-175 79-175 175 0 97 79 176 175 176 97 0 176-79 176-176 0-96-79-175-176-175z m0 319c-79 0-143-65-143-144 0-78 64-143 143-143 79 0 144 65 144 143 0 79-65 144-144 144z m299-420l-112 112c-6 7-16 7-22 0-7-6-7-16 0-22l111-112c7-6 16-6 23 0 6 6 6 16 0 22z"/>
<glyph glyph-name="user" unicode="&#99;" d="M255 229c-73 0-133 59-133 131 0 72 60 131 133 131 74 0 133-58 133-131 0-72-59-131-133-131z m0 228c-54 0-98-44-98-97 0-53 44-96 98-96 54 0 98 43 98 96 0 53-44 97-98 97z m232-432l-462 0c-10 0-18 7-18 17 0 91 75 164 167 164l164 0c92 0 167-74 167-164 0-10-8-17-18-17z m-149 147l-164 0c-67 0-122-50-131-113l426 0c-9 64-64 113-131 113z"/>
<glyph glyph-name="share" unicode="&#100;" d="M381 199c-33 0-62-17-78-43l-99 57c6 13 10 27 10 43 0 9-2 18-4 27l103 59c17-18 41-30 68-30 51 0 92 42 92 94 0 52-41 94-92 94-51 0-93-42-93-94 0-10 2-19 5-27l-103-60c-17 19-41 30-68 30-51 0-93-42-93-93 0-52 42-94 93-94 21 0 40 7 56 19l-1-1 112-65c0-3-1-6-1-10 0-51 42-94 93-94 51 0 92 43 92 94 0 52-41 94-92 94z m0 263c30 0 55-25 55-56 0-31-25-57-55-57-31 0-56 26-56 57 0 31 25 56 56 56z m-259-263c-31 0-56 25-56 57 0 31 25 56 56 56 30 0 55-25 55-56 0-32-25-57-55-57z m259-150c-31 0-56 25-56 56 0 31 25 57 56 57 30 0 55-26 55-57 0-31-25-56-55-56z"/>
<glyph glyph-name="heart" unicode="&#102;" d="M135 495c35 0 64-12 86-33 14-14 25-31 33-50 9 19 20 36 34 50 22 21 50 33 85 33 37 0 70-15 94-40 23-25 38-59 38-96 0-64-68-140-117-193-8-10-16-19-24-27l-100-118c-5-5-13-6-18-1 0 1-1 1-1 1l-101 118c-6 7-15 17-24 27-49 53-117 128-117 193 0 37 15 71 39 96 24 25 57 40 93 40z m69-52c-18 16-40 26-69 26-29 0-56-12-75-32-19-20-31-48-31-78 0-55 64-125 109-175 9-10 18-19 25-28l91-107 92 107c6 8 15 17 24 27 46 51 110 121 110 176 0 30-12 58-31 78-19 20-46 32-76 32-28 0-51-10-68-26-19-18-32-45-38-77-1-5-5-10-10-11-7-1-14 3-15 10-6 33-19 60-38 78z"/>
<glyph glyph-name="market" unicode="&#103;" d="M161 222c-5 0-9-4-9-9 0-5 4-8 9-8 5 0 9 4 9 9 0 5-4 9-9 8z m0 0c-5 0-9-4-9-9 0-5 4-8 9-8 5 0 9 4 9 9 0 5-4 9-9 8z m312 134c0 3 0 6-1 9-13 38-26 75-39 113-6 14-22 26-37 26-99 0-198 0-297 0-13 0-33-11-39-26-14-37-28-75-42-112-1-3-2-6-2-9 0-6 0-12 0-18 0-22 7-43 22-59 3-3 4-6 4-10 0-42 0-83 0-125 0-2 0-4 0-6-5 0-9 0-12 0-9 0-14-5-14-13 0-17 0-33 0-49 0-8 6-13 13-13 5 0 10 0 15 0 91 0 182 0 273 0-2 9-4 18-5 27l-269 0 0 21 269 0c1 6 1 12 3 19l-119 0c0 2 0 3 0 5 0 43 0 86 0 129 0 5 1 6 6 7 5 1 10 3 15 4 1-2 1-4 1-6 0-35 0-70 0-104 0-12 2-14 14-14 29 0 59 0 89 0 3 6 6 12 9 18l-94 0c0 2 0 4 0 6 0 36 0 71-1 107 0 8 4 13 9 19 14-18 31-31 55-31 23 0 41 11 55 31 6-11 14-18 24-24 1-1 3-3 3-5 0-18 0-36 0-54 5 3 11 6 17 8l0 43c8 1 14 1 21 1l0-38c9 2 18 3 27 3 0 0 1 0 1 0 0 12 0 24 0 36 0 2 1 4 3 6 8 8 14 19 18 30 6 16 5 32 5 48z m-293 122c17-1 34 0 50 0 2 0 3-1 5-1l0-109-90 0c2 7 4 13 6 20 8 28 15 56 23 85 1 3 2 5 6 5z m-116-69c7 20 14 39 21 59 2 5 6 9 12 9 19 1 39 1 59 1-2-8-3-14-5-21-8-28-16-56-23-84-1-4-3-5-7-5-22 0-44 0-65 0l-7 0c5 14 10 28 15 41z m-9-110c-6 7-10 16-11 25-1 9-1 17-2 26l83 0c0-13 2-25-4-37-11-26-48-33-66-14z m35-168l-21 0 0 141c7-1 14-1 21-2l0-139z m88 2c0 0 0-1 0-3l-70 0c0 2 0 4 0 6 0 45 0 90 0 135 0 4 2 6 5 8 8 7 15 14 23 21 5-5 10-11 16-16 7-4 15-7 22-11 3-1 5-2 5-5-1-45 0-90-1-135z m40 165c-14-11-35-13-52-3-21 12-24 32-22 55l90 0c5-18-2-41-16-52z m36 179c1 0 2 1 4 1 18 0 37 0 55 0 3 0 4-1 5-4 9-34 17-69 25-104 0 0 0-1 0-2l-90 0 0 109z m44-188c-24-1-44 19-44 44 0 5 0 11 0 17l91 0c5-36-13-60-47-61z m64 84c-6 24-12 48-18 72-3 10-5 21-8 32 2 0 4 1 5 1 18 0 35 0 52 0 9 0 12-2 15-11 10-31 20-62 31-93 0-2 1-4 1-6-25 0-50 0-74 0-2 0-4 3-4 5z m72-74c-17-18-53-12-65 11-7 12-6 26-6 40l83 0c1-18 1-36-12-51z m-273-77c-5 0-9-4-9-9 0-5 4-8 9-8 5 0 9 4 9 9 0 5-4 9-9 8z m0 0c-5 0-9-4-9-9 0-5 4-8 9-8 5 0 9 4 9 9 0 5-4 9-9 8z m0 0c-5 0-9-4-9-9 0-5 4-8 9-8 5 0 9 4 9 9 0 5-4 9-9 8z m293-61c0-14 0-27 0-40 5-2 9-3 14-5 27-9 33-31 28-54-5-19-19-29-37-34-2 0-3 0-5-1 0-6 0-12 0-19-5 0-10 0-15 0 0 6 0 12 0 19-26 4-40 20-44 45 9 2 18 2 27 3 3-9 7-18 17-22 0 14 0 28 0 42-6 3-13 6-19 9-15 9-23 27-20 45 2 17 14 30 31 34 2 1 5 1 8 2 0 3 0 6 0 10 5 0 10 0 15 0 0-3 0-7 0-10 13-2 24-7 32-17 4-6 6-13 7-20-9-1-17-2-26-3-2 7-5 13-13 16z m0-110c11 2 18 11 18 22-1 9-8 17-18 18 0-12 0-25 0-37 0-1 0-2 0-3z m-15 110c-8-2-14-10-13-18 0-6 5-15 13-16 0 11 0 23 0 34z"/>
<glyph glyph-name="dealer" unicode="&#104;" d="M80 78c0 38 0 75 0 112-22 22-44 43-66 65 22 21 44 43 66 64 0 37 0 74 0 111 37 0 74 0 110 0 22 21 44 43 66 64 22-21 44-42 66-64 25 0 50 0 75 0 0-11 0-23 0-35-30 0-60 0-90 0-17 16-33 32-51 49-17-17-34-33-51-49-29 0-59 0-89 0 0-31 0-61 0-91-17-16-33-33-50-49 17-17 33-33 50-49 0-31 0-61 0-92 30 0 60 0 90 0 16-16 33-33 50-50 17 17 34 33 51 50 30 0 59 0 89 0 0 30 0 61 0 93 16 15 32 31 49 47-13 13-26 25-40 38 8 8 16 17 25 26 22-21 44-42 67-63-22-21-44-42-64-62 0-40 0-77 0-115-38 0-74 0-111 0-22-21-43-42-66-64-22 21-44 43-66 64-36 0-73 0-110 0z m236 113c-15-15-34-23-56-25-36-2-71 21-85 55-14 35-5 74 24 99 15 13 32 20 51 21 25 2 46-5 64-21 8 9 16 17 24 26-32 32-95 45-146 13-55-34-74-102-47-159 27-56 93-83 153-62 29 10 51 29 66 55 9 16 14 32 15 50-12 1-23 2-35 3-3-22-12-40-28-55z m162 209c-7 8-15 16-24 25-61-61-122-122-185-184-16 16-32 33-48 49-8-8-16-17-24-24 24-25 49-50 73-74 70 70 139 139 208 208z"/>
<glyph glyph-name="calender" unicode="&#105;" d="M404 452c20 0 40 0 60 1 24 1 38-18 38-38 0-119 0-238 0-357 0-21-15-38-38-38-138 1-277 1-415 0-22 0-37 17-37 38 0 119 0 238 0 358 0 19 13 38 37 37 17-1 35-1 52-1 3 0 5 0 9 0 0 4 0 8 0 11 1 17 14 29 30 29 16-1 28-14 28-31 0-2 0-5 0-8 59 0 117 0 177 0 0 3 0 7 0 10 0 15 12 28 27 29 15 1 28-10 31-25 1-4 1-9 1-15z m-236-19c0-11 0-21 0-30 0-15-12-28-27-29-15-1-29 10-30 25-1 8-1 17-1 26 0 2 0 5 0 8-23 0-44 0-66 0-3 0-8-4-10-7-3-3-3-9-3-13 0-117 0-235 0-352 0-17 5-21 21-21 137 0 274 0 411 0 15 0 20 5 20 20 0 118 0 236 0 354 0 1 0 3 0 5-1 9-7 14-16 14-17 0-33 0-50 0-4 0-8 0-13 0 0-10 0-20 0-29-1-17-14-30-30-30-16 1-28 14-28 31 0 9 0 18 0 28-60 0-119 0-178 0z m-39 0c0-9 0-19 0-29 0-6 5-11 10-11 6 0 10 5 10 11 0 19 0 38 0 57 0 7-4 12-10 12-6-1-10-5-10-12 0-9 0-18 0-28z m255 0c0 9 0 18 0 27 0 8-3 12-10 13-5 0-10-5-10-13 0-18 0-36 0-55 0-7 5-12 10-12 6 0 10 5 10 12 0 9 0 19 0 28z m-313-235c0 9-1 18 0 26 0 9 3 12 11 12 19 0 37 0 55 0 8 0 12-3 12-11 0-19 0-37 0-55 0-9-4-12-13-12-18 0-35 0-53 0-9 0-12 4-12 12 0 9 0 19 0 28z m19 18c0-13 0-25 0-38 13 0 26 0 39 0 0 13 0 26 0 38-13 0-26 0-39 0z m20-78c9 0 18 0 26 0 9 0 13-3 13-12 0-18 0-36 0-54 0-9-4-12-13-12-17 0-35 0-53 0-9 0-12 3-13 13 0 17 0 35 0 52 0 10 4 13 13 13 9 0 18 0 27 0z m19-19c-13 0-26 0-39 0 0-14 0-27 0-39 14 0 26 0 39 0 0 13 0 25 0 39z m274 39c-9 0-17 0-26 0-9 0-12 3-12 12 0 18 0 36 0 55 0 8 3 11 11 11 19 0 37 0 55 0 8 0 12-4 12-12 0-18 0-36 0-55 0-7-4-11-12-11-9 0-19 0-28 0z m20 20c0 13 0 26 0 38-13 0-26 0-38 0 0-13 0-25 0-38 12 0 25 0 38 0z m-20 156c10 0 19 0 28 0 8 0 12-3 12-11 0-18 0-37 0-55 0-8-4-12-11-12-19 0-38 0-56 0-8 0-11 4-11 11 0 19 0 37 0 56 0 8 3 11 11 11 9 0 19 0 27 0z m-19-58c14 0 26 0 39 0 0 13 0 26 0 39-13 0-26 0-39 0 0-13 0-26 0-39z m-39-177c0-9 0-19 0-28 0-8-4-11-11-11-19 0-38 0-57 0-7 0-10 4-10 11 0 19 0 37 0 56 0 7 3 11 10 11 19 0 38 0 57 0 7 0 11-4 11-11 0-9 0-19 0-28z m-59 20c0-14 0-27 0-39 13 0 26 0 39 0 0 13 0 25 0 39-13 0-25 0-39 0z m-117-20c0 9 0 19 0 28 0 8 3 11 11 11 19 0 37 0 55 0 8 0 12-4 12-11 0-19 0-37 0-56 0-7-4-11-12-11-18 0-37 0-55 0-8 0-11 4-11 11 0 9 0 19 0 28z m58-20c0 14 0 27 0 39-13 0-26 0-38 0 0-13 0-26 0-39 12 0 25 0 38 0z m-58 118c0 10 0 19 0 28 0 8 3 11 11 11 18 1 37 1 56 0 7 0 11-3 11-11 0-18 0-37 0-56 0-7-4-11-12-11-18 0-37 0-55 0-8 0-11 4-11 12 0 9 0 18 0 27z m58-20c0 14 0 27 0 39-13 0-26 0-38 0 0-13 0-26 0-39 12 0 25 0 38 0z m79-19c-9 0-19 0-28 0-8 0-11 4-11 11 0 19 0 37 0 56 0 8 3 11 11 11 18 0 37 0 56 0 7 0 10-3 11-11 0-19 0-37 0-56 0-8-4-11-12-11-9 0-18 0-27 0z m-20 59c0-14 0-26 0-39 13 0 26 0 39 0 0 13 0 25 0 39-13 0-26 0-39 0z m19 117c10 0 19 0 28 0 8 0 12-3 12-11 0-18 0-37 0-55 0-8-3-11-11-12-19 0-38 0-56 0-8 0-11 4-11 11 0 19 0 37 0 56 0 8 3 11 11 11 9 0 18 0 27 0z m20-58c0 13 0 26 0 39-13 0-26 0-39 0 0-13 0-26 0-39 13 0 26 0 39 0z"/>
<glyph glyph-name="listing" unicode="&#101;" d="M313 294c-50 0-101 0-152 0-5 0-10 0-15 1-12 2-19 11-18 23 0 12 8 21 20 23 3 0 5 0 8 0 106 0 212 0 318 0 4 0 8 0 12-2 10-3 16-12 16-22 0-11-7-19-17-22-4-1-9-1-13-1-53 0-106 0-159 0z m62-234c27 0 53 0 80 0 14 0 24 10 23 24 0 14-10 23-28 23-98 0-195 0-293 0-3 0-7 0-10-1-13-2-21-12-20-25 1-13 11-21 26-21 50 0 99 0 149 0 24 0 49 0 73 0z m-126 398c-32 0-65 0-98 0-14 0-23-9-24-23 0-13 8-23 22-24 4 0 8 0 12 0 87 0 175 0 262 0 5 0 10-1 14 1 6 3 12 7 15 12 9 16-2 34-21 34-47 0-93 0-140 0-13 0-28 0-42 0z m-96-234c-15 0-26-10-26-23 0-15 10-24 26-24 84 0 168 0 251 0 17 0 28 9 28 24 0 14-11 23-28 23-2 0-3 0-5 0-39 0-79 0-119 0-43 0-85 0-127 0z m-108-164c4 0 9-1 14 0 12 1 21 10 21 22 1 12-7 23-19 24-10 1-21 1-32 0-12-1-20-13-19-25 1-11 9-20 21-21 5-1 9 0 14 0 0 0 0 0 0 0z m-12 398c-13-1-23-10-23-23 0-11 8-22 20-23 10-2 21-2 31 0 13 1 20 11 20 24-1 13-10 21-23 22-4 0-8 0-12 0-5 0-9 0-13 0z m13-117c-5 0-10 0-15 0-12-2-20-11-21-22-1-12 7-23 19-24 11-2 21-2 31-1 13 1 21 12 20 25 0 11-9 21-21 22-5 0-9 0-13 0 0 0 0 0 0 0z m0-164c4 0 8 0 12 0 13 1 22 10 22 23 1 12-8 22-21 23-9 1-18 1-27 1-13-1-22-12-22-24 0-12 9-22 22-23 4-1 9-1 14-1 0 1 0 1 0 1z"/>
<glyph glyph-name="quotes" unicode="&#106;" d="M418 384c6 2 9 2 9 2l0-36c-37-8-66-38-71-76-1-11 7-20 18-20l97 0 0-125-151 0 0 134c0 59 42 109 98 121z m-134-273c0-9 8-17 18-17l187 0c10 0 18 8 18 17l0 161c0 9-8 17-18 17l-91 0c10 16 27 27 47 27 9 0 17 8 17 18l0 71c0 10-8 18-17 18-89 0-161-72-161-160l0-152z m-142 273c6 2 9 2 9 2l0-36c-37-8-66-38-71-76-1-11 7-20 18-20l97 0 0-125-151 0 0 134c0 59 42 109 98 121z m-133-273c0-9 8-17 17-17l187 0c10 0 18 8 18 17l0 161c0 9-8 17-18 17l-91 0c10 16 27 27 47 27 10 0 18 8 18 18l0 71c0 10-8 18-18 18-89 0-160-72-160-160z"/>
<glyph glyph-name="calender-o" unicode="&#107;" d="M166 275c-5 0-10 4-10 10 0 6 5 10 10 10 6 0 10-4 10-10 0-6-4-10-10-10z m61 0c-6 0-10 4-10 10 0 6 4 10 10 10 5 0 10-4 10-10 0-6-5-10-10-10z m60 0c-5 0-10 4-10 10 0 6 5 10 10 10 6 0 10-4 10-10 0-6-4-10-10-10z m-181-61c-6 0-10 5-10 11 0 5 4 10 10 10 5 0 10-5 10-10 0-6-5-11-10-11z m60 0c-5 0-10 5-10 11 0 5 5 10 10 10 6 0 10-5 10-10 0-6-4-11-10-11z m61 0c-6 0-10 5-10 11 0 5 4 10 10 10 5 0 10-5 10-10 0-6-5-11-10-11z m60 0c-5 0-10 5-10 11 0 5 5 10 10 10 6 0 10-5 10-10 0-6-4-11-10-11z m121 0c-6 0-10 5-10 11 0 5 4 10 10 10 5 0 10-5 10-10 0-6-5-11-10-11z m-61 61c-5 0-10 4-10 10 0 6 5 10 10 10 6 0 11-4 11-10 0-6-5-10-11-10z m61 0c-6 0-10 4-10 10 0 6 4 10 10 10 5 0 10-4 10-10 0-6-5-10-10-10z m-302-121c-6 0-10 5-10 10 0 6 4 10 10 10 5 0 10-4 10-10 0-5-5-10-10-10z m60 0c-5 0-10 5-10 10 0 6 5 10 10 10 6 0 10-4 10-10 0-5-4-10-10-10z m61 0c-6 0-10 5-10 10 0 6 4 10 10 10 5 0 10-4 10-10 0-5-5-10-10-10z m60 0c-5 0-10 5-10 10 0 6 5 10 10 10 6 0 10-4 10-10 0-5-4-10-10-10z m60 0c-5 0-10 5-10 10 0 6 5 10 10 10 6 0 11-4 11-10 0-5-5-10-11-10z m61 0c-6 0-10 5-10 10 0 6 4 10 10 10 5 0 10-4 10-10 0-5-5-10-10-10z m-302-60c-6 0-10 4-10 10 0 5 4 10 10 10 5 0 10-5 10-10 0-6-5-10-10-10z m60 0c-5 0-10 4-10 10 0 5 5 10 10 10 6 0 10-5 10-10 0-6-4-10-10-10z m61 0c-6 0-10 4-10 10 0 5 4 10 10 10 5 0 10-5 10-10 0-6-5-10-10-10z m60 0c-5 0-10 4-10 10 0 5 5 10 10 10 6 0 10-5 10-10 0-6-4-10-10-10z m60 100c-16 0-30 14-30 31 0 16 14 30 30 30 17 0 31-14 31-30 0-17-14-31-31-31z m0 41c-5 0-10-5-10-10 0-6 5-11 10-11 6 0 11 5 11 11 0 5-5 10-11 10z m111-222l-402 0c-23 0-41 18-41 40l0 363c0 22 18 40 41 40l20 0 0 10c0 17 13 30 30 30 17 0 30-13 30-30l0-10 242 0 0 10c0 17 13 30 30 30 17 0 30-13 30-30l0-10 20 0c22 0 41-18 41-40l0-363c0-22-19-40-41-40z m-342 423l0 30c0 6-5 10-10 10-6 0-10-4-10-10l0-40c0-6 4-10 10-10 5 0 10 4 10 10z m302 0l0 30c0 6-5 10-10 10-6 0-10-4-10-10l0-40c0-6 4-10 10-10 5 0 10 4 10 10z m60-20c0 11-9 20-20 20l-20 0 0-10c0-17-13-30-30-30-17 0-30 13-30 30l0 10-242 0 0-10c0-17-13-30-30-30-17 0-30 13-30 30l0 10-20 0c-12 0-21-9-21-20l0-40 443 0z m0-60l-443 0 0-303c0-11 9-20 21-20l402 0c11 0 20 9 20 20z"/>
<glyph glyph-name="event" unicode="&#108;" d="M84 26c-21 0-40 8-55 22-14 15-22 34-22 54l0 277c0 21 8 40 22 54 15 14 34 22 55 22l62 0c1 0 1 1 1 1l0 15c0 5 1 8 4 11 3 3 6 4 11 4 4 0 8-1 10-4 3-3 4-6 4-11l0-15c0 0 1-1 1-1l156 0c0 0 1 1 1 1l0 15c0 5 1 8 4 11 2 3 6 4 10 4 5 0 8-1 11-4 3-3 4-6 4-11l0-15c0 0 0-1 1-1l62 0c21 0 40-8 55-22 14-14 22-33 22-54l0-277c0-20-8-39-22-54-15-14-34-22-55-22l-342 0m-48 276l0-200c0-6 2-12 4-18 3-5 6-10 11-15 4-4 9-7 15-10 6-2 12-4 18-4l342 0c6 0 12 2 18 4 6 3 11 6 15 10 5 5 8 10 11 15 2 6 4 12 4 18l0 200c0 1-1 1-1 1l-436 0c0 0-1 0-1-1m30 120c-6-2-11-6-15-10-5-4-8-9-11-15-2-6-4-12-4-18l0-46c0 0 1-1 1-1l436 0c0 0 1 1 1 1l0 46c0 6-2 12-4 18-3 6-6 11-11 15-4 4-9 8-15 10-6 3-12 4-18 4l-62 0c0 0-1 0-1-1l0-15c0-4-1-8-4-11-3-2-6-4-11-4-4 0-8 2-10 4-3 3-4 7-4 11l0 15c0 1-1 1-1 1l-156 0c0 0-1 0-1-1l0-15c0-4-1-8-4-11-2-2-6-4-10-4-5 0-8 2-11 4-3 3-4 7-4 11l0 15c0 1 0 1-1 1l-62 0c-6 0-12-1-18-4"/>
<glyph glyph-name="ticket" unicode="&#109;" d="M139 12c-39 0-70 29-70 64 0 0 0 1 0 1 0 0 0 0 0 0 0 1 27 316 27 316 1 7 6 12 12 12l55 0c1 0 1 0 1 1 0 12 3 25 8 36 5 12 11 22 20 30 8 9 18 16 29 21 11 5 23 7 35 7 12 0 24-2 35-7 11-5 21-12 29-21 9-8 16-18 20-30 5-11 8-24 8-36 0-1 0-1 1-1l55 0c3 0 6-1 8-4 2-2 4-5 4-8l27-316c0 0 0 0 0 0 0 0 0 0 0-1 0-35-31-64-70-64l-234 0m-20 367l-26-303c0 0 0 0 0 0 0-11 5-20 14-28 8-7 20-11 32-11l234 0c12 0 24 4 32 11 9 8 14 17 14 28 0 0 0 0 0 0l-26 303c0 0-1 0-1 0l-43 0c-1 0-1 0-1-1l0-41c0-3-1-6-4-9-2-2-5-3-8-3-4 0-7 1-9 3-2 3-3 6-3 9l0 41c0 1-1 1-1 1l-134 0c0 0-1 0-1-1l0-41c0-3-1-6-3-9-3-2-6-3-9-3-3 0-6 1-8 3-3 3-4 6-4 9l0 41c0 1 0 1-1 1l-43 0c-1 0-1 0-1 0m90 75c-13-13-20-30-21-48 0 0 0 0 0 0 0-1 0-1 1-1 0 0 0 0 0 0l134 0c0 0 0 0 0 0 1 0 1 0 1 1 0 0 0 0 0 0-1 18-8 35-21 48-12 14-29 21-47 21-18 0-35-7-47-21"/>
<glyph glyph-name="motorcycle" unicode="&#110;" d="M429 265c-15 0-29-3-41-10l-21 28c27 20 55 29 58 30 3 1 5 3 6 6 2 3 2 6 0 9-37 77-94 84-96 84-5 1-9-2-11-6-2-4-1-9 2-12 6-7 9-15 8-24 0-4-1-8-3-12-62 20-102-9-116-22-35 12-66 19-93 19-42 0-60-15-62-17-3-3-4-7-3-11 1-4 4-7 8-8 41-7 69-21 88-37l-25-30c-13 9-29 13-45 13-46 0-83-37-83-82 0-46 37-83 83-83 46 0 83 37 83 83 0 21-8 40-22 55l25 29c35-42 28-91 27-94 0-4 1-7 3-9 2-3 5-4 8-4l97 0c4 0 7 1 9 4 2 2 3 5 2 8-7 43 12 75 35 97l21-27c-15-15-25-36-25-59 0-46 37-83 83-83 46 0 83 37 83 83 0 45-37 82-83 82z m-110 74c-10-14-24-26-34-33-16 8-32 15-47 21 15 11 42 23 81 12z m-175-156c0-34-27-61-61-61-34 0-61 27-61 61 0 33 27 61 61 61 11 0 21-3 30-9l-38-45 16-14 39 45c9-10 14-24 14-38z m148-1l-73 0c0 32-8 116-114 150 5 0 11 1 17 1 29 0 80-9 159-50 4-1 8-1 11 1 3 2 59 41 64 83 0 6 0 10-1 15 15-8 35-23 51-53-32-13-120-58-114-147z m137-60c-34 0-61 27-61 61 0 16 6 30 16 41l36-48 18 13-36 48c8 4 17 7 27 7 34 0 61-28 61-61 0-34-27-61-61-61z"/>
<glyph glyph-name="paint-brush" unicode="&#111;" d="M505 492c-15 15-44 7-93-26-41-28-90-70-139-118-72-72-127-143-145-187-3 1-6 2-9 3-19 4-40-1-57-13-24-18-30-42-31-46-5-19-15-38-28-53-4-5-4-12 1-17 17-15 39-22 61-22 22 0 44 7 64 21 9 6 17 14 18 15 17 18 24 42 20 64 43 15 118 72 193 147 49 49 91 98 119 140 32 48 41 78 26 92z m-376-426c0-1-6-7-14-13-27-20-61-22-86-7 11 16 20 34 25 53 0 0 0 0 0 0 0 1 4 19 22 32 12 8 26 12 38 9 10-2 19-8 24-16 11-17 7-42-9-58z m30 69c0 1-4 8-10 14 5 15 18 36 35 60l38-37c-26-19-48-31-63-37z m82 51l-42 43c7 9 15 19 24 29l47-48c-10-9-20-16-29-24z m214 222c-27-39-66-86-112-131-19-19-37-36-55-51l-50 50c16 18 34 36 52 55 45 45 91 85 130 112 48 33 65 33 68 32 0-3 0-19-33-67z m-336-310c-6 3-13 1-16-5 0 0-1-1-1-1-1-1-4-4-7-6-5-4-10-6-15-7-6-2-10-9-8-15 1-5 6-9 11-9 1 0 2 0 3 0 8 3 16 6 23 11 4 3 10 9 10 9 2 2 4 4 5 7 3 5 1 13-5 16z"/>
<glyph glyph-name="clock" unicode="&#112;" d="M437 437c-48 48-113 75-181 75-68 0-133-27-181-75-48-48-75-113-75-181 0-68 27-133 75-181 48-48 113-75 181-75 68 0 133 27 181 75 48 48 75 113 75 181 0 68-27 133-75 181z m-181-417c-130 0-236 106-236 236 0 130 106 236 236 236 130 0 236-106 236-236 0-130-106-236-236-236z m0 452c-119 0-216-97-216-216 0-119 97-216 216-216 119 0 216 97 216 216 0 119-97 216-216 216z m174-305l-29 17c-5 3-11 1-14-3-3-5-1-12 3-14l30-17c-15-23-35-43-58-58l-17 30c-2 4-9 6-14 3-4-3-6-9-3-14l17-29c-24-12-51-20-79-21l0 34c0 5-4 10-10 10-6 0-10-5-10-10l0-34c-28 1-55 9-79 21l17 29c3 5 1 11-3 14-5 3-12 1-14-3l-17-30c-23 15-43 35-58 58l30 17c4 2 6 9 3 14-3 4-9 6-14 3l-29-17c-12 24-20 51-21 79l34 0c5 0 10 4 10 10 0 6-5 10-10 10l-34 0c1 28 9 55 21 79l29-17c2-1 4-2 5-2 4 0 7 2 9 5 3 5 1 12-3 14l-30 17c15 23 35 43 58 58l17-30c1-3 5-5 8-5 2 0 4 1 6 2 4 3 6 9 3 14l-17 29c24 12 51 20 79 21l0-34c0-5 4-10 10-10 6 0 10 5 10 10l0 34c28-1 55-9 79-21l-17-29c-3-5-1-11 3-14 2-1 4-2 6-2 3 0 7 2 8 5l17 30c23-15 43-35 58-58l-30-17c-4-2-6-9-3-14 2-3 5-5 9-5 1 0 3 1 5 2l29 17c12-24 20-51 21-79l-34 0c-5 0-10-4-10-10 0-6 5-10 10-10l34 0c-1-28-9-55-21-79z m-164 117l0 66c0 5-4 10-10 10-6 0-10-5-10-10l0-66c-12-4-20-15-20-28 0-7 3-14 7-19l-16-29c-3-4-1-11 4-13 1-1 3-2 5-2 3 0 7 2 8 5l17 28c1 0 3 0 5 0 17 0 30 13 30 30 0 13-8 24-20 28z m-10-38c-5 0-10 5-10 10 0 5 5 10 10 10 5 0 10-5 10-10 0-5-5-10-10-10z m0 148c-6 0-10-5-10-11l0-4c0-5 4-10 10-10 6 0 10 5 10 10l0 4c0 6-4 11-10 11z"/>
<glyph glyph-name="dinosaur" unicode="&#113;" d="M511 266c-2 21-14 40-32 51-114 69-241 99-243 99-2 1-5 0-7-1-3-2-4-5-4-7l0-42-53 19c-3 1-7 0-10-2l-39-40-76 36c-3 1-7 1-9-1-3-3-4-6-3-10l7-31-33 0c-3 0-5-1-7-3-2-2-2-5-2-7l22-132c1-4 3-6 6-7 1-1 2-1 3-1 2 0 4 1 6 2l45 37 57 16 17 0 35-122c1-2 3-4 5-5 2-1 38-20 124-20 22 0 47 2 75 4 3 1 6 3 7 6l29 59c1 4 1 8-2 11-3 2-7 3-10 2l-35-15-1 7c-1 5-5 9-10 8-5-1-9-5-8-10l1-8c-5 1-12 3-20 5l0 7c0 5-3 9-8 9-5 1-10-3-10-8l0-3c-6 1-11 3-17 5l0 15c0 5-4 9-9 9-5 0-9-4-9-9l0-7c-6 2-11 5-16 7l0 13c0 5-5 9-10 9-5 0-9-4-9-9l0-2c-13 8-25 17-36 28l-13 28c4 0 9-1 13-1l2-9c1-5 4-8 9-8 0 0 1 0 1 0 5 1 9 6 8 11l-1 5c7-1 14-2 21-2l-3-6c-3-5-1-10 3-13 2-1 3-1 5-1 3 0 6 2 8 5l6 12c7-1 15-3 21-4l-3-8c-2-5 0-10 4-12 1-1 3-1 4-1 3 0 7 2 8 5l6 12c8-2 17-4 25-6l-3-2c-4-4-4-9 0-13 2-2 4-3 6-3 3 0 5 1 7 3l10 10c8-2 15-4 22-7l-4-3c-3-4-3-10 0-13 2-2 4-3 7-3 2 0 4 1 6 3l11 10c6-2 11-4 16-6l-5-4c-4-3-5-9-2-13 2-2 5-3 7-3 2 0 4 0 6 2l8 6 14-35c1-3 4-5 7-6 1 0 1 0 2 0 2 0 5 1 6 2l11 11c25 25 37 60 33 95z m-473-53l-18 106 27 0 20-82z m46 32l-27 109 59-28 11-69z m61 15l-11 69 37 37 41-14-25-13c-3-2-5-5-4-9l2-59-24-11z m231-121c1 0 3 0 4 1l24 10-16-33c-112-11-167 7-180 12l-34 117 16 7 16-34c1-1 1-2 2-3 64-64 164-76 168-77z m89 45l-1-1-13 34c-1 2-3 4-5 5-5 2-118 50-243 52l-2 51 38 20c3 2 5 5 5 8l0 43c33-9 134-39 226-95 13-7 22-21 23-36 3-31-7-60-28-81z m-144 176c-2 2-4 3-7 3l-45 0c-3 0-6-2-8-4-1-2-2-5-1-8l11-44c1-4 5-7 9-7l78 0c4 0 7 2 9 6 1 3 0 7-2 10z m-34-42l-7 26 30 0 26-26z m184-44l-15 12c-4 3-9 3-13-1-3-4-3-9 1-13l15-12c1-2 3-3 6-3 2 0 5 2 6 4 4 3 3 9 0 13z"/>
<glyph glyph-name="ship" unicode="&#114;" d="M134 362l244 0 0-23-244 0z m222-34l22 0 0-22-22 0z m-222 0l22 0 0-22-22 0z m111 106l22 0 0-22-22 0z m33 0l23 0 0-22-23 0z m-67 0l23 0 0-22-23 0z m-33 0l22 0 0-22-22 0z m134 0l22 0 0-22-22 0z m147-402c-9-5-18-10-35-10l65 197c2 6-1 11-6 14l-60 27 0 107c0 19-15 34-33 34l-17 0 0 55c0 6-5 11-11 11l-95 0 0 45-22 0 0-45-95 0c-6 0-11-5-11-11l0-55-17 0c-18 0-33-15-33-34l0-107-60-27c-5-3-8-8-6-14l65-197c-17 0-26 5-35 10-11 6-24 13-47 13l0-23c18 0 26-4 36-10 11-5 23-12 47-12 6 0 12 0 16 1 14 2 23 7 31 11 10 6 18 10 36 10 19 0 27-4 37-10 11-5 23-12 47-12 24 0 36 7 47 12 10 6 18 10 36 10 18 0 27-4 37-10 8-4 17-9 31-11 4-1 10-1 16-1 24 0 36 7 47 12 10 6 18 10 36 10l0 23c-23 0-36-7-47-13z m6 185l-8-24-190 87 0 26z m-304 228l190 0 0-44-190 0z m-50-78c0 6 5 11 11 11l268 0c6 0 11-5 11-11l0-97-140 63c-3 1-7 1-10 0l-140-63 0 97z m-64-150l198 89 0-26-190-87z m354-192c-5 2-10 5-15 7-11 6-23 13-47 13-23 0-36-7-47-13-9-5-18-10-36-10-18 0-27 5-37 10-11 6-23 13-47 13-23 0-36-7-46-13-5-2-10-5-15-7l-49 146 183 84 0-133 22 0 0 133 183-84z"/>
<glyph glyph-name="helicopter" unicode="&#115;" d="M397 272c-7 12-16 23-27 32-4 3-11 3-14-2-4-4-3-11 1-14 9-7 17-16 23-26 2-4 5-5 9-5 1 0 3 0 5 1 5 3 6 9 3 14z m-57 49c-4 2-9 3-13 4-6 2-11-2-13-7-1-6 2-11 8-13 4-1 7-2 11-3 1-1 2-1 4-1 4 0 7 3 9 7 2 5 0 11-6 13z m-193-63l36-64c10-17 28-28 48-28l1 0-19-19c-4-4-4-11 0-14 2-2 4-3 7-3 2 0 5 1 7 3l34 33 134 0-19-19c-4-4-4-11 0-14 2-2 4-3 7-3 3 0 5 1 7 3l34 33 12 0c5 0 10 5 10 10l0 36c0 8-1 15-2 23-5 34-23 65-49 88-27 23-60 35-95 35l-209 0 0 10c0 24-20 44-45 44l-36 0c-5 0-10-4-10-10l0-78c0-5 3-9 8-10l93-21c19-5 36-17 46-35z m157 80c56-2 104-40 118-94l-118 0z m-284-6l0 60 26 0c13 0 24-11 24-24l0-20c0-6 5-10 11-10l202 0 0-104c0-6 5-11 10-11l132 0c0-4 1-7 1-11l0-26-195 0c-12 0-24 7-30 18l-36 64c-13 23-35 39-60 45z m489-182c-4 4-10 4-14 0l-5-5c-16-16-38-25-61-25l-313 0c-5 0-10-5-10-10 0-6 5-10 10-10l313 0c28 0 55 11 75 31l5 5c4 4 4 10 0 14z m-371 242l146 0 0-12c0-5 4-10 10-10 5 0 10 5 10 10l0 12 93 0c5 0 10 4 10 10 0 5-5 10-10 10l-259 0c-6 0-11-5-11-10 0-6 5-10 11-10z m290 0l20 0c5 0 10 4 10 10 0 5-5 10-10 10l-20 0c-5 0-10-5-10-10 0-6 5-10 10-10z"/>
<glyph glyph-name="jet" unicode="&#116;" d="M111 367c5 0 8 4 8 8l0 77 22 0c5 0 9 0 15-6l26-25 0 0 51-52c1-1 4-2 6-2l60 0c4 0 8 4 8 8 0 5-4 9-8 9l-57 0-34 34 39 0c5 0 9 4 9 9 0 4-4 8-9 8l-56 0-23 23c-11 11-21 11-27 11l-22 0c-9 0-17-7-17-17l0-77c0-4 4-8 9-8z m397-121l-74 50c-23 62-95 62-118 62-40 0-65-7-70-8l-132-17-48 56c0 1-9 12-23 12l-34 0c-3 0-6-1-7-3-2-2-2-5-2-8l31-108-22 0c-5 0-9-4-9-9l0-34c0-5 4-9 9-9l68 0c5 0 8 4 8 9 0 5-3 8-8 8l-60 0 0 18 26 0c2 0 5 1 6 3 2 2 3 5 2 7l-31 109 23 0c6 0 10-5 10-6l51-59c2-2 5-4 8-3l132 16c35-50 78-50 80-50l69 0c4 0 8 3 8 8 0 5-4 9-8 9l-69 0c-1 0-33 1-62 37 11 2 30 5 54 5 58 0 90-17 103-54 0-1 1-3 3-4l53-36-142 0c-3 0-5-1-6-2l-167-179c-6-6-10-6-15-6l-26 0 0 170 171 0c5 0 9 4 9 9 0 5-4 8-9 8l-179 0c-5 0-9-3-9-8l0-179c0-10 8-17 17-17l26 0c6 0 16 0 27 11l53 57 57 0c4 0 8 4 8 8 0 5-4 9-8 9l-41 0 32 34 60 0c5 0 8 4 8 9 0 4-3 8-8 8l-44 0 48 51 166 0c4 0 8 3 9 6 1 4-1 8-4 10z"/>
<glyph glyph-name="folder" unicode="&#117;" d="M491 282l-30 0 0 53c0 13-11 23-24 23l-10 0 0 154-342 0 0-17-25 0 0-17-26 0 0-60-11 0c-13 0-23-10-23-23l0-373 0 0c0-5 2-9 5-13 4-6 10-9 17-9l382 0c10 0 18 7 21 15l87 240 0 1c0 15-9 26-21 26z m-54 59c4 0 7-2 7-6l0-53-17 0 0 59z m-27 154l0-213-301 0c-2 0-4-1-6-1 0 0 0 0-1 0l0 214z m-325-17l0-218 0-2-8-22 0 242z m-34-17l9 0 0-272-9-23z m-34-66c0 3 3 6 6 6l11 0 0-281-17-47z m391-374c0-2-2-4-4-4l-382 0c-2 0-3 1-4 2 0 1-1 2-1 3l17 47 0 0 26 71 25 70 0 0 17 45 0 2 2 3 0 1c1 2 2 4 5 4l382 0c3 0 4-5 4-7z m-254 346l204 0c5 0 9 4 9 8 0 5-4 9-9 9l-204 0c-5 0-9-4-9-9 0-4 4-8 9-8z m0 60l85 0c5 0 8 3 8 8 0 5-3 9-8 9l-85 0c-5 0-9-4-9-9 0-5 4-8 9-8z m0-120l204 0c5 0 9 4 9 9 0 4-4 8-9 8l-204 0c-5 0-9-4-9-8 0-5 4-9 9-9z"/>
<glyph glyph-name="diamond" unicode="&#118;" d="M512 340c0 0 0 1 0 1 0 0 0 1 0 1 0 1 0 1 0 1 0 1 0 1-1 1 0 1 0 1 0 1 0 0 0 0 0 0 0 1 0 1 0 1l-86 136c0 1 0 2-1 2 0 0 0 0 0 0-1 1-2 1-3 2 0 0 0 0 0 0 0 0 0 0 0 0-1 0-2 0-3 0l-324 0c-1 0-2 0-3 0 0 0 0 0 0 0 0 0 0 0 0 0-1-1-2-1-3-2 0 0 0 0 0 0-1 0-1-1-1-2l-86-136c0 0 0 0 0-1 0 0 0 0 0 0 0 0 0 0 0-1-1 0-1 0-1-1 0 0 0 0 0-1 0 0 0-1 0-1 0 0 0-1 0-1 0-1 0-1 0-1 1-1 1-1 1-1 0 0 0-1 0-1 0 0 0 0 1 0 0-1 0-1 0-1l247-307c0 0 0 0 0 0l0 0c0 0 0 0 0 0 1-1 2-2 3-2 0 0 0-1 1-1 1 0 2 0 3 0 1 0 2 0 3 0 0 0 0 0 0 0 1 0 1 1 1 1 1 0 2 1 2 1 0 1 1 1 1 1l247 307c0 0 0 0 1 1 0 0 0 0 0 0 0 0 0 1 0 1 0 0 0 0 1 1 0 0 0 0 0 1z m-238 129l132 0-42-111z m75-119l-186 0 93 114z m-202 7l-41 112 132 0z m208-24l-100-270-99 270z m65 126l68-109-108 0z m-328 0l40-109-108 0z m46-126l92-253-204 253z m138-260l97 260 113 0z"/>
<glyph glyph-name="car" unicode="&#119;" d="M356 173l-167 0c-4 0-7 4-7 8 0 4 3 7 7 7l167 0c4 0 8-3 8-7 0-4-4-8-8-8z m-207-39c-26 0-47 21-47 47 0 26 21 47 47 47 26 0 47-21 47-47 0-26-21-47-47-47z m0 79c-18 0-32-14-32-32 0-18 14-33 32-33 18 0 33 15 33 33 0 18-15 32-33 32z m247-79c-26 0-47 21-47 47 0 26 21 47 47 47 26 0 47-21 47-47 0-26-21-47-47-47z m0 79c-18 0-32-14-32-32 0-18 14-33 32-33 18 0 33 15 33 33 0 18-15 32-33 32z m-39-40l-168 0c-4 0-7 4-7 8 0 4 3 7 7 7l168 0c4 0 7-3 7-7 0-4-3-8-7-8z m114 0l-35 0c-4 0-7 4-7 8 0 4 3 7 7 7l35 0c9 0 17 7 18 16l8 50c1 3 0 7-2 9-2 3-6 5-9 5l-98 12c-1 1-2 1-3 2l-89 74c-5 5-13 8-20 8l-138 0c-7 0-14-4-17-9l-41-65c-1-1-3-3-4-3l-50-15c-8-2-12-10-11-17l7-45c2-13 13-22 25-22l62 0c4 0 8-3 8-7 0-4-4-7-8-7l-62 0c-20 0-37 14-40 34l-7 44c-2 15 7 30 21 34l48 14 39 62c7 10 18 16 30 16l138 0c11 0 21-4 30-11l86-72 96-12c7-1 14-5 18-11 5-6 7-13 6-21l-8-50c-3-16-16-28-33-28z m-161 102l-168 0c-4 0-7 3-7 7 0 4 3 7 7 7l168 0c4 0 7-3 7-7 0-4-3-7-7-7z"/>
<glyph glyph-name="arrow" unicode="&#120;" d="M316 52l-7 7 187 194-175 182-5-212-311-2 0 10 301 2 5 227 200-208z"/>
<glyph glyph-name="cancel" unicode="&#121;" d="M232 258l-227-227c-6-6-6-16 0-23 3-3 7-4 11-4 4 0 9 1 12 4l228 229 228-229c3-3 8-4 12-4 4 0 8 1 11 4 6 7 6 17 0 23l-226 227 226 226c7 7 7 17 0 23-6 7-16 7-23 0l-228-228-228 228c-7 7-17 7-23 0-7-6-7-16 0-23z"/>
<glyph glyph-name="e-mail-envelope" unicode="&#122;" d="M0 426l0-340 512 0 0 340z m256-210l-210 185 420 0z m-84 40l-147-129 0 258z m19-17l65-56 65 56 145-128-420 0z m149 17l147 129 0-258z"/>
<glyph glyph-name="mail" unicode="&#66;" d="M492 64l-472 0c-8 0-15 7-15 15l0 303c0 6 3 10 7 13 5 3 10 3 15 0l228-122 192 144-427 0c-8 0-15 6-15 15 0 8 7 14 15 14l472 0c0 0 1 0 1 0 2 0 4 0 6-1 1-1 3-2 4-4 2-1 3-3 3-5l0 0c0 0 0 0 0 0 1-1 1-3 1-5l0-352c0-8-7-15-15-15z m-15 338l-212-159c-5-3-11-3-16-1l-214 116 0-264 442 0z m-67-261c-3-3-6-5-10-5-2 0-5 1-7 2l-79 59c-5 4-6 11-2 17 4 5 11 6 16 2l79-59c5-4 6-11 3-16z m-212 56l-79-59c-2-1-4-2-7-2-4 0-7 2-9 5-4 5-3 12 2 16l79 59c5 4 12 3 16-2 4-6 3-13-2-17z"/>
<glyph glyph-name="check" unicode="&#67;" d="M444 422l-267-262-108 106c-13 13-35 13-48 0-13-13-13-34 0-47l132-130c7-6 15-9 24-9 9 0 17 3 24 9 0 1 0 1 0 1l291 285c14 13 14 34 0 47-13 13-35 13-48 0z"/>
<glyph glyph-name="user-o" unicode="&#68;" d="M496 66c1 46-120 81-193 97-9 2-18-4-20-13-2-9 4-18 13-20 83-19 160-48 166-64l0-22-406 0 0 22c6 16 84 45 166 64 8 2 13 9 13 17l0 30c5-1 9-1 14-1l20 0c58 0 105 47 105 106l0 115c0 58-47 106-105 106l-20 0c-58 0-105-48-105-106l0-115c0-42 23-78 58-95l0-27c-73-17-181-50-180-94l0-39c0-9 8-17 17-17l440 0c9 0 17 8 17 17z m-319 216l0 115c0 40 32 72 72 72l20 0c40 0 72-32 72-72l0-115c0-40-32-73-72-73l-20 0c-40 0-72 33-72 73z"/>
<glyph glyph-name="locked" unicode="&#65;" d="M431 337l-36 0 0 76c0 54-45 99-100 99l-78 0c-54 0-99-45-99-99l0-76-36 0c-11 0-19-8-19-18l0-182c0-76 62-138 137-138l112 0c76 0 138 62 138 138l0 182c0 10-9 18-19 18z m-276 76c0 34 28 62 62 62l78 0c35 0 62-28 62-62l0-76-202 0z m258-276c0-56-45-101-101-101l-112 0c-55 0-100 45-100 101l0 163 313 0z m-175-39c0-10 8-18 18-18 11 0 19 8 19 18l0 53c2 3 4 7 4 11 0 11-9 19-19 19l-7 0c-10 0-19-8-19-19 0-4 2-8 4-11z"/>
</font>
</defs>
</svg>
