<?xml version="1.0" encoding="utf-8"?>
<!-- Generator: Adobe Illustrator 16.0.0, SVG Export Plug-In . SVG Version: 6.00 Build 0)  -->
<!DOCTYPE svg PUBLIC "-//W3C//DTD SVG 1.1//EN" "http://www.w3.org/Graphics/SVG/1.1/DTD/svg11.dtd">
<svg version="1.1" id="Capa_1" xmlns="http://www.w3.org/2000/svg" xmlns:xlink="http://www.w3.org/1999/xlink" x="0px" y="0px"
	 width="120px" height="120px" viewBox="0 0 120 120" enable-background="new 0 0 120 120" xml:space="preserve">
<g>
	<path d="M95.556,44.695V32.222C95.556,14.456,79.604,0,60,0S24.444,14.456,24.444,32.222c0,1.229,0.994,2.222,2.222,2.222
		c1.229,0,2.222-0.993,2.222-2.222C28.889,16.904,42.844,4.444,60,4.444c17.156,0,31.111,12.46,31.111,27.778v12.222H27.176
		c-8.858,0-16.064,7.207-16.064,16.064v43.427c0,8.857,7.207,16.064,16.064,16.064h65.648c8.857,0,16.064-7.207,16.064-16.064
		V60.509C108.889,52.584,103.113,45.998,95.556,44.695z M104.444,103.936c0,6.406-5.214,11.62-11.62,11.62H27.176
		c-6.407,0-11.62-5.214-11.62-11.62V60.509c0-6.407,5.213-11.62,11.62-11.62h65.648c6.406,0,11.62,5.213,11.62,11.62V103.936z"/>
	<path d="M60,62.223c-4.902,0-8.889,3.986-8.889,8.889v13.333c0,4.902,3.986,8.89,8.889,8.89s8.889-3.987,8.889-8.89V71.111
		C68.889,66.209,64.902,62.223,60,62.223z M64.444,84.444c0,2.451-1.993,4.444-4.444,4.444s-4.444-1.993-4.444-4.444V71.111
		c0-2.451,1.993-4.445,4.444-4.445s4.444,1.994,4.444,4.445V84.444z"/>
</g>
</svg>
