<svg xmlns="http://www.w3.org/2000/svg" xmlns:xlink="http://www.w3.org/1999/xlink" version="1.1" x="0px" y="0px" viewBox="0 0 100 125" style="enable-background:new 0 0 100 100;" xml:space="preserve"><g><path d="M42,64c-12.1,0-22-9.9-22-22s9.9-22,22-22s22,9.9,22,22S54.1,64,42,64z M42,24c-9.9,0-18,8.1-18,18s8.1,18,18,18   s18-8.1,18-18S51.9,24,42,24z M79.4,76.6l-14-14c-0.8-0.8-2-0.8-2.8,0c-0.8,0.8-0.8,2,0,2.8l14,14c0.8,0.8,2,0.8,2.8,0   C80.2,78.6,80.2,77.4,79.4,76.6z"/></g><text x="0" y="115" fill="#000000" font-size="5px" font-weight="bold" font-family="'Helvetica Neue', Helvetica, Arial-Unicode, Arial, Sans-serif">Created by Setyo Ari Wibowo</text><text x="0" y="120" fill="#000000" font-size="5px" font-weight="bold" font-family="'Helvetica Neue', Helvetica, Arial-Unicode, Arial, Sans-serif">from the Noun Project</text></svg>