<?xml version="1.0" encoding="utf-8"?>
<!-- Generator: Adobe Illustrator 16.0.0, SVG Export Plug-In . SVG Version: 6.00 Build 0)  -->
<!DOCTYPE svg PUBLIC "-//W3C//DTD SVG 1.1//EN" "http://www.w3.org/Graphics/SVG/1.1/DTD/svg11.dtd">
<svg version="1.1" id="Layer_1" xmlns="http://www.w3.org/2000/svg" xmlns:xlink="http://www.w3.org/1999/xlink" x="0px" y="0px"
	 width="200px" height="162.536px" viewBox="0 0 200 162.536" enable-background="new 0 0 200 162.536" xml:space="preserve">
<path d="M179.525,40.48c0.079,1.76,0.119,3.53,0.119,5.309c0,54.223-41.272,116.747-116.746,116.747
	c-23.172,0-44.74-6.794-62.899-18.437c3.21,0.38,6.476,0.574,9.788,0.574c19.225,0,36.917-6.56,50.96-17.565
	c-17.956-0.33-33.109-12.194-38.331-28.495c2.506,0.479,5.076,0.736,7.72,0.736c3.742,0,7.367-0.502,10.81-1.439
	C22.177,94.14,8.033,77.556,8.033,57.676c0-0.173,0-0.345,0.004-0.516c5.532,3.073,11.859,4.919,18.585,5.132
	C15.612,54.934,8.368,42.375,8.368,28.139c0-7.52,2.023-14.568,5.556-20.628c20.237,24.825,50.472,41.161,84.574,42.872
	c-0.7-3.003-1.063-6.135-1.063-9.351C97.435,18.371,115.808,0,138.468,0c11.802,0,22.466,4.982,29.95,12.957
	c9.347-1.84,18.128-5.254,26.057-9.957c-3.063,9.582-9.57,17.623-18.041,22.701c8.3-0.992,16.208-3.197,23.566-6.461
	C194.499,27.469,187.543,34.695,179.525,40.48z"/>
</svg>
