<?xml version="1.0" encoding="utf-8"?>
<!-- Generator: Adobe Illustrator 16.0.0, SVG Export Plug-In . SVG Version: 6.00 Build 0)  -->
<!DOCTYPE svg PUBLIC "-//W3C//DTD SVG 1.1//EN" "http://www.w3.org/Graphics/SVG/1.1/DTD/svg11.dtd">
<svg version="1.1" id="Layer_1" xmlns="http://www.w3.org/2000/svg" xmlns:xlink="http://www.w3.org/1999/xlink" x="0px" y="0px"
	 width="63.342px" height="62.348px" viewBox="0 0 63.342 62.348" enable-background="new 0 0 63.342 62.348" xml:space="preserve">
<path d="M63.342,3.214v55.92c0,1.771-1.443,3.214-3.215,3.214H43.629V36.89h8.229v-7.811h-8.229v-7.377
	c0-2.216,2.859-4.115,5.201-4.115h3.855v-7.042h-8.775c-3.648,0-8.732,3.393-8.732,8.919v9.616H27.02v7.811h8.159v25.458H3.214
	c-1.769,0-3.211-1.439-3.214-3.208L0.001,3.201C0.009,1.435,1.45,0,3.214,0h56.913C61.899,0,63.342,1.442,63.342,3.214z"/>
</svg>
