<?xml version="1.0" encoding="utf-8"?>
<!-- Generator: Adobe Illustrator 16.0.0, SVG Export Plug-In . SVG Version: 6.00 Build 0)  -->
<!DOCTYPE svg PUBLIC "-//W3C//DTD SVG 1.1//EN" "http://www.w3.org/Graphics/SVG/1.1/DTD/svg11.dtd">
<svg version="1.1" id="Layer_1" xmlns="http://www.w3.org/2000/svg" xmlns:xlink="http://www.w3.org/1999/xlink" x="0px" y="0px"
	 width="241.774px" height="234.806px" viewBox="0 0 241.774 234.806" enable-background="new 0 0 241.774 234.806"
	 xml:space="preserve">
<path fill="#333333" d="M239.997,186.05l-46.702,46.919c-2.373,2.384-6.179,2.384-8.552,0l-46.706-46.919
	c-2.373-2.384-2.373-6.207,0-8.591c2.374-2.384,6.18-2.384,8.552,0l36.372,36.545V6.114c0-3.375,2.721-6.106,6.081-6.106
	s6.03,2.732,6.03,6.006v207.938l36.377-36.541c2.369-2.384,6.178-2.384,8.548,0c1.187,1.19,1.777,2.731,1.777,4.319
	C241.774,183.318,241.184,184.855,239.997,186.05L239.997,186.05z M103.688,57.305c-2.371,2.382-6.176,2.382-8.548,0L58.864,20.761
	v207.936c0,3.378-2.72,6.108-6.081,6.108s-6.078-2.73-6.078-6.108V20.761L10.331,57.305c-2.373,2.382-6.178,2.382-8.551,0
	c-2.373-2.384-2.373-6.208,0-8.592L48.435,1.794c2.373-2.384,6.229-2.384,8.551-0.049l46.702,46.919
	c1.189,1.192,1.78,2.73,1.78,4.319C105.468,54.573,104.877,56.113,103.688,57.305L103.688,57.305z"/>
</svg>
