<?xml version="1.0" encoding="utf-8"?>
<!-- Generator: Adobe Illustrator 16.0.0, SVG Export Plug-In . SVG Version: 6.00 Build 0)  -->
<!DOCTYPE svg PUBLIC "-//W3C//DTD SVG 1.1//EN" "http://www.w3.org/Graphics/SVG/1.1/DTD/svg11.dtd">
<svg version="1.1" id="Layer_1" xmlns="http://www.w3.org/2000/svg" xmlns:xlink="http://www.w3.org/1999/xlink" x="0px" y="0px"
	 width="293.918px" height="248.986px" viewBox="0 0 293.918 248.986" enable-background="new 0 0 293.918 248.986"
	 xml:space="preserve">
<path d="M132.964,241.405c-6.413,6.547-16.791,6.533-23.187-0.03L7.584,136.471c-6.381-6.555-6.381-17.153,0-23.708L109.778,7.86
	c6.396-6.563,16.774-6.577,23.187-0.03c6.41,6.544,6.424,17.173,0.032,23.736l-74.295,76.269h216.483
	c9.056,0,16.396,7.516,16.396,16.783c0,9.27-7.34,16.786-16.396,16.786H58.701l74.295,76.268c3.189,3.275,4.784,7.563,4.784,11.851
	C137.78,233.825,136.174,238.128,132.964,241.405L132.964,241.405z"/>
</svg>
