<?xml version="1.0" encoding="utf-8"?>
<!-- Generator: Adobe Illustrator 16.0.0, SVG Export Plug-In . SVG Version: 6.00 Build 0)  -->
<!DOCTYPE svg PUBLIC "-//W3C//DTD SVG 1.1//EN" "http://www.w3.org/Graphics/SVG/1.1/DTD/svg11.dtd">
<svg version="1.1" id="Layer_1" xmlns="http://www.w3.org/2000/svg" xmlns:xlink="http://www.w3.org/1999/xlink" x="0px" y="0px"
	 width="300px" height="300px" viewBox="0 0 300 300" enable-background="new 0 0 300 300" xml:space="preserve">
<path fill="#030303" d="M97.416,138.902c-3.256,0-5.899-2.633-5.899-5.903c0-3.251,2.643-5.899,5.899-5.899
	c3.26,0,5.901,2.648,5.901,5.899C103.317,136.269,100.675,138.902,97.416,138.902L97.416,138.902z M132.813,138.902
	c-3.257,0-5.899-2.633-5.899-5.903c0-3.251,2.642-5.899,5.899-5.899c3.259,0,5.899,2.648,5.899,5.899
	C138.712,136.269,136.072,138.902,132.813,138.902L132.813,138.902z M168.211,138.902c-3.261,0-5.901-2.633-5.901-5.903
	c0-3.251,2.641-5.899,5.901-5.899c3.255,0,5.899,2.648,5.899,5.899C174.11,136.269,171.466,138.902,168.211,138.902L168.211,138.902
	z M62.024,174.323c-3.259,0-5.901-2.641-5.901-5.907c0-3.264,2.642-5.896,5.901-5.896c3.254,0,5.896,2.632,5.896,5.896
	C67.919,171.683,65.278,174.323,62.024,174.323L62.024,174.323z M97.416,174.323c-3.256,0-5.897-2.641-5.897-5.907
	c0-3.264,2.642-5.896,5.897-5.896c3.258,0,5.901,2.632,5.901,5.896C103.317,171.683,100.673,174.323,97.416,174.323L97.416,174.323z
	 M132.813,174.323c-3.256,0-5.897-2.641-5.897-5.907c0-3.264,2.641-5.896,5.897-5.896c3.258,0,5.899,2.632,5.899,5.896
	C138.712,171.683,136.071,174.323,132.813,174.323L132.813,174.323z M168.211,174.323c-3.261,0-5.898-2.641-5.898-5.907
	c0-3.264,2.638-5.896,5.898-5.896c3.255,0,5.897,2.632,5.897,5.896C174.108,171.683,171.466,174.323,168.211,174.323
	L168.211,174.323z M239.001,174.323c-3.257,0-5.899-2.641-5.899-5.907c0-3.264,2.643-5.896,5.899-5.896
	c3.259,0,5.896,2.632,5.896,5.896C244.897,171.683,242.26,174.323,239.001,174.323L239.001,174.323z M203.605,138.902
	c-3.259,0-5.9-2.633-5.9-5.903c0-3.251,2.642-5.899,5.9-5.899c3.255,0,5.897,2.648,5.897,5.899
	C209.503,136.269,206.86,138.902,203.605,138.902L203.605,138.902z M239.001,138.902c-3.257,0-5.901-2.633-5.901-5.903
	c0-3.251,2.645-5.899,5.901-5.899c3.259,0,5.898,2.648,5.898,5.899C244.899,136.269,242.26,138.902,239.001,138.902L239.001,138.902
	z M62.024,209.742c-3.262,0-5.903-2.645-5.903-5.913c0-3.251,2.641-5.901,5.903-5.901c3.256,0,5.899,2.65,5.899,5.901
	C67.923,207.098,65.28,209.742,62.024,209.742L62.024,209.742z M97.416,209.742c-3.256,0-5.899-2.645-5.899-5.913
	c0-3.251,2.643-5.901,5.899-5.901c3.26,0,5.901,2.65,5.901,5.901C103.317,207.098,100.675,209.742,97.416,209.742L97.416,209.742z
	 M132.813,209.742c-3.257,0-5.899-2.645-5.899-5.913c0-3.251,2.642-5.901,5.899-5.901c3.259,0,5.899,2.65,5.899,5.901
	C138.712,207.098,136.072,209.742,132.813,209.742L132.813,209.742z M168.211,209.742c-3.261,0-5.901-2.645-5.901-5.913
	c0-3.251,2.641-5.901,5.901-5.901c3.255,0,5.899,2.65,5.899,5.901C174.11,207.098,171.466,209.742,168.211,209.742L168.211,209.742z
	 M203.605,209.742c-3.259,0-5.9-2.645-5.9-5.913c0-3.251,2.642-5.901,5.9-5.901c3.255,0,5.897,2.65,5.897,5.901
	C209.503,207.098,206.86,209.742,203.605,209.742L203.605,209.742z M239.001,209.742c-3.257,0-5.901-2.645-5.901-5.913
	c0-3.251,2.645-5.901,5.901-5.901c3.259,0,5.898,2.65,5.898,5.901C244.899,207.098,242.26,209.742,239.001,209.742L239.001,209.742z
	 M62.024,245.147c-3.262,0-5.903-2.636-5.903-5.891c0-3.264,2.641-5.907,5.903-5.907c3.256,0,5.899,2.644,5.899,5.907
	C67.923,242.512,65.28,245.147,62.024,245.147L62.024,245.147z M97.416,245.147c-3.256,0-5.899-2.636-5.899-5.891
	c0-3.264,2.643-5.907,5.899-5.907c3.26,0,5.901,2.644,5.901,5.907C103.317,242.512,100.675,245.147,97.416,245.147L97.416,245.147z
	 M132.813,245.147c-3.257,0-5.899-2.636-5.899-5.891c0-3.264,2.642-5.907,5.899-5.907c3.259,0,5.899,2.644,5.899,5.907
	C138.712,242.512,136.072,245.147,132.813,245.147L132.813,245.147z M168.211,245.147c-3.261,0-5.901-2.636-5.901-5.891
	c0-3.264,2.641-5.907,5.901-5.907c3.255,0,5.899,2.644,5.899,5.907C174.11,242.512,171.466,245.147,168.211,245.147L168.211,245.147
	z M203.605,186.132c-9.776,0-17.701-7.931-17.701-17.716s7.925-17.71,17.701-17.71c9.775,0,17.695,7.925,17.695,17.71
	S213.381,186.132,203.605,186.132L203.605,186.132z M203.605,162.521c-3.257,0-5.898,2.632-5.898,5.896
	c0,3.263,2.642,5.907,5.898,5.907c3.255,0,5.897-2.645,5.897-5.907C209.503,165.152,206.86,162.521,203.605,162.521L203.605,162.521
	z M268.496,292.363H32.526c-13.031,0-23.599-10.564-23.599-23.601V91.684V79.882v-23.5c0-13.033,10.567-23.605,23.595-23.605H44.32
	v-5.894c0-9.782,7.924-17.712,17.702-17.712c9.772,0,17.696,7.93,17.696,17.712v5.894h141.583v-5.894
	c0-9.782,7.925-17.712,17.7-17.712c9.772,0,17.699,7.93,17.699,17.712v5.894h11.798c13.03,0,23.597,10.572,23.597,23.605v23.503
	V91.69v177.072C292.095,281.799,281.528,292.363,268.496,292.363L268.496,292.363z M67.923,44.596V32.777v-5.894
	c0-3.272-2.646-5.912-5.899-5.912c-3.264,0-5.903,2.64-5.903,5.912v5.894v11.819v5.894c0,3.263,2.641,5.892,5.903,5.892
	c3.252,0,5.899-2.632,5.899-5.892V44.596L67.923,44.596z M244.897,44.596V32.777v-5.894c0-3.272-2.644-5.912-5.896-5.912
	c-3.262,0-5.901,2.64-5.901,5.912v5.894v11.819v5.894c0,3.263,2.642,5.892,5.901,5.892c3.253,0,5.896-2.632,5.896-5.892V44.596
	L244.897,44.596z M280.297,56.382c0-6.52-5.276-11.786-11.797-11.786h-11.8v5.894c0,9.773-7.927,17.705-17.697,17.705
	c-9.777,0-17.697-7.936-17.697-17.705v-5.894H79.722v5.894c0,9.773-7.928,17.705-17.698,17.705c-9.779,0-17.699-7.936-17.699-17.705
	v-5.894H32.526c-6.521,0-11.798,5.267-11.798,11.786v23.503h259.569V56.382L280.297,56.382z M280.297,91.69H20.728v177.072
	c0,6.512,5.277,11.809,11.798,11.809h235.972c6.521,0,11.799-5.297,11.799-11.809V91.69L280.297,91.69z"/>
</svg>
