<?xml version="1.0" encoding="utf-8"?>
<!-- Generator: Adobe Illustrator 16.0.0, SVG Export Plug-In . SVG Version: 6.00 Build 0)  -->
<!DOCTYPE svg PUBLIC "-//W3C//DTD SVG 1.1//EN" "http://www.w3.org/Graphics/SVG/1.1/DTD/svg11.dtd">
<svg version="1.1" id="Layer_1" xmlns="http://www.w3.org/2000/svg" xmlns:xlink="http://www.w3.org/1999/xlink" x="0px" y="0px"
	 width="258.108px" height="282.433px" viewBox="0 0 258.108 282.433" enable-background="new 0 0 258.108 282.433"
	 xml:space="preserve">
<path d="M252.205,153.879c-0.065,0.391-0.158,0.778-0.284,1.163c-1.364,5.504-3.27,11.269-5.568,16.802l-19.714,45.519
	c-1.798,4.158-6.737,6.109-11.019,4.366c-4.291-1.751-6.303-6.536-4.502-10.7l19.668-45.406c1.935-4.658,3.574-9.623,4.836-14.654
	c0.015-0.088,0.038-0.182,0.06-0.27c8.977-36.379-1.916-73.863-29.127-100.274c-42.819-41.55-112.489-41.548-155.303,0
	c-42.815,41.549-42.815,109.157,0,150.708c24.679,23.945,60.033,35.125,94.622,29.918c2.211-0.354,4.484,0.203,6.293,1.497
	l37.876,27.145l8.322-19.211c1.798-4.157,6.737-6.109,11.022-4.365c4.286,1.748,6.302,6.536,4.501,10.696l-12.475,28.791
	c-0.998,2.31-3.038,4.045-5.525,4.709c-0.738,0.195-1.482,0.296-2.231,0.296c-1.783,0-3.537-0.553-5.001-1.598l-43.724-31.338
	c-38.736,4.754-77.96-8.181-105.583-34.992c-49.382-47.918-49.382-125.886,0-173.803c49.378-47.92,129.731-47.924,179.114,0
	C249.689,69.178,262.278,112.128,252.205,153.879L252.205,153.879z M182.252,100.513H80.855c-3.721,0-6.734-2.925-6.734-6.535
	c0-3.611,3.013-6.536,6.734-6.536h101.397c3.717,0,6.736,2.925,6.736,6.536C188.989,97.588,185.969,100.513,182.252,100.513
	L182.252,100.513z M182.252,137.975H80.855c-3.721,0-6.734-2.923-6.734-6.535c0-3.608,3.013-6.533,6.734-6.533h101.397
	c3.717,0,6.736,2.925,6.736,6.533C188.989,135.052,185.969,137.975,182.252,137.975L182.252,137.975z M138.821,175.438H80.855
	c-3.721,0-6.734-2.922-6.734-6.532c0-3.609,3.013-6.537,6.734-6.537h57.965c3.717,0,6.732,2.928,6.732,6.537
	C145.553,172.517,142.538,175.438,138.821,175.438L138.821,175.438z"/>
</svg>
