<?xml version="1.0" encoding="utf-8"?>
<!-- Generator: Adobe Illustrator 16.0.0, SVG Export Plug-In . SVG Version: 6.00 Build 0)  -->
<!DOCTYPE svg PUBLIC "-//W3C//DTD SVG 1.1//EN" "http://www.w3.org/Graphics/SVG/1.1/DTD/svg11.dtd">
<svg version="1.1" id="Layer_1" xmlns="http://www.w3.org/2000/svg" xmlns:xlink="http://www.w3.org/1999/xlink" x="0px" y="0px"
	 width="300px" height="215.877px" viewBox="0 0 300 215.877" enable-background="new 0 0 300 215.877" xml:space="preserve">
<path d="M101.731,115.349c-0.734-0.999-1.868-1.57-3.115-1.57c-0.816,0-1.601,0.252-2.271,0.73l-41.962,30.582
	c-0.838,0.61-1.383,1.505-1.541,2.527c-0.158,1.014,0.09,2.022,0.695,2.843c1.209,1.69,3.757,2.054,5.372,0.859l41.981-30.574
	C102.611,119.5,102.987,117.078,101.731,115.349z M287.767,82.605c4.678-11.917,14.292-40.914,2.557-52.679l-0.474-0.448
	L264.386,7.333c-2.845-2.717-6.672-4.21-10.813-4.234l-0.406-0.01l-0.827,0.01c-0.34-0.01-0.467,0.005-0.588,0.021l-0.386,0.01
	c0,0-223.158,0.027-243.34,0.027C7.76,3.2,4.073,3.826,4.073,9.111c0,5.465,4.002,6.205,4.173,6.237
	c1.204,0.031,63.169,0.037,109.659,0.037l105.863-0.022c0.561,0,1.121,0.01,1.677,0.047c0.648,0.021,1.278,0.169,1.89,0.314
	l2.864,0.604l-2.05,2.245c-0.481,0.545-0.978,1.106-1.587,1.599c-0.467,0.366-0.937,0.571-1.356,0.75
	c-0.279,0.125-0.547,0.238-0.723,0.367c-2.723,1.938-5.413,3.881-8.101,5.819c-3.205,2.311-6.4,4.622-9.627,6.896
	c-1.971,1.383-3.978,2.7-5.984,4.018c-3.146,2.073-6.405,4.21-9.406,6.539c-5.43,4.201-11.131,8.213-16.641,12.093
	c-3.559,2.506-7.119,5.012-10.633,7.586c-2.774,2.031-5.594,3.993-8.419,5.959c-2.802,1.95-5.604,3.899-8.364,5.922
	c-1.601,1.185-3.264,2.301-4.924,3.412c-3.158,2.126-6.423,4.319-9.195,6.982c-1.299,1.265-2.782,0.907-4.06,0.216l-5.745-3.025
	c-5.242-2.758-10.483-5.516-15.705-8.304c-7.924-4.229-16.119-8.29-24.042-12.218c-9.635-4.772-19.596-9.711-29.195-15.009
	c-8.057-4.46-16.493-8.585-24.652-12.57c-5.207-2.547-10.589-5.176-15.835-7.878c-2.518-1.301-4.629-1.274-6.968,0.12
	c-1.81,1.08-2.571,2.758-2.545,5.599c0.103,22.513,0.093,45,0.084,67.492l-0.005,19.362l0.005,15.04
	c0.011,15.042,0.019,30.083-0.057,45.146c0,1.701,0.478,2.892,1.831,4.528c1.251,1.556,2.526,1.627,4.676,1.627h0.316h81.354
	l18.707,21.505c0.121,0.147,0.252,0.275,0.385,0.406c3.71,3.712,9.516,5.599,17.249,5.599c12.813,0,27.697-5.11,35.428-8.16
	c15.033-5.917,44.62-20.217,73.877-49.474C259.989,134.811,277.56,108.56,287.767,82.605z M90.889,157.813
	c-0.242,0.195-0.499,0.405-0.729,0.639c-3.769,3.766-5.744,9.189-5.283,14.5L85,174.382H23.754c-0.4,0-0.807-0.016-1.209-0.031
	c-0.784-0.021-1.57-0.057-2.332,0.041c-0.239,0.031-0.445,0.042-0.635,0.042c-0.906,0-1.621-0.276-2.124-0.826
	c-0.75-0.821-0.753-1.937-0.674-2.817c0.033-0.481,0.019-0.994,0.005-1.513l-0.01-0.851L16.772,49.166
	c-0.004-0.809-0.01-1.619,0.031-2.423c0.021-1.712,0.588-2.474,1.689-2.474c0.478,0,0.967,0.167,1.81,0.621
	c3.636,1.923,7.419,3.774,11.076,5.556c4.468,2.182,9.089,4.443,13.541,6.88c9.011,4.945,18.393,9.566,27.463,14.036
	c8.168,4.02,16.613,8.182,24.771,12.568c6.028,3.257,12.219,6.437,18.206,9.515c3.804,1.954,7.609,3.91,11.394,5.89
	c2.458,1.286,3.949,1.813,5.154,1.813c1.671,0,3.202-1.133,5.976-3.185c3.257-2.409,6.431-4.591,9.5-6.706
	c2.36-1.626,4.725-3.246,7.053-4.919c3.051-2.166,6.071-4.368,9.09-6.572c3.014-2.197,6.029-4.394,9.067-6.549l5.83-4.151
	c6.576-4.683,13.372-9.53,20.138-14.173c3.238-2.208,6.444-4.47,9.626-6.731l2.565-1.821l-0.502,3.109
	c-0.859,5.307,0.876,10.717,4.637,14.48c0.403,0.399,0.806,0.729,1.232,1.009l13.605,9.053l-0.206,0.892
	c-0.498,2.15-4.367,14.263-31.467,41.365c-21.03,21.027-35.172,30.057-41.393,31.493l-0.891,0.206l-9.012-13.596
	c-0.306-0.433-0.653-0.847-1.045-1.245c-3.141-3.139-7.319-4.868-11.767-4.868c-4.226,0-8.25,1.581-11.33,4.456L90.889,157.813z
	 M128.823,197.935c-2.292,0-4.06-0.294-5.259-0.869l-0.421-0.32l-22.34-25.646l0.988-1.046l32.106-25.443l9.145,13.71
	c0.166,0.268,0.318,0.463,0.471,0.658c2.572,3.167,6.384,5.047,10.722,5.265c0.426,0.021,0.924,0.052,1.507,0.052
	c11.388,0,30.019-12.61,53.88-36.476c9.234-9.236,37.339-37.338,36.395-55.383c-0.216-4.341-2.095-8.157-5.279-10.745
	c-0.227-0.167-0.417-0.318-0.609-0.448l-13.735-9.118l25.841-32.61l1.206-0.027l25.408,22.271
	c4.271,8.844-7.019,58.061-52.133,103.175C186.69,184.982,143.48,197.935,128.823,197.935z"/>
</svg>
