<?xml version="1.0" encoding="utf-8"?>
<!-- Generator: Adobe Illustrator 16.0.0, SVG Export Plug-In . SVG Version: 6.00 Build 0)  -->
<!DOCTYPE svg PUBLIC "-//W3C//DTD SVG 1.1//EN" "http://www.w3.org/Graphics/SVG/1.1/DTD/svg11.dtd">
<svg version="1.1" xmlns="http://www.w3.org/2000/svg" xmlns:xlink="http://www.w3.org/1999/xlink" x="0px" y="0px" width="300px"
	 height="300px" viewBox="0 0 300 300" enable-background="new 0 0 300 300" xml:space="preserve">
<g id="Layer_2">
	<path id="XMLID_1_" fill="#010101" d="M47.045,254.378c0-22.18,0-43.898,0-65.685c-12.965-12.636-25.799-25.141-38.896-37.908
		c13.031-12.703,25.865-25.208,38.765-37.844c0-21.522,0-43.044,0-64.96c21.653,0,43.043,0,64.499,0
		c12.9-12.504,25.668-24.944,38.765-37.712c12.966,12.571,25.8,25.009,38.568,37.515c14.61,0,29.09,0,43.832,0
		c0,6.911,0,13.755,0,20.732c-17.506,0-34.947,0-52.916,0c-9.542-9.28-19.349-18.824-29.484-28.63
		c-10.07,9.741-19.877,19.284-29.814,28.959c-17.375,0-34.75,0-52.323,0c0,17.835,0,35.408,0,53.113
		c-9.807,9.543-19.547,19.021-29.485,28.761c9.872,9.608,19.547,19.087,29.419,28.695c0,17.837,0,35.672,0,53.838
		c17.639,0,35.014,0,52.455,0c9.938,9.608,19.744,19.151,29.815,28.956c10.004-9.739,19.744-19.217,29.616-28.76
		c17.376,0,34.752,0,52.454,0c0-18.032,0-35.935,0-54.494c9.281-9.018,18.758-18.166,28.565-27.644
		c-8.03-7.569-15.665-14.742-23.629-22.179c4.806-5.134,9.478-10.135,14.414-15.467c13.163,12.242,26.063,24.353,39.423,36.857
		c-12.966,12.502-25.667,24.812-37.646,36.329c0,23.431,0,45.217,0,67.331c-21.719,0-43.241,0-64.565,0
		c-12.966,12.635-25.669,24.943-38.766,37.645c-12.965-12.569-25.733-25.01-38.633-37.514
		C90.154,254.378,68.83,254.378,47.045,254.378z M185.389,188.233c-9.214,8.688-20.271,13.426-32.974,14.216
		c-20.929,1.25-41.595-12.044-49.756-32.052c-8.358-20.403-2.764-43.504,14.216-58.181c8.556-7.371,18.56-11.517,29.814-12.307
		c14.151-0.988,26.59,3.487,37.581,12.767c4.673-5.265,9.214-10.333,13.755-15.401c-18.69-18.757-55.746-26.523-85.691-7.832
		c-31.854,19.877-43.373,59.695-27.248,93.261c15.927,33.039,54.429,48.901,89.509,36.659c16.979-5.923,29.88-16.98,38.765-32.579
		c5.133-9.016,8.096-18.691,8.82-29.157c-7.108-0.657-13.756-1.248-20.732-1.907C199.867,168.686,194.604,179.479,185.389,188.233z
		 M280.361,65.488c-4.409-4.542-9.148-9.478-14.217-14.743c-35.87,35.869-71.738,71.804-108.267,108.332
		c-9.608-9.807-19.086-19.481-28.365-28.959c-4.937,4.871-9.676,9.675-14.283,14.282c14.414,14.348,28.958,28.827,43.175,42.979
		C199.013,146.77,239.884,105.964,280.361,65.488z"/>
</g>
<g id="Layer_3">
</g>
</svg>
