<?xml version="1.0" encoding="utf-8"?>
<!-- Generator: Adobe Illustrator 16.0.0, SVG Export Plug-In . SVG Version: 6.00 Build 0)  -->
<!DOCTYPE svg PUBLIC "-//W3C//DTD SVG 1.1//EN" "http://www.w3.org/Graphics/SVG/1.1/DTD/svg11.dtd">
<svg version="1.1" id="Layer_1" xmlns="http://www.w3.org/2000/svg" xmlns:xlink="http://www.w3.org/1999/xlink" x="0px" y="0px"
	 width="295.27px" height="223.311px" viewBox="0 0 295.27 223.311" enable-background="new 0 0 295.27 223.311"
	 xml:space="preserve">
<path d="M290.239,64.814L236.56,6.959c-2.397-2.584-5.739-4.051-9.236-4.051H68.198c-3.497,0-6.839,1.467-9.236,4.051L5.285,64.814
	c-4.703,5.067-4.588,13.01,0.26,17.937l133.24,135.38c2.378,2.42,5.608,3.777,8.975,3.777c3.368,0,6.599-1.357,8.977-3.777
	l133.242-135.38C294.827,77.825,294.942,69.881,290.239,64.814L290.239,64.814z M88.763,83.423l23.373,69.687L43.552,83.423H88.763
	L88.763,83.423z M158.489,28.673l20.444,32.205h-62.344l20.442-32.205H158.489L158.489,28.673z M147.759,190.799l-0.04-0.787
	l-35.5-106.589h71.082L147.802,190.01L147.759,190.799L147.759,190.799z M206.759,83.423h45.211l-68.584,69.685L206.759,83.423
	L206.759,83.423z M253.112,60.878h-48.1l-20.444-32.205h37.275L253.112,60.878L253.112,60.878z M73.68,28.673h37.272L90.508,60.878
	H42.412L73.68,28.673L73.68,28.673z"/>
</svg>
