<?xml version="1.0" encoding="utf-8"?>
<!-- Generator: Adobe Illustrator 16.0.0, SVG Export Plug-In . SVG Version: 6.00 Build 0)  -->
<!DOCTYPE svg PUBLIC "-//W3C//DTD SVG 1.1//EN" "http://www.w3.org/Graphics/SVG/1.1/DTD/svg11.dtd">
<svg version="1.1" xmlns="http://www.w3.org/2000/svg" xmlns:xlink="http://www.w3.org/1999/xlink" x="0px" y="0px" width="300px"
	 height="253.716px" viewBox="0 0 300 253.716" enable-background="new 0 0 300 253.716" xml:space="preserve">
<g id="Layer_1">
	<path d="M257.715,19.088c-19.617-19.65-51.287-19.889-70.611-0.526L38.293,167.201c-1.002,1.005-1.618,2.301-1.802,3.696
		l-9.064,70.923c-0.273,2.018,0.464,4.044,1.872,5.452c1.215,1.212,2.907,1.949,4.593,1.963c0.289,0.004,0.58,0.004,0.869-0.043
		l42.759-5.462c3.563-0.452,6.045-3.711,5.538-7.278c-0.512-3.567-3.806-6.097-7.369-5.645l-34.285,4.371l6.332-49.459
		l52.541,52.498c1.212,1.213,2.905,1.945,4.593,1.956c1.688,0.015,3.369-0.646,4.563-1.888l148.806-148.64
		c9.378-9.372,14.491-21.854,14.391-35.198C272.532,41.11,267.23,28.549,257.715,19.088L257.715,19.088z M189.726,34.476
		l21.899,21.88L74.063,193.812l-21.9-21.88L189.726,34.476L189.726,34.476z M104.8,224.477l-21.416-21.396L220.948,65.627
		l21.413,21.395L104.8,224.477L104.8,224.477z M251.354,77.795L198.96,25.44c6.563-5.394,14.782-8.316,23.458-8.252
		c9.882,0.074,19.164,3.994,26.205,10.982c7.042,6.989,10.917,16.313,10.994,26.184C259.68,63.071,256.752,71.236,251.354,77.795
		L251.354,77.795z"/>
</g>
<g id="Layer_2">
</g>
</svg>
