<?xml version="1.0" encoding="utf-8"?>
<!-- Generator: Adobe Illustrator 16.0.0, SVG Export Plug-In . SVG Version: 6.00 Build 0)  -->
<!DOCTYPE svg PUBLIC "-//W3C//DTD SVG 1.1//EN" "http://www.w3.org/Graphics/SVG/1.1/DTD/svg11.dtd">
<svg version="1.1" id="Layer_1" xmlns="http://www.w3.org/2000/svg" xmlns:xlink="http://www.w3.org/1999/xlink" x="0px" y="0px"
	 width="300px" height="238.514px" viewBox="0 0 300 238.514" enable-background="new 0 0 300 238.514" xml:space="preserve">
<path d="M289.323,92.24H10.677c-3.238,0-5.869-2.619-5.869-5.861V8.797c0-3.24,2.631-5.862,5.869-5.862h23.949h29.539h35.993h29.534
	h35.986h29.539h35.992h29.532h28.588c3.238,0,5.869,2.628,5.863,5.862v77.583C295.192,89.622,292.562,92.24,289.323,92.24
	L289.323,92.24z M283.464,14.66h-28.588c-5.94,0-9.027,0-17.798,0h-47.725c-5.942,0-9.027,0-17.794,0h-47.732
	c-5.941,0-9.026,0-17.794,0H58.301c-5.943,0-9.028,0-17.798,0h-23.95v65.865h266.906h0.006V14.66L283.464,14.66z M273.283,235.383
	H26.713c-3.238,0-5.87-2.623-5.87-5.863V108.79c0-3.242,2.631-5.861,5.87-5.861c3.242,0,5.87,2.619,5.87,5.861v114.87h234.83V108.79
	c0-3.242,2.632-5.861,5.87-5.861c3.244,0,5.869,2.619,5.869,5.861v120.73C279.152,232.76,276.527,235.383,273.283,235.383
	L273.283,235.383z M234.774,147.946h-26.179c-3.249,0-5.87-2.622-5.87-5.862v-26.138c0-3.24,2.632-5.859,5.87-5.859h26.179
	c3.24,0,5.869,2.619,5.869,5.859v26.138C240.644,145.324,238.015,147.946,234.774,147.946L234.774,147.946z M228.905,121.806h-14.44
	v14.416h14.44V121.806L228.905,121.806z M184.178,147.946h-26.179c-3.246,0-5.871-2.622-5.871-5.862v-26.138
	c0-3.24,2.625-5.859,5.871-5.859h26.179c3.238,0,5.869,2.619,5.869,5.859v26.138C190.047,145.324,187.416,147.946,184.178,147.946
	L184.178,147.946z M178.307,121.806h-14.438v14.416h14.438V121.806L178.307,121.806z M82.975,198.608H56.796
	c-3.238,0-5.87-2.622-5.87-5.863v-26.149c0-3.24,2.631-5.861,5.87-5.861h26.179c3.242,0,5.87,2.621,5.87,5.861v26.149
	C88.845,195.986,86.217,198.608,82.975,198.608L82.975,198.608z M77.105,172.458H62.666v14.425h14.439V172.458L77.105,172.458z
	 M133.572,198.608h-26.179c-3.238,0-5.87-2.622-5.87-5.863v-26.149c0-3.24,2.632-5.861,5.87-5.861h26.179
	c3.242,0,5.87,2.621,5.87,5.861v26.149C139.442,195.986,136.814,198.608,133.572,198.608L133.572,198.608z M127.703,172.458h-14.439
	v14.425h14.439V172.458L127.703,172.458z M184.178,198.608h-26.179c-3.246,0-5.871-2.622-5.871-5.863v-26.149
	c0-3.24,2.625-5.861,5.871-5.861h26.179c3.238,0,5.869,2.621,5.869,5.861v26.149C190.047,195.986,187.416,198.608,184.178,198.608
	L184.178,198.608z M178.307,172.458h-14.438v14.425h14.438V172.458L178.307,172.458z M234.774,198.608h-26.179
	c-3.238,0-5.87-2.622-5.87-5.863v-26.149c0-3.24,2.632-5.861,5.87-5.861h26.179c3.24,0,5.869,2.621,5.869,5.861v26.149
	C240.644,195.986,238.015,198.608,234.774,198.608L234.774,198.608z M228.905,172.458h-14.44v14.425h14.44V172.458L228.905,172.458z
	"/>
</svg>
