<?xml version="1.0" encoding="utf-8"?>
<!-- Generator: Adobe Illustrator 16.0.0, SVG Export Plug-In . SVG Version: 6.00 Build 0)  -->
<!DOCTYPE svg PUBLIC "-//W3C//DTD SVG 1.1//EN" "http://www.w3.org/Graphics/SVG/1.1/DTD/svg11.dtd">
<svg version="1.1" id="Layer_1" xmlns="http://www.w3.org/2000/svg" xmlns:xlink="http://www.w3.org/1999/xlink" x="0px" y="0px"
	 width="300px" height="253.716px" viewBox="0 0 300 253.716" enable-background="new 0 0 300 253.716" xml:space="preserve">
<path d="M282.286,33.461h-37.605c2.39-11.181,3.069-21.552-4.995-26.699c-1.524-0.986-3.43-1.484-5.661-1.484
	c-11.135,0-35.537,13.284-57.126,28.183h-54.195C101.112,18.564,76.708,5.278,65.573,5.278c-2.23,0-4.134,0.499-5.632,1.468
	c-8.082,5.156-7.415,15.518-5.023,26.715H17.317c-6.987,0-12.671,5.719-12.671,12.743v31.587c0,7.025,5.684,12.744,12.671,12.744
	h13.792v148.87c0,5.42,4.385,9.831,9.773,9.831h217.837c5.386,0,9.771-4.411,9.771-9.831V90.535h13.797
	c6.982,0,12.669-5.719,12.669-12.744V46.204C294.955,39.178,289.269,33.461,282.286,33.461L282.286,33.461z M234.141,16.201
	c3.031,2.815-0.124,15.539-2.021,23.193c-1.915,7.467-3.504,14.165-3.504,20.512c0,6.418,1.229,14.722,2.702,24.11
	c1.134,7.334,2.626,17.01,2.69,22.887c-0.183,0.024-0.383,0.033-0.603,0.033c-4.481,0-12.295-4.264-20.571-8.774
	c-1.825-0.993-3.71-2.023-5.648-3.055c-9.717-5.208-21.672-12.873-29.127-17.792l-0.063-9.543l34.286-4.279
	c2.974-0.372,5.087-3.101,4.717-6.093c-0.368-2.993-3.083-5.116-6.056-4.747l-32.998,4.117l-0.046-9.591l-0.02-1.079
	c25.038-18.012,48.838-29.899,56.145-29.899C234.071,16.201,234.107,16.201,234.141,16.201L234.141,16.201z M167.111,63.537
	l0.12,18.855h-36.34V45.785h36.119l0.095,15.246c-0.074,0.354-0.127,0.761-0.127,1.222
	C166.979,62.747,167.035,63.173,167.111,63.537L167.111,63.537z M65.465,16.201c0.031,0,0.068,0,0.108,0
	c7.145,0,30.047,11.359,54.461,28.693c0,0.036-0.004,0.069-0.004,0.107V56.98l-34.693-4.329c-2.968-0.372-5.687,1.753-6.056,4.747
	c-0.37,2.995,1.744,5.722,4.72,6.093l36.029,4.495v10.323c-7.494,4.913-18.531,11.927-27.609,16.794
	c-1.945,1.035-3.83,2.065-5.657,3.059c-8.275,4.51-16.094,8.774-20.57,8.774c-0.221,0-0.42-0.009-0.601-0.033
	c0.059-5.877,1.552-15.549,2.683-22.873c1.482-9.402,2.708-17.708,2.708-24.126c0-6.345-1.588-13.043-3.493-20.466
	C65.586,31.757,62.437,19.061,65.465,16.201L65.465,16.201z M17.317,79.611c-0.981,0-1.813-0.835-1.813-1.82V46.204
	c0-0.984,0.832-1.82,1.813-1.82h40.222c1.458,5.817,2.586,11.033,2.586,15.521c0,5.042-0.94,11.886-2.15,19.706H17.317
	L17.317,79.611L17.317,79.611z M257.635,238.313H41.967V90.693h14.332c-1.142,8.009-1.827,14.588-1.474,19.219
	c-0.102,2.344,1.192,3.807,1.799,4.364c2.603,2.377,5.819,3.583,9.569,3.583c7.231,0,15.401-4.456,25.745-10.092
	c1.799-0.98,3.657-1.995,5.58-3.018c7.544-4.048,16.325-9.476,23.463-14.056h2.351c1.033,0.939,2.255,1.67,3.607,2.119
	l-35.417,57.908c-1.571,2.567-0.772,5.931,1.78,7.514c0.887,0.549,1.87,0.812,2.841,0.812c1.823,0,3.604-0.923,4.63-2.603
	l38.607-63.128h20.84l38.608,63.128c1.027,1.68,2.807,2.603,4.631,2.603c0.968,0,1.951-0.263,2.841-0.812
	c2.556-1.583,3.349-4.946,1.776-7.514l-35.724-58.419c0.86-0.424,1.662-0.964,2.375-1.608h3.895
	c7.141,4.58,15.914,10.008,23.469,14.056c1.917,1.022,3.771,2.037,5.573,3.018c10.344,5.637,18.51,10.092,25.743,10.092
	c3.747,0,6.966-1.206,9.572-3.583c0.603-0.558,1.893-2.021,1.795-4.36c0.356-4.63-0.329-11.206-1.471-19.223h14.332V238.313
	L257.635,238.313L257.635,238.313z M284.095,77.791c0,0.985-0.829,1.82-1.809,1.82h-40.662c-1.205-7.812-2.146-14.661-2.146-19.708
	c0-4.478,1.119-9.686,2.581-15.52h40.228c0.979,0,1.809,0.835,1.809,1.82V77.791L284.095,77.791z"/>
</svg>
