<?xml version="1.0" encoding="utf-8"?>
<!-- Generator: Adobe Illustrator 16.0.0, SVG Export Plug-In . SVG Version: 6.00 Build 0)  -->
<!DOCTYPE svg PUBLIC "-//W3C//DTD SVG 1.1//EN" "http://www.w3.org/Graphics/SVG/1.1/DTD/svg11.dtd">
<svg version="1.1" id="Layer_1" xmlns="http://www.w3.org/2000/svg" xmlns:xlink="http://www.w3.org/1999/xlink" x="0px" y="0px"
	 width="287.5px" height="243.581px" viewBox="0 0 287.5 243.581" enable-background="new 0 0 287.5 243.581" xml:space="preserve">
<path d="M276.231,98.574c-7.137,2.042-14.527-2.243-16.516-9.567l-9.867-36.369c-0.314,0.969-0.723,1.919-1.248,2.832
	l-18.232,31.668l-11.998,22.446c-0.828,1.506-1.9,2.778-3.123,3.82l-47.279,82.125c-2.379,4.131-6.566,6.752-11.174,6.99
	c-4.597,0.262-9.024-1.932-11.784-5.795l-26.547-37.168l-30.744,54.611c-2.368,4.205-6.604,6.881-11.266,7.113
	c-4.679,0.227-9.127-2.002-11.872-5.951l-14.479-20.848l-22.979,40.305c-2.589,4.541-7.189,7.066-11.908,7.066
	c-2.408,0-4.851-0.662-7.072-2.043c-6.567-4.088-8.721-12.967-4.808-19.83l33.735-59.17c2.382-4.178,6.616-6.826,11.266-7.049
	c4.68-0.227,9.097,2.02,11.833,5.957l14.403,20.74l30.59-54.341c2.349-4.176,6.546-6.844,11.176-7.11
	c4.629-0.239,9.08,1.911,11.852,5.794l26.678,37.354l67.211-116.747l4.057-7.588l-36.691,10.498
	c-7.139,2.042-14.535-2.239-16.523-9.566c-1.986-7.323,2.189-14.92,9.326-16.961l67.889-19.426c3.43-0.981,7.094-0.522,10.193,1.272
	c3.098,1.793,5.375,4.778,6.328,8.296l18.898,69.681C287.542,88.94,283.368,96.534,276.231,98.574z"/>
</svg>
