<?xml version="1.0" encoding="utf-8"?>
<!-- Generator: Adobe Illustrator 16.0.0, SVG Export Plug-In . SVG Version: 6.00 Build 0)  -->
<!DOCTYPE svg PUBLIC "-//W3C//DTD SVG 1.1//EN" "http://www.w3.org/Graphics/SVG/1.1/DTD/svg11.dtd">
<svg version="1.1" id="Layer_1" xmlns="http://www.w3.org/2000/svg" xmlns:xlink="http://www.w3.org/1999/xlink" x="0px" y="0px"
	 width="211.148px" height="209.121px" viewBox="0 0 211.148 209.121" enable-background="new 0 0 211.148 209.121"
	 xml:space="preserve">
<path fill="#010101" d="M3.04,56.515V1.722h54.662v54.793H3.04L3.04,56.515z M78.225,56.515V1.722h54.684v54.793H78.225
	L78.225,56.515z M153.431,56.515V1.722h54.678v54.793H153.431L153.431,56.515z M3.04,131.775V76.97h54.662v54.805H3.04L3.04,131.775
	z M78.225,131.775V76.97h54.684v54.805H78.225L78.225,131.775z M153.431,131.775V76.97h54.678v54.805H153.431L153.431,131.775z
	 M3.04,207.027v-54.8h54.662v54.8H3.04L3.04,207.027z M78.225,207.027v-54.8h54.684v54.8H78.225L78.225,207.027z M153.431,207.027
	v-54.8h54.678v54.8H153.431L153.431,207.027z"/>
</svg>
