<?xml version="1.0" encoding="utf-8"?>
<!-- Generator: Adobe Illustrator 16.0.0, SVG Export Plug-In . SVG Version: 6.00 Build 0)  -->
<!DOCTYPE svg PUBLIC "-//W3C//DTD SVG 1.1//EN" "http://www.w3.org/Graphics/SVG/1.1/DTD/svg11.dtd">
<svg version="1.1" id="Layer_1" xmlns="http://www.w3.org/2000/svg" xmlns:xlink="http://www.w3.org/1999/xlink" x="0px" y="0px"
	 width="300px" height="300px" viewBox="0 0 300 300" enable-background="new 0 0 300 300" xml:space="preserve">
<path fill="#080808" d="M79.18,9.918c20.521,0,37.265,7.133,50.146,19.479c8.272,7.889,14.867,17.859,19.681,29.425
	c4.816-11.566,11.411-21.541,19.575-29.425c12.876-12.346,29.733-19.479,50.253-19.479c21.355,0,40.613,8.969,54.536,23.37
	c14.027,14.497,22.61,34.413,22.61,56.385c0,37.765-39.989,82.014-68.361,113.302c-5.133,5.63-9.841,10.831-14.138,15.8
	l-58.935,68.728c-2.727,3.126-7.327,3.459-10.362,0.651c-0.317-0.228-0.521-0.428-0.732-0.651l-58.937-68.728
	c-3.873-4.429-8.896-9.951-14.338-16.004C41.804,171.485,2.027,127.545,2.027,89.673c0-21.969,8.687-41.888,22.61-56.385
	C38.664,18.892,57.931,9.918,79.18,9.918L79.18,9.918L79.18,9.918z M119.379,40.53c-10.156-9.743-23.55-15.36-40.199-15.36
	c-17.167,0-32.766,7.248-44.069,18.944C23.805,55.808,16.788,71.907,16.788,89.673c0,31.917,37.475,73.266,64.174,102.698
	c5.237,5.725,10.156,11.148,14.547,16.349l53.498,62.34l53.496-62.34c3.979-4.554,9.003-10.18,14.445-16.125
	c26.593-29.443,64.279-71.001,64.279-102.922c0-17.766-7.015-33.87-18.217-45.559c-11.306-11.679-26.902-18.944-44.176-18.944
	c-16.649,0-30.043,5.617-40.2,15.36c-11.093,10.603-18.633,26.309-22.302,45.131c-0.518,3.031-2.722,5.535-5.86,6.161
	c-3.979,0.881-7.85-1.722-8.688-5.938C138.117,67.048,130.58,51.248,119.379,40.53L119.379,40.53L119.379,40.53z"/>
</svg>
