<?xml version="1.0" encoding="utf-8"?>
<!-- Generator: Adobe Illustrator 16.0.0, SVG Export Plug-In . SVG Version: 6.00 Build 0)  -->
<!DOCTYPE svg PUBLIC "-//W3C//DTD SVG 1.1//EN" "http://www.w3.org/Graphics/SVG/1.1/DTD/svg11.dtd">
<svg version="1.1" id="Layer_1" xmlns="http://www.w3.org/2000/svg" xmlns:xlink="http://www.w3.org/1999/xlink" x="0px" y="0px"
	 width="300px" height="300px" viewBox="0 0 300 300" enable-background="new 0 0 300 300" xml:space="preserve">
<path d="M151.176,292.121c-78.022,0-141.501-63.479-141.501-141.502c0-78.02,63.479-141.5,141.501-141.5
	c78.027,0,141.5,63.48,141.5,141.5C292.676,228.643,229.203,292.121,151.176,292.121L151.176,292.121z M151.176,32.435
	c-65.17,0-118.188,53.019-118.188,118.184c0,65.172,53.017,118.188,118.188,118.188c65.168,0,118.184-53.016,118.184-118.188
	C269.359,85.454,216.344,32.435,151.176,32.435L151.176,32.435z M204.248,210.654c-2.215,1.955-4.965,2.908-7.697,2.908
	c-3.23,0-6.445-1.338-8.754-3.947l-43.715-49.639c-0.113-0.129-0.188-0.277-0.296-0.408c-2.584-2.141-4.267-5.328-4.267-8.949
	V65.854c0-6.438,5.22-11.659,11.657-11.659c6.438,0,11.656,5.221,11.656,11.659v80.134l42.461,48.213
	C209.549,199.031,209.082,206.396,204.248,210.654L204.248,210.654z"/>
</svg>
