<?xml version="1.0" encoding="utf-8"?>
<!-- Generator: Adobe Illustrator 16.0.0, SVG Export Plug-In . SVG Version: 6.00 Build 0)  -->
<!DOCTYPE svg PUBLIC "-//W3C//DTD SVG 1.1//EN" "http://www.w3.org/Graphics/SVG/1.1/DTD/svg11.dtd">
<svg version="1.1" id="Layer_1" xmlns="http://www.w3.org/2000/svg" xmlns:xlink="http://www.w3.org/1999/xlink" x="0px" y="0px"
	 width="282.432px" height="257.433px" viewBox="0 0 282.432 257.433" enable-background="new 0 0 282.432 257.433"
	 xml:space="preserve">
<path d="M266.905,30.604H15.988c-7.698,0-13.94-6.283-13.94-14.032c0-7.75,6.242-14.032,13.94-14.032h250.917
	c7.697,0,13.939,6.281,13.939,14.032C280.844,24.321,274.602,30.604,266.905,30.604L266.905,30.604z M174.172,91.56
	c0-7.751-6.24-14.032-13.938-14.032H15.988c-7.698,0-13.94,6.28-13.94,14.032c0,7.747,6.242,14.031,13.94,14.031h144.247
	C167.932,105.591,174.172,99.306,174.172,91.56L174.172,91.56z M216.727,166.32c0-7.748-6.24-14.031-13.939-14.031h-186.8
	c-7.698,0-13.94,6.283-13.94,14.031s6.242,14.031,13.94,14.031h186.8C210.487,180.352,216.727,174.068,216.727,166.32
	L216.727,166.32z M268.317,241.076c0-7.748-6.242-14.029-13.941-14.029H16.926c-7.698,0-13.939,6.281-13.939,14.029
	s6.241,14.031,13.939,14.031h237.45C262.075,255.107,268.317,248.824,268.317,241.076L268.317,241.076z"/>
</svg>
