<?xml version="1.0" encoding="utf-8"?>
<!-- Generator: Adobe Illustrator 16.0.0, SVG Export Plug-In . SVG Version: 6.00 Build 0)  -->
<!DOCTYPE svg PUBLIC "-//W3C//DTD SVG 1.1//EN" "http://www.w3.org/Graphics/SVG/1.1/DTD/svg11.dtd">
<svg version="1.1" id="Layer_2" xmlns="http://www.w3.org/2000/svg" xmlns:xlink="http://www.w3.org/1999/xlink" x="0px" y="0px"
	 width="286.487px" height="263.513px" viewBox="0 0 286.487 263.513" enable-background="new 0 0 286.487 263.513"
	 xml:space="preserve">
<path fill="#010101" d="M281.547,218.177c-18.121,28.195-42.514,43.727-68.703,43.727s-50.584-15.525-68.703-43.727l-1.789-2.783
	l2.322-3.611c16.125-25.09,37.219-40.115,60.123-43.131c2.305-0.498,4.688-0.77,7.135-0.77c1.387,0,2.746,0.109,4.092,0.271
	c25.178,1.01,48.545,16.385,66.051,43.629l1.795,2.783L281.547,218.177L281.547,218.177z M213.756,178.226
	c-0.125-0.006-0.25-0.016-0.375-0.016c-2.256,0-4.496,0.172-6.719,0.441c-10.965,2.469-19.199,12.42-19.199,24.318
	c0,13.75,10.975,24.934,24.469,24.934c13.492,0,24.469-11.184,24.469-24.934C236.401,189.857,226.381,179.189,213.756,178.226
	L213.756,178.226z M242.02,185.955c2.76,5.051,4.346,10.846,4.346,17.021c0,19.346-15.453,35.092-34.439,35.092
	s-34.438-15.738-34.438-35.092c0-5.191,1.141-10.104,3.135-14.541c-9.631,6.273-18.549,15.328-26.318,26.939
	c15.98,23.484,36.666,36.371,58.533,36.371c22.117,0,43.023-13.176,59.068-37.158C263.163,201.736,253.004,192.085,242.02,185.955
	L242.02,185.955z M267.938,165.394c-2.752,0-4.982-2.27-4.982-5.078V25.684l-74.77,31.375v88.02c0,2.809-2.234,5.08-4.986,5.08
	c-2.75,0-4.984-2.271-4.984-5.08V56.716l-74.769-40.333v206.621l31.872,13.916c2.527,1.109,3.703,4.088,2.617,6.664
	c-0.809,1.924-2.646,3.078-4.58,3.078c-0.659,0-1.326-0.127-1.966-0.412l-33.151-14.475L10.315,261.64
	c-0.514,0.178-1.047,0.264-1.575,0.264c-1.033,0-2.052-0.328-2.911-0.955c-1.307-0.959-2.074-2.492-2.074-4.123V38.423
	c0-2.19,1.371-4.13,3.405-4.816L96.883,3.132c0.035-0.011,0.07-0.011,0.099-0.02c0.15-0.052,0.31-0.071,0.463-0.103
	c0.254-0.056,0.509-0.106,0.769-0.122c0.14-0.01,0.279,0.01,0.418,0.005c0.273,0.01,0.538,0.024,0.801,0.082
	c0.145,0.03,0.289,0.077,0.434,0.122c0.246,0.075,0.484,0.162,0.718,0.273c0.071,0.037,0.145,0.045,0.211,0.082l82.667,44.594
	l82.576-34.645c1.539-0.645,3.289-0.461,4.676,0.478c1.375,0.941,2.207,2.525,2.207,4.22v142.217
	C272.922,163.125,270.69,165.394,267.938,165.394L267.938,165.394z M93.478,14.992L13.726,42.078v207.697l79.752-27.088V14.992
	L93.478,14.992z"/>
</svg>
