<?xml version="1.0" encoding="utf-8"?>
<!-- Generator: Adobe Illustrator 16.0.0, SVG Export Plug-In . SVG Version: 6.00 Build 0)  -->
<!DOCTYPE svg PUBLIC "-//W3C//DTD SVG 1.1//EN" "http://www.w3.org/Graphics/SVG/1.1/DTD/svg11.dtd">
<svg version="1.1" id="Layer_1" xmlns="http://www.w3.org/2000/svg" xmlns:xlink="http://www.w3.org/1999/xlink" x="0px" y="0px"
	 width="246.96px" height="300px" viewBox="0 0 246.96 300" enable-background="new 0 0 246.96 300" xml:space="preserve">
<defs>
	<path id="SVGID_1_" d="M199.451,297.008H47.024c-23.875,0-43.298-19.688-43.298-43.887V150.703
		c0-19.649,12.749-36.581,30.958-42.032V83.994C34.684,38.782,74.409,2,123.238,2c48.829,0,88.554,36.782,88.554,81.994
		c0,6.197-5.006,11.239-11.159,11.239s-11.159-5.042-11.159-11.239c0-32.815-29.713-59.512-66.236-59.512
		c-36.522,0-66.236,26.697-66.236,59.512v22.823h142.449c23.876,0,43.3,19.687,43.3,43.885v102.418
		C242.751,277.32,223.327,297.008,199.451,297.008z M47.024,129.3c-11.569,0-20.981,9.601-20.981,21.403v102.418
		c0,11.803,9.412,21.404,20.981,21.404h152.427c11.568,0,20.979-9.602,20.979-21.404V150.703c0-11.802-9.411-21.403-20.979-21.403
		H47.024z M123.238,234.117c-14.689,0-26.639-12.096-26.639-26.963v-31.445c0-14.867,11.95-26.963,26.639-26.963
		s26.639,12.096,26.639,26.963v31.445C149.877,222.021,137.927,234.117,123.238,234.117z M123.238,171.227
		c-2.381,0-4.319,2.01-4.319,4.482v31.445c0,2.471,1.938,4.48,4.319,4.48c2.382,0,4.32-2.01,4.32-4.48v-31.445
		C127.558,173.236,125.62,171.227,123.238,171.227z"/>
</defs>
<use xlink:href="#SVGID_1_"  overflow="visible" fill="#333333"/>
<clipPath id="SVGID_2_">
	<use xlink:href="#SVGID_1_"  overflow="visible"/>
</clipPath>
</svg>
