<?xml version="1.0" encoding="utf-8"?>
<!-- Generator: Adobe Illustrator 16.0.0, SVG Export Plug-In . SVG Version: 6.00 Build 0)  -->
<!DOCTYPE svg PUBLIC "-//W3C//DTD SVG 1.1//EN" "http://www.w3.org/Graphics/SVG/1.1/DTD/svg11.dtd">
<svg version="1.1" id="Layer_1" xmlns="http://www.w3.org/2000/svg" xmlns:xlink="http://www.w3.org/1999/xlink" x="0px" y="0px"
	 width="238.851px" height="289.865px" viewBox="0 0 238.851 289.865" enable-background="new 0 0 238.851 289.865"
	 xml:space="preserve">
<defs>
	<path id="SVGID_1_" d="M192.136,281.911H45.311c-19.812,0-35.928-16.373-35.928-36.496v-98.654
		c0-18.001,12.917-32.965,29.821-35.924V82.503c0-40.364,35.674-73.202,79.52-73.202c43.847,0,79.521,32.837,79.521,73.202
		c0,2.791-2.222,5.047-4.97,5.047s-4.97-2.256-4.97-5.047c0-34.798-31.212-63.104-69.582-63.104
		c-38.369,0-69.581,28.307-69.581,63.104v27.764h142.994c19.811,0,35.93,16.371,35.93,36.493v98.654
		C228.066,265.538,211.947,281.911,192.136,281.911L192.136,281.911z M218.125,146.761c0-14.553-11.659-26.396-25.988-26.396H45.311
		c-14.329,0-25.99,11.843-25.99,26.396v98.654c0,14.556,11.662,26.398,25.99,26.398h146.826c14.329,0,25.988-11.843,25.988-26.398
		V146.761L218.125,146.761z M118.723,221.33c-10.963,0-19.88-9.056-19.88-20.192v-30.29c0-11.137,8.917-20.192,19.88-20.192
		c10.964,0,19.881,9.056,19.881,20.192v30.29C138.604,212.274,129.687,221.33,118.723,221.33L118.723,221.33z M128.665,170.848
		c0-5.568-4.457-10.098-9.941-10.098c-5.481,0-9.939,4.529-9.939,10.098v30.29c0,5.568,4.458,10.095,9.939,10.095
		c5.484,0,9.941-4.526,9.941-10.095V170.848L128.665,170.848z M192.136,287.69H45.311c-22.998,0-41.708-18.964-41.708-42.275
		v-98.654c0-18.927,12.28-35.236,29.82-40.487v-23.77c0-43.551,38.266-78.981,85.3-78.981c47.035,0,85.301,35.43,85.301,78.981
		c0,5.97-4.822,10.826-10.749,10.826c-5.928,0-10.749-4.856-10.749-10.826c0-31.609-28.621-57.325-63.803-57.325
		c-35.18,0-63.801,25.715-63.801,57.325v21.984h137.214c22.999,0,41.709,18.964,41.709,42.273v98.654
		C233.845,268.727,215.135,287.69,192.136,287.69z M45.311,126.145c-11.145,0-20.21,9.248-20.21,20.616v98.654
		c0,11.369,9.066,20.619,20.21,20.619h146.826c11.144,0,20.209-9.25,20.209-20.619v-98.654c0-11.368-9.065-20.616-20.209-20.616
		H45.311z M118.723,227.109c-14.149,0-25.66-11.651-25.66-25.972v-30.29c0-14.321,11.511-25.973,25.66-25.973
		c14.149,0,25.661,11.651,25.661,25.973v30.29C144.384,215.458,132.873,227.109,118.723,227.109z M118.723,166.53
		c-2.293,0-4.16,1.937-4.16,4.317v30.29c0,2.38,1.866,4.315,4.16,4.315c2.295,0,4.162-1.936,4.162-4.315v-30.29
		C122.885,168.467,121.018,166.53,118.723,166.53z"/>
</defs>
<use xlink:href="#SVGID_1_"  overflow="visible" fill="#333333"/>
<clipPath id="SVGID_2_">
	<use xlink:href="#SVGID_1_"  overflow="visible"/>
</clipPath>
</svg>
