<?xml version="1.0" encoding="utf-8"?>
<!-- Generator: Adobe Illustrator 16.0.0, SVG Export Plug-In . SVG Version: 6.00 Build 0)  -->
<!DOCTYPE svg PUBLIC "-//W3C//DTD SVG 1.1//EN" "http://www.w3.org/Graphics/SVG/1.1/DTD/svg11.dtd">
<svg version="1.1" id="Layer_2" xmlns="http://www.w3.org/2000/svg" xmlns:xlink="http://www.w3.org/1999/xlink" x="0px" y="0px"
	 width="300px" height="253.716px" viewBox="0 0 300 253.716" enable-background="new 0 0 300 253.716" xml:space="preserve">
<path d="M167.08,13.593H66.966c-5.231,0-9.982,3.961-9.982,9.223v206.279c0,5.264,4.749,9.871,9.982,9.871H167.08
	c2.632,0,4.766,2.146,4.766,4.796c0,2.649-2.134,4.795-4.766,4.795H66.966c-10.486,0-19.513-8.909-19.513-19.462V22.815
	c0-10.555,9.026-18.813,19.513-18.813H167.08c2.632,0,4.766,2.144,4.766,4.793C171.846,11.448,169.712,13.593,167.08,13.593
	L167.08,13.593z M248.844,127.587l-47.606,47.916c-1.031,1.039-2.383,1.583-3.738,1.583c-1.353,0-2.704-0.476-3.739-1.518
	c-2.065-2.077-2.065-5.354,0-7.435l38.578-38.639H112.867c-2.918,0-5.287-2.38-5.287-5.322c0-2.942,2.369-5.323,5.287-5.323h120.362
	l-39.66-44.521c-1.954-2.183-1.777-5.732,0.394-7.698c2.17-1.965,5.513-1.792,7.467,0.395l47.609,53.227
	C250.92,122.356,250.834,125.588,248.844,127.587L248.844,127.587z"/>
</svg>
