<?xml version="1.0" encoding="utf-8"?>
<!-- Generator: Adobe Illustrator 16.0.0, SVG Export Plug-In . SVG Version: 6.00 Build 0)  -->
<!DOCTYPE svg PUBLIC "-//W3C//DTD SVG 1.1//EN" "http://www.w3.org/Graphics/SVG/1.1/DTD/svg11.dtd">
<svg version="1.1" xmlns="http://www.w3.org/2000/svg" xmlns:xlink="http://www.w3.org/1999/xlink" x="0px" y="0px" width="300px"
	 height="231.757px" viewBox="0 0 300 231.757" enable-background="new 0 0 300 231.757" xml:space="preserve">
<g id="Layer_1" display="none">
	<path display="inline" fill="#100E0E" d="M227.344,257.928H70.914c-21.107,0-38.278-17.444-38.278-38.884V113.937
		c0-19.178,13.762-35.121,31.771-38.274V45.477c0-43.004,38.008-77.99,84.722-77.99c46.715,0,84.723,34.985,84.723,77.99
		c0,2.974-2.365,5.377-5.295,5.377c-2.928,0-5.295-2.403-5.295-5.377c0-37.074-33.253-67.232-74.133-67.232
		c-40.879,0-74.132,30.158-74.132,67.232v29.58h152.347c21.106,0,38.279,17.442,38.279,38.88v105.107
		C265.623,240.484,248.45,257.928,227.344,257.928L227.344,257.928z M255.032,113.937c0-15.505-12.423-28.122-27.688-28.122H70.914
		c-15.266,0-27.69,12.617-27.69,28.122v105.107c0,15.509,12.424,28.126,27.69,28.126h156.43c15.266,0,27.688-12.617,27.688-28.126
		V113.937L255.032,113.937z M149.129,193.384c-11.68,0-21.181-9.647-21.181-21.514V139.6c0-11.864,9.5-21.514,21.181-21.514
		c11.681,0,21.182,9.649,21.182,21.514v32.271C170.311,183.737,160.81,193.384,149.129,193.384L149.129,193.384z M159.72,139.6
		c0-5.934-4.748-10.758-10.591-10.758c-5.84,0-10.589,4.824-10.589,10.758v32.271c0,5.934,4.75,10.756,10.589,10.756
		c5.843,0,10.591-4.822,10.591-10.756V139.6L159.72,139.6z"/>
</g>
<g id="Layer_2">
	<path fill="#080707" d="M288.354,228.381H11.647c-4.775,0-8.647-3.893-8.647-8.694V41.994c0-3.056,1.594-5.887,4.202-7.458
		c2.615-1.567,5.845-1.644,8.523-0.208l133.521,71.775l112.951-84.288H11.647C6.872,21.815,3,17.924,3,13.121
		c0-4.802,3.872-8.692,8.647-8.692h276.599c0.207,0.002,0.396,0.002,0.598,0.014c1.203,0.068,2.342,0.382,3.365,0.896
		c1.047,0.523,2.002,1.267,2.789,2.224c0.691,0.831,1.227,1.791,1.57,2.838v0.004c0.002,0.001,0.002,0.003,0.004,0.005
		c0.297,0.915,0.439,1.862,0.428,2.803v206.476C297,224.489,293.129,228.381,288.354,228.381L288.354,228.381z M279.705,30.401
		l-124.549,92.947c-2.693,2.01-6.283,2.27-9.234,0.687L20.295,56.502v154.492h259.41V30.401L279.705,30.401z M239.941,183.562
		c-1.355,1.84-3.445,2.81-5.559,2.81c-1.434,0-2.881-0.446-4.117-1.37l-46.113-34.411c-3.068-2.29-3.709-6.648-1.434-9.733
		c2.279-3.088,6.609-3.729,9.678-1.438l46.113,34.412C241.58,176.119,242.219,180.477,239.941,183.562L239.941,183.562z
		 M115.881,150.583l-46.08,34.414c-1.241,0.927-2.687,1.372-4.121,1.372c-2.112,0-4.2-0.971-5.558-2.807
		c-2.278-3.085-1.639-7.439,1.428-9.731l46.082-34.413c3.066-2.292,7.398-1.649,9.679,1.433
		C119.589,143.936,118.951,148.292,115.881,150.583L115.881,150.583z"/>
</g>
</svg>
