<?xml version="1.0" encoding="utf-8"?>
<!-- Generator: Adobe Illustrator 16.0.0, SVG Export Plug-In . SVG Version: 6.00 Build 0)  -->
<!DOCTYPE svg PUBLIC "-//W3C//DTD SVG 1.1//EN" "http://www.w3.org/Graphics/SVG/1.1/DTD/svg11.dtd">
<svg version="1.1" id="Layer_2" xmlns="http://www.w3.org/2000/svg" xmlns:xlink="http://www.w3.org/1999/xlink" x="0px" y="0px"
	 width="300px" height="300px" viewBox="0 0 300 300" enable-background="new 0 0 300 300" xml:space="preserve">
<path id="XMLID_3_" fill="#010101" d="M94.133,169.651c-2.979,0.078-5.096,2.433-5.018,5.411c0.157,2.822,2.352,4.939,5.254,4.861
	c2.822-0.078,5.018-2.353,5.096-5.177C99.465,171.847,97.035,169.575,94.133,169.651z M94.133,169.651
	c-2.979,0.078-5.096,2.433-5.018,5.411c0.157,2.822,2.352,4.939,5.254,4.861c2.822-0.078,5.018-2.353,5.096-5.177
	C99.465,171.847,97.035,169.575,94.133,169.651z M277.221,91.555c0-1.881-0.313-3.842-0.941-5.645
	c-7.526-21.955-15.133-43.91-22.816-65.786c-3.058-8.625-12.545-15.369-21.72-15.369c-57.945,0-115.968,0.079-173.913-0.157
	c-7.528,0-19.133,6.508-22.504,15.447c-8.232,21.797-16.701,43.596-24.934,65.394c-0.627,1.725-0.941,3.764-0.941,5.646
	c-0.078,3.451,0.078,6.9,0.078,10.272c0.079,13.173,4,24.934,12.86,34.736c1.568,1.724,2.195,3.45,2.195,5.724
	c-0.078,24.387,0,48.771-0.078,73.156c0,1.176-0.078,2.273-0.157,3.685c-2.509,0-4.783,0-6.979,0
	c-4.861,0.078-7.919,2.9-7.919,7.764c-0.078,9.488-0.078,18.896,0,28.384c0.078,4.626,3.215,7.528,7.763,7.604
	c2.823,0,5.567,0.08,8.39,0.08c53.397,0,106.794,0,160.192-0.08c-1.489-5.094-2.432-10.349-2.822-15.758H24.976v-12.233h157.839
	c0.313-3.686,0.783-7.292,1.567-10.899h-69.314c-0.078-1.176-0.157-2.115-0.157-3.137c0-25.246,0.079-50.418-0.079-75.665
	c0-2.745,0.863-3.684,3.45-4.077c2.901-0.47,5.724-1.647,9.096-2.588c0.079,1.333,0.157,2.509,0.157,3.765
	c0,20.386,0,40.772,0,61.159c0,6.744,1.333,7.999,8.155,7.999c17.485,0,35.048,0,52.535,0c1.489-3.686,3.214-7.136,5.175-10.508
	h-55.2c-0.078-1.333-0.157-2.509-0.157-3.606c0-20.856,0.157-41.637-0.157-62.494c-0.079-4.862,2.196-7.919,5.332-11.526
	c7.918,10.978,17.878,18.427,31.834,18.427c13.878-0.08,24.229-6.743,32.383-18.191c3.451,6.429,8.313,10.664,14.036,14.037
	c0.783,0.47,1.568,1.801,1.568,2.744c0,10.584,0.078,21.092,0.078,31.678c3.294-1.805,6.743-3.451,10.35-4.783V141.66
	c4.313-0.237,8.155-0.472,12.311-0.627v22.268c5.018-1.021,10.272-1.568,15.604-1.568c0.156,0,0.313,0,0.549,0
	c0-7.057,0-14.114,0.077-21.171c0-1.098,0.707-2.431,1.491-3.293c4.938-5.096,8.311-11.056,10.898-17.642
	C277.928,110.374,277.3,100.964,277.221,91.555z M105.659,20.124c9.802,0.156,19.525,0,29.326,0c0.862,0,1.646,0.156,2.822,0.235
	v63.904H85.195c1.019-3.92,2.039-7.684,3.058-11.447c4.626-16.623,9.252-33.246,13.8-49.869
	C102.523,20.83,103.386,20.124,105.659,20.124z M37.443,60.19c4.156-11.447,8.39-22.896,12.546-34.343
	c1.175-3.214,3.214-5.567,6.664-5.567c11.448-0.156,22.896-0.078,34.971-0.078c-1.098,4.156-2.117,8.076-3.136,11.918
	c-4.548,16.387-9.095,32.775-13.565,49.241c-0.627,2.274-1.489,3.293-4.077,3.293c-12.781-0.157-25.562-0.078-38.264-0.078h-3.842
	C31.72,76.029,34.62,68.11,37.443,60.19z M32.503,124.566c-3.842-4.156-6.037-9.174-6.743-14.663
	c-0.627-4.783-0.627-9.566-0.941-14.741h48.693c-0.078,7.292,0.627,14.662-2.431,21.484
	C64.494,131.544,42.932,135.935,32.503,124.566z M52.655,223.519H40.58v-82.722c4.156,0.313,7.998,0.549,12.076,0.785V223.519z
	 M104.562,221.795c0,0.548-0.078,1.02-0.235,1.881H63.475c-0.078-1.097-0.235-2.118-0.235-3.136c0-26.424,0-52.848-0.078-79.194
	c0-2.509,1.02-3.607,2.901-5.097c4.705-3.762,9.017-8.076,13.408-12.075c2.901,2.745,5.959,6.43,9.879,9.174
	c3.92,2.746,8.391,4.548,12.86,6.43c1.646,0.706,2.431,1.256,2.431,3.137C104.562,169.182,104.641,195.527,104.562,221.795z
	 M127.771,125.429c-8.233,6.507-20.308,7.292-30.266,1.725c-12.546-7.057-14.427-18.74-13.252-31.991h53.084
	C140.317,105.434,136.083,118.842,127.771,125.429z M148.551,20.437c0.861-0.079,1.724-0.313,2.509-0.313c10.82,0,21.64,0,32.462,0
	c1.568,0,2.509,0.156,2.979,2.038c4.861,20.309,9.801,40.617,14.662,60.846c0.078,0.314,0,0.627-0.077,1.177h-52.614V20.437H148.551
	z M174.818,130.761c-14.35,0.392-25.956-11.449-26.19-25.798c0-3.214,0-6.352,0-9.801h53.24
	C205.006,115.941,194.656,130.29,174.818,130.761z M211.905,81.675c-3.527-14.114-6.899-28.306-10.35-42.42
	c-1.489-6.115-2.979-12.31-4.548-18.818c1.098-0.079,2.117-0.235,3.059-0.235c10.113,0,20.15,0,30.266,0
	c5.41,0,6.821,1.098,8.547,6.352c6.037,18.191,12.075,36.303,18.112,54.495c0.313,1.02,0.628,2.039,1.098,3.45
	c-14.976,0-29.404,0.079-43.909-0.079C213.396,84.419,212.14,82.773,211.905,81.675z M254.326,124.566
	c-9.802,10.899-30.895,7.37-38.107-6.038c-3.921-7.371-3.294-15.29-3.294-23.366h48.458
	C262.088,105.748,261.932,116.098,254.326,124.566z M94.133,169.651c-2.979,0.078-5.096,2.433-5.018,5.411
	c0.157,2.822,2.352,4.939,5.254,4.861c2.822-0.078,5.018-2.353,5.096-5.177C99.465,171.847,97.035,169.575,94.133,169.651z
	 M94.133,169.651c-2.979,0.078-5.096,2.433-5.018,5.411c0.157,2.822,2.352,4.939,5.254,4.861c2.822-0.078,5.018-2.353,5.096-5.177
	C99.465,171.847,97.035,169.575,94.133,169.651z M94.133,169.651c-2.979,0.078-5.096,2.433-5.018,5.411
	c0.157,2.822,2.352,4.939,5.254,4.861c2.822-0.078,5.018-2.353,5.096-5.177C99.465,171.847,97.035,169.575,94.133,169.651z
	 M266.166,205.563c0,8.077,0,15.841,0,23.524c2.666,0.941,5.331,1.805,7.998,2.743c15.837,5.725,19.602,18.115,16.23,31.992
	c-2.666,11.056-10.664,17.093-21.563,19.523c-0.863,0.156-1.646,0.392-2.745,0.55c0,3.764,0,7.449,0,11.291
	c-2.979,0-5.724,0-8.782,0c0-3.529,0-7.134,0-10.899c-15.525-2.273-23.522-11.605-25.797-26.737
	c5.489-0.628,10.586-1.176,15.996-1.724c1.411,5.722,3.999,10.583,9.722,13.327c0-8.544,0-16.858,0-24.935
	c-3.763-1.803-7.526-3.214-10.976-5.173c-8.939-5.176-13.565-15.527-11.92-26.27c1.491-10.114,8.234-17.719,18.036-20.149
	c1.566-0.394,3.136-0.628,4.859-0.941c0-1.883,0-3.844,0-5.881c3.059,0,5.881,0,8.94,0c0,1.961,0,3.842,0,5.881
	c7.526,1.018,13.956,3.762,18.427,10.036c2.43,3.371,3.841,7.213,4.47,11.526c-5.254,0.705-10.351,1.333-15.447,2.037
	C272.358,210.975,270.558,207.445,266.166,205.563z M266.244,270.017c6.429-1.333,10.429-6.429,10.194-12.701
	c-0.237-5.411-4.706-10.038-10.272-10.588c0,7.216,0,14.352,0,21.563C266.166,268.84,266.244,269.388,266.244,270.017z
	 M257.226,205.406c-4.938,1.489-8.076,6.196-7.762,11.056c0.235,3.53,3.293,8.468,7.762,9.253
	C257.226,218.971,257.226,212.307,257.226,205.406z"/>
</svg>
