<?xml version="1.0" encoding="utf-8"?>
<!-- Generator: Adobe Illustrator 16.0.0, SVG Export Plug-In . SVG Version: 6.00 Build 0)  -->
<!DOCTYPE svg PUBLIC "-//W3C//DTD SVG 1.1//EN" "http://www.w3.org/Graphics/SVG/1.1/DTD/svg11.dtd">
<svg version="1.1" id="Layer_1" xmlns="http://www.w3.org/2000/svg" xmlns:xlink="http://www.w3.org/1999/xlink" x="0px" y="0px"
	 width="300px" height="300px" viewBox="0 0 300 300" enable-background="new 0 0 300 300" xml:space="preserve">
<path fill="#333333" d="M262.289,143.943c-0.031,0.394-0.091,0.784-0.176,1.171c-12.99,58.23-46.038,110.142-93.056,146.173
	l-3.505,2.623c-0.252,0.186-0.514,0.363-0.787,0.521c-4.001,2.332-8.554,3.566-13.164,3.566c-5.816,0-11.329-1.877-15.943-5.43
	c-48.307-36.305-82.101-89.176-95.075-148.807c-0.089-0.404-0.148-0.808-0.178-1.208c-1.558-7.726-2.347-15.668-2.347-23.624
	C38.058,55.006,88.944,3,151.49,3c62.557,0,113.449,52.006,113.449,115.931C264.939,127.419,264.049,135.829,262.289,143.943
	L262.289,143.943z M151.49,20.351c-53.184,0-96.452,44.223-96.452,98.58c0,7.114,0.739,14.213,2.197,21.09
	c0.071,0.352,0.125,0.699,0.157,1.047c12.253,55.096,43.618,103.92,88.405,137.583c2.994,2.303,6.978,2.604,10.195,0.908
	l2.933-2.195c43.449-33.297,74.11-81.209,86.379-134.978c0.033-0.397,0.095-0.794,0.184-1.185c1.641-7.195,2.474-14.687,2.474-22.27
	C247.961,64.574,204.687,20.351,151.49,20.351L151.49,20.351z M151.493,168.535c-26.769,0-48.545-22.252-48.545-49.606
	c0-27.359,21.777-49.621,48.545-49.621c26.774,0,48.557,22.261,48.557,49.621C200.05,146.283,178.268,168.535,151.493,168.535
	L151.493,168.535z M151.493,86.661c-17.405,0-31.567,14.475-31.567,32.268c0,17.785,14.162,32.254,31.567,32.254
	c17.412,0,31.578-14.469,31.578-32.254C183.071,101.135,168.905,86.661,151.493,86.661L151.493,86.661z"/>
</svg>
