<svg xmlns="http://www.w3.org/2000/svg" xmlns:xlink="http://www.w3.org/1999/xlink" viewBox="0 0 56 46.25" version="1.1" x="0px" y="0px"><title>quote_start</title><desc>Created with Sketch.</desc><g stroke="none" stroke-width="1" fill="none" fill-rule="evenodd"><g transform="translate(-302.000000, -313.000000)" fill="#000000"><g transform="translate(330.000000, 331.500000) scale(-1, -1) translate(-330.000000, -331.500000) translate(302.000000, 313.000000)"><path d="M10.0097959,32.6756781 C9.29410933,32.8324704 9,32.8500061 9,32.8500061 L9,28.7900085 C13.138852,27.945626 16.3655892,24.5666862 16.9173876,20.2896381 C17.0714528,19.0954624 16.1431121,18.0368784 14.9390432,18.0337382 L4,18 L4,4 L21,4 L21,19 C21,25.6987577 16.2952529,31.2986628 10.0097959,32.6756781 Z M25,2 C25,0.8954305 24.1045695,0 23,0 L2,0 C0.8954305,0 0,0.8954305 0,2 L0,20 C0,21.1025331 0.892254691,21.9971178 1.99478402,21.9999932 L12.2024201,22 C11.1612069,23.798586 9.20924957,25 7,25 C5.8954305,25 5,25.8954305 5,27 L5,35 C5,36.1045695 5.8954305,37 7,37 C16.9411255,37 25,28.9411255 25,19 L25,2 Z"/><path d="M41.0097959,32.6756781 C40.2941093,32.8324704 40,32.8500061 40,32.8500061 L40,28.7900085 C44.138852,27.945626 47.3655892,24.5666862 47.9173876,20.2896381 C48.0714528,19.0954624 47.1431121,18.0368784 45.9390432,18.0337382 L35,18 L35,4 L52,4 L52,19 C52,25.6987577 47.2952529,31.2986628 41.0097959,32.6756781 Z M56,2 C56,0.8954305 55.1045695,0 54,0 L33,0 C31.8954305,0 31,0.8954305 31,2 L31,20 C31,21.1025331 31.8922547,21.9971178 32.994784,21.9999932 L43.2024201,22 C42.1612069,23.798586 40.2092496,25 38,25 C36.8954305,25 36,25.8954305 36,27 L36,35 C36,36.1045695 36.8954305,37 38,37 C47.9411255,37 56,28.9411255 56,19 L56,2 Z"/></g></g></g><text x="0" y="52" fill="#000000" font-size="5px" font-weight="bold" font-family="'Helvetica Neue', Helvetica, Arial-Unicode, Arial, Sans-serif">Created by Andrejs Kirma</text><text x="0" y="57" fill="#000000" font-size="5px" font-weight="bold" font-family="'Helvetica Neue', Helvetica, Arial-Unicode, Arial, Sans-serif">from the Noun Project</text></svg>