<?xml version="1.0" encoding="utf-8"?>
<!-- Generator: Adobe Illustrator 16.0.0, SVG Export Plug-In . SVG Version: 6.00 Build 0)  -->
<!DOCTYPE svg PUBLIC "-//W3C//DTD SVG 1.1//EN" "http://www.w3.org/Graphics/SVG/1.1/DTD/svg11.dtd">
<svg version="1.1" id="Layer_1" xmlns="http://www.w3.org/2000/svg" xmlns:xlink="http://www.w3.org/1999/xlink" x="0px" y="0px"
	 width="300px" height="222.973px" viewBox="0 0 300 222.973" enable-background="new 0 0 300 222.973" xml:space="preserve">
<path fill="#010101" d="M286.708,2.433H12.807c-4.727,0-8.56,4.136-8.56,9.239v200.262c0,5.101,3.833,9.237,8.56,9.237h273.901
	c4.725,0,8.558-4.137,8.558-9.237V11.672C295.266,6.568,291.433,2.433,286.708,2.433z M278.148,20.91v65.802l-40.495-26.898
	c-2.236-1.486-5.057-1.465-7.264,0.057l-74.246,50.955l-28.135-19.18c-2.246-1.535-5.133-1.521-7.371,0.044l-99.272,69.306V20.91
	H278.148z M21.366,202.693v-24.098l103.033-71.93l66.247,45.162c3.186,2.179,7.422,1.153,9.447-2.303
	c2.019-3.453,1.063-8.018-2.134-10.192l-29.01-19.776l65.174-44.731l44.025,29.241v98.627H21.366z M194.299,73.498
	c12.308,0,22.315-10.804,22.315-24.078c0-13.278-10.008-24.078-22.315-24.078c-12.296,0-22.305,10.799-22.305,24.078
	C171.994,62.694,182.003,73.498,194.299,73.498z M194.299,40.122c4.756,0,8.624,4.171,8.624,9.298s-3.868,9.298-8.624,9.298
	c-4.746,0-8.609-4.17-8.609-9.298S189.553,40.122,194.299,40.122z"/>
</svg>
