<?xml version="1.0" encoding="utf-8"?>
<!-- Generator: Adobe Illustrator 16.0.0, SVG Export Plug-In . SVG Version: 6.00 Build 0)  -->
<!DOCTYPE svg PUBLIC "-//W3C//DTD SVG 1.1//EN" "http://www.w3.org/Graphics/SVG/1.1/DTD/svg11.dtd">
<svg version="1.1" id="Layer_1" xmlns="http://www.w3.org/2000/svg" xmlns:xlink="http://www.w3.org/1999/xlink" x="0px" y="0px"
	 width="256.081px" height="297.865px" viewBox="0 0 256.081 297.865" enable-background="new 0 0 256.081 297.865"
	 xml:space="preserve">
<path d="M244.871,263.644c-13.354,18.328-39.894,29.939-72.809,31.846c-2.135,0.125-4.274,0.193-6.432,0.193H90.246
	c-2.165,0-4.307-0.068-6.423-0.193c-33.04-1.912-59.546-13.703-72.73-32.344c-11.378-16.09-11.91-36.293-1.492-56.932l59.24-86.452
	H181.8l65.916,87.606C257.508,227.994,256.577,247.578,244.871,263.644L244.871,263.644z M233.08,212.041l-62.479-78.871H80.384
	l-56.287,78.066c-8.628,16.889-8.504,32.436,0.352,44.959c10.51,14.859,32.531,24.305,60.413,25.922
	c1.772,0.105,3.573,0.156,5.376,0.156h75.386c1.807,0,3.604-0.051,5.386-0.156c27.843-1.609,49.933-10.934,60.601-25.582
	C240.55,244.263,241.059,228.882,233.08,212.041L233.08,212.041z M193.562,39.291c-8.002,5.813-12.599,14.278-15.044,20.355
	c-3.18,7.896-11.753,13.204-21.334,13.204h-71.37c-9.579,0-18.153-5.308-21.333-13.204c-2.446-6.077-7.041-14.542-15.042-20.355
	c-6.487-4.71-9.528-12.004-7.932-19.045C43.07,13.319,48.703,7.853,56.574,5.62c23.474-6.667,44.268-4.417,60.156,6.478
	c2.86,1.958,6.688,1.958,9.541,0c15.888-10.903,36.69-13.146,60.146-6.478c7.878,2.236,13.514,7.705,15.074,14.627
	C203.079,27.287,200.046,34.587,193.562,39.291L193.562,39.291z M186.153,22.794c-0.281-1.255-1.267-3.495-4.644-4.456
	c-18.448-5.244-33.758-3.82-45.479,4.225c-8.557,5.866-20.512,5.866-29.062,0c-7.104-4.874-15.529-7.314-25.17-7.314
	c-6.268,0-13.042,1.025-20.312,3.089c-3.374,0.961-4.352,3.201-4.64,4.456c-0.516,2.321,0.483,4.662,2.688,6.263
	c10.713,7.781,16.636,18.544,19.723,26.214c1.001,2.491,3.633,4.168,6.556,4.168h71.37c2.918,0,5.558-1.677,6.565-4.165
	c3.087-7.657,9.01-18.432,19.724-26.21C185.669,27.46,186.677,25.116,186.153,22.794L186.153,22.794z M225.928,111.091
	c-7.61,6.529-17.621,9.803-27.626,9.803c-8.857,0-17.619-2.713-24.823-7.839H74.608c-4.313,0-7.813-2.998-7.813-6.698
	c0-3.698,3.5-6.706,7.813-6.706h93.775v-6.702H74.608c-4.313,0-7.813-3.001-7.813-6.699c0-3.697,3.5-6.703,7.813-6.703h101.589
	c4.312,0,7.815,3.005,7.815,6.703v16.974c9.189,6.1,22.427,5.624,30.866-1.608c3.058-2.619,7.993-2.619,11.049,0
	C228.983,104.241,228.983,108.476,225.928,111.091L225.928,111.091z M74.608,262.16c-21.543,0-39.073-18.035-39.073-40.215
	c0-3.699,3.502-6.697,7.816-6.697c4.313,0,7.813,2.998,7.813,6.697c0,14.785,10.518,26.811,23.443,26.811
	c4.321,0,7.816,3.004,7.816,6.705C82.424,259.16,78.922,262.16,74.608,262.16L74.608,262.16z"/>
</svg>
