<?xml version="1.0" encoding="utf-8"?>
<!-- Generator: Adobe Illustrator 16.0.0, SVG Export Plug-In . SVG Version: 6.00 Build 0)  -->
<!DOCTYPE svg PUBLIC "-//W3C//DTD SVG 1.1//EN" "http://www.w3.org/Graphics/SVG/1.1/DTD/svg11.dtd">
<svg version="1.1" id="Layer_3" xmlns="http://www.w3.org/2000/svg" xmlns:xlink="http://www.w3.org/1999/xlink" x="0px" y="0px"
	 width="300px" height="202.667px" viewBox="0 0 300 202.667" enable-background="new 0 0 300 202.667" xml:space="preserve">
<path fill="#020202" d="M244.807,26.307c3.731-0.818,5.266-0.909,5.266-0.909v21.17c-21.58,4.403-38.406,22.022-41.283,44.323
	c-0.805,6.228,4.037,11.748,10.314,11.763l57.039,0.176v73.002H187.5V97.617C187.5,62.686,212.032,33.487,244.807,26.307z
	 M166.643,186.259c0,5.759,4.67,10.428,10.428,10.428h109.502c5.76,0,10.429-4.669,10.429-10.428V92.402
	c0-5.749-4.651-10.414-10.401-10.429h-53.225c5.43-9.378,15.605-15.643,27.126-15.643c5.761,0,10.431-4.669,10.431-10.429V14.187
	c0-5.759-4.67-10.428-10.431-10.428c-51.836,0-93.856,42.021-93.856,93.858v88.642H166.643z M83.163,26.307
	c3.732-0.818,5.266-0.909,5.266-0.909v21.17C66.847,50.97,50.022,68.589,47.145,90.891c-0.803,6.227,4.037,11.748,10.315,11.762
	l57.04,0.177v73H25.857V97.616C25.856,62.686,50.389,33.487,83.163,26.307z M5,186.259c0,5.759,4.669,10.428,10.429,10.428h109.5
	c5.759,0,10.428-4.669,10.428-10.428V92.402c0-5.749-4.653-10.414-10.402-10.429H71.729c5.429-9.378,15.607-15.643,27.127-15.643
	c5.759,0,10.428-4.669,10.428-10.429V14.187c0-5.759-4.669-10.428-10.428-10.428C47.021,3.758,5,45.779,5,97.616V186.259z"/>
</svg>
