<?xml version="1.0" encoding="utf-8"?>
<!-- Generator: Adobe Illustrator 16.0.0, SVG Export Plug-In . SVG Version: 6.00 Build 0)  -->
<!DOCTYPE svg PUBLIC "-//W3C//DTD SVG 1.1//EN" "http://www.w3.org/Graphics/SVG/1.1/DTD/svg11.dtd">
<svg version="1.1" id="Layer_1" xmlns="http://www.w3.org/2000/svg" xmlns:xlink="http://www.w3.org/1999/xlink" x="0px" y="0px"
	 width="300px" height="300px" viewBox="0 0 300 300" enable-background="new 0 0 300 300" xml:space="preserve">
<path fill="#0D0D0D" d="M113.2,216.226c-56.564,0-102.844-46.28-102.844-102.846c0-56.564,46.28-102.844,102.844-102.844
	c56.565,0,102.844,46.28,102.844,102.844C216.044,169.945,169.765,216.226,113.2,216.226z M113.2,29.235
	c-46.279,0-84.145,37.866-84.145,84.145c0,46.281,37.866,84.147,84.145,84.147c46.282,0,84.146-37.866,84.146-84.147
	C197.346,67.101,159.481,29.235,113.2,29.235z M288.037,275.128l-65.447-65.446c-3.74-3.741-9.35-3.741-13.089,0
	c-3.739,3.74-3.739,9.348,0,13.087l65.446,65.45c3.739,3.739,9.351,3.739,13.09,0C291.777,284.479,291.777,278.867,288.037,275.128z
	"/>
</svg>
