<?xml version="1.0" encoding="utf-8"?>
<!-- Generator: Adobe Illustrator 16.0.0, SVG Export Plug-In . SVG Version: 6.00 Build 0)  -->
<!DOCTYPE svg PUBLIC "-//W3C//DTD SVG 1.1//EN" "http://www.w3.org/Graphics/SVG/1.1/DTD/svg11.dtd">
<svg version="1.1" id="Layer_2" xmlns="http://www.w3.org/2000/svg" xmlns:xlink="http://www.w3.org/1999/xlink" x="0px" y="0px"
	 width="300px" height="300px" viewBox="0 0 300 300" enable-background="new 0 0 300 300" xml:space="preserve">
<path fill="#0C0C0C" d="M223.078,183.254c-19.186,0-35.938,10.187-45.569,25.433l-58.028-33.665
	c3.741-7.477,6.048-15.799,6.048-24.777c0-5.534-1.049-10.767-2.544-15.802l60.379-35.037c9.896,10.906,23.965,17.823,39.715,17.823
	c29.928,0,54.189-24.629,54.189-55.007c0-30.381-24.262-55.022-54.189-55.022s-54.191,24.641-54.191,55.022
	c0,5.525,1.049,10.775,2.546,15.802l-60.384,35.042c-9.895-10.902-23.965-17.835-39.711-17.835
	c-29.926,0-54.195,24.624-54.195,55.014c0,30.384,24.269,55.017,54.195,55.017c12.355,0,23.606-4.351,32.721-11.425l-0.207,0.429
	l65.62,38.066c-0.206,1.984-0.584,3.908-0.584,5.945c0,30.372,24.264,55.01,54.191,55.01s54.189-24.638,54.189-55.01
	C277.268,207.892,253.006,183.254,223.078,183.254L223.078,183.254z M223.078,29.203c17.956,0,32.514,14.775,32.514,33.019
	c0,18.223-14.558,33.009-32.514,33.009c-17.958,0-32.516-14.786-32.516-33.009C190.563,43.979,205.12,29.203,223.078,29.203
	L223.078,29.203z M71.337,183.254c-17.961,0-32.517-14.775-32.517-33.01c0-18.231,14.556-33.016,32.517-33.016
	c17.959,0,32.514,14.784,32.514,33.016C103.851,168.479,89.296,183.254,71.337,183.254L71.337,183.254z M223.078,271.285
	c-17.958,0-32.516-14.781-32.516-33.009c0-18.247,14.558-33.016,32.516-33.016c17.956,0,32.514,14.769,32.514,33.016
	C255.592,256.504,241.034,271.285,223.078,271.285L223.078,271.285z"/>
</svg>
