<?xml version="1.0" encoding="utf-8"?>
<!-- Generator: Adobe Illustrator 16.0.0, SVG Export Plug-In . SVG Version: 6.00 Build 0)  -->
<!DOCTYPE svg PUBLIC "-//W3C//DTD SVG 1.1//EN" "http://www.w3.org/Graphics/SVG/1.1/DTD/svg11.dtd">
<svg version="1.1" id="Layer_1" xmlns="http://www.w3.org/2000/svg" xmlns:xlink="http://www.w3.org/1999/xlink" x="0px" y="0px"
	 width="279.729px" height="280.405px" viewBox="0 0 279.729 280.405" enable-background="new 0 0 279.729 280.405"
	 xml:space="preserve">
<path fill="#010101" d="M140.047,277.862c-75.895,0-137.422-61.539-137.422-137.428C2.625,64.54,64.152,3.002,140.047,3.002
	S277.47,64.534,277.479,140.435C277.479,216.323,215.945,277.862,140.047,277.862L140.047,277.862z M140.056,17.278
	c-69.042,0-125.222,56.177-125.222,125.219c0,69.038,56.18,125.215,125.222,125.215c69.039,0,125.199-56.177,125.199-125.215
	C265.255,73.466,209.095,17.278,140.056,17.278L140.056,17.278z M140.056,249.382c-55.876,0-101.797-43.108-106.428-97.806h102.108
	l-6.204,6.206c-3.868,3.866-3.868,10.133,0,14.001c1.942,1.94,4.474,2.909,7.005,2.909c2.537,0,5.063-0.969,7.003-2.909
	l23.109-23.104c0,0,0.009-0.007,0.015-0.007l6.989-6.995l-6.989-7c-0.013,0-0.015-0.021-0.015-0.021l-24.759-24.751
	c-3.869-3.869-10.138-3.869-14.008,0c-3.868,3.871-3.868,10.129,0,14.001l7.853,7.856H33.711
	c5.394-53.921,51.026-96.165,106.345-96.165c58.934,0,106.883,47.962,106.883,106.902
	C246.938,201.437,198.989,249.382,140.056,249.382L140.056,249.382z"/>
</svg>
