<?xml version="1.0" encoding="utf-8"?>
<!-- Generator: Adobe Illustrator 16.0.0, SVG Export Plug-In . SVG Version: 6.00 Build 0)  -->
<!DOCTYPE svg PUBLIC "-//W3C//DTD SVG 1.1//EN" "http://www.w3.org/Graphics/SVG/1.1/DTD/svg11.dtd">
<svg version="1.1" id="Layer_3" xmlns="http://www.w3.org/2000/svg" xmlns:xlink="http://www.w3.org/1999/xlink" x="0px" y="0px"
	 width="300px" height="253.716px" viewBox="0 0 300 253.716" enable-background="new 0 0 300 253.716" xml:space="preserve">
<path d="M155.402,216.063c-0.923,0.182-1.904,0.182-2.897-0.043l-0.352-0.081c-3.539-0.785-5.933-4.06-5.584-7.632
	c0.349-3.578,3.327-6.339,6.953-6.44c53.535-1.528,95.474-41.463,95.474-90.911c0-50.166-44.22-90.981-98.575-90.981
	c-54.354,0-98.574,40.815-98.574,90.981c0,33.129,19.551,63.675,51.021,79.705c2.955,1.503,4.482,4.816,3.703,8.018
	c-0.067,0.263-0.146,0.522-0.24,0.781l-10.44,34.325c7.395,0.141,20.154-1.633,35.254-12.812c3.179-2.352,7.692-1.711,10.069,1.44
	c2.38,3.154,1.729,7.619-1.458,9.978c-17.283,12.801-32.696,15.601-42.873,15.601c-7.527,0-12.187-1.536-12.625-1.684
	c-3.644-1.252-5.645-5.13-4.533-8.791l11.27-37.051c-33.173-19.135-53.538-52.927-53.538-89.51
	c0-58.024,50.676-105.232,112.964-105.232c62.291,0,112.965,47.208,112.965,105.232C263.386,167.71,216.074,213.619,155.402,216.063
	L155.402,216.063z M175.699,116.256l-11.656,10.971c-3.961,4.037-5.94,8.448-5.94,13.24c0,2.267-0.731,4.147-2.189,5.634
	c-1.461,1.489-3.306,2.236-5.535,2.236c-2.228,0-4.08-0.747-5.566-2.236c-1.485-1.486-2.229-3.367-2.229-5.634
	c0-9.079,3.538-17.223,10.619-24.437l11.655-11.047c3.961-4.186,5.94-9.102,5.94-14.753c0-2.824-0.547-5.494-1.63-8.018
	c-1.096-2.521-2.563-4.727-4.423-6.624c-1.852-1.888-4.023-3.388-6.495-4.499c-2.479-1.107-5.102-1.664-7.873-1.664
	c-2.82,0-5.471,0.541-7.946,1.625c-2.476,1.086-4.637,2.565-6.496,4.428c-1.855,1.866-3.317,4.061-4.38,6.582
	c-1.066,2.522-1.594,5.248-1.594,8.169c0,1.111-0.211,2.146-0.634,3.102c-0.418,0.961-0.979,1.804-1.668,2.533
	c-0.698,0.732-1.515,1.303-2.451,1.704c-0.944,0.408-1.959,0.606-3.045,0.606c-2.229,0-4.072-0.757-5.534-2.271
	c-1.458-1.512-2.19-3.405-2.19-5.674c0-5.042,0.954-9.782,2.862-14.224c1.903-4.436,4.489-8.321,7.756-11.649
	c3.271-3.329,7.08-5.948,11.438-7.868c4.351-1.916,8.985-2.875,13.882-2.875c4.902,0,9.527,0.986,13.885,2.95
	c4.354,1.968,8.169,4.616,11.436,7.944c3.268,3.329,5.854,7.214,7.76,11.649c1.903,4.441,2.858,9.131,2.858,14.072
	C186.317,100.217,182.779,108.894,175.699,116.256L175.699,116.256z M157.845,172.762c-2.058,2.093-4.544,3.138-7.466,3.138
	s-5.408-1.045-7.463-3.138c-2.053-2.094-3.081-4.625-3.081-7.604c0-2.976,1.028-5.51,3.081-7.604
	c2.056-2.092,4.541-3.141,7.463-3.141s5.409,1.049,7.466,3.141c2.05,2.095,3.079,4.629,3.079,7.604
	C160.924,168.137,159.895,170.668,157.845,172.762L157.845,172.762z"/>
</svg>
