<?xml version="1.0" encoding="utf-8"?>
<!-- Generator: Adobe Illustrator 16.0.0, SVG Export Plug-In . SVG Version: 6.00 Build 0)  -->
<!DOCTYPE svg PUBLIC "-//W3C//DTD SVG 1.1//EN" "http://www.w3.org/Graphics/SVG/1.1/DTD/svg11.dtd">
<svg version="1.1" id="Layer_2" xmlns="http://www.w3.org/2000/svg" xmlns:xlink="http://www.w3.org/1999/xlink" x="0px" y="0px"
	 width="300px" height="300px" viewBox="0 0 300 300" enable-background="new 0 0 300 300" xml:space="preserve">
<path fill="#010101" d="M73.235,194.795c26.222,31.345,57.786,56.022,93.812,73.485c13.718,6.5,32.062,14.212,52.499,15.533
	c1.267,0.057,2.479,0.111,3.745,0.111c13.717,0,24.734-4.736,33.713-14.488c0.057-0.055,0.165-0.165,0.221-0.274
	c3.194-3.856,6.831-7.326,10.632-11.018c2.59-2.479,5.233-5.069,7.768-7.712c11.733-12.229,11.733-27.764-0.11-39.606
	l-33.107-33.109c-5.619-5.837-12.339-8.924-19.391-8.924c-7.051,0-13.827,3.087-19.61,8.869l-19.722,19.722
	c-1.817-1.047-3.689-1.983-5.453-2.864c-2.204-1.103-4.242-2.149-6.06-3.306c-17.958-11.402-34.264-26.276-49.854-45.391
	c-7.877-9.971-13.166-18.344-16.856-26.883c5.179-4.682,10.026-9.585,14.708-14.377c1.653-1.708,3.36-3.416,5.068-5.123
	c5.949-5.949,9.145-12.835,9.145-19.831s-3.14-13.882-9.145-19.832l-16.416-16.416c-1.929-1.928-3.746-3.801-5.619-5.729
	c-3.636-3.746-7.437-7.602-11.183-11.072c-5.674-5.564-12.339-8.483-19.391-8.483c-6.996,0-13.717,2.919-19.611,8.539L32.416,47.217
	c-7.491,7.491-11.733,16.581-12.615,27.103c-1.046,13.166,1.377,27.158,7.657,44.069C37.098,144.556,51.642,168.85,73.235,194.795z
	 M33.242,75.477c0.661-7.326,3.471-13.441,8.759-18.729l20.492-20.493c3.195-3.084,6.721-4.682,10.136-4.682
	c3.36,0,6.776,1.598,9.916,4.792c3.691,3.416,7.162,6.997,10.907,10.797c1.873,1.928,3.801,3.856,5.729,5.839l16.416,16.416
	c3.416,3.416,5.179,6.886,5.179,10.301s-1.763,6.886-5.179,10.301c-1.708,1.708-3.415,3.471-5.123,5.179
	c-5.123,5.178-9.916,10.081-15.204,14.763c-0.11,0.11-0.165,0.166-0.276,0.275c-4.572,4.572-3.855,8.924-2.754,12.229
	c0.055,0.166,0.11,0.276,0.166,0.441c4.242,10.191,10.136,19.887,19.335,31.454c16.525,20.384,33.933,36.192,53.104,48.366
	c2.368,1.543,4.902,2.754,7.271,3.968c2.202,1.101,4.241,2.147,6.06,3.304c0.221,0.11,0.385,0.222,0.605,0.33
	c1.818,0.938,3.58,1.378,5.344,1.378c4.406,0,7.271-2.809,8.208-3.745l20.603-20.604c3.195-3.195,6.665-4.903,10.08-4.903
	c4.188,0,7.603,2.59,9.751,4.903l33.218,33.162c6.609,6.611,6.554,13.771-0.167,20.769c-2.313,2.479-4.736,4.848-7.325,7.325
	c-3.856,3.748-7.877,7.604-11.514,11.955c-6.335,6.831-13.881,10.026-23.632,10.026c-0.937,0-1.929-0.055-2.865-0.111
	c-18.067-1.155-34.87-8.207-47.483-14.213c-34.265-16.58-64.342-40.103-89.296-69.96c-20.547-24.733-34.374-47.759-43.518-72.438
	C34.51,98.723,32.36,86.549,33.242,75.477z"/>
</svg>
