<?xml version="1.0" encoding="utf-8"?>
<!-- Generator: Adobe Illustrator 16.0.0, SVG Export Plug-In . SVG Version: 6.00 Build 0)  -->
<!DOCTYPE svg PUBLIC "-//W3C//DTD SVG 1.1//EN" "http://www.w3.org/Graphics/SVG/1.1/DTD/svg11.dtd">
<svg version="1.1" id="Layer_1" xmlns="http://www.w3.org/2000/svg" xmlns:xlink="http://www.w3.org/1999/xlink" x="0px" y="0px"
	 width="300px" height="300px" viewBox="0 0 300 300" enable-background="new 0 0 300 300" xml:space="preserve">
<path fill="#070606" d="M290.565,261.478c0.898-27.226-70.375-47.377-112.939-56.967c-5.264-1.185-10.513,2.151-11.696,7.468
	c-1.183,5.312,2.14,10.582,7.418,11.771c48.453,10.919,93.823,28.354,97.629,37.478v13.182H32.591l-0.005-13.17
	c3.761-9.108,49.154-26.557,97.633-37.489c4.476-1.008,7.657-5.004,7.657-9.619v-17.577c2.637,0.348,5.32,0.546,8.049,0.546h11.721
	c34.029,0,61.717-27.865,61.717-62.115V67.554c0-34.251-27.688-62.116-61.717-62.116h-11.721c-34.034,0-61.72,27.865-61.72,62.116
	v67.431c0,24.253,13.891,45.29,34.079,55.513v15.782C75.372,216.454,12.155,235.81,13,261.147v23.119c0,5.444,4.387,9.86,9.798,9.86
	h257.976c5.41,0,9.795-4.416,9.795-9.86L290.565,261.478z M103.798,134.984V67.554c0-23.38,18.896-42.395,42.127-42.395h11.721
	c23.226,0,42.124,19.015,42.124,42.395v67.431c0,23.377-18.898,42.396-42.124,42.396h-11.721
	C122.694,177.38,103.798,158.361,103.798,134.984z"/>
</svg>
