<?xml version="1.0" encoding="utf-8"?>
<!-- Generator: Adobe Illustrator 16.0.0, SVG Export Plug-In . SVG Version: 6.00 Build 0)  -->
<!DOCTYPE svg PUBLIC "-//W3C//DTD SVG 1.1//EN" "http://www.w3.org/Graphics/SVG/1.1/DTD/svg11.dtd">
<svg version="1.1" id="Layer_1" xmlns="http://www.w3.org/2000/svg" xmlns:xlink="http://www.w3.org/1999/xlink" x="0px" y="0px"
	 width="171.663px" height="171.663px" viewBox="0 0 171.663 171.663" enable-background="new 0 0 171.663 171.663"
	 xml:space="preserve">
<path d="M168.597,11.444h-21.458V2.859c0-1.582-1.371-2.859-3.066-2.859h-21.459c-1.696,0-3.062,1.277-3.062,2.859v8.585H52.111
	V2.859c0-1.582-1.37-2.859-3.066-2.859H27.587c-1.696,0-3.067,1.277-3.067,2.859v8.585H3.063C1.371,11.444,0,12.72,0,14.303v31.472
	V168.8c0,1.583,1.371,2.862,3.063,2.862h165.535c1.695,0,3.065-1.279,3.065-2.862V45.775V14.303
	C171.663,12.72,170.292,11.444,168.597,11.444z M125.681,5.718h15.324v8.585v8.584h-15.324v-8.584V5.718z M30.653,5.718h15.329
	v8.585v8.584H30.653v-8.584V5.718z M6.129,17.163H24.52v8.584c0,1.583,1.371,2.865,3.067,2.865h21.458
	c1.696,0,3.066-1.282,3.066-2.865v-8.584h67.441v8.584c0,1.583,1.365,2.865,3.062,2.865h21.459c1.695,0,3.066-1.282,3.066-2.865
	v-8.584h18.392v25.753H6.129V17.163z M6.129,165.942V48.638h159.402v117.304H6.129z M110.352,65.803H88.894h-6.129H61.307h-6.133
	H27.587v25.751v5.722v20.027v5.719v25.754h27.586h6.133h21.458h6.129h21.458h6.134h27.587v-25.754v-5.719V97.276v-5.722V65.803
	h-27.587H110.352z M88.894,71.522h21.458v20.032H88.894V71.522z M110.352,117.303H88.894V97.276h21.458V117.303z M61.307,97.276
	h21.458v20.027H61.307V97.276z M61.307,71.522h21.458v20.032H61.307V71.522z M33.72,71.522h21.454v20.032H33.72V71.522z
	 M33.72,97.276h21.454v20.027H33.72V97.276z M55.174,143.05H33.72v-20.028h21.454V143.05z M82.765,143.05H61.307v-20.028h21.458
	V143.05z M110.352,143.05H88.894v-20.028h21.458V143.05z M137.944,143.05h-21.458v-20.028h21.458V143.05z M137.944,117.303h-21.458
	V97.276h21.458V117.303z M137.944,71.522v20.032h-21.458V71.522H137.944z"/>
</svg>
