<?xml version="1.0" encoding="utf-8"?>
<!-- Generator: Adobe Illustrator 16.0.0, SVG Export Plug-In . SVG Version: 6.00 Build 0)  -->
<!DOCTYPE svg PUBLIC "-//W3C//DTD SVG 1.1//EN" "http://www.w3.org/Graphics/SVG/1.1/DTD/svg11.dtd">
<svg version="1.1" id="Layer_1" xmlns="http://www.w3.org/2000/svg" xmlns:xlink="http://www.w3.org/1999/xlink" x="0px" y="0px"
	 width="200px" height="143.875px" viewBox="0 0 200 143.875" enable-background="new 0 0 200 143.875" xml:space="preserve">
<path d="M179.52,0.872H20.475c-10.979,0-19.877,9.083-19.877,20.284v101.435c0,11.202,8.898,20.284,19.877,20.284H179.52
	c10.979,0,19.882-9.082,19.882-20.284V21.156C199.401,9.956,190.499,0.872,179.52,0.872z M37.874,40.894
	c0-13.937,10.133-20.658,18.619-20.658c8.778,0,18.62,6.721,18.62,20.658v10.322c0,13.947-13.637,20.658-18.62,20.658
	c-4.719,0-18.619-6.711-18.619-20.658V40.894z M93.788,110.602c0,9.363-3.033,12.909-12.425,12.909H31.666
	c-9.392,0-12.425-3.546-12.425-12.909c-0.014-0.102,0-6.343,0-6.455c0-7.089,3.111-17.087,14.135-24.831
	c4.572-3.208,10.35,1.97,16.928,7.987l1.816,1.888c0.06,0.06,2.062,2.047,4.448,2.047c2.417,0,4.358-2.071,4.358-2.071v0.004
	l1.798-1.867c6.574-6.018,11.552-11.094,16.928-7.987c11.621,6.722,14.135,17.742,14.135,24.831
	C93.788,104.259,93.797,110.5,93.788,110.602z M174.552,110.602h-55.914c-3.435,0-6.212-2.89-6.212-6.455
	c0-3.563,2.777-6.456,6.212-6.456h55.914c3.435,0,6.212,2.893,6.212,6.456C180.764,107.712,177.986,110.602,174.552,110.602z
	 M174.552,78.327h-55.914c-3.435,0-6.212-2.89-6.212-6.454s2.777-6.453,6.212-6.453h55.914c3.435,0,6.212,2.889,6.212,6.453
	S177.986,78.327,174.552,78.327z M174.552,46.053h-55.914c-3.435,0-6.212-2.89-6.212-6.453c0-3.564,2.777-6.454,6.212-6.454h55.914
	c3.435,0,6.212,2.889,6.212,6.454C180.764,43.163,177.986,46.053,174.552,46.053z"/>
</svg>
