<?xml version="1.0" encoding="utf-8"?>
<!-- Generator: Adobe Illustrator 16.0.0, SVG Export Plug-In . SVG Version: 6.00 Build 0)  -->
<!DOCTYPE svg PUBLIC "-//W3C//DTD SVG 1.1//EN" "http://www.w3.org/Graphics/SVG/1.1/DTD/svg11.dtd">
<svg version="1.1" id="Layer_1" xmlns="http://www.w3.org/2000/svg" xmlns:xlink="http://www.w3.org/1999/xlink" x="0px" y="0px"
	 width="200px" height="200px" viewBox="0 0 200 200" enable-background="new 0 0 200 200" xml:space="preserve">
<path d="M173.701,5.285H24.586c-11.719,0-21.3,9.587-21.3,21.299v63.908v85.207c0,11.264,8.865,20.534,19.964,21.232
	c0.443,0.028,0.885,0.068,1.335,0.068h0.001h149.115l0,0c0.732,0,1.457-0.037,2.17-0.11C186.58,195.793,195,186.681,195,175.699
	V26.584C195,14.872,185.42,5.285,173.701,5.285z M24.586,175.699V26.584h106.505h42.609v149.115H24.586z"/>
<g display="none">
	<polygon points="-345.523,-235.094 -360.436,-220.183 -312.506,-172.254 -206,-278.761 -220.911,-293.672 -312.506,-202.076 	"/>
	<path d="M-227.299-140.301h-149.116v-149.115h106.506v-21.299h-106.506c-11.718,0-21.299,9.587-21.299,21.299v149.115
		c0,11.714,9.582,21.301,21.299,21.301h149.116c11.713,0,21.299-9.587,21.299-21.301v-85.207h-21.299V-140.301z"/>
</g>
<g display="none" opacity="0.5">
	<polygon fill="#5CBCEA" points="-258.19,-235.094 -243.278,-220.184 -291.208,-172.254 -397.714,-278.761 -382.803,-293.672 
		-291.208,-202.076 	"/>
	<path display="inline" fill="#5CBCEA" d="M-376.415-140.301H-227.3v-149.115h-106.506v-21.299H-227.3
		c11.719,0,21.3,9.587,21.3,21.299v149.115c0,11.714-9.581,21.301-21.3,21.301h-149.115c-11.713,0-21.299-9.587-21.299-21.301
		v-85.207h21.299V-140.301z"/>
</g>
</svg>
