<?xml version="1.0" encoding="utf-8"?>
<!-- Generator: Adobe Illustrator 16.0.0, SVG Export Plug-In . SVG Version: 6.00 Build 0)  -->
<!DOCTYPE svg PUBLIC "-//W3C//DTD SVG 1.1//EN" "http://www.w3.org/Graphics/SVG/1.1/DTD/svg11.dtd">
<svg version="1.1" id="Layer_1" xmlns="http://www.w3.org/2000/svg" xmlns:xlink="http://www.w3.org/1999/xlink" x="0px" y="0px"
	 width="173.25px" height="173.25px" viewBox="0 0 173.25 173.25" enable-background="new 0 0 173.25 173.25" xml:space="preserve">
<path d="M86.625,0C38.584,0,0,38.584,0,86.625c0,48.037,38.584,86.625,86.625,86.625c48.037,0,86.625-38.588,86.625-86.625
	C173.25,38.584,134.662,0,86.625,0z M99.225,88.201l29.528,29.528c0.788,0.787,1.185,1.968,1.185,2.756s-0.396,1.973-1.185,2.756
	l-5.512,5.512c-0.783,0.788-1.968,1.185-2.756,1.185c-1.181,0-1.969-0.396-2.756-1.185L88.201,99.225
	c-0.793-0.788-1.973-0.788-2.761,0l-29.528,29.528c-0.788,0.788-1.973,1.185-2.756,1.185c-1.184,0-1.973-0.396-2.756-1.185
	l-5.512-5.512c-0.788-0.783-1.185-1.968-1.185-2.756s0.396-1.969,1.185-2.756l29.528-29.528c0.788-0.788,0.788-1.973,0-2.761
	L44.889,55.913c-0.788-0.788-1.185-1.973-1.185-2.76c0-0.784,0.396-1.968,1.185-2.751l5.512-5.512
	c0.783-0.788,1.968-1.185,2.756-1.185c0.783,0,1.968,0.396,2.756,1.185L85.44,74.417c0.788,0.788,1.968,0.788,2.761,0l29.528-29.528
	c0.787-0.788,1.968-1.185,2.756-1.185c1.184,0,1.973,0.396,2.756,1.185l5.512,5.512c0.788,0.783,1.185,1.968,1.185,2.751
	c0,0.788-0.396,1.972-1.185,2.76L99.225,85.44C98.438,85.837,98.438,87.413,99.225,88.201z"/>
</svg>
