<?xml version="1.0" encoding="utf-8"?>
<!-- Generator: Adobe Illustrator 16.0.0, SVG Export Plug-In . SVG Version: 6.00 Build 0)  -->
<!DOCTYPE svg PUBLIC "-//W3C//DTD SVG 1.1//EN" "http://www.w3.org/Graphics/SVG/1.1/DTD/svg11.dtd">
<svg version="1.1" id="Layer_1" xmlns="http://www.w3.org/2000/svg" xmlns:xlink="http://www.w3.org/1999/xlink" x="0px" y="0px"
	 width="200px" height="200px" viewBox="0 0 200 200" enable-background="new 0 0 200 200" xml:space="preserve">
<path fill="#E81E25" d="M57.247,67.175c-6.895,0-12.5,5.8-12.5,12.931c0,7.128,5.606,12.928,12.5,12.928s12.501-5.8,12.501-12.928
	C69.749,72.975,64.142,67.175,57.247,67.175z M57.247,86.569c-3.447,0-6.25-2.898-6.25-6.463c0-3.566,2.803-6.464,6.25-6.464
	c3.447,0,6.25,2.897,6.25,6.464C63.498,83.671,60.694,86.569,57.247,86.569z M101,67.175c-6.894,0-12.5,5.8-12.5,12.931
	c0,7.128,5.606,12.928,12.5,12.928s12.501-5.8,12.501-12.928C113.501,72.975,107.894,67.175,101,67.175z M101,86.569
	c-3.447,0-6.25-2.898-6.25-6.463c0-3.566,2.803-6.464,6.25-6.464s6.25,2.897,6.25,6.464C107.25,83.671,104.446,86.569,101,86.569z
	 M144.752,67.175c-6.894,0-12.5,5.8-12.5,12.931c0,7.128,5.606,12.928,12.5,12.928c6.895,0,12.501-5.8,12.501-12.928
	C157.253,72.975,151.646,67.175,144.752,67.175z M144.752,86.569c-3.447,0-6.25-2.898-6.25-6.463c0-3.566,2.803-6.464,6.25-6.464
	c3.447,0,6.25,2.897,6.25,6.464C151.002,83.671,148.199,86.569,144.752,86.569z M176.004,8.997H25.996
	c-10.164,0-18.751,8.882-18.751,19.393v106.66c0,10.512,8.588,19.395,18.751,19.395h89.249l30.324,34.497
	c0.603,0.687,1.446,1.057,2.309,1.057c0.378,0,0.76-0.069,1.129-0.217c1.204-0.481,1.996-1.681,1.996-3.015v-32.322h25.002
	c10.163,0,18.751-8.883,18.751-19.395V28.39C194.755,17.879,186.167,8.997,176.004,8.997z M188.505,135.05
	c0,7.009-5.726,12.931-12.501,12.931h-28.127c-1.724,0-3.125,1.445-3.125,3.231v27.194l-25.761-29.307l-15.62-18.786
	c-1.125-1.35-3.103-1.511-4.406-0.338c-1.31,1.158-1.457,3.203-0.331,4.556l11.182,13.449h-83.82
	c-6.775,0-12.501-5.921-12.501-12.931V28.39c0-7.007,5.727-12.926,12.501-12.926h150.008c6.775,0,12.501,5.919,12.501,12.926V135.05
	z"/>
</svg>
