<?xml version="1.0" encoding="utf-8"?>
<!-- Generator: Adobe Illustrator 16.0.0, SVG Export Plug-In . SVG Version: 6.00 Build 0)  -->
<!DOCTYPE svg PUBLIC "-//W3C//DTD SVG 1.1//EN" "http://www.w3.org/Graphics/SVG/1.1/DTD/svg11.dtd">
<svg version="1.1" id="Capa_1" xmlns="http://www.w3.org/2000/svg" xmlns:xlink="http://www.w3.org/1999/xlink" x="0px" y="0px"
	 width="200px" height="200px" viewBox="0 0 200 200" enable-background="new 0 0 200 200" xml:space="preserve">
<path d="M187.045,12.956c-17.215-17.259-45.213-17.259-62.429,0L10.155,127.374c-0.895,0.896-1.449,2.046-1.619,3.281l-8.48,62.813
	c-0.255,1.789,0.384,3.579,1.62,4.814c1.065,1.065,2.557,1.705,4.048,1.705c0.255,0,0.511,0,0.767-0.043l37.841-5.113
	c3.153-0.426,5.37-3.324,4.943-6.478s-3.324-5.369-6.478-4.943l-30.341,4.091l5.923-43.807l46.108,46.107
	c1.065,1.066,2.557,1.705,4.048,1.705c1.492,0,2.983-0.597,4.048-1.705l114.46-114.417C195.397,67.033,200,55.953,200,44.149
	C200,32.345,195.397,21.266,187.045,12.956z M126.832,27.019l19.219,19.219L41.604,150.684l-19.219-19.219L126.832,27.019z
	 M68.579,177.615l-18.793-18.792L154.232,54.376l18.793,18.793L68.579,177.615z M181.037,64.945l-45.98-45.98
	c5.838-4.815,13.125-7.458,20.795-7.458c8.736,0,16.918,3.409,23.098,9.546c6.179,6.136,9.545,14.361,9.545,23.097
	C188.494,51.862,185.852,59.106,181.037,64.945z"/>
</svg>
