<?xml version="1.0" encoding="utf-8"?>
<!-- Generator: Adobe Illustrator 16.0.0, SVG Export Plug-In . SVG Version: 6.00 Build 0)  -->
<!DOCTYPE svg PUBLIC "-//W3C//DTD SVG 1.1//EN" "http://www.w3.org/Graphics/SVG/1.1/DTD/svg11.dtd">
<svg version="1.1" id="Layer_1" xmlns="http://www.w3.org/2000/svg" xmlns:xlink="http://www.w3.org/1999/xlink" x="0px" y="0px"
	 width="200px" height="156.75px" viewBox="0 0 200 156.75" enable-background="new 0 0 200 156.75" xml:space="preserve">
<path d="M196.875,129.5c0,4.489-1.201,8.658-3.128,12.327l-61.49-72.426l60.825-56.015c2.367,3.954,3.793,8.594,3.793,13.613V129.5z
	 M99.5,82.554l84.633-77.95c-3.474-2.002-7.382-3.229-11.602-3.229H26.469c-4.224,0-8.138,1.227-11.596,3.229L99.5,82.554z
	 M123.094,77.839l-19.59,18.053c-1.146,1.052-2.573,1.577-4.004,1.577s-2.862-0.525-4.009-1.577L75.897,77.835l-62.266,73.346
	c3.732,2.468,8.107,3.944,12.837,3.944h146.063c4.729,0,9.104-1.477,12.837-3.944L123.094,77.839z M5.918,13.387
	C3.551,17.34,2.125,21.98,2.125,27v102.5c0,4.489,1.196,8.658,3.123,12.327l61.484-72.436L5.918,13.387z"/>
</svg>
