<?xml version="1.0" encoding="utf-8"?>
<!-- Generator: Adobe Illustrator 16.0.0, SVG Export Plug-In . SVG Version: 6.00 Build 0)  -->
<!DOCTYPE svg PUBLIC "-//W3C//DTD SVG 1.1//EN" "http://www.w3.org/Graphics/SVG/1.1/DTD/svg11.dtd">
<svg version="1.1" id="Layer_1" xmlns="http://www.w3.org/2000/svg" xmlns:xlink="http://www.w3.org/1999/xlink" x="0px" y="0px"
	 width="99.078px" height="180.146px" viewBox="0 0 99.078 180.146" enable-background="new 0 0 99.078 180.146"
	 xml:space="preserve">
<path d="M95.345,0.035L71.582,0c-26.7,0-43.95,17.403-43.95,44.332v20.442H3.739C1.671,64.773,0,66.418,0,68.45v29.616
	c0,2.031,1.675,3.672,3.739,3.672h23.89v74.731c0,2.031,1.671,3.677,3.738,3.677H62.54c2.066,0,3.737-1.649,3.737-3.677v-74.731
	h27.937c2.063,0,3.734-1.641,3.734-3.672l0.013-29.616c0-0.977-0.396-1.909-1.095-2.599c-0.699-0.686-1.653-1.078-2.644-1.078
	H66.277V47.445c0-8.33,2.019-12.556,13.054-12.556l16.009-0.004c2.063,0,3.738-1.645,3.738-3.672V3.708
	C99.078,1.68,97.406,0.039,95.345,0.035z"/>
</svg>
