<?xml version="1.0" encoding="utf-8"?>
<!-- Generator: Adobe Illustrator 16.0.0, SVG Export Plug-In . SVG Version: 6.00 Build 0)  -->
<!DOCTYPE svg PUBLIC "-//W3C//DTD SVG 1.1//EN" "http://www.w3.org/Graphics/SVG/1.1/DTD/svg11.dtd">
<svg version="1.1" id="Layer_1" xmlns="http://www.w3.org/2000/svg" xmlns:xlink="http://www.w3.org/1999/xlink" x="0px" y="0px"
	 width="170.333px" height="170.334px" viewBox="0 0 170.333 170.334" enable-background="new 0 0 170.333 170.334"
	 xml:space="preserve">
<path d="M151.751,25.233V0H0v148.255h21.677v22.079h148.657V25.233H151.751z M6.195,141.942V6.306h139.363v18.928H21.677v116.709
	H6.195z M164.138,164.025H27.872v-15.771V31.542h123.879h12.387V164.025z M130.075,94.628H99.102V63.086
	c0-1.744-1.384-3.156-3.098-3.156c-1.711,0-3.095,1.413-3.095,3.156v31.542H61.94c-1.714,0-3.098,1.412-3.098,3.155
	c0,1.744,1.384,3.156,3.098,3.156h30.97v31.542c0,1.744,1.384,3.155,3.095,3.155c1.714,0,3.098-1.411,3.098-3.155v-31.542h30.973
	c1.712,0,3.095-1.412,3.095-3.156C133.169,96.04,131.787,94.628,130.075,94.628z"/>
</svg>
