<?xml version="1.0" encoding="utf-8"?>
<!-- Generator: Adobe Illustrator 16.0.0, SVG Export Plug-In . SVG Version: 6.00 Build 0)  -->
<!DOCTYPE svg PUBLIC "-//W3C//DTD SVG 1.1//EN" "http://www.w3.org/Graphics/SVG/1.1/DTD/svg11.dtd">
<svg version="1.1" id="Layer_1" xmlns="http://www.w3.org/2000/svg" xmlns:xlink="http://www.w3.org/1999/xlink" x="0px" y="0px"
	 width="194.167px" height="164.414px" viewBox="0 0 194.167 164.414" enable-background="new 0 0 194.167 164.414"
	 xml:space="preserve">
<path d="M184.7,151.745v-92.66h-7.381V47.401l-11.125-7.552l-11.127,7.552v11.685h-2.812V42.187h-26.228V20.888L96.999,1.181
	L67.965,20.888v21.299H41.739v16.899h-2.813V47.401l-11.127-7.552l-11.12,7.552v11.685h-7.38v92.66H0.831v11.402h192.336v-11.402
	H184.7z M25.995,59.085h-5.708v-8.941h5.708V59.085z M29.604,50.144h5.714v8.941h-5.714V50.144z M40.809,144.982H30.592v-21.481
	h10.217V144.982L40.809,144.982z M40.809,118.727H30.592V97.25h10.217V118.727L40.809,118.727z M40.809,92.476H30.592V70.994h10.217
	V92.476L40.809,92.476z M65.326,144.982H55.114v-21.481h10.212V144.982z M65.326,118.727H55.114V97.25h10.212V118.727z
	 M65.326,92.476H55.114V70.994h10.212V92.476z M89.848,144.982H79.63v-21.481h10.217V144.982z M89.848,118.727H79.63V97.25h10.217
	V118.727z M89.848,92.476H79.63V70.994h10.217V92.476z M86.579,34.07c0-5.605,4.667-10.143,10.42-10.143s10.42,4.538,10.42,10.143
	c0,5.6-4.667,10.143-10.42,10.143S86.579,39.67,86.579,34.07z M114.364,144.982h-10.218v-21.481h10.218V144.982z M114.364,118.727
	h-10.218V97.25h10.218V118.727z M114.364,92.476h-10.218V70.994h10.218V92.476z M138.884,144.982h-10.217v-21.481h10.217V144.982z
	 M138.884,118.727h-10.217V97.25h10.217V118.727z M138.884,92.476h-10.217V70.994h10.217V92.476z M163.4,144.982h-10.217v-21.481
	H163.4V144.982z M163.4,118.727h-10.217V97.25H163.4V118.727z M163.4,92.476h-10.217V70.994H163.4V92.476z M164.391,59.085h-5.716
	v-8.941h5.716V59.085z M173.712,59.085h-5.714v-8.941h5.714V59.085z"/>
</svg>
