<?xml version="1.0" encoding="utf-8"?>
<!-- Generator: Adobe Illustrator 16.0.0, SVG Export Plug-In . SVG Version: 6.00 Build 0)  -->
<!DOCTYPE svg PUBLIC "-//W3C//DTD SVG 1.1//EN" "http://www.w3.org/Graphics/SVG/1.1/DTD/svg11.dtd">
<svg version="1.1" id="Layer_1" xmlns="http://www.w3.org/2000/svg" xmlns:xlink="http://www.w3.org/1999/xlink" x="0px" y="0px"
	 width="184.667px" height="184.668px" viewBox="0 0 184.667 184.668" enable-background="new 0 0 184.667 184.668"
	 xml:space="preserve">
<path d="M184.667,113.221v71.447h-39.585v-66.663c0-16.744-5.72-28.173-20.048-28.173c-10.938,0-17.444,7.7-20.312,15.153
	c-1.041,2.666-1.308,6.37-1.308,10.1v69.584H63.822c0,0,0.533-112.902,0-124.606h39.585v17.665c-0.076,0.13-0.181,0.275-0.257,0.406
	h0.257v-0.406c5.26-8.476,14.657-20.59,35.68-20.59C165.136,57.136,184.667,74.95,184.667,113.221z M22.403,0
	C8.859,0,0,9.296,0,21.524c0,11.96,8.602,21.541,21.875,21.541h0.266c13.81,0,22.395-9.581,22.395-21.541
	C44.273,9.296,35.951,0,22.403,0z M2.35,184.668h39.58V60.062H2.35V184.668z"/>
</svg>
