<?xml version="1.0" encoding="utf-8"?>
<!-- Generator: Adobe Illustrator 16.0.0, SVG Export Plug-In . SVG Version: 6.00 Build 0)  -->
<!DOCTYPE svg PUBLIC "-//W3C//DTD SVG 1.1//EN" "http://www.w3.org/Graphics/SVG/1.1/DTD/svg11.dtd">
<svg version="1.1" id="Layer_1" xmlns="http://www.w3.org/2000/svg" xmlns:xlink="http://www.w3.org/1999/xlink" x="0px" y="0px"
	 width="146px" height="195px" viewBox="0 0 146 195" enable-background="new 0 0 146 195" xml:space="preserve">
<path fill="#070808" d="M120.875,85.781V49.875C120.875,23.483,99.403,2,73,2C46.601,2,25.125,23.483,25.125,49.875v35.906
	c-13.219,0-23.938,10.718-23.938,23.938v59.844c0,13.219,10.718,23.938,23.938,23.938h95.75c13.219,0,23.938-10.719,23.938-23.938
	v-59.844C144.813,96.5,134.094,85.781,120.875,85.781z M78.984,143.79v19.788c0,3.308-2.677,5.984-5.984,5.984
	s-5.984-2.677-5.984-5.984V143.79c-3.513-2.08-5.984-5.751-5.984-10.134c0-6.615,5.36-11.969,11.969-11.969
	c6.608,0,11.969,5.354,11.969,11.969C84.969,138.039,82.497,141.71,78.984,143.79z M96.938,85.781H49.063V49.875
	c0-13.208,10.735-23.938,23.938-23.938c13.196,0,23.938,10.73,23.938,23.938V85.781z"/>
</svg>
