<?xml version="1.0" encoding="utf-8"?>
<!-- Generator: Adobe Illustrator 16.0.0, SVG Export Plug-In . SVG Version: 6.00 Build 0)  -->
<!DOCTYPE svg PUBLIC "-//W3C//DTD SVG 1.1//EN" "http://www.w3.org/Graphics/SVG/1.1/DTD/svg11.dtd">
<svg version="1.1" id="Layer_1" xmlns="http://www.w3.org/2000/svg" xmlns:xlink="http://www.w3.org/1999/xlink" x="0px" y="0px"
	 width="187.358px" height="187.133px" viewBox="0 0 187.358 187.133" enable-background="new 0 0 187.358 187.133"
	 xml:space="preserve">
<path fill="#151C0F" d="M185.534,144.333c-0.524-1.577-3.849-3.894-9.967-6.952c-1.655-0.963-4.022-2.276-7.074-3.938
	c-3.065-1.662-5.844-3.189-8.327-4.593c-2.496-1.396-4.834-2.748-7.021-4.061c-0.35-0.267-1.442-1.026-3.279-2.293
	c-1.835-1.268-3.385-2.21-4.659-2.822c-1.267-0.615-2.512-0.92-3.734-0.92c-1.752,0-3.932,1.246-6.559,3.742
	c-2.618,2.49-5.024,5.2-7.211,8.128c-2.186,2.932-4.495,5.641-6.945,8.13c-2.445,2.496-4.456,3.741-6.035,3.741
	c-0.788,0-1.769-0.22-2.951-0.653c-1.172-0.439-2.073-0.811-2.688-1.115c-0.613-0.312-1.662-0.919-3.148-1.837
	c-1.488-0.917-2.315-1.426-2.491-1.51c-11.978-6.648-22.247-14.253-30.817-22.822c-8.563-8.569-16.174-18.839-22.816-30.817
	c-0.09-0.174-0.59-1.009-1.509-2.49c-0.918-1.487-1.532-2.536-1.837-3.149s-0.676-1.51-1.116-2.687
	c-0.434-1.184-0.652-2.164-0.652-2.952c0-1.572,1.245-3.583,3.741-6.034c2.49-2.446,5.2-4.766,8.124-6.946
	c2.929-2.186,5.64-4.592,8.134-7.211c2.491-2.625,3.736-4.812,3.736-6.558c0-1.222-0.304-2.473-0.918-3.735
	c-0.607-1.273-1.549-2.822-2.817-4.659c-1.273-1.836-2.033-2.93-2.297-3.279c-1.309-2.186-2.661-4.524-4.063-7.014
	c-1.403-2.49-2.929-5.267-4.591-8.327c-1.663-3.059-2.975-5.42-3.934-7.081c-3.064-6.119-5.38-9.442-6.952-9.967
	c-0.614-0.264-1.532-0.394-2.755-0.394c-2.361,0-5.441,0.434-9.244,1.313c-3.803,0.874-6.801,1.792-8.986,2.749
	c-4.372,1.837-9.003,7.172-13.898,16c-4.462,8.22-6.688,16.35-6.688,24.395c0,2.354,0.152,4.653,0.457,6.884
	c0.303,2.225,0.856,4.744,1.64,7.538c0.788,2.8,1.425,4.878,1.904,6.23c0.479,1.352,1.374,3.781,2.687,7.279
	c1.307,3.499,2.095,5.64,2.36,6.422c3.059,8.569,6.688,16.22,10.879,22.952c6.906,11.188,16.326,22.755,28.263,34.688
	c11.933,11.937,23.499,21.358,34.687,28.265c6.732,4.19,14.383,7.825,22.953,10.884c0.783,0.26,2.93,1.049,6.422,2.36
	c3.494,1.312,5.928,2.209,7.279,2.688c1.353,0.484,3.431,1.116,6.23,1.903c2.801,0.79,5.308,1.337,7.538,1.646
	c2.231,0.298,4.524,0.455,6.885,0.455c8.044,0,16.174-2.23,24.394-6.686c8.829-4.896,14.165-9.533,16-13.905
	c0.964-2.187,1.876-5.177,2.749-8.979c0.88-3.804,1.313-6.885,1.313-9.246C185.934,145.866,185.8,144.948,185.534,144.333z"/>
</svg>
