<?xml version="1.0" encoding="utf-8"?>
<!-- Generator: Adobe Illustrator 16.0.0, SVG Export Plug-In . SVG Version: 6.00 Build 0)  -->
<!DOCTYPE svg PUBLIC "-//W3C//DTD SVG 1.1//EN" "http://www.w3.org/Graphics/SVG/1.1/DTD/svg11.dtd">
<svg version="1.1" id="Layer_1" xmlns="http://www.w3.org/2000/svg" xmlns:xlink="http://www.w3.org/1999/xlink" x="0px" y="0px"
	 width="185px" height="194.333px" viewBox="0 0 185 194.333" enable-background="new 0 0 185 194.333" xml:space="preserve">
<path d="M180.638,175.833l-44.732-47.296c11.5-13.9,17.806-31.385,17.806-49.594c0-42.537-34.045-77.146-75.889-77.146
	c-41.844,0-75.889,34.609-75.889,77.146s34.044,77.145,75.889,77.145c15.707,0,30.676-4.816,43.478-13.96l45.071,47.655
	c1.886,1.987,4.419,3.086,7.133,3.086c2.57,0,5.01-0.994,6.863-2.806C184.3,186.213,184.426,179.833,180.638,175.833z
	 M77.823,21.921c30.929,0,56.092,25.58,56.092,57.022c0,31.443-25.163,57.021-56.092,57.021c-30.932,0-56.091-25.577-56.091-57.021
	C21.732,47.501,46.891,21.921,77.823,21.921z"/>
</svg>
