<?xml version="1.0" encoding="utf-8"?>
<!-- Generator: Adobe Illustrator 16.0.0, SVG Export Plug-In . SVG Version: 6.00 Build 0)  -->
<!DOCTYPE svg PUBLIC "-//W3C//DTD SVG 1.1//EN" "http://www.w3.org/Graphics/SVG/1.1/DTD/svg11.dtd">
<svg version="1.1" id="Layer_1" xmlns="http://www.w3.org/2000/svg" xmlns:xlink="http://www.w3.org/1999/xlink" x="0px" y="0px"
	 width="200px" height="166px" viewBox="0 0 200 166" enable-background="new 0 0 200 166" xml:space="preserve">
<path d="M198.999,20.844c-7.365,3.256-15.209,5.41-23.388,6.456c8.411-5.058,14.836-13.008,17.855-22.592
	c-7.845,4.711-16.511,8.038-25.739,9.896c-7.453-7.989-18.07-12.938-29.654-12.938c-22.474,0-40.562,18.369-40.562,40.887
	c0,3.238,0.272,6.354,0.94,9.32C64.703,50.217,34.847,33.931,14.785,9.119c-3.502,6.122-5.559,13.122-5.559,20.659
	c0,14.159,7.242,26.71,18.035,33.97c-6.526-0.123-12.925-2.03-18.343-5.032c0,0.128,0,0.286,0,0.449
	c0,19.863,14.071,36.359,32.52,40.166c-3.305,0.904-6.904,1.344-10.64,1.344c-2.602,0-5.225-0.148-7.686-0.698
	c5.26,16.185,20.184,28.09,37.929,28.477c-13.812,10.876-31.346,17.433-50.33,17.433c-3.331,0-6.521-0.148-9.712-0.563
	C18.978,157,40.287,163.667,63.271,163.667c74.693,0,115.531-62.307,115.531-116.314c0-1.807-0.062-3.551-0.149-5.283
	C186.712,36.313,193.479,29.119,198.999,20.844z"/>
</svg>
