<?xml version="1.0" encoding="utf-8"?>
<!-- Generator: Adobe Illustrator 16.0.0, SVG Export Plug-In . SVG Version: 6.00 Build 0)  -->
<!DOCTYPE svg PUBLIC "-//W3C//DTD SVG 1.1//EN" "http://www.w3.org/Graphics/SVG/1.1/DTD/svg11.dtd">
<svg version="1.1" id="Layer_1" xmlns="http://www.w3.org/2000/svg" xmlns:xlink="http://www.w3.org/1999/xlink" x="0px" y="0px"
	 width="766px" height="184.248px" viewBox="0 0 766 184.248" enable-background="new 0 0 766 184.248" xml:space="preserve">
<g>
	<path fill="#FFFFFF" d="M40.277,57.004H17.879c-5.4,0-9.801-2.6-9.801-8s4.4-8,9.801-8h31.398c5,0,9,3.4,9,8v75.998h29
		c5.4,0,9.799,2.6,9.799,8s-4.398,8-9.799,8h-76c-5.398,0-9.799-2.6-9.799-8s4.4-8,9.799-8h29V57.004z M48.678,26.203
		c-7,0-12.6-5.799-12.6-12.6c0-7,5.799-12.6,12.6-12.6c7,0,12.6,5.801,12.6,12.6C61.277,20.604,55.477,26.203,48.678,26.203z"/>
	<path fill="#FFFFFF" d="M118.078,91.003c0-27,16.799-51.999,46.998-51.999c12.4,0,22,4.199,28.199,10.799
		c0.801-4.799,3.4-8.799,8.4-8.799c6,0,9.6,4.4,9.6,10v78.398c0,30.199-12.799,53.6-46.199,53.6c-21.799,0-34.398-7.201-44.398-23.6
		c-1.201-2-1.801-4.201-1.801-6c0-5.601,4.6-9.801,10.199-9.801c3.4,0,6.602,1.6,8.602,5.6c6,11.4,11.6,17.801,27.398,17.801
		c20.199,0,28.199-14.801,28.199-34.799c-6.6,7.398-17.799,10.799-28.199,10.799C135.678,143.002,118.078,118.002,118.078,91.003z
		 M165.076,127.002c19.4,0,28.199-16,28.199-35.999c0-20-8.799-35.999-28.199-35.999c-18.6,0-29,15.999-29,35.999
		C136.076,111.002,146.477,127.002,165.076,127.002z"/>
	<path fill="#FFFFFF" d="M261.477,41.004c5.398,0,9,4.4,9,9.799v4c3-8.398,15.6-15.799,28.199-15.799
		c23,0,37.799,10.199,37.799,38.6v53.6c0,5.398-3.4,9.799-9,9.799c-5.4,0-9-4.4-9-9.799v-49.6c0-18.601-5-26.6-19.799-26.6
		c-17.801,0-28.199,15.999-28.199,38.599v37.601c0,5.398-3.602,9.799-9,9.799c-5.4,0-9-4.4-9-9.799v-80.4
		C252.477,45.404,256.076,41.004,261.477,41.004z"/>
	<path fill="#FFFFFF" d="M408.574,57.004h-22.398c-5.4,0-9.801-2.6-9.801-8s4.4-8,9.801-8h31.398c5,0,9,3.4,9,8v75.998h29
		c5.4,0,9.799,2.6,9.799,8s-4.398,8-9.799,8h-76c-5.398,0-9.799-2.6-9.799-8s4.4-8,9.799-8h29V57.004z M416.975,26.203
		c-7,0-12.6-5.799-12.6-12.6c0-7,5.799-12.6,12.6-12.6c7,0,12.6,5.801,12.6,12.6C429.574,20.604,423.773,26.203,416.975,26.203z"/>
	<path fill="#FFFFFF" d="M514.375,135.203l-37.6-80.799c-0.602-1.201-0.801-2.4-0.801-3.602c0-3.799,2.199-7.398,5.801-8.999
		c1.199-0.601,2.6-0.8,3.799-0.8c3.6,0,7.199,2.199,8.801,5.799l28.6,64.6l28.6-64.6c1.6-3.6,5.199-5.799,8.799-5.799
		c1.201,0,2.6,0.199,3.801,0.8c3.6,1.601,5.799,5.2,5.799,8.999c0,1.201-0.398,2.4-0.799,3.602l-37.6,80.799
		c-1.6,3.599-4.801,5.799-8.6,5.799C519.174,141.002,515.975,138.802,514.375,135.203z"/>
	<path fill="#FFFFFF" d="M591.773,91.003c0-27,16.6-51.999,46.799-51.999c10.4,0,22,4,28.201,12.4c0.398-6.4,3.799-10.4,9-10.4
		c5.6,0,9.6,3.6,9.6,10v79.998c0,6.4-4,10-9.6,10c-5.201,0-8.602-4-9-10.4c-6.201,8.4-17.801,12.4-28.201,12.4
		C607.373,143.002,591.773,118.002,591.773,91.003z M638.572,127.002c17.4,0,28.801-14.799,28.801-35.999
		s-11.4-35.999-28.801-35.999c-17.398,0-28.799,14.799-28.799,35.999S621.174,127.002,638.572,127.002z"/>
	<path fill="#FFFFFF" d="M749.152,108.603c9.199,0,16.199,7,16.199,16.2c0,9.199-7,16.199-16.199,16.199
		c-9.201,0-16.201-7-16.201-16.199C732.951,115.603,739.951,108.603,749.152,108.603z"/>
</g>
</svg>
