<?xml version="1.0" encoding="utf-8"?>
<!-- Generator: Adobe Illustrator 16.0.0, SVG Export Plug-In . SVG Version: 6.00 Build 0)  -->
<!DOCTYPE svg PUBLIC "-//W3C//DTD SVG 1.1//EN" "http://www.w3.org/Graphics/SVG/1.1/DTD/svg11.dtd">
<svg version="1.1" id="Layer_3" xmlns="http://www.w3.org/2000/svg" xmlns:xlink="http://www.w3.org/1999/xlink" x="0px" y="0px"
	 width="400px" height="400px" viewBox="0 0 400 400" enable-background="new 0 0 400 400" xml:space="preserve">
<path fill-rule="evenodd" clip-rule="evenodd" fill="#333333" d="M85.769,328.833c-2.53-0.569-5.334-1.198-8.492-1.907
	c0.679-0.333,1.058-0.519,1.437-0.702c-0.02-0.146-0.036-0.29-0.052-0.438c-0.346,0-0.696-0.039-1.035,0.01
	c-1.59,0.212-3.207,0.617-4.457-0.889c-0.088-0.104-0.288-0.124-0.438-0.166c-1.933-0.539-4.006-0.796-5.763-1.678
	c-1.851-0.934-4.029-0.834-5.746-2.197c-0.686-0.546-1.93-0.39-2.867-0.543c0.095-0.44,0.186-0.881,0.277-1.321
	c-0.356,0.094-0.718,0.287-1.065,0.261c-1.357-0.099-2.755,0.355-3.993-0.816c-1.358-1.284-2.759-2.36-4.826-2.854
	c-1.795-0.424-4.055-1.132-5.136-3.101c-0.744-1.358-1.544-2.792-1.806-4.284c-0.381-2.181-0.404-4.443-0.404-6.674
	c-0.02-39.565-0.017-79.131-0.017-118.696c0-2.916-0.134-2.824-2.841-3.409c-2.285-0.496-4.453-1.521-6.673-2.315
	c-0.098-0.033-0.206-0.052-0.307-0.081c-1.744-0.48-3.5-0.917-5.228-1.45c-1.659-0.513-3.422-0.895-4.888-1.764
	c-1.052-0.62-2.197-1.857-2.39-2.978c-0.349-2.041-0.451-4.339,0.173-6.262c0.417-1.29,0.584-3.007,2.125-4.003
	c0.787-0.509,1.028-1.845,1.541-2.792c0.434-0.8,0.849-1.619,1.378-2.354c0.721-0.999,1.574-1.907,2.318-2.89
	c0.473-0.624,0.892-1.296,1.28-1.979c1.031-1.806,1.992-3.657,3.076-5.43c0.539-0.881,1.315-1.616,1.933-2.455
	c0.699-0.96,1.381-1.937,1.985-2.958c0.317-0.536,1.923-2.925,2.449-3.575c0.46-0.571,0.777-1.26,1.156-1.9
	c1.097-1.861,2.119-3.771,3.307-5.57c1.097-1.659,2.394-3.184,3.562-4.797c0.431-0.594,0.755-1.273,1.12-1.919
	c1.094-1.93,2.109-3.908,3.297-5.779c1.062-1.668,2.367-3.18,3.464-4.829c0.65-0.973,1.068-2.097,1.649-3.115
	c0.346-0.604,0.816-1.14,1.218-1.714c1.146-1.649,2.299-3.288,3.425-4.95c0.666-0.983,1.257-2.015,1.926-2.998
	c1.195-1.75,2.449-3.461,3.63-5.221c0.607-0.911,1.039-1.942,1.672-2.831c1.264-1.773,1.972-3.895,3.719-5.387
	c0.764-0.653,1.012-1.881,1.577-2.795c1.124-1.822,2.309-3.602,3.461-5.404c0.64-0.999,1.25-2.018,1.914-3
	c1.188-1.76,2.472-3.461,3.601-5.26c1.143-1.818,2.129-3.735,3.219-5.583c0.189-0.323,0.637-0.49,0.846-0.807
	c0.996-1.501,1.956-3.023,2.913-4.545c1.081-1.72,2.142-3.448,3.206-5.175c1.231-1.991,2.442-3.993,3.687-5.971
	c0.333-0.525,0.773-0.983,1.126-1.495c1.313-1.92,2.635-3.827,3.896-5.78c0.604-0.94,1.009-2.004,1.619-2.938
	c0.617-0.947,1.391-1.793,2.074-2.697c0.173-0.228,0.251-0.528,0.392-0.783c0.973-1.783,2.142-3.298,3.8-4.624
	c1.4-1.12,2.863-1.146,4.352-1.508c1.182-0.291,2.396-0.901,3.542-0.793c3.014,0.281,6.125,0.503,8.956,1.463
	c2.436,0.826,4.861,0.698,7.275,1.093c2.563,0.418,5.312,0.421,7.63,1.414c3.092,1.325,6.367,1.381,9.423,2.282
	c3.425,1.009,6.925,0.284,10.131,1.241c3.026,0.901,6.279,0.291,8.973,1.372c2.801,1.123,5.697,0.326,8.264,1.403
	c2.635,1.104,5.485,0.467,8.002,1.31c2.729,0.907,5.609,0.392,8.173,1.279c2.994,1.035,6.177,0.458,8.984,1.4
	c2.766,0.924,5.665,0.333,8.182,1.254c2.708,0.989,5.675,0.209,7.984,1.29c2.678,1.257,5.439,0.336,7.884,1.345
	c3.04,1.254,6.219,0.914,9.313,1.388c2.743,0.421,5.596,0.486,8.188,1.352c2.674,0.888,5.45,0.581,8.01,1.296
	c1.909,0.532,3.957,0.587,5.685,1.292c2.257,0.924,4.361,2.348,5.943,4.503c1.258,1.714,3.136,2.971,4.722,4.45
	c1.892,1.76,3.792,3.51,5.637,5.318c1.787,1.747,3.462,3.608,5.276,5.319c1.17,1.103,2.614,1.919,3.746,3.056
	c1.563,1.581,2.885,3.399,4.431,4.999c0.962,0.996,2.203,1.714,3.215,2.665c1.229,1.159,2.315,2.461,3.521,3.647
	c1.045,1.028,2.188,1.959,3.249,2.975c1.178,1.129,2.295,2.328,3.473,3.46c1.129,1.081,2.322,2.097,3.447,3.181
	c1.068,1.025,2.058,2.139,3.139,3.15c1.466,1.372,2.599,3.043,4.471,4.059c1.225,0.66,2.092,1.982,3.117,3.011
	c1.092,1.097,2.174,2.197,3.262,3.297c1.229,1.244,2.417,2.534,3.69,3.729c1.105,1.039,2.354,1.923,3.457,2.965
	c0.649,0.614,1.119,1.411,1.712,2.093c0.458,0.532,0.955,1.042,1.472,1.521c1.466,1.361,2.978,2.677,4.424,4.055
	c1.237,1.179,2.398,2.436,3.623,3.631c1.121,1.093,2.293,2.132,3.416,3.223c1.144,1.113,2.237,2.272,3.384,3.379
	c1.076,1.042,2.223,2.015,3.284,3.073c1.143,1.139,2.219,2.344,3.322,3.523c0.138,0.144,0.229,0.385,0.39,0.438
	c2.716,0.904,3.897,3.513,5.866,5.247c1.163,1.022,2.342,2.028,3.445,3.108c1.183,1.153,2.24,2.433,3.435,3.569
	c1.136,1.087,2.42,2.021,3.566,3.102c0.646,0.611,1.112,1.404,1.719,2.063c0.357,0.386,0.899,0.604,1.225,1.009
	c0.844,1.058,1.789,2.09,2.358,3.292c0.455,0.957,0.526,2.142,0.559,3.232c0.114,3.533-2.012,6.523-5.47,7.582
	c-0.973,0.297-2.221,1.117-2.863,0.784c-2.108-1.09-4.712-0.378-6.599-2.004c-0.104-0.088-0.303-0.078-0.461-0.104
	c-1.682-0.278-3.31-0.588-4.917-1.339c-1.341-0.624-2.944-0.48-4.456-1.153c-2.21-0.982-4.77-1.172-7.17-1.746
	c-0.59-0.141-1.121-0.536-1.711-0.683c-1.094-0.271-2.214-0.447-3.596-0.719c0,1.084,0,1.809,0,2.541
	c0,47.924,0.005,95.852-0.002,143.776c0,1.332,0.013,2.671-0.147,3.986c-0.078,0.64-0.531,1.237-0.818,1.851
	c-0.112,0.232-0.277,0.448-0.335,0.692c-0.488,2.109-1.981,3.263-3.644,4.513c-1.125,0.846-2.242,0.836-3.378,1.205
	c-1.918,0.62-3.758,1.469-5.643,2.193c-0.391,0.15-0.846,0.128-1.243,0.269c-0.846,0.297-1.673,0.652-2.515,0.973
	c-0.294,0.111-0.601,0.189-0.907,0.268c-2.13,0.556-4.293,1.012-6.383,1.688c-1.907,0.614-3.729,1.482-5.604,2.204
	c-0.381,0.146-0.838,0.092-1.227,0.222c-0.985,0.333-1.952,0.726-2.925,1.095c-0.1,0.036-0.187,0.101-0.288,0.127
	c-2.034,0.503-4.086,0.947-6.097,1.528c-1.012,0.294-1.925,0.927-2.934,1.237c-1.934,0.594-3.932,0.97-5.846,1.616
	c-1.831,0.62-3.553,1.57-5.387,2.184c-1.956,0.653-4.014,1.003-5.98,1.63c-2.291,0.726-4.524,1.615-6.794,2.41
	c-0.443,0.153-0.926,0.183-1.394,0.268c-0.979,0.188-2.127-0.138-2.769,1.071c-0.12,0.228-0.799,0.126-1.19,0.258
	c-0.905,0.303-1.787,0.676-2.692,0.985c-0.385,0.134-0.814,0.141-1.197,0.278c-0.93,0.328-1.842,0.704-2.76,1.063
	c-0.097,0.039-0.188,0.095-0.289,0.12c-2.041,0.52-4.107,0.951-6.117,1.574c-2.023,0.627-3.986,1.446-5.98,2.169
	c-0.493,0.18-1.003,0.361-1.519,0.424c-0.918,0.111-1.876-0.036-2.442,1.028c-0.127,0.245-0.783,0.193-1.181,0.319
	c-0.964,0.309-1.914,0.663-2.88,0.957c-0.499,0.15-1.043,0.157-1.538,0.313c-1.063,0.336-2.106,0.744-3.17,1.088
	c-0.39,0.127-0.829,0.098-1.219,0.229c-2.364,0.803-4.714,1.639-7.082,2.438c-0.394,0.135-0.831,0.153-1.252,0.216
	c-1.007,0.153-2.16-0.052-2.743,1.129c-0.021,0.039-0.085,0.066-0.136,0.079c-1.905,0.521-3.815,1.016-5.71,1.574
	c-0.766,0.226-1.491,0.604-2.242,0.892c-0.385,0.143-0.786,0.293-1.192,0.343c-1.016,0.126-2.181-0.187-2.756,1.07
	c-0.032,0.065-0.182,0.085-0.283,0.11c-1.988,0.513-4,0.957-5.966,1.548c-2.271,0.683-4.488,1.562-6.771,2.21
	c-0.76,0.216-1.665,0.096-2.465-0.064c-0.777-0.157-1.499-0.575-2.253-0.859c-2.063-0.776-4.13-1.554-6.207-2.301
	c-0.494-0.18-1.019-0.278-1.538-0.363c-0.892-0.149-1.962,0.163-2.446-1.005c-0.029-0.069-0.18-0.102-0.281-0.127
	c-1.933-0.504-3.875-0.983-5.802-1.516c-0.486-0.134-0.943-0.401-1.39-0.646c-0.219-0.121-0.363-0.422-0.585-0.486
	c-1.962-0.578-3.96-1.049-5.896-1.704c-1.737-0.585-3.409-1.365-5.106-2.057c-0.049-0.021-0.104-0.021-0.157-0.036
	c-2.112-0.598-4.372-0.908-6.292-1.891c-1.459-0.745-3.154-0.637-4.339-1.339c-2.128-1.264-4.819-1.237-6.565-2.675
	c-1.528-1.257-3.788-0.13-4.875-2.128c-0.215-0.399-1.567-0.036-2.22-0.366c-1.845-0.931-3.901-1.009-5.75-1.636
	c-1.025-0.343-2.743-0.421-3.327-1.923c-0.042-0.11-0.281-0.235-0.405-0.219c-2.345,0.349-4.271-0.96-6.344-1.63
	c-2.077-0.672-4.095-1.521-6.161-2.229c-0.842-0.291-1.74-0.411-2.283-0.748c-0.173-0.28-0.307-0.76-0.532-0.806
	c-0.604-0.128-1.25-0.036-1.877-0.092c-1.13-0.102-2.237-0.063-3.193-1.032c-0.444-0.45-1.511-0.29-2.364-0.414
	c0.219-0.842,0.326-1.548-1.071-1.237c-1.459,0.323-2.834,0.039-4.166-0.865c-0.813-0.552-1.969-0.601-2.922-0.868
	c0.068-0.183,0.179-0.474,0.294-0.768c-0.285-0.082-0.568-0.229-0.855-0.239c-1.009-0.028-2.021-0.01-3.033-0.01
	c-0.082-0.13-0.167-0.258-0.249-0.388c0.316-0.156,0.63-0.314,0.943-0.474c-0.016-0.124-0.033-0.248-0.052-0.372
	c-1.58,0-3.163,0-4.747,0c-0.095-0.199-0.193-0.399-0.291-0.595C85.414,329.07,85.694,328.885,85.769,328.833z M195.216,190.641
	c0.195-0.021,0.392-0.042,0.588-0.063c0.117,0.872,0.333,1.747,0.333,2.621c0.017,50.004,0.013,100.009,0.013,150.013
	c0,0.532-0.072,1.081,0.033,1.593c0.072,0.356,0.388,0.957,0.585,0.953c1.383-0.026,2.778-0.098,4.137-0.326
	c0.691-0.117,1.315-0.61,1.985-0.904c0.74-0.323,1.489-0.627,2.246-0.915c0.381-0.143,0.783-0.225,1.179-0.336
	c1.776-0.496,3.553-0.985,5.32-1.495c0.129-0.036,0.201-0.244,0.328-0.316c0.506-0.287,0.996-0.64,1.542-0.81
	c1.838-0.568,3.694-1.071,5.545-1.597c0.051-0.017,0.1-0.039,0.148-0.059c1.74-0.804,3.438-1.728,5.234-2.371
	c1.785-0.637,3.671-0.992,5.514-1.473c0.149-0.039,0.406-0.052,0.438-0.14c0.499-1.375,1.711-0.944,2.694-1.095
	c0.366-0.052,0.86-0.006,1.068-0.222c1.522-1.612,3.834-1.195,5.608-2.243c0.782-0.466,1.479-0.63,1.404-1.693
	c-0.047-0.634,0.009-1.278,0.009-1.914c0-32.271,0-64.543,0.006-96.814c0-0.715,0.078-1.43,0.114-2.024
	c0.965-0.222,1.741-0.34,2.471-0.592c0.619-0.215,1.158-0.675,1.78-0.867c0.599-0.186,1.555,0.078,1.842-0.274
	c1.435-1.771,4.095-0.307,5.41-2.179c3.141-0.463,6.083-1.541,9.028-2.696c1.382-0.539,2.942-0.35,4.325-1.362
	c1.043-0.76,2.58-0.385,3.975-1.201c1.913-1.119,4.473-1.11,6.727-1.694c1.09-0.284,2.111-0.822,3.173-1.228
	c0.941-0.359,1.878-0.725,2.838-1.024c0.704-0.223,1.442-0.347,2.362-0.559c0,33.966,0,67.605,0,101.486
	c0.939-0.244,1.696-0.405,2.431-0.644c0.666-0.216,1.279-0.601,1.952-0.763c2.41-0.592,4.993-0.774,7.199-1.786
	c1.452-0.667,2.814-0.993,4.316-1.146c0.363-0.036,0.725-0.138,1.072-0.255c0.852-0.297,1.689-0.868,2.54-0.882
	c2.319-0.036,4.155-2.024,6.575-1.515c0.102,0.02,0.234-0.189,0.367-0.258c0.563-0.291,1.104-0.684,1.703-0.829
	c2.049-0.51,4.124-0.921,6.178-1.404c0.205-0.049,0.45-0.311,0.516-0.522c0.307-0.973,0.787-1.963,0.787-2.948
	c0.038-56.661,0.038-113.323-0.011-169.984c0-1.16-0.326-2.622-1.063-3.418c-1.883-2.028-4.093-3.745-6.154-5.609
	c-0.586-0.529-1.146-1.094-1.667-1.691c-0.646-0.748-1.159-1.626-1.867-2.302c-1.07-1.022-2.331-1.848-3.376-2.889
	c-1.085-1.081-1.927-2.403-3.024-3.464c-1.136-1.101-2.548-1.917-3.669-3.037c-1.561-1.558-2.912-3.317-4.438-4.917
	c-1.292-1.358-2.688-2.625-4.061-3.909c-0.599-0.558-1.271-1.038-1.876-1.593c-1.087-1.002-2.163-2.018-3.214-3.056
	c-1.189-1.179-2.306-2.432-3.53-3.571c-0.784-0.732-1.783-1.241-2.551-1.989c-3.141-3.056-6.222-6.171-9.344-9.247
	c-0.526-0.515-1.205-0.881-1.711-1.413c-0.617-0.65-1.049-1.486-1.698-2.093c-1.1-1.025-2.322-1.923-3.475-2.896
	c-0.53-0.447-1.083-0.888-1.524-1.42c-0.597-0.719-1.03-1.584-1.66-2.272c-0.796-0.869-1.716-1.613-2.574-2.423
	c-0.947-0.895-1.867-1.822-2.857-2.671c-0.107-0.091-0.717,0.18-0.873,0.421c-0.305,0.479-0.406,1.084-0.675,1.59
	c-0.675,1.27-1.396,2.514-2.096,3.774c-0.098,0.176-0.134,0.392-0.241,0.565c-0.793,1.277-1.649,2.521-2.384,3.83
	c-0.632,1.129-0.854,2.657-1.755,3.438c-1.692,1.466-1.819,3.751-3.349,5.315c-0.996,1.019-1.249,2.759-1.833,4.18
	c-0.06,0.14-0.093,0.3-0.172,0.428c-1.325,2.083-3.153,3.882-3.652,6.438c-0.027,0.137-0.142,0.362-0.232,0.372
	c-1.207,0.121-0.891,1.087-1.027,1.806c-0.049,0.251-0.056,0.66-0.199,0.725c-1.682,0.738-1.464,2.694-2.513,3.863
	c-0.837,0.934-1.436,2.103-2.072,3.203c-0.66,1.14-1.482,2.266-1.783,3.507c-0.338,1.414-1.969,2.272-1.584,3.94
	c0.009,0.03-0.387,0.104-0.524,0.232c-0.229,0.212-0.448,0.46-0.595,0.734c-0.606,1.136-1.182,2.289-1.776,3.432
	c-0.793,1.521-1.599,3.037-2.394,4.558c-0.072,0.134-0.058,0.369-0.156,0.425c-1.489,0.826-1.475,2.592-2.384,3.793
	c-0.686,0.911-0.996,2.093-1.604,3.076c-0.708,1.152-1.675,2.161-2.305,3.349c-0.675,1.271-1.081,2.684-1.625,4.026
	c-0.071,0.173-0.298,0.274-0.408,0.438c-0.695,1.031-1.401,2.057-2.053,3.115c-0.208,0.339-0.203,0.803-0.402,1.149
	c-0.759,1.325-1.597,2.605-2.335,3.94c-0.613,1.11-0.875,2.55-1.74,3.36c-1.58,1.476-1.776,3.722-3.318,5.181
	c-0.379,0.356-0.127,1.309-0.439,1.812c-1.199,1.92-2.841,3.634-3.681,5.688c-0.858,2.099-2.713,3.741-2.821,6.164
	c-0.002,0.124-0.165,0.242-0.254,0.359c-0.396,0.529-0.816,1.042-1.172,1.596c-0.165,0.252-0.135,0.627-0.304,0.872
	c-0.715,1.045-1.57,2.005-2.187,3.098c-0.614,1.088-0.996,2.302-1.495,3.455c-0.053,0.127-0.229,0.199-0.308,0.323
	c-0.718,1.1-1.769,2.126-2.06,3.331c-0.421,1.744-1.587,2.926-2.426,4.35c-0.493,0.832-1.042,1.639-1.456,2.507
	c-0.643,1.339-1.189,2.72-1.786,4.074c-0.059,0.131-0.229,0.206-0.31,0.33c-0.715,1.081-1.476,2.132-2.116,3.259
	c-0.633,1.12-1.104,2.328-1.711,3.465c-0.79,1.478-1.57,2.974-2.501,4.365c-0.559,0.832-1.447,2.15-2.093,2.099
	c-2.671-0.208-5.309-0.861-7.958-1.352c-0.048-0.01-0.117-0.032-0.14-0.068c-0.875-1.561-2.409-0.889-3.686-1.1
	c-0.698-0.114-1.4-0.271-2.073-0.486c-0.617-0.2-1.182-0.611-1.806-0.743c-2.7-0.561-5.417-1.051-8.126-1.569
	c-0.104-0.02-0.206-0.042-0.31-0.071c-1.427-0.419-2.851-0.846-4.284-1.251c-0.447-0.124-0.927-0.144-1.375-0.274
	c-1.081-0.32-2.135-0.75-3.232-0.996c-1.809-0.398-3.797-0.359-5.411-1.127c-1.192-0.566-2.266-0.86-3.52-0.907
	c-0.571-0.023-1.149-0.209-1.704-0.382c-2.298-0.712-4.578-1.473-6.879-2.164c-1.724-0.52-3.461-1-5.211-1.414
	c-2.38-0.564-4.773-1.074-7.173-1.562c-0.777-0.152-1.914,0.154-2.322-0.279c-1.446-1.545-3.275-0.729-4.874-1.141
	c-1.885-0.486-2.495,1.1-3.334,2.012c-0.918,0.999,0.245,5.59,1.427,6.131c1.329,0.608,2.752,1.072,4.176,1.401
	c2.724,0.63,5.476,1.124,8.215,1.672c0.104,0.019,0.209,0.036,0.311,0.065c2.697,0.822,5.367,1.75,8.094,2.438
	c2.458,0.624,4.979,0.977,7.467,1.477c0.402,0.081,0.768,0.336,1.166,0.463c0.62,0.196,1.247,0.366,1.881,0.519
	c1.182,0.295,2.373,0.562,3.556,0.862c0.297,0.076,0.568,0.301,0.862,0.327c0.692,0.056,1.648-0.255,2.037,0.098
	c1.211,1.091,2.658,0.776,4.003,1.028c0.522,0.095,1.303-0.072,1.541,0.227c1.101,1.351,2.609,0.91,3.97,1.105
	c0.421,0.063,1.012-0.036,1.231,0.203c1.127,1.253,2.622,0.904,4.003,1.083c0.555,0.076,1.12,0.196,1.649,0.389
	c0.624,0.226,1.188,0.676,1.825,0.804c1.087,0.209,2.589-0.163,3.229,0.44c1.022,0.971,2.089,0.755,3.17,0.98
	c2.481,0.513,4.953,1.061,7.421,1.623c0.222,0.049,0.385,0.414,0.601,0.442c1.71,0.223,3.424,0.49,5.146,0.559
	c1.14,0.05,1.352-0.979,1.597-1.867c0.049-0.17,0.284-0.278,0.405-0.437c0.633-0.814,1.397-1.565,1.852-2.473
	c0.662-1.315,1.1-2.749,1.642-4.127c0.056-0.137,0.192-0.238,0.281-0.365c0.382-0.552,0.784-1.095,1.126-1.669
	c0.15-0.258,0.075-0.731,0.268-0.864c1.303-0.889,1.296-2.577,2.282-3.635c0.816-0.875,0.983-2.554,1.544-2.913
	c1.45-0.924,1.081-2.589,2.18-3.64C194.143,193.805,194.531,192.063,195.216,190.641z M191.99,67.689
	c0.086,1.708,0.22,3.135,0.222,4.561c0.011,23.854,0.006,47.709,0.017,71.563c0,0.695,0.111,1.39,0.169,2.086
	c0.173,0.052,0.347,0.104,0.521,0.157c0.655-0.957,1.303-1.92,1.975-2.864c0.617-0.862,1.305-1.678,1.893-2.56
	c0.643-0.966,0.835-2.119,1.651-3.095c0.937-1.114,1.271-2.723,1.918-4.095c0.285-0.614,0.686-1.179,1.053-1.747
	c0.816-1.247,1.739-2.436,2.438-3.742c0.646-1.198,1.043-2.523,1.584-3.777c0.083-0.183,0.408-0.245,0.571-0.411
	c0.22-0.222,0.43-0.471,0.575-0.741c0.607-1.146,1.159-2.322,1.796-3.452c0.686-1.218,1.446-2.393,2.172-3.588
	c0.836-1.381,1.74-2.726,2.475-4.16c0.584-1.129,1.357-2.367,1.364-3.558c0.093-16.505,0.065-33.013,0.059-49.518
	c0-1.476-1.399-2.854-2.889-2.915c-0.317-0.014-0.641-0.036-0.949-0.095c-2.035-0.405-4.051-0.95-6.1-1.198
	c-1.895-0.232-3.828-0.151-5.74-0.216c-0.853-0.026-1.96,0.255-2.502-0.173c-1.42-1.12-3.026-0.683-4.532-0.983
	c-2.399-0.483-4.796,0.189-7.313-1.005c-2.655-1.261-5.714-0.284-8.231,1.541c-0.506,0.365-1.074,0.64-1.597,0.986
	c-1.211,0.809-2.406,1.642-3.617,2.448c-0.467,0.311-0.98,0.552-1.45,0.853c-1.597,1.015-3.203,2.011-4.764,3.079
	c-0.689,0.467-1.296,1.061-1.874,1.665c-0.062,0.065,0.33,0.83,0.509,0.83c3.014-0.003,5.854,0.897,8.764,1.482
	c1.548,0.313,3.409-0.271,4.724,0.375c2.25,1.1,4.529,0.888,6.821,1.093c0.516,0.046,1.045,0.114,1.538,0.265
	c0.855,0.264,1.672,0.767,2.54,0.868C189.087,67.8,190.423,67.689,191.99,67.689z M79.951,187.995
	c0.009,3.22-0.075,3.275,1.499,5.63c0.878,1.312,2.236,2.203,3.895,2.317c1.146,0.078,2.086-0.141,3.164-0.989
	c1.691-1.333,2.975-2.828,3.367-4.829c0.405-2.065,0.235-4.268-1.091-6.03c-0.839-1.116-1.998-2.041-3.144-2.867
	c-1.025-0.741-5.355,0.684-6.155,1.688C80.137,184.603,79.781,186.486,79.951,187.995z M207.858,58.233
	c-0.709,0.862-2.228,1.038-3.356,1.581c-1.026,0.493-2.021,1.051-3.01,1.616c-0.138,0.079-0.192,0.366-0.214,0.565
	c-0.087,0.895-0.247,1.799-0.176,2.687c0.043,0.496,0.402,1.264,0.771,1.368c0.494,0.141,1.174-0.17,1.704-0.425
	c1.279-0.61,2.521-1.309,3.779-1.965c0.225-0.118,0.479-0.183,0.688-0.32c1.267-0.836,2.521-1.685,3.883-2.599
	c0-1.064,0-2.213,0-3.673C210.432,57.424,209.053,56.777,207.858,58.233z M198.419,64.094c-1.721-1.14-2.707,0.48-3.409,1.29
	c-0.639,0.741-0.361,2.272-0.499,3.526C198.354,69.547,199.21,68.352,198.419,64.094z"/>
</svg>
