<?xml version="1.0" encoding="utf-8"?>
<!-- Generator: Adobe Illustrator 16.0.0, SVG Export Plug-In . SVG Version: 6.00 Build 0)  -->
<!DOCTYPE svg PUBLIC "-//W3C//DTD SVG 1.1//EN" "http://www.w3.org/Graphics/SVG/1.1/DTD/svg11.dtd">
<svg version="1.1" id="Layer_1" xmlns="http://www.w3.org/2000/svg" xmlns:xlink="http://www.w3.org/1999/xlink" x="0px" y="0px"
	 width="128px" height="128px" viewBox="0 0 128 128" enable-background="new 0 0 128 128" xml:space="preserve">
<path fill="#010101" d="M80.006,49.961H66.017h-3.996H48.033h-3.997H26.052v17.983v3.997v13.989v3.997v17.982h17.984h3.997h13.988
	h3.996h13.989h3.997h17.982V89.928v-3.997V71.941v-3.997V49.961H84.003H80.006z M66.017,53.957h13.989v13.987H66.017V53.957z
	 M80.006,85.931H66.017V71.941h13.989V85.931z M48.033,71.941h13.988v13.989H48.033V71.941z M48.033,53.957h13.988v13.987H48.033
	V53.957z M30.048,53.957h13.988v13.987H30.048V53.957z M30.048,71.941h13.988v13.989H30.048V71.941z M44.036,103.914H30.048V89.928
	h13.988V103.914z M62.021,103.914H48.033V89.928h13.988V103.914z M80.006,103.914H66.017V89.928h13.989V103.914z M97.989,103.914
	H84.003V89.928h13.986V103.914z M97.989,85.931H84.003V71.941h13.986V85.931z M97.989,67.944H84.003V53.957h13.986V67.944z
	 M117.976,11.993h-13.99V5.998c0-1.107-0.895-1.998-2-1.998H87.999c-1.104,0-2,0.891-2,1.998v5.995H42.038V5.998
	C42.038,4.891,41.145,4,40.04,4H26.052c-1.105,0-1.999,0.891-1.999,1.998v5.995H10.065c-1.107,0-1.999,0.891-1.999,1.998v21.981
	V121.9c0,1.105,0.891,1.996,1.999,1.996h107.91c1.102,0,1.996-0.891,1.996-1.996V35.973V13.991
	C119.972,12.884,119.077,11.993,117.976,11.993 M89.996,7.997h9.993v5.995v5.995h-9.993v-5.995V7.997z M28.05,7.997h9.991v5.995
	v5.995H28.05v-5.995V7.997z M12.063,15.99h11.99v5.995c0,1.105,0.893,1.999,1.999,1.999H40.04c1.105,0,1.999-0.893,1.999-1.999
	V15.99h43.961v5.995c0,1.105,0.896,1.999,2,1.999h13.986c1.105,0,2-0.893,2-1.999V15.99h11.99v17.985H12.063V15.99z M12.063,37.971
	h103.912v81.93H12.063V37.971z"/>
</svg>
