<?xml version="1.0" encoding="utf-8"?>
<!-- Generator: Adobe Illustrator 16.0.0, SVG Export Plug-In . SVG Version: 6.00 Build 0)  -->
<!DOCTYPE svg PUBLIC "-//W3C//DTD SVG 1.1//EN" "http://www.w3.org/Graphics/SVG/1.1/DTD/svg11.dtd">
<svg version="1.1" id="Layer_2" xmlns="http://www.w3.org/2000/svg" xmlns:xlink="http://www.w3.org/1999/xlink" x="0px" y="0px"
	 width="400px" height="400px" viewBox="0 0 400 400" enable-background="new 0 0 400 400" xml:space="preserve">
<path fill="#070808" d="M340.621,147.3c-77.655-77.655-203.997-77.655-281.651,0L7.103,199.161l53.154,53.153
	c38.824,38.824,89.823,58.242,140.829,58.242c51.005,0,101.996-19.41,140.827-58.242l51.868-51.868L340.621,147.3z M332.671,243.08
	c-72.56,72.553-190.619,72.553-263.178,0l-43.918-43.919l42.632-42.632c72.56-72.553,190.619-72.553,263.179,0l43.919,43.918
	L332.671,243.08z M200.256,153.89c0,3.605-2.927,6.532-6.532,6.532c-18.008,0-32.658,14.65-32.658,32.658
	c0,3.606-2.926,6.532-6.532,6.532c-3.605,0-6.532-2.926-6.532-6.532c0-25.212,20.51-45.721,45.722-45.721
	C197.336,147.359,200.256,150.285,200.256,153.89z M200.256,114.7c-46.819,0-84.911,38.093-84.911,84.911
	c0,46.819,38.092,84.912,84.911,84.912c46.818,0,84.911-38.093,84.911-84.912C285.167,152.793,247.081,114.7,200.256,114.7z
	 M200.256,271.46c-39.614,0-71.848-32.234-71.848-71.849s32.234-71.848,71.848-71.848c39.613,0,71.848,32.233,71.848,71.848
	S239.876,271.46,200.256,271.46z"/>
</svg>
