<?xml version="1.0" encoding="utf-8"?>
<!-- Generator: Adobe Illustrator 16.0.0, SVG Export Plug-In . SVG Version: 6.00 Build 0)  -->
<!DOCTYPE svg PUBLIC "-//W3C//DTD SVG 1.1//EN" "http://www.w3.org/Graphics/SVG/1.1/DTD/svg11.dtd">
<svg version="1.1" id="Layer_1" xmlns="http://www.w3.org/2000/svg" xmlns:xlink="http://www.w3.org/1999/xlink" x="0px" y="0px"
	 width="312.163px" height="385.585px" viewBox="0 0 312.163 385.585" enable-background="new 0 0 312.163 385.585"
	 xml:space="preserve">
<path fill="#E3604B" d="M212.769,31.31l64.397,64.392h-64.397V31.31z M24.188,22.708h176.416v85.16h85.166v255.507H24.188V22.708z
	 M12.021,10.536v365.002h285.914V99.27l-88.73-88.734H12.021z M231.02,138.288h-97.333c-3.356,0-6.083,2.718-6.083,6.083
	c0,3.366,2.727,6.083,6.083,6.083h97.333c3.356,0,6.083-2.717,6.083-6.083C237.103,141.006,234.376,138.288,231.02,138.288
	 M111.635,121.372l-26.163,20.932l-8.317-8.317c-2.38-2.379-6.223-2.379-8.603,0c-2.379,2.379-2.379,6.223,0,8.603l12.167,12.166
	c1.179,1.18,2.739,1.783,4.301,1.783c1.34,0,2.683-0.437,3.796-1.333l30.417-24.333c2.628-2.103,3.047-5.928,0.948-8.551
	C118.089,119.69,114.257,119.272,111.635,121.372 M231.02,205.204h-97.333c-3.356,0-6.083,2.722-6.083,6.082
	c0,3.363,2.727,6.085,6.083,6.085h97.333c3.356,0,6.083-2.722,6.083-6.085C237.103,207.925,234.376,205.204,231.02,205.204
	 M111.635,188.286l-26.163,20.934l-8.317-8.316c-2.38-2.377-6.223-2.377-8.603,0s-2.379,6.226,0,8.603l12.167,12.166
	c1.179,1.183,2.739,1.783,4.301,1.783c1.34,0,2.683-0.44,3.796-1.332l30.417-24.332c2.628-2.108,3.047-5.931,0.948-8.556
	C118.089,186.609,114.257,186.188,111.635,188.286 M231.02,272.122h-97.333c-3.356,0-6.083,2.719-6.083,6.082
	c0,3.362,2.727,6.082,6.083,6.082h97.333c3.356,0,6.083-2.72,6.083-6.082C237.103,274.84,234.376,272.122,231.02,272.122
	 M111.635,255.201l-26.163,20.936l-8.317-8.318c-2.38-2.375-6.223-2.375-8.603,0c-2.379,2.377-2.379,6.228,0,8.603l12.167,12.166
	c1.179,1.185,2.739,1.783,4.301,1.783c1.34,0,2.683-0.44,3.796-1.33l30.417-24.334c2.628-2.108,3.047-5.935,0.948-8.554
	C118.089,253.527,114.257,253.104,111.635,255.201"/>
</svg>
