<?xml version="1.0" encoding="utf-8"?>
<!-- Generator: Adobe Illustrator 16.0.0, SVG Export Plug-In . SVG Version: 6.00 Build 0)  -->
<!DOCTYPE svg PUBLIC "-//W3C//DTD SVG 1.1//EN" "http://www.w3.org/Graphics/SVG/1.1/DTD/svg11.dtd">
<svg version="1.1" id="Layer_1" xmlns="http://www.w3.org/2000/svg" xmlns:xlink="http://www.w3.org/1999/xlink" x="0px" y="0px"
	 width="317.568px" height="391.178px" viewBox="0 0 317.568 391.178" enable-background="new 0 0 317.568 391.178"
	 xml:space="preserve">
<path fill="#E3604B" d="M137.762,234.19c-3.456,0-6.252-2.794-6.252-6.251c0-3.456,2.796-6.25,6.252-6.25h37.512
	c3.453,0,6.25,2.794,6.25,6.25c0,3.457-2.797,6.251-6.25,6.251H137.762 M307.074,373.566c2.441,2.441,2.441,6.397,0,8.84
	c-1.22,1.22-2.82,1.828-4.42,1.828c-1.601,0-3.2-0.608-4.421-1.828l-16.922-16.924H40.077v-31.26H8.818V9.128h250.071v97.44
	l28.154,28.151l3.106,3.108v218.815L307.074,373.566 M258.889,124.249L196.371,61.73v72.434h72.437L258.889,124.249z
	 M40.077,321.718V40.387H192.71l3.106,3.107l50.57,50.571V21.632H21.322v300.086H40.077z M268.807,352.977l-46.977-46.973
	c-12.882,10.871-29.487,17.476-47.632,17.476c-40.771,0-73.947-33.18-73.947-73.951c0-40.776,33.176-73.946,73.947-73.946
	s73.947,33.169,73.947,73.946c0,18.146-6.601,34.753-17.475,47.636l46.975,46.972V146.668H183.87V52.891H52.581v281.332v18.754
	H268.807z M174.199,310.974c33.879,0,61.445-27.565,61.445-61.445c0-33.876-27.566-61.442-61.445-61.442
	s-61.445,27.566-61.445,61.442C112.754,283.408,140.32,310.974,174.199,310.974 M212.785,259.199h-75.022
	c-3.456,0-6.252,2.799-6.252,6.255c0,3.452,2.796,6.252,6.252,6.252h75.022c3.454,0,6.252-2.8,6.252-6.252
	C219.037,261.998,216.239,259.199,212.785,259.199"/>
</svg>
