<?xml version="1.0" encoding="utf-8"?>
<!-- Generator: Adobe Illustrator 16.0.0, SVG Export Plug-In . SVG Version: 6.00 Build 0)  -->
<!DOCTYPE svg PUBLIC "-//W3C//DTD SVG 1.1//EN" "http://www.w3.org/Graphics/SVG/1.1/DTD/svg11.dtd">
<svg version="1.1" id="Layer_2" xmlns="http://www.w3.org/2000/svg" xmlns:xlink="http://www.w3.org/1999/xlink" x="0px" y="0px"
	 width="400px" height="400px" viewBox="0 0 400 400" enable-background="new 0 0 400 400" xml:space="preserve">
<path fill-rule="evenodd" clip-rule="evenodd" d="M218.941,134.636c55.933,0,111.183,0,166.759,0c0,84.833,0,169.372,0,254.364
	c-124.298,0-248.7,0-373.399,0c0-124.28,0-248.703,0-373.448c68.676,0,137.434,0,206.641,0
	C218.941,54.963,218.941,94.512,218.941,134.636z M202.599,372.945c0-113.969,0-227.568,0-341.123c-58.209,0-116.149,0-174.003,0
	c0,113.885,0,227.49,0,340.968c18.481,0,36.667,0,55.139,0c0-26.475,0-52.645,0-78.861c21.426,0,42.546,0,63.994,0
	c0,26.549,0,52.709,0,79.016C166.146,372.945,184.241,372.945,202.599,372.945z M369.806,150.977c-50.397,0-100.389,0-150.392,0
	c0,74.168,0,148.038,0,222.028c50.206,0,100.207,0,150.392,0C369.806,298.917,369.806,225.051,369.806,150.977z M131.014,372.893
	c0-21.206,0-42.112,0-62.929c-10.517,0-20.754,0-30.919,0c0,21.121,0,41.944,0,62.929
	C110.449,372.893,120.594,372.893,131.014,372.893z M165.811,218.313c0,5.447,0,10.588,0,15.735c7.24,0,14.222,0,21.253,0
	c0-5.355,0-10.417,0-15.735C179.711,218.313,172.736,218.313,165.811,218.313z M65.4,251.765c-7.2,0-14.166,0-21.172,0
	c0,5.379,0,10.507,0,15.826c7.093,0,13.962,0,21.172,0C65.4,262.096,65.4,256.966,65.4,251.765z M186.978,251.774
	c-7.174,0-14.166,0-21.157,0c0,5.396,0,10.534,0,15.793c7.169,0,14.063,0,21.157,0C186.978,262.2,186.978,257.051,186.978,251.774z
	 M65.385,149.889c-7.221,0-14.201,0-21.09,0c0,5.464,0,10.608,0,15.826c7.104,0,13.917,0,21.09,0
	C65.385,160.235,65.385,155.104,65.385,149.889z M186.978,149.86c-7.185,0-14.176,0-21.162,0c0,5.435,0,10.576,0,15.758
	c7.169,0,14.068,0,21.162,0C186.978,160.115,186.978,155.061,186.978,149.86z M44.279,199.761c7.246,0,14.227,0,21.055,0
	c0-5.458,0-10.594,0-15.789c-7.185,0-14.064,0-21.055,0C44.279,189.408,44.279,194.639,44.279,199.761z M84.61,184.087
	c0,5.452,0,10.583,0,15.714c7.271,0,14.262,0,21.371,0c0-5.22,0-10.158,0-15.714C98.745,184.087,91.682,184.087,84.61,184.087z
	 M125.374,199.764c7.302,0,14.282,0,21.146,0c0-5.453,0-10.584,0-15.781c-7.205,0-14.088,0-21.146,0
	C125.374,189.411,125.374,194.629,125.374,199.764z M186.845,199.752c0-5.362,0-10.591,0-15.728c-7.215,0-14.094,0-21.13,0
	c0,5.3,0,10.35,0,15.728C172.746,199.752,179.804,199.752,186.845,199.752z M65.344,218.206c-7.18,0-14.058,0-21.064,0
	c0,5.428,0,10.657,0,15.933c7.154,0,14.038,0,21.064,0C65.344,228.534,65.344,223.396,65.344,218.206z M105.75,234.11
	c0-5.46,0-10.679,0-15.866c-7.24,0-14.129,0-21.207,0c0,5.369,0,10.503,0,15.866C91.917,234.11,98.812,234.11,105.75,234.11z
	 M125.414,218.37c0,5.339,0,10.56,0,15.729c7.25,0,14.135,0,21.218,0c0-5.287,0-10.328,0-15.729
	C139.59,218.37,132.522,218.37,125.414,218.37z M65.354,47.549c-7.26,0-14.236,0-21.145,0c0,5.342,0,10.376,0,15.542
	c7.189,0,14.175,0,21.145,0C65.354,57.684,65.354,52.558,65.354,47.549z M105.877,63.014c0-5.376,0-10.397,0-15.552
	c-7.215,0-14.206,0-21.369,0c0,5.261,0,10.293,0,15.552C91.708,63.014,98.771,63.014,105.877,63.014z M165.689,63.103
	c7.123,0,14.115,0,21.268,0c0-5.299,0-10.423,0-15.702c-7.108,0-13.998,0-21.268,0C165.689,52.761,165.689,57.801,165.689,63.103z
	 M125.333,149.84c0,5.409,0,10.547,0,15.663c7.282,0,14.278,0,21.289,0c0-5.339,0-10.376,0-15.663
	C139.401,149.84,132.405,149.84,125.333,149.84z M146.611,251.733c-7.21,0-14.195,0-21.324,0c0,5.342,0,10.468,0,15.787
	c7.195,0,14.166,0,21.324,0C146.611,262.134,146.611,257.017,146.611,251.733z M84.615,165.508c7.292,0,14.298,0,21.273,0
	c0-5.35,0-10.41,0-15.643c-7.215,0-14.211,0-21.273,0C84.615,155.29,84.615,160.426,84.615,165.508z M125.282,63.091
	c7.22,0,14.216,0,21.274,0c0-5.402,0-10.523,0-15.689c-7.19,0-14.094,0-21.274,0C125.282,52.833,125.282,57.872,125.282,63.091z
	 M105.813,251.801c-7.261,0-14.231,0-21.182,0c0,5.401,0,10.517,0,15.795c7.174,0,14.048,0,21.182,0
	C105.813,262.023,105.813,256.902,105.813,251.801z M146.585,131.231c0-5.342,0-10.361,0-15.49c-7.245,0-14.231,0-21.344,0
	c0,5.308,0,10.34,0,15.49C132.695,131.231,139.677,131.231,146.585,131.231z M186.972,131.268c0-5.325,0-10.351,0-15.542
	c-7.168,0-14.135,0-21.262,0c0,5.281,0,10.305,0,15.542C173.062,131.268,180.032,131.268,186.972,131.268z M84.583,131.308
	c7.246,0,14.232,0,21.198,0c0-5.371,0-10.481,0-15.607c-7.21,0-14.099,0-21.198,0C84.583,121.25,84.583,126.259,84.583,131.308z
	 M44.253,131.247c7.246,0,14.237,0,21.126,0c0-5.363,0-10.404,0-15.576c-7.168,0-14.073,0-21.126,0
	C44.253,121.018,44.253,126.156,44.253,131.247z M165.765,97.12c7.2,0,14.175,0,21.197,0c0-5.311,0-10.335,0-15.54
	c-7.108,0-14.003,0-21.197,0C165.765,86.983,165.765,92.007,165.765,97.12z M146.606,81.666c-7.236,0-14.231,0-21.309,0
	c0,5.297,0,10.321,0,15.541c7.154,0,14.063,0,21.309,0C146.606,91.821,146.606,86.797,146.606,81.666z M105.75,81.755
	c-7.271,0-14.256,0-21.11,0c0,5.376,0,10.397,0,15.528c7.129,0,13.942,0,21.11,0C105.75,92.033,105.75,86.838,105.75,81.755z
	 M65.405,97.11c0-5.32,0-10.341,0-15.431c-7.21,0-14.19,0-21.278,0c0,5.215,0,10.147,0,15.431
	C51.413,97.11,58.389,97.11,65.405,97.11z M286.811,354.789c5.353,0,10.37,0,15.466,0c0-10.628,0-20.97,0-31.444
	c-5.285,0-10.308,0-15.466,0C286.811,333.987,286.811,344.419,286.811,354.789z M286.711,169.086c0,10.585,0,20.927,0,31.393
	c5.334,0,10.434,0,15.658,0c0-10.558,0-20.807,0-31.393C296.938,169.086,291.917,169.086,286.711,169.086z M286.715,302.945
	c5.33,0,10.416,0,15.599,0c0-10.564,0-20.781,0-31.197c-5.254,0-10.276,0-15.599,0C286.715,282.38,286.715,292.597,286.715,302.945z
	 M286.753,252.168c5.288,0,10.312,0,15.519,0c0-10.521,0-20.834,0-31.309c-5.288,0-10.308,0-15.519,0
	C286.753,231.434,286.753,241.749,286.753,252.168z M325.091,200.493c5.353,0,10.359,0,15.361,0c0-10.612,0-20.944,0-31.419
	c-5.249,0-10.252,0-15.361,0C325.091,179.717,325.091,190.122,325.091,200.493z M248.587,169.106c0,10.625,0,20.986,0,31.427
	c5.278,0,10.303,0,15.505,0c0-10.521,0-20.795,0-31.427C258.691,169.106,253.672,169.106,248.587,169.106z M248.663,354.754
	c5.33,0,10.326,0,15.316,0c0-10.652,0-20.973,0-31.45c-5.212,0-10.123,0-15.316,0C248.663,334.04,248.663,344.459,248.663,354.754z
	 M324.991,354.846c5.273,0,10.288,0,15.481,0c0-10.595,0-20.954,0-31.484c-5.242,0-10.262,0-15.481,0
	C324.991,333.938,324.991,344.291,324.991,354.846z M324.986,303.055c5.264,0,10.272,0,15.427,0c0-10.577,0-20.919,0-31.35
	c-5.214,0-10.148,0-15.427,0C324.986,282.345,324.986,292.594,324.986,303.055z M263.979,271.814c-5.31,0-10.328,0-15.435,0
	c0,10.513,0,20.762,0,31.246c5.219,0,10.233,0,15.435,0C263.979,292.326,263.979,282.093,263.979,271.814z M325.049,220.859
	c0,10.577,0,20.899,0,31.239c5.33,0,10.343,0,15.424,0c0-10.529,0-20.779,0-31.239C335.24,220.859,330.226,220.859,325.049,220.859z
	 M248.597,220.834c0,10.564,0,20.91,0,31.282c5.295,0,10.324,0,15.455,0c0-10.507,0-20.753,0-31.282
	C258.635,220.834,253.705,220.834,248.597,220.834z"/>
</svg>
