<?xml version="1.0" encoding="utf-8"?>
<!-- Generator: Adobe Illustrator 16.0.0, SVG Export Plug-In . SVG Version: 6.00 Build 0)  -->
<!DOCTYPE svg PUBLIC "-//W3C//DTD SVG 1.1//EN" "http://www.w3.org/Graphics/SVG/1.1/DTD/svg11.dtd">
<svg version="1.1" id="Layer_1" xmlns="http://www.w3.org/2000/svg" xmlns:xlink="http://www.w3.org/1999/xlink" x="0px" y="0px"
	 width="400px" height="400px" viewBox="0 0 400 400" enable-background="new 0 0 400 400" xml:space="preserve">
<path fill="#010101" d="M380.545,63.97c-1.342-1.647-3.418-2.416-5.49-2.169c-0.473,0.024-0.916,0.104-1.377,0.239L17.329,158.961
	c-2.618,0.713-4.461,3.061-4.535,5.771c-0.068,2.71,1.652,5.15,4.227,5.999l130.391,42.723l-11.665,93.303
	c-0.307,2.457,0.891,4.861,3.036,6.09c0.953,0.546,2.01,0.818,3.06,0.818c1.322,0,2.643-0.426,3.737-1.268l47.721-36.541
	l41.831,59.766c1.154,1.653,3.035,2.624,5.033,2.624c0.135,0,0.277-0.006,0.418-0.012c2.15-0.147,4.063-1.408,5.045-3.331
	l135.59-264.258C382.35,68.48,382.078,65.862,380.545,63.97z M337.863,84.521L153.288,202.44L40.351,165.438L337.863,84.521z
	 M149.765,293.714l8.494-67.927l27.993,39.989L149.765,293.714z M239.367,320.221l-76.511-109.305L360.127,84.883L239.367,320.221z"
	/>
</svg>
