<?xml version="1.0" encoding="utf-8"?>
<!-- Generator: Adobe Illustrator 16.0.0, SVG Export Plug-In . SVG Version: 6.00 Build 0)  -->
<!DOCTYPE svg PUBLIC "-//W3C//DTD SVG 1.1//EN" "http://www.w3.org/Graphics/SVG/1.1/DTD/svg11.dtd">
<svg version="1.1" id="Layer_1" xmlns="http://www.w3.org/2000/svg" xmlns:xlink="http://www.w3.org/1999/xlink" x="0px" y="0px"
	 width="400px" height="400px" viewBox="0 0 400 400" enable-background="new 0 0 400 400" xml:space="preserve">
<path fill-rule="evenodd" clip-rule="evenodd" d="M335.95,227.248c1.48,1.344,2.191,2.661,2.191,4.708
	c-0.054,42.374-0.042,84.744-0.042,127.121c0,0.497,0.042,0.995-0.008,1.483c-0.669,6.556-2.336,12.552-9.035,15.59
	c-1.447,0.652-2.997,1.073-4.493,1.602c-22.741,0-45.48,0-68.219,0V244.341H143.469v133.411c-22.218,0-44.434,0-66.649,0
	c-0.606-0.164-1.275-0.212-1.808-0.508c-2.307-1.273-5.03-2.196-6.76-4.036c-3.505-3.724-4.833-8.55-4.837-13.642
	c-0.021-42.796-0.017-85.597,0.04-128.396c0-1.005,0.462-2.291,1.171-2.965c5.429-5.19,10.969-10.27,16.483-15.37
	c2.938-2.721,5.914-5.397,8.834-8.135c4.768-4.451,9.491-8.948,14.249-13.414c2.819-2.643,5.679-5.238,8.492-7.88
	c5.878-5.526,11.731-11.073,17.617-16.594c2.867-2.689,5.796-5.319,8.662-8.014c5.824-5.478,11.607-10.995,17.436-16.469
	c2.916-2.741,5.923-5.392,8.831-8.143c5.449-5.147,10.848-10.347,16.289-15.503c4.784-4.539,9.595-9.052,14.409-13.552
	c1.576-1.476,3.212-2.882,4.853-4.35c0.483,0.369,0.906,0.63,1.259,0.965c4.809,4.513,9.602,9.043,14.417,13.551
	c2.766,2.596,5.578,5.135,8.335,7.735c4.438,4.187,8.821,8.426,13.266,12.604c2.911,2.745,5.91,5.401,8.826,8.138
	c5.827,5.474,11.611,10.991,17.439,16.464c2.922,2.741,5.906,5.41,8.832,8.147c4.763,4.453,9.494,8.944,14.249,13.406
	c2.817,2.641,5.676,5.237,8.487,7.88c5.824,5.479,11.609,10.992,17.438,16.461c2.917,2.74,5.909,5.404,8.828,8.145
	C326.76,218.596,331.274,223.011,335.95,227.248z M385.498,182.372c-5.819-5.479-11.576-11.029-17.378-16.529
	c-3.009-2.849-6.098-5.616-9.107-8.464c-4.426-4.196-8.802-8.442-13.229-12.638c-1.889-1.793-3.833-3.526-5.776-5.26
	c-1.466-1.308-2.312-2.72-2.308-4.877c0.077-29.004,0.06-58.004,0.06-87.004c0-6.791-0.087-13.582,0.025-20.372
	c0.067-3.806-1.317-6.727-4.554-8.675c-0.791-0.48-1.867-0.704-2.814-0.704c-15.296-0.043-30.587,0.013-45.884-0.064
	c-3.481-0.021-7.528,4.105-7.494,8.923c0.119,16.761,0.049,33.525,0.049,50.291c0,0.768,0,1.536,0,2.703
	c-1.771-1.557-3.3-2.823-4.735-4.183c-3.155-2.989-6.253-6.04-9.395-9.043c-4.558-4.362-9.117-8.721-13.708-13.054
	c-3.118-2.938-6.319-5.795-9.429-8.747c-5.542-5.259-11.015-10.597-16.576-15.834c-4.337-4.089-8.572-8.353-14.298-10.545
	c-1.626-0.622-3.375-0.922-5.069-1.373c-1.984,0-3.967,0-5.95,0c-2.163,0.742-4.333,1.458-6.49,2.226
	c-5.527,1.965-9.112,6.426-13.17,10.274c-1.529,1.45-3.072,2.888-4.6,4.337c-6.108,5.791-12.197,11.604-18.33,17.374
	c-4.397,4.135-8.876,8.185-13.261,12.337c-5.444,5.157-10.81,10.404-16.251,15.568c-3.156,2.999-6.43,5.877-9.59,8.876
	c-5.489,5.212-10.921,10.488-16.396,15.718c-2.792,2.664-5.644,5.268-8.448,7.919c-4.69,4.431-9.346,8.896-14.044,13.32
	c-3.118,2.934-6.323,5.787-9.425,8.738c-4.162,3.96-8.252,8-12.404,11.969c-2.792,2.668-5.657,5.26-8.46,7.915
	c-5.91,5.59-11.794,11.214-17.707,16.799c-3.118,2.943-6.293,5.822-9.428,8.743c-2.723,2.536-5.515,5.006-8.09,7.684
	c-0.981,1.021-1.452,2.526-2.157,3.813c0,1.134,0,2.265,0,3.393c1.889,2.934,3.688,5.933,5.695,8.791
	c3.143,4.485,6.502,8.828,9.636,13.323c2.542,3.651,5.849,5.294,8.834,3.698c1.757-0.94,3.217-2.476,4.694-3.866
	c2.959-2.782,5.82-5.67,8.757-8.477c5.939-5.666,11.9-11.307,17.86-16.953c2.649-2.509,5.321-5.002,7.972-7.512
	c6.06-5.735,12.106-11.492,18.179-17.215c4.243-3.999,8.546-7.928,12.779-11.935c5.597-5.307,11.137-10.673,16.733-15.979
	c3.109-2.952,6.312-5.805,9.421-8.751c5.54-5.26,11.034-10.575,16.569-15.843c2.854-2.71,5.759-5.354,8.62-8.061
	c4.633-4.384,9.243-8.798,13.872-13.191c2.598-2.463,5.213-4.904,7.816-7.366c6.11-5.792,12.209-11.596,18.333-17.375
	c1.734-1.638,3.531-3.213,5.488-4.989c1.925,1.746,3.86,3.44,5.729,5.208c3.265,3.08,6.48,6.203,9.725,9.305
	c5.62,5.379,11.241,10.764,16.881,16.121c2.903,2.759,5.872,5.448,8.775,8.203c5.797,5.5,11.569,11.029,17.367,16.528
	c2.8,2.66,5.65,5.264,8.46,7.916c4.685,4.435,9.338,8.905,14.035,13.328c3.121,2.938,6.326,5.792,9.436,8.739
	c4.327,4.101,8.584,8.266,12.894,12.376c2.743,2.617,5.542,5.178,8.297,7.786c5.955,5.642,11.893,11.305,17.855,16.937
	c3.018,2.844,6.106,5.606,9.111,8.459c4.268,4.059,8.475,8.181,12.732,12.243c2.904,2.763,5.85,5.479,8.786,8.197
	c1.86,1.721,3.783,3.369,5.597,5.128c2.23,2.148,5.938,2.277,7.845-0.094c3.559-4.436,6.976-8.991,10.368-13.561
	c2.504-3.373,4.872-6.842,7.296-10.267c0-1.556,0-3.112,0-4.67C390.679,186.88,387.993,184.719,385.498,182.372z"/>
</svg>
