<?xml version="1.0" encoding="utf-8"?>
<!-- Generator: Adobe Illustrator 16.0.0, SVG Export Plug-In . SVG Version: 6.00 Build 0)  -->
<!DOCTYPE svg PUBLIC "-//W3C//DTD SVG 1.1//EN" "http://www.w3.org/Graphics/SVG/1.1/DTD/svg11.dtd">
<svg version="1.1" id="Layer_3" xmlns="http://www.w3.org/2000/svg" xmlns:xlink="http://www.w3.org/1999/xlink" x="0px" y="0px"
	 width="400px" height="400px" viewBox="0 0 400 400" enable-background="new 0 0 400 400" xml:space="preserve">
<g>
	<path fill-rule="evenodd" clip-rule="evenodd" fill="#333333" d="M102.549,297.727c-2.894-0.128-4.982-0.223-8.007-0.352
		c0-3.939-0.259-7.483,0.06-10.977c0.549-6.12-0.753-69.736-7.638-72.07c-12.466-4.22-19.722-15.926-18.619-29.588
		c2.978-36.626,7.398-73.062,17.833-108.468c1.563-5.278,3.696-10.519,6.429-15.295c3.693-6.458,8.185-6.496,11.703,0.129
		c3.355,6.336,6.674,13.127,7.857,20.067c5.912,34.491,11.517,69.052,16.349,103.706c1.805,12.925-5.852,25.03-17.898,29.097
		c-7.166,2.417-8.862,65.935-8.138,72.53C102.87,290.021,102.549,293.635,102.549,297.727z"/>
	<path fill-rule="evenodd" clip-rule="evenodd" fill="#333333" d="M201.805,238.479c-6.833,1.502-8.939-1.146-8.224-6.64
		c1.148-8.707-0.787-14.381-10.404-18.02c-9.047-3.41-13.702-12.506-13.12-22.424c2.115-36.443,6.832-72.525,18.372-107.334
		c1.547-4.657,6.01-8.344,9.131-12.481c3.17,4.099,8.19,7.788,9.204,12.361c5.975,27.108,11.272,54.369,16.231,81.679
		c1.586,8.685,1.912,17.695,1.973,26.56c0.071,10.354-4.827,18.978-14.442,22.462c-8.053,2.9-9.531,7.522-8.769,14.723
		C202.082,232.423,201.805,235.545,201.805,238.479z"/>
	<path fill-rule="evenodd" clip-rule="evenodd" fill="#333333" d="M296.374,240.856c0-3.535-0.267-6.635,0.059-9.67
		c0.583-5.585-1.169-8.449-6.984-10.535c-14.645-5.279-23.733-17.681-21.512-32.998c5.848-40.294,13.121-80.389,20.062-120.528
		c0.751-4.358,2.528-8.754,4.822-12.523c2.002-3.318,6.007-8.461,8.067-8.005c3.521,0.787,7.803,4.78,9.015,8.34
		c4.882,14.368,10.051,28.846,12.623,43.719c4.925,28.599,8.507,57.453,11.998,86.281c2.085,17.259-5.626,30.103-21.789,35.759
		c-7.083,2.47-6.689,6.85-6.278,11.964C306.979,239.248,304.947,242.771,296.374,240.856z"/>
	<polygon fill-rule="evenodd" clip-rule="evenodd" fill="#333333" points="79.948,238.549 319.803,238.549 391.748,339.879 
		4.252,339.879 	"/>
</g>
</svg>
