<?xml version="1.0" encoding="utf-8"?>
<!-- Generator: Adobe Illustrator 16.0.0, SVG Export Plug-In . SVG Version: 6.00 Build 0)  -->
<!DOCTYPE svg PUBLIC "-//W3C//DTD SVG 1.1//EN" "http://www.w3.org/Graphics/SVG/1.1/DTD/svg11.dtd">
<svg version="1.1" id="Capa_1" xmlns="http://www.w3.org/2000/svg" xmlns:xlink="http://www.w3.org/1999/xlink" x="0px" y="0px"
	 width="400px" height="400px" viewBox="0 0 400 400" enable-background="new 0 0 400 400" xml:space="preserve">
<path d="M221.063,175.607c0.086-0.153,0.222-0.31,0.318-0.471v0.471H221.063z M400,199.997c0,110.457-89.543,200-200,200
	s-200-89.543-200-200c0-110.457,89.543-200,200-200S400,89.54,400,199.997z M147.135,154.761H99.344v143.784h47.791V154.761z
	 M150.28,110.293c-0.317-14.104-10.368-24.839-26.725-24.839c-16.354,0-27.053,10.735-27.053,24.839
	c0,13.804,10.389,24.849,26.425,24.849h0.31C139.912,135.142,150.28,124.097,150.28,110.293z M319.498,216.09
	c0-44.155-23.58-64.705-55.032-64.705c-25.401,0-36.732,13.976-43.085,23.751v-20.375h-47.813c0.642,13.487,0,143.781,0,143.781
	h47.809v-80.303c0-4.31,0.324-8.577,1.583-11.651c3.466-8.599,11.312-17.479,24.521-17.479c17.309,0,24.211,13.191,24.211,32.507
	v76.93h47.806V216.09z"/>
</svg>
