<svg xmlns="http://www.w3.org/2000/svg" xmlns:xlink="http://www.w3.org/1999/xlink" version="1.1" x="0px" y="0px" viewBox="0 0 24 30" style="enable-background:new 0 0 24 24;" xml:space="preserve"><g><path d="M21.361,3.575l-0.936-0.936c-0.75-0.75-1.747-1.163-2.808-1.163c-1.061,0-2.058,0.413-2.809,1.163l-3.276,3.276   l0.936,0.936l3.276-3.276c1.001-1,2.744-1,3.745,0l0.936,0.936c0.5,0.5,0.776,1.165,0.776,1.872s-0.275,1.372-0.776,1.872   l-5.148,5.149c-1.001,1-2.744,1-3.745,0l-0.936-0.936L9.66,13.404l0.936,0.936c0.75,0.75,1.747,1.164,2.808,1.164   s2.058-0.413,2.809-1.163l5.148-5.149c0.75-0.75,1.164-1.748,1.164-2.808S22.111,4.325,21.361,3.575z"/><path d="M8.255,20.425c-1.001,1.001-2.743,1.001-3.744,0l-0.936-0.936c-0.5-0.5-0.776-1.165-0.776-1.872   c0-0.707,0.275-1.372,0.776-1.873l5.148-5.148c1.033-1.032,2.713-1.032,3.745,0l0.936,0.936l0.936-0.936L13.404,9.66   c-1.549-1.548-4.068-1.549-5.617,0l-5.148,5.148c-0.75,0.75-1.164,1.748-1.164,2.809c0,1.061,0.413,2.058,1.164,2.808l0.936,0.936   c0.75,0.75,1.747,1.164,2.808,1.164s2.058-0.413,2.808-1.164l3.277-3.276l-0.936-0.936L8.255,20.425z"/></g><text x="0" y="39" fill="#000000" font-size="5px" font-weight="bold" font-family="'Helvetica Neue', Helvetica, Arial-Unicode, Arial, Sans-serif">Created by Alexandre Piola</text><text x="0" y="44" fill="#000000" font-size="5px" font-weight="bold" font-family="'Helvetica Neue', Helvetica, Arial-Unicode, Arial, Sans-serif">from the Noun Project</text></svg>