<?xml version="1.0" encoding="utf-8"?>
<!-- Generator: Adobe Illustrator 16.0.0, SVG Export Plug-In . SVG Version: 6.00 Build 0)  -->
<!DOCTYPE svg PUBLIC "-//W3C//DTD SVG 1.1//EN" "http://www.w3.org/Graphics/SVG/1.1/DTD/svg11.dtd">
<svg version="1.1" id="Layer_2" xmlns="http://www.w3.org/2000/svg" xmlns:xlink="http://www.w3.org/1999/xlink" x="0px" y="0px"
	 width="317.568px" height="320.721px" viewBox="0 0 317.568 320.721" enable-background="new 0 0 317.568 320.721"
	 xml:space="preserve">
<path fill="#E3604B" d="M296.489,6.683h-20.529c-8.403,0-15.223,6.825-15.223,15.216v20.467v30.586v189.962l20.39,35.685v8.84
	c0,2.817,2.28,5.098,5.099,5.098c2.816,0,5.098-2.28,5.098-5.098v-8.84l20.389-35.685V72.952V42.366V21.899
	C311.711,13.508,304.881,6.683,296.489,6.683 M270.931,52.562h30.586v10.195h-30.586V52.562z M286.225,286.968l-11.609-20.308
	h23.218L286.225,286.968z M301.517,256.462h-30.586V72.952h30.586V256.462z M270.931,42.366V21.899c0-2.768,2.251-5.021,5.018-5.021
	h20.54c2.769,0,5.028,2.252,5.028,5.021v20.467H270.931z M5.856,6.683v305.854h50.976h183.514V6.683H56.832H5.856z M16.051,16.878
	h30.585v285.463H16.051V16.878z M230.151,302.342H56.832V16.878h173.319V302.342z M204.664,57.659H82.319v71.366h122.344V57.659z
	 M92.515,67.854h101.953v50.976H92.515V67.854z M107.807,78.049h71.368v10.195h-71.368V78.049z M107.807,98.439h71.368v10.196
	h-71.368V98.439z"/>
</svg>
