<?xml version="1.0" encoding="utf-8"?>
<!-- Generator: Adobe Illustrator 16.0.0, SVG Export Plug-In . SVG Version: 6.00 Build 0)  -->
<!DOCTYPE svg PUBLIC "-//W3C//DTD SVG 1.1//EN" "http://www.w3.org/Graphics/SVG/1.1/DTD/svg11.dtd">
<svg version="1.1" id="Layer_2" xmlns="http://www.w3.org/2000/svg" xmlns:xlink="http://www.w3.org/1999/xlink" x="0px" y="0px"
	 width="312.163px" height="316.667px" viewBox="0 0 312.163 316.667" enable-background="new 0 0 312.163 316.667"
	 xml:space="preserve">
<path fill="#E3604B" d="M263.668,48.937v-0.102l-1.563-1.486c-0.718-0.681-1.456-1.32-2.188-1.985
	c-0.324-0.303-0.654-0.6-0.983-0.893c-1.502-1.354-3.027-2.675-4.571-3.964c-0.281-0.234-0.563-0.465-0.838-0.691
	c-1.634-1.341-3.292-2.641-4.975-3.91c-0.212-0.162-0.424-0.316-0.635-0.475c-1.771-1.318-3.567-2.598-5.389-3.833
	c-0.144-0.101-0.29-0.196-0.438-0.297c-1.885-1.27-3.794-2.495-5.727-3.673c-0.124-0.077-0.242-0.15-0.369-0.222
	c-1.955-1.183-3.938-2.323-5.939-3.417c-0.138-0.074-0.267-0.146-0.405-0.222c-1.983-1.072-3.989-2.101-6.017-3.083
	c-0.188-0.09-0.374-0.182-0.562-0.272c-1.974-0.948-3.957-1.843-5.969-2.702c-0.277-0.115-0.547-0.236-0.828-0.352
	c-1.913-0.802-3.842-1.562-5.79-2.288c-0.075-0.024-0.14-0.054-0.207-0.079c-0.074-0.033-0.148-0.056-0.216-0.087
	c-0.258-0.096-0.513-0.181-0.765-0.272c-1.835-0.665-3.676-1.284-5.536-1.88c-0.525-0.165-1.048-0.342-1.579-0.504
	c-1.736-0.534-3.489-1.026-5.256-1.496c-0.655-0.175-1.309-0.361-1.968-0.529c-1.654-0.418-3.318-0.79-4.99-1.153
	c-0.771-0.165-1.54-0.347-2.318-0.505c-1.589-0.317-3.183-0.588-4.783-0.856c-0.865-0.145-1.722-0.308-2.593-0.433
	c-1.564-0.231-3.139-0.418-4.715-0.601c-0.905-0.106-1.8-0.231-2.71-0.322c-1.679-0.165-3.367-0.275-5.055-0.386
	c-0.807-0.052-1.609-0.133-2.42-0.172c-2.49-0.141-5.001-0.207-7.525-0.207c-2.524,0-5.034,0.066-7.539,0.192
	c-0.813,0.039-1.614,0.12-2.421,0.17c-1.693,0.113-3.376,0.223-5.059,0.388c-0.91,0.091-1.806,0.216-2.707,0.322
	c-1.58,0.187-3.15,0.369-4.714,0.601c-0.871,0.13-1.728,0.293-2.593,0.433c-1.599,0.268-3.194,0.539-4.783,0.856
	c-0.773,0.158-1.55,0.337-2.318,0.505c-1.668,0.361-3.336,0.735-4.989,1.153c-0.66,0.167-1.315,0.353-1.969,0.529
	c-1.762,0.47-3.514,0.962-5.255,1.496c-0.532,0.162-1.048,0.332-1.575,0.504c-1.86,0.59-3.71,1.215-5.541,1.88
	c-0.256,0.091-0.512,0.182-0.758,0.272c-0.078,0.03-0.147,0.054-0.221,0.083c-0.069,0.028-0.133,0.058-0.207,0.082
	c-1.944,0.726-3.877,1.486-5.792,2.288c-0.276,0.116-0.551,0.236-0.827,0.352c-2.008,0.859-3.996,1.754-5.964,2.702
	c-0.187,0.091-0.384,0.182-0.571,0.272c-2.022,0.982-4.025,2.011-6.013,3.083c-0.138,0.076-0.275,0.146-0.403,0.222
	c-2.008,1.094-3.981,2.231-5.944,3.417c-0.119,0.074-0.237,0.15-0.364,0.222c-1.935,1.178-3.848,2.404-5.729,3.673
	c-0.147,0.101-0.295,0.197-0.442,0.297c-1.816,1.232-3.613,2.515-5.384,3.833c-0.211,0.158-0.423,0.318-0.634,0.475
	c-1.684,1.265-3.337,2.569-4.976,3.91c-0.28,0.226-0.561,0.458-0.836,0.689c-1.545,1.292-3.071,2.61-4.576,3.966
	c-0.325,0.298-0.65,0.596-0.979,0.894c-0.714,0.68-1.457,1.319-2.17,2l-1.564,1.486v0.102
	C24.067,76.382,6.677,114.569,6.677,156.756c0,83.357,67.815,151.17,151.171,151.17s151.17-67.813,151.17-151.17
	C309.018,114.569,291.628,76.382,263.668,48.937 M157.798,267.426l0.03,0.038h-0.08L157.798,267.426z M117.584,209.376
	c10.462-11.073,24.919-17.346,40.263-17.346c15.344,0,29.8,6.272,40.262,17.346l-40.262,50.442L117.584,209.376z M204.415,201.477
	c-12.278-12.449-28.905-19.525-46.567-19.525s-34.289,7.076-46.567,19.525l-47.138-59.045l43.314-34.656l45.42,36.344l0.01,0.487
	l1.535,0.746l2.716,2.012l0.778-0.378l0.836,0.384l2.489-1.996l1.646-0.898v-0.409l45.349-36.287l43.311,34.65L204.415,201.477z
	 M63.021,52.369c0.01-0.017,0.03-0.031,0.05-0.042c8.326-7.568,17.563-14.155,27.518-19.576c0.063-0.032,0.123-0.066,0.187-0.096
	c1.899-1.028,3.823-2.015,5.772-2.963c0.172-0.081,0.34-0.162,0.507-0.243c1.768-0.846,3.553-1.651,5.364-2.429v71.888
	l-40.313,32.244V53.24C62.411,52.952,62.711,52.649,63.021,52.369 M116.733,21.79c1.56-0.472,3.129-0.915,4.709-1.338
	c0.674-0.182,1.349-0.364,2.022-0.529c1.481-0.374,2.978-0.711,4.474-1.034c0.768-0.167,1.54-0.344,2.323-0.495
	c1.426-0.283,2.859-0.529,4.301-0.77c0.841-0.143,1.683-0.293,2.529-0.418c1.427-0.211,2.87-0.384,4.301-0.551
	c0.856-0.101,1.712-0.217,2.568-0.3c1.535-0.152,3.09-0.253,4.641-0.354c0.763-0.049,1.511-0.12,2.279-0.16
	c0.635-0.032,1.284-0.027,1.929-0.052v115.369l-40.313-32.249V23.183c0.852-0.293,1.698-0.596,2.559-0.869
	C115.611,22.14,116.167,21.962,116.733,21.79 M167.095,16c1.548,0.101,3.104,0.203,4.639,0.354c0.857,0.083,1.713,0.199,2.563,0.3
	c1.442,0.167,2.88,0.339,4.307,0.551c0.847,0.125,1.688,0.275,2.53,0.418c1.441,0.241,2.878,0.487,4.301,0.77
	c0.777,0.158,1.549,0.327,2.322,0.495c1.5,0.322,2.997,0.665,4.474,1.034c0.673,0.169,1.343,0.352,2.017,0.529
	c1.585,0.423,3.155,0.866,4.715,1.338c0.555,0.172,1.117,0.35,1.678,0.524c0.861,0.277,1.706,0.581,2.56,0.869v75.726
	l-40.312,32.249V15.789c0.643,0.02,1.293,0.015,1.932,0.052C165.583,15.875,166.336,15.952,167.095,16 M219.154,29.693
	c1.947,0.948,3.871,1.929,5.771,2.963c0.063,0.03,0.123,0.063,0.183,0.096c9.959,5.42,19.196,12.007,27.521,19.576
	c0.021,0.015,0.034,0.025,0.054,0.042c0.3,0.28,0.601,0.583,0.906,0.871v77.913l-40.312-32.244V27.021
	c1.811,0.778,3.596,1.583,5.367,2.429C218.812,29.536,218.986,29.612,219.154,29.693 M157.848,297.849
	c-77.8,0-141.093-63.292-141.093-141.093c0-35.692,13.346-68.305,35.274-93.177v75.268v4.556l100.839,126.325l0.03,1.014l0,0v0.06
	l1.614,0.758l2.5,1.958l0.098-0.038l0.04,0.02l0.772-0.374l0.798,0.363l0.04-0.029l0.093,0.04l2.357-1.959l0.693-0.384l0.986-0.502
	v-0.049v-0.945l100.78-126.256v-4.556V63.579c21.926,24.873,35.271,57.485,35.271,93.177
	C298.94,234.557,235.647,297.849,157.848,297.849"/>
</svg>
