<?xml version="1.0" encoding="utf-8"?>
<!-- Generator: Adobe Illustrator 16.0.0, SVG Export Plug-In . SVG Version: 6.00 Build 0)  -->
<!DOCTYPE svg PUBLIC "-//W3C//DTD SVG 1.1//EN" "http://www.w3.org/Graphics/SVG/1.1/DTD/svg11.dtd">
<svg version="1.1" id="Layer_1" xmlns="http://www.w3.org/2000/svg" xmlns:xlink="http://www.w3.org/1999/xlink" x="0px" y="0px"
	 width="400px" height="400px" viewBox="0 0 400 400" enable-background="new 0 0 400 400" xml:space="preserve">
<path d="M10.903,239.915c0.104-26.798,0.204-52.552,0.304-78.422c49.683,0.062,100,0.126,151.222,0.189
	c-0.045-51.598-0.089-102.072-0.133-152.135c26.354,0.014,51.951,0.029,77.428,0.043c-0.003,49.786-0.005,100.231-0.008,151.158
	c52.005-0.075,102.305-0.145,152.007-0.214c-0.075,26.608-0.147,52.352-0.218,77.594c-48.986-0.003-99.287-0.007-149.811-0.01
	c0.016,52.084,0.031,102.531,0.044,152.279c-27.158,0.019-52.913,0.038-78.379,0.055c0.006-49.381,0.013-99.699,0.019-150.558
	C111.542,239.901,61.071,239.908,10.903,239.915"/>
</svg>
