<?xml version="1.0" encoding="utf-8"?>
<!-- Generator: Adobe Illustrator 16.0.0, SVG Export Plug-In . SVG Version: 6.00 Build 0)  -->
<!DOCTYPE svg PUBLIC "-//W3C//DTD SVG 1.1//EN" "http://www.w3.org/Graphics/SVG/1.1/DTD/svg11.dtd">
<svg version="1.1" id="Layer_2" xmlns="http://www.w3.org/2000/svg" xmlns:xlink="http://www.w3.org/1999/xlink" x="0px" y="0px"
	 width="400px" height="400px" viewBox="0 0 400 400" enable-background="new 0 0 400 400" xml:space="preserve">
<path fill-rule="evenodd" clip-rule="evenodd" fill="#333333" d="M388.993,242.901c-6.964-0.014-13.911-0.036-20.867-0.058
	c-0.812,0-1.618,0-2.611,0c0,49.168,0,98.124,0,147.211c-125.822,0-206.902,0-332.711,0c0-49.037,0-97.993,0-147.153
	c-7.919,0-15.667,0-23.339,0c-0.479-1.407-0.631-26.69-0.218-29.402c0.407-0.052,0.849-0.146,1.298-0.168
	c0.645-0.027,1.298-0.007,1.951-0.007c139.466,0,234.384,0,373.857-0.007c0.878,0,1.756-0.08,2.641-0.123
	C388.993,223.102,388.993,233.001,388.993,242.901z M199.127,330.263c11.438,8.304,22.811,16.558,34.176,24.813
	c0.101-0.08,0.203-0.153,0.304-0.232c-4.337-13.354-8.666-26.706-13.039-40.167c11.414-8.29,22.759-16.544,34.109-24.791
	c-0.051-0.116-0.095-0.238-0.145-0.361c-14.006,0-27.997,0-42.14,0c-4.381-13.477-8.732-26.857-13.092-40.239
	c-0.116,0-0.24,0-0.355,0.007c-4.358,13.403-8.725,26.8-13.084,40.225c-2.567,0-4.924,0-7.274,0c-2.299,0-4.598,0-6.897,0
	c-2.357,0-4.715,0-7.071,0c-2.358,0-4.715,0-7.072,0c-2.299,0-4.598,0-6.898,0c-2.313,0.016-4.634-0.022-6.94,0.021
	c-0.029,0.131-0.051,0.262-0.087,0.392c11.322,8.225,22.644,16.449,34.066,24.755c-4.366,13.446-8.703,26.806-13.033,40.159
	c0.102,0.079,0.203,0.152,0.312,0.224C176.331,346.813,187.696,338.56,199.127,330.263z M287.525,184.841
	c0-17.094-0.008-34.182,0-51.277c0.008-4.7-0.733-9.283-2.241-13.715c-3.822-11.213-10.814-19.619-21.891-24.297
	c-5.62-2.372-11.546-3.199-17.616-3.199c-30.998,0-62.005-0.015-93.011,0.022c-2.814,0.007-5.658,0.196-8.45,0.595
	c-7.086,1.015-13.534,3.655-19.002,8.34c-9.719,8.334-14.375,19.184-14.571,31.775c-0.276,17.385-0.073,34.777-0.066,52.163
	c0,0.449,0.087,0.891,0.139,1.312c3.271,0.327,27.923,0.189,29.374-0.189c0-3.835,0-7.717,0-11.596c0-3.888,0-7.783,0-11.67
	c0-3.953-0.014-7.898,0-11.852c0.015-3.858-0.058-7.717,0.043-11.539c0,0,17.879-0.065,19.112,0.298c0.022,0.05,0-0.051,0,0
	c0.007,1.584,0.058,45.62,0.058,45.62c0,0.116,0.232,1,0.269,1.109c0.007,0.059,47.73-0.166,79.209-0.166c0-1.346,0-39.035,0-46.89
	c4.032,0,15.252,0,19.213,0c0,7.884,0,15.651,0,23.412c0,7.819,0,15.631,0,23.514c9.898,0,19.546,0,29.432,0
	C287.525,185.894,287.525,185.365,287.525,184.841z M199.214,9.823c-19.562-0.022-35.489,15.854-35.489,35.386
	c0.008,19.475,15.84,35.329,35.314,35.357c19.627,0.022,35.423-15.752,35.423-35.364C234.463,25.677,218.688,9.845,199.214,9.823z"
	/>
</svg>
