<?xml version="1.0" encoding="utf-8"?>
<!-- Generator: Adobe Illustrator 16.0.0, SVG Export Plug-In . SVG Version: 6.00 Build 0)  -->
<!DOCTYPE svg PUBLIC "-//W3C//DTD SVG 1.1//EN" "http://www.w3.org/Graphics/SVG/1.1/DTD/svg11.dtd">
<svg version="1.1" id="Layer_3" xmlns="http://www.w3.org/2000/svg" xmlns:xlink="http://www.w3.org/1999/xlink" x="0px" y="0px"
	 width="400px" height="400px" viewBox="0 0 400 400" enable-background="new 0 0 400 400" xml:space="preserve">
<g>
	<path fill="#010101" d="M390.622,43.592H9.801c-3.755,0-6.801,3.039-6.801,6.8v299.217c0,3.761,3.046,6.8,6.801,6.8h380.821
		c3.754,0,6.8-3.039,6.8-6.8V50.392C397.422,46.631,394.376,43.592,390.622,43.592z M383.82,342.809H16.601V57.191h367.22V342.809z"
		/>
	<path fill="#010101" d="M111.806,194.137c20.884,0,37.871-16.987,37.871-37.864c0-20.89-16.987-37.877-37.871-37.877
		s-37.872,16.987-37.872,37.872C73.935,177.15,90.922,194.137,111.806,194.137z M111.806,131.996
		c13.383,0,24.271,10.895,24.271,24.272c0,13.375-10.888,24.27-24.271,24.27s-24.271-10.887-24.271-24.265
		C87.535,142.897,98.423,131.996,111.806,131.996z"/>
	<path fill="#010101" d="M50.603,315.607c1.591,0,3.196-0.56,4.488-1.694l110.934-97.667l70.058,70.051
		c2.66,2.659,6.958,2.659,9.617,0s2.659-6.956,0-9.615l-32.69-32.689l62.435-68.372l76.579,70.201
		c2.769,2.537,7.072,2.347,9.609-0.422s2.352-7.072-0.422-9.609l-81.604-74.804c-1.333-1.216-3.107-1.822-4.896-1.781
		c-1.802,0.082-3.502,0.877-4.721,2.209l-66.603,72.949l-32.255-32.253c-2.542-2.537-6.609-2.667-9.302-0.3L46.107,303.7
		c-2.822,2.481-3.094,6.779-0.612,9.602C46.842,314.831,48.719,315.607,50.603,315.607z"/>
</g>
</svg>
