<?xml version="1.0" encoding="utf-8"?>
<!-- Generator: Adobe Illustrator 16.0.0, SVG Export Plug-In . SVG Version: 6.00 Build 0)  -->
<!DOCTYPE svg PUBLIC "-//W3C//DTD SVG 1.1//EN" "http://www.w3.org/Graphics/SVG/1.1/DTD/svg11.dtd">
<svg version="1.1" id="Layer_2" xmlns="http://www.w3.org/2000/svg" xmlns:xlink="http://www.w3.org/1999/xlink" x="0px" y="0px"
	 width="400px" height="400px" viewBox="0 0 400 400" enable-background="new 0 0 400 400" xml:space="preserve">
<path fill="#010101" d="M384.07,373.72L283.451,269.076c26.41-28.563,40.883-65.405,40.883-104.401
	c0-84.938-69.102-154.04-154.039-154.04c-84.938,0-154.04,69.102-154.04,154.04s69.103,154.04,154.04,154.04
	c33.859,0,66.925-11.289,93.747-31.904l101.069,105.112c2.496,2.61,5.863,4.047,9.486,4.047c3.406,0,6.64-1.3,9.109-3.671
	C388.923,387.279,389.088,378.946,384.07,373.72z M170.295,36.919c70.445,0,127.755,57.311,127.755,127.756
	c0,70.444-57.311,127.757-127.755,127.757S42.539,235.119,42.539,164.675C42.539,94.23,99.851,36.919,170.295,36.919z"/>
</svg>
