<?xml version="1.0" encoding="utf-8"?>
<!-- Generator: Adobe Illustrator 16.0.0, SVG Export Plug-In . SVG Version: 6.00 Build 0)  -->
<!DOCTYPE svg PUBLIC "-//W3C//DTD SVG 1.1//EN" "http://www.w3.org/Graphics/SVG/1.1/DTD/svg11.dtd">
<svg version="1.1" id="Layer_2" xmlns="http://www.w3.org/2000/svg" xmlns:xlink="http://www.w3.org/1999/xlink" x="0px" y="0px"
	 width="400px" height="400px" viewBox="0 0 400 400" enable-background="new 0 0 400 400" xml:space="preserve">
<path fill="#010101" d="M345.012,14.241c-22.473,0-40.747,18.275-40.747,40.748c0,7.029,1.785,13.643,4.93,19.423l-66.75,66.751
	c-9.203-7.165-20.721-11.471-33.257-11.471c-12.537,0-24.055,4.306-33.264,11.464l-52.082-52.082
	c2.391-4.041,3.85-8.686,3.85-13.711c0-14.982-12.183-27.165-27.165-27.165S73.362,60.38,73.362,75.362
	c0,14.981,12.184,27.165,27.165,27.165c5.025,0,9.671-1.46,13.712-3.851l52.082,52.083c-7.158,9.208-11.463,20.726-11.463,33.263
	c0,12.536,4.306,24.055,11.463,33.257L80.316,303.29c-7.239-6.567-16.808-10.608-27.328-10.608
	c-22.472,0-40.748,18.275-40.748,40.748s18.275,40.747,40.748,40.747s40.748-18.274,40.748-40.747
	c0-7.029-1.787-13.645-4.931-19.423l87.125-87.125c7.511,5.841,16.57,9.752,26.473,10.995v68.999
	c-19.241,3.246-33.957,19.98-33.957,40.136c0,22.473,18.275,40.748,40.747,40.748c22.474,0,40.748-18.275,40.748-40.748
	c0-20.149-14.717-36.884-33.957-40.136v-68.999c9.902-1.243,18.961-5.154,26.473-10.995l52.082,52.082
	c-2.397,4.048-3.857,8.692-3.857,13.718c0,14.981,12.184,27.166,27.166,27.166c14.98,0,27.164-12.185,27.164-27.166
	s-12.184-27.165-27.164-27.165c-5.026,0-9.672,1.461-13.713,3.852l-52.082-52.082c7.158-9.209,11.464-20.728,11.464-33.264
	c0-12.537-4.306-24.055-11.464-33.257l65.639-65.637c7.231,6.567,16.801,10.608,27.32,10.608c22.473,0,40.748-18.275,40.748-40.748
	S367.484,14.241,345.012,14.241z M86.944,75.362c0-7.491,6.092-13.583,13.583-13.583s13.583,6.092,13.583,13.583
	c0,7.491-6.092,13.583-13.583,13.583S86.944,82.853,86.944,75.362z M52.988,360.595c-14.982,0-27.166-12.185-27.166-27.165
	c0-14.982,12.184-27.165,27.166-27.165c14.981,0,27.165,12.183,27.165,27.165C80.153,348.41,67.97,360.595,52.988,360.595z
	 M236.353,347.012c0,14.981-12.185,27.165-27.165,27.165c-14.982,0-27.166-12.184-27.166-27.165s12.183-27.164,27.166-27.164
	C224.168,319.848,236.353,332.03,236.353,347.012z M209.188,224.77c-22.473,0-40.749-18.275-40.749-40.748
	c0-22.473,18.276-40.748,40.749-40.748c22.472,0,40.746,18.275,40.746,40.748C249.934,206.494,231.659,224.77,209.188,224.77z
	 M331.43,292.682c0,7.491-6.092,13.583-13.582,13.583c-7.491,0-13.583-6.092-13.583-13.583s6.092-13.582,13.583-13.582
	C325.338,279.1,331.43,285.19,331.43,292.682z M345.012,82.153c-14.981,0-27.164-12.183-27.164-27.165
	c0-14.982,12.183-27.166,27.164-27.166s27.165,12.184,27.165,27.166C372.177,69.97,359.993,82.153,345.012,82.153z"/>
</svg>
