<?xml version="1.0" encoding="utf-8"?>
<!-- Generator: Adobe Illustrator 16.0.0, SVG Export Plug-In . SVG Version: 6.00 Build 0)  -->
<!DOCTYPE svg PUBLIC "-//W3C//DTD SVG 1.1//EN" "http://www.w3.org/Graphics/SVG/1.1/DTD/svg11.dtd">
<svg version="1.1" id="Layer_2" xmlns="http://www.w3.org/2000/svg" xmlns:xlink="http://www.w3.org/1999/xlink" x="0px" y="0px"
	 width="400px" height="400px" viewBox="0 0 400 400" enable-background="new 0 0 400 400" xml:space="preserve">
<path fill="#070808" d="M200.855,296.191c-40.525,29.978-80.504,59.55-122.397,90.538c8.115-24.428,15.5-46.763,22.95-69.075
	c7.597-22.76,14.972-45.599,23.073-68.183c2.172-6.05,0.452-8.631-4.265-11.916c-38.402-26.734-76.63-53.72-116.843-81.988H154.84
	c15.218-48.165,30.226-95.668,45.997-145.577c6.588,20.684,12.561,39.298,18.447,57.935c8.22,26.018,16.627,51.98,24.392,78.133
	c2.043,6.886,5.069,9.123,12.301,9.06c42.571-0.374,85.145-0.196,127.719-0.204c4.142,0,8.28,0,12.932,1.829
	c-20.327,14.348-40.644,28.714-60.988,43.04c-18.053,12.712-35.996,25.592-54.303,37.934c-5.085,3.428-5.713,6.382-3.803,12.011
	c15.098,44.463,29.829,89.051,43.313,135.041C280.866,355.258,240.888,325.747,200.855,296.191"/>
</svg>
