<?xml version="1.0" encoding="utf-8"?>
<!-- Generator: Adobe Illustrator 16.0.0, SVG Export Plug-In . SVG Version: 6.00 Build 0)  -->
<!DOCTYPE svg PUBLIC "-//W3C//DTD SVG 1.1//EN" "http://www.w3.org/Graphics/SVG/1.1/DTD/svg11.dtd">
<svg version="1.1" id="Layer_1" xmlns="http://www.w3.org/2000/svg" xmlns:xlink="http://www.w3.org/1999/xlink" x="0px" y="0px"
	 width="400px" height="400px" viewBox="0 0 400 400" enable-background="new 0 0 400 400" xml:space="preserve">
<path d="M68.976,277.793c-28.904,0-52.421,23.52-52.421,52.42c0,28.904,23.517,52.42,52.421,52.42
	c28.902,0,52.419-23.516,52.419-52.42C121.396,301.313,97.878,277.793,68.976,277.793z M68.976,369.529
	c-21.683,0-39.316-17.633-39.316-39.316c0-21.68,17.634-39.313,39.316-39.313s39.315,17.634,39.315,39.313
	C108.292,351.896,90.658,369.529,68.976,369.529z M200.027,277.793c-28.903,0-52.42,23.52-52.42,52.42
	c0,28.904,23.517,52.42,52.42,52.42s52.42-23.516,52.42-52.42C252.447,301.313,228.93,277.793,200.027,277.793z M200.027,369.529
	c-21.682,0-39.315-17.633-39.315-39.316c0-21.68,17.634-39.313,39.315-39.313c21.684,0,39.317,17.634,39.317,39.313
	C239.344,351.896,221.711,369.529,200.027,369.529z M331.078,277.793c-28.904,0-52.422,23.52-52.422,52.42
	c0,28.904,23.518,52.42,52.422,52.42c28.902,0,52.42-23.516,52.42-52.42C383.498,301.313,359.98,277.793,331.078,277.793z
	 M331.078,369.529c-21.682,0-39.314-17.633-39.314-39.316c0-21.68,17.634-39.313,39.314-39.313
	c21.684,0,39.315,17.634,39.315,39.313C370.395,351.896,352.762,369.529,331.078,369.529z M68.976,146.743
	c-28.904,0-52.421,23.517-52.421,52.42s23.517,52.419,52.421,52.419c28.902,0,52.419-23.516,52.419-52.419
	C121.396,170.259,97.878,146.743,68.976,146.743z M68.976,238.479c-21.683,0-39.316-17.633-39.316-39.316
	c0-21.682,17.634-39.315,39.316-39.315s39.315,17.634,39.315,39.315C108.292,220.846,90.658,238.479,68.976,238.479z
	 M200.027,146.743c-28.903,0-52.42,23.517-52.42,52.42s23.517,52.419,52.42,52.419s52.42-23.516,52.42-52.419
	C252.447,170.259,228.93,146.743,200.027,146.743z M200.027,238.479c-21.682,0-39.315-17.633-39.315-39.316
	c0-21.682,17.634-39.315,39.315-39.315c21.684,0,39.317,17.634,39.317,39.315C239.344,220.846,221.711,238.479,200.027,238.479z
	 M331.078,146.743c-28.904,0-52.422,23.517-52.422,52.42s23.518,52.419,52.422,52.419c28.902,0,52.42-23.516,52.42-52.419
	C383.498,170.259,359.98,146.743,331.078,146.743z M331.078,238.479c-21.682,0-39.314-17.633-39.314-39.316
	c0-21.682,17.634-39.315,39.314-39.315c21.684,0,39.315,17.634,39.315,39.315C370.395,220.846,352.762,238.479,331.078,238.479z
	 M68.976,15.691c-28.904,0-52.421,23.518-52.421,52.421c0,28.902,23.517,52.421,52.421,52.421c28.902,0,52.419-23.519,52.419-52.421
	C121.396,39.208,97.878,15.691,68.976,15.691z M68.976,107.427c-21.683,0-39.316-17.634-39.316-39.315
	c0-21.683,17.634-39.316,39.316-39.316s39.315,17.633,39.315,39.316C108.292,89.793,90.658,107.427,68.976,107.427z M200.027,15.691
	c-28.903,0-52.42,23.518-52.42,52.421c0,28.902,23.517,52.421,52.42,52.421s52.42-23.519,52.42-52.421
	C252.447,39.208,228.93,15.691,200.027,15.691z M200.027,107.427c-21.682,0-39.315-17.634-39.315-39.315
	c0-21.683,17.634-39.316,39.315-39.316c21.684,0,39.317,17.633,39.317,39.316C239.344,89.793,221.711,107.427,200.027,107.427z
	 M331.078,120.533c28.902,0,52.42-23.519,52.42-52.421c0-28.903-23.518-52.421-52.42-52.421c-28.904,0-52.422,23.518-52.422,52.421
	C278.656,97.014,302.174,120.533,331.078,120.533z M331.078,28.796c21.684,0,39.315,17.633,39.315,39.316
	c0,21.682-17.633,39.315-39.315,39.315c-21.682,0-39.314-17.634-39.314-39.315C291.764,46.429,309.396,28.796,331.078,28.796z"/>
</svg>
