<?xml version="1.0" encoding="utf-8"?>
<!-- Generator: Adobe Illustrator 16.0.0, SVG Export Plug-In . SVG Version: 6.00 Build 0)  -->
<!DOCTYPE svg PUBLIC "-//W3C//DTD SVG 1.1//EN" "http://www.w3.org/Graphics/SVG/1.1/DTD/svg11.dtd">
<svg version="1.1" id="Capa_1" xmlns="http://www.w3.org/2000/svg" xmlns:xlink="http://www.w3.org/1999/xlink" x="0px" y="0px"
	 width="400px" height="400px" viewBox="0 0 400 400" enable-background="new 0 0 400 400" xml:space="preserve">
<path fill="#0A0808" d="M0,0h400v400H0V0z M52.994,296.51c26.621,16.884,58.199,26.654,92.05,26.654
	c95.099,0,172.189-77.099,172.189-172.189c0-2.375-0.05-4.731-0.141-7.081c3.439-2.707,24.713-19.758,29.928-30.72
	c0,0-17.276,7.18-34.185,8.871c-0.033,0-0.074,0.008-0.107,0.008c0,0,0.033-0.017,0.091-0.058
	c1.559-1.041,23.34-15.868,26.289-33.535c0,0-12.22,6.522-29.329,12.229c-2.832,0.94-5.798,1.866-8.854,2.723
	c-11.028-11.77-26.704-19.116-44.105-19.116c-33.376,0-60.422,27.038-60.422,60.389c0,4.706,0.542,9.287,1.566,13.685
	c-4.664-0.191-75.691-4.173-124.011-62.689c0,0-28.878,39.424,17.209,79.964c0,0-14.01-0.558-26.097-7.78
	c0,0-4.439,47.761,47.753,59.973c0,0-10.27,3.89-26.654,1.116c0,0,9.163,38.592,55.534,42.197c0,0-36.668,33.125-88.72,25.354
	L52.994,296.51z"/>
</svg>
