<svg xmlns:dc="http://purl.org/dc/elements/1.1/" xmlns:cc="http://creativecommons.org/ns#" xmlns:rdf="http://www.w3.org/1999/02/22-rdf-syntax-ns#" xmlns:svg="http://www.w3.org/2000/svg" xmlns="http://www.w3.org/2000/svg" xmlns:sodipodi="http://sodipodi.sourceforge.net/DTD/sodipodi-0.dtd" xmlns:inkscape="http://www.inkscape.org/namespaces/inkscape" version="1.1" x="0px" y="0px" viewBox="0 0 100 125"><g transform="translate(0,-952.36218)"><g transform="translate(20.998031,959.86021)"><g transform="translate(-15.005905,-1.5059035)"><path d="M 44.007874,0 C 19.73622,0 0,19.73622 0,44.007874 c 0,24.271653 19.73622,44.007873 44.007874,44.007873 24.271653,0 44.007873,-19.73622 44.007873,-44.007873 C 88.015747,19.73622 68.279527,0 44.007874,0 z m 0,4.003937 c 22.110236,0 40.003936,17.893701 40.003936,40.003937 0,22.110236 -17.8937,40.003936 -40.003936,40.003936 -22.110236,0 -40.003937,-17.8937 -40.003937,-40.003936 0,-22.110236 17.893701,-40.003937 40.003937,-40.003937 z M 37.807086,17.007874 C 36.81496,17.114173 35.964567,18.106299 36,19.098425 l 1.984252,36 c 0.07087,1.027559 0.992126,1.913385 2.019685,1.913385 l 8.007873,0 c 1.02756,0 1.984252,-0.956693 1.984252,-1.984252 0,-11.799212 2.019685,-23.77559 2.019685,-35.999999 0,-1.062992 -0.956692,-2.019685 -2.019685,-2.019685 l -12.188976,0 z m 2.019685,42.023621 c -0.992126,0.07087 -1.842519,0.992126 -1.842519,1.984252 l 0,8.007874 c 0,1.027559 0.956692,1.984252 2.019685,1.984252 l 8.007873,0 c 1.02756,0 1.984252,-0.956693 1.984252,-1.984252 l 0,-8.007874 c 0,-1.062992 -0.956692,-1.984252 -1.984252,-1.984252 l -8.185039,0 z" style="" fill="#000000" fill-opacity="1" fill-rule="nonzero" stroke="none"/></g></g></g><text x="0" y="115" fill="#000000" font-size="5px" font-weight="bold" font-family="'Helvetica Neue', Helvetica, Arial-Unicode, Arial, Sans-serif">Created by AFY Studio</text><text x="0" y="120" fill="#000000" font-size="5px" font-weight="bold" font-family="'Helvetica Neue', Helvetica, Arial-Unicode, Arial, Sans-serif">from the Noun Project</text></svg>