<?xml version="1.0" encoding="utf-8"?>
<!-- Generator: Adobe Illustrator 16.0.0, SVG Export Plug-In . SVG Version: 6.00 Build 0)  -->
<!DOCTYPE svg PUBLIC "-//W3C//DTD SVG 1.1//EN" "http://www.w3.org/Graphics/SVG/1.1/DTD/svg11.dtd">
<svg version="1.1" id="Layer_1" xmlns="http://www.w3.org/2000/svg" xmlns:xlink="http://www.w3.org/1999/xlink" x="0px" y="0px"
	 width="300px" height="300px" viewBox="0 0 300 300" enable-background="new 0 0 300 300" xml:space="preserve">
<path fill="#030303" d="M148.999,296C69.079,296,4.062,230.947,4.062,150.995C4.062,71.041,69.079,6,148.999,6
	c79.923,0,144.94,65.041,144.94,144.995C293.949,230.947,228.922,296,148.999,296L148.999,296z M148.999,30.851
	c-66.225,0-120.097,53.902-120.097,120.144c0,66.246,53.872,120.138,120.097,120.138c66.219,0,120.091-53.893,120.091-120.138
	C269.09,84.752,215.218,30.851,148.999,30.851L148.999,30.851z M205.735,163.43h-44.312v47.227c0,6.402-5.194,11.602-11.595,11.602
	c-6.401,0-11.597-5.199-11.597-11.602V163.43H93.92c-6.4,0-11.594-5.197-11.594-11.602c0-6.404,5.194-11.599,11.594-11.599h44.312
	V98.8c0-6.402,5.196-11.6,11.597-11.6c6.4,0,11.595,5.197,11.595,11.6v41.43h44.312c6.399,0,11.594,5.195,11.594,11.599
	C217.329,158.232,212.135,163.43,205.735,163.43L205.735,163.43z"/>
</svg>
