<?xml version="1.0" encoding="utf-8"?>
<!-- Generator: Adobe Illustrator 16.0.0, SVG Export Plug-In . SVG Version: 6.00 Build 0)  -->
<!DOCTYPE svg PUBLIC "-//W3C//DTD SVG 1.1//EN" "http://www.w3.org/Graphics/SVG/1.1/DTD/svg11.dtd">
<svg version="1.1" id="Layer_1" xmlns="http://www.w3.org/2000/svg" xmlns:xlink="http://www.w3.org/1999/xlink" x="0px" y="0px"
	 width="300px" height="300px" viewBox="0 0 300 300" enable-background="new 0 0 300 300" xml:space="preserve">
<path fill="#070606" d="M282.426,94.45l-12.531,12.521l-75.189-75.083l12.527-12.52c13.846-13.825,36.289-13.825,50.137,0
	l25.055,25.033C296.252,58.22,296.252,80.625,282.426,94.45L282.426,94.45z M106.983,244.603c-3.461,3.457-3.461,9.055,0,12.514
	c3.461,3.471,9.069,3.471,12.528,0l137.857-137.631l-12.549-12.522L106.983,244.603L106.983,244.603z M44.321,182.044
	c-3.463,3.457-3.463,9.055,0,12.51c3.461,3.459,9.067,3.459,12.528,0L194.705,56.916l-12.531-12.515L44.321,182.044L44.321,182.044z
	 M207.215,69.418L69.378,207.067c-6.92,6.895-6.903,18.111,0,25.021c6.922,6.914,18.137,6.951,25.075-0.016L232.293,94.45
	L207.215,69.418L207.215,69.418z M94.42,269.591c-4.238-4.232-6.283-9.609-7.042-15.139c-1.8,0.277-3.62,0.539-5.469,0.539
	c-9.467,0-18.361-3.699-25.059-10.389c-6.697-6.705-10.383-15.57-10.383-25.021c0-1.73,0.259-3.406,0.5-5.082
	c-5.727-0.777-11.021-3.283-15.176-7.432c-0.399-0.396-0.535-0.932-0.899-1.367L9.259,292.146l86.337-21.586
	C95.216,270.214,94.782,269.954,94.42,269.591L94.42,269.591z"/>
</svg>
