<?xml version="1.0" encoding="utf-8"?>
<!-- Generator: Adobe Illustrator 16.0.0, SVG Export Plug-In . SVG Version: 6.00 Build 0)  -->
<!DOCTYPE svg PUBLIC "-//W3C//DTD SVG 1.1//EN" "http://www.w3.org/Graphics/SVG/1.1/DTD/svg11.dtd">
<svg version="1.1" id="Layer_1" xmlns="http://www.w3.org/2000/svg" xmlns:xlink="http://www.w3.org/1999/xlink" x="0px" y="0px"
	 width="300px" height="300px" viewBox="0 0 300 300" enable-background="new 0 0 300 300" xml:space="preserve">
<path fill-rule="evenodd" clip-rule="evenodd" fill="#070707" d="M212.151,297.5H96.12c-38.838,0-52.743-3.328-52.743-41.857V80.932
	h52.319V60.834c0-31.113,25.377-56.334,56.682-56.334c31.303,0,56.68,25.222,56.68,56.334v20.097h52.321v174.711
	C261.379,294.172,250.99,297.5,212.151,297.5L212.151,297.5z M205.13,174.725c-7.443-0.254-17.701-0.605-23.255-0.795
	l-21.852,23.844h30.761c-0.263-0.291-0.413-0.457-0.413-0.457l17.758-16.719C208.129,180.598,217.012,175.133,205.13,174.725
	L205.13,174.725z M170.504,145.252c-4.558,4.528-10.569,10.504-14.229,14.143v34.656l21.523-23.486l-0.77-21.463
	C177.028,149.102,178.724,137.081,170.504,145.252L170.504,145.252z M116.874,197.316c0,0-0.183,0.174-0.486,0.461h30.838
	l-22.891-22.748c-5.623,0-16.094,0-20.902,0c-13.636,0,1.586,11.125-2.188,7.57C108.106,189.063,116.874,197.316,116.874,197.316
	L116.874,197.316z M128.087,149.457c0,7.5,0,16.785,0,21.848l22.887,22.746v-33.416c-3.293-3.273-9.953-9.893-14.945-14.855
	C125.438,135.256,128.087,157.424,128.087,149.457L128.087,149.457z M205.374,213.885c-3.217-3.553-6.902-7.623-9.817-10.842
	h-35.533l20.176,17.879l23.066,0.818C203.266,221.74,215.269,224.813,205.374,213.885L205.374,213.885z M177.915,249.609
	c0-7.273,0-17.566,0-23.664l-21.641-19.174v31.857l13.775,12.322C170.05,250.951,177.915,260.777,177.915,249.609L177.915,249.609z
	 M135.81,250.225l15.164-12.813v-30.639l-21.8,18.633c-0.193,5.555-0.522,15.066-0.769,22.158
	C127.98,259.809,135.81,250.225,135.81,250.225L135.81,250.225z M99.304,221.805l26.99-0.865l20.928-17.891h-36.402
	c-4.283,4.053-9.986,9.451-14.229,13.469C88.757,223.936,99.304,221.805,99.304,221.805L99.304,221.805z M83.153,110.738
	c0,9.555,7.839,17.3,17.51,17.3c9.67,0,17.512-7.745,17.512-17.3c0-7.838-5.278-14.45-12.512-16.576V82.169l-9.967,0.62v11.364
	C88.446,96.27,83.153,102.888,83.153,110.738L83.153,110.738z M199.093,54.025c0,0-8.143-39.621-47.339-39.621
	c-39.194,0-46.091,38.384-46.091,38.384v28.144h93.43V54.025L199.093,54.025z M209.058,94.153V82.789l-9.965-0.62v11.993
	c-7.233,2.126-12.511,8.738-12.511,16.576c0,9.555,7.841,17.3,17.511,17.3c9.671,0,17.51-7.745,17.51-17.3
	C221.603,102.888,216.308,96.269,209.058,94.153L209.058,94.153z"/>
</svg>
