<?xml version="1.0" encoding="utf-8"?>
<!-- Generator: Adobe Illustrator 16.0.0, SVG Export Plug-In . SVG Version: 6.00 Build 0)  -->
<!DOCTYPE svg PUBLIC "-//W3C//DTD SVG 1.1//EN" "http://www.w3.org/Graphics/SVG/1.1/DTD/svg11.dtd">
<svg version="1.1" id="Layer_1" xmlns="http://www.w3.org/2000/svg" xmlns:xlink="http://www.w3.org/1999/xlink" x="0px" y="0px"
	 width="300px" height="300px" viewBox="0 0 300 300" enable-background="new 0 0 300 300" xml:space="preserve">
<path fill="#030303" d="M44.386,290.391c-3.596,3.594-9.438,3.594-13.042,0l-19.007-18.978c-3.605-3.591-3.605-9.428,0-13.021
	l73.443-73.307c3.174,0.732,6.416,1.216,9.749,1.216c1.218,0,2.434-0.053,3.652-0.156l17.117-1.456l16.358,17.618L44.386,290.391
	L44.386,290.391z M292.458,81.178l-53.548,53.437c-12.855,12.845-30.946,16.908-47.396,12.764l-35.892-35.827
	c-4.166-16.421-0.102-34.464,12.771-47.321l53.541-53.442c3.456-3.444,9.044-3.444,12.491,0c3.457,3.45,3.457,9.026,0,12.472
	L186.84,70.757c-4.493,4.483-4.493,11.764,0,16.248c4.502,4.496,11.79,4.496,16.293,0l47.341-47.254
	c3.578-3.569,9.383-3.569,12.978,0c3.576,3.583,3.576,9.378,0,12.952L216.09,99.962c-4.483,4.487-4.483,11.763,0,16.248
	c4.503,4.491,11.799,4.491,16.304,0l47.594-47.503c3.446-3.438,9.025-3.438,12.471,0C295.914,72.15,295.914,77.734,292.458,81.178
	L292.458,81.178z M273.05,269.531l-19.746,19.714c-1.836,1.819-4.31,2.838-6.892,2.838c-0.058,0-0.113,0-0.168,0
	c-2.644-0.053-5.151-1.169-6.94-3.104L123.996,164.825l-26.445,2.251c-0.674,0.058-1.349,0.084-2.022,0.084
	c-6.302,0-12.376-2.482-16.873-6.973l-45.544-45.454C7.653,89.32,1.101,50.606,16.783,18.255c1.367-2.827,4.025-4.813,7.125-5.338
	c0.532-0.087,1.077-0.133,1.619-0.133c2.549,0,5.028,1.005,6.864,2.835l240.667,240.204c1.817,1.818,2.837,4.288,2.837,6.856
	C275.896,265.247,274.876,267.715,273.05,269.531L273.05,269.531z"/>
</svg>
