<?xml version="1.0" encoding="utf-8"?>
<!-- Generator: Adobe Illustrator 16.0.0, SVG Export Plug-In . SVG Version: 6.00 Build 0)  -->
<!DOCTYPE svg PUBLIC "-//W3C//DTD SVG 1.1//EN" "http://www.w3.org/Graphics/SVG/1.1/DTD/svg11.dtd">
<svg version="1.1" id="Layer_1" xmlns="http://www.w3.org/2000/svg" xmlns:xlink="http://www.w3.org/1999/xlink" x="0px" y="0px"
	 width="300px" height="300px" viewBox="0 0 300 300" enable-background="new 0 0 300 300" xml:space="preserve">
<path fill="#030303" d="M230.7,298c15.662,0,28.357-12.84,28.357-28.678v-94.955h17.016c8.867,0,16.865-5.402,20.258-13.688
	c3.393-8.287,1.518-17.825-4.752-24.167L165.991,9.509c-8.563-8.659-22.446-8.659-31.011,0L9.393,136.512
	c-6.269,6.342-8.145,15.88-4.752,24.167c3.396,8.285,11.391,13.688,20.259,13.688h17.013v94.955c0,15.84,12.698,28.678,28.36,28.678
	l47.08-2.258v-77.107c0-18.508,14.835-33.508,33.135-33.508c18.297,0,33.133,15,33.133,33.508v77.107L230.7,298L230.7,298z"/>
</svg>
