<?xml version="1.0" encoding="utf-8"?>
<!-- Generator: Adobe Illustrator 16.0.0, SVG Export Plug-In . SVG Version: 6.00 Build 0)  -->
<!DOCTYPE svg PUBLIC "-//W3C//DTD SVG 1.1//EN" "http://www.w3.org/Graphics/SVG/1.1/DTD/svg11.dtd">
<svg version="1.1" id="Layer_1" xmlns="http://www.w3.org/2000/svg" xmlns:xlink="http://www.w3.org/1999/xlink" x="0px" y="0px"
	 width="300px" height="300px" viewBox="0 0 300 300" enable-background="new 0 0 300 300" xml:space="preserve">
<path fill="#110F0F" d="M162.609,137.455l-0.042,15.251l-0.001,121.266c0.04,2.11-0.833,4.021-2.18,5.375
	c-1.351,1.354-3.297,2.19-5.356,2.19c-4.206,0-7.578-3.386-7.578-7.605l0.002-121.266v-15.21L162.609,137.455L162.609,137.455z
	 M266.925,230.343h-41.147c-4.026,0-7.286-3.36-7.286-7.506v-87.919c0-4.144,3.26-7.504,7.286-7.504h23.138
	c-2.88-54.111-46.434-98.785-97.675-98.785c-51.243,0-94.796,44.678-97.677,98.785h22.084c4.023,0,7.287,3.361,7.287,7.504v87.919
	c0,4.146-3.261,7.506-7.287,7.506H59.866l-13.704-0.003h-11.66c-4.025,0-7.289-3.359-7.289-7.503v-87.919
	c0-2.417,1.127-4.542,2.851-5.912C32.196,61.102,86.797,4.497,151.24,4.497c64.78,0,119.61,57.193,121.203,125.568
	c1.091,1.312,1.773,2.992,1.773,4.853v87.919C274.217,226.982,270.95,230.343,266.925,230.343L266.925,230.343z M199.406,251.019
	l-33.662,33.784l-10.716,10.7l-10.716-10.756l-33.658-33.782c-2.975-2.984-2.975-7.771,0-10.754c2.972-2.985,7.743-2.985,10.716,0
	l33.66,33.78l33.66-33.671c2.973-2.984,7.743-2.984,10.716,0c1.516,1.464,2.244,3.379,2.244,5.35
	C201.65,247.584,200.864,249.555,199.406,251.019L199.406,251.019z"/>
</svg>
