<?xml version="1.0" encoding="utf-8"?>
<!-- Generator: Adobe Illustrator 16.0.0, SVG Export Plug-In . SVG Version: 6.00 Build 0)  -->
<!DOCTYPE svg PUBLIC "-//W3C//DTD SVG 1.1//EN" "http://www.w3.org/Graphics/SVG/1.1/DTD/svg11.dtd">
<svg version="1.1" id="Layer_1" xmlns="http://www.w3.org/2000/svg" xmlns:xlink="http://www.w3.org/1999/xlink" x="0px" y="0px"
	 width="294.667px" height="210.5px" viewBox="0 0 294.667 210.5" enable-background="new 0 0 294.667 210.5" xml:space="preserve">
<path d="M197.884,6.911l91.836,91.845c4.098,3.949,4.098,10.539,0,14.497l-91.836,91.836c-3.949,4.098-10.547,4.098-14.645,0
	c-3.958-3.949-3.958-10.547,0-14.645l74.257-74.118H12.459c-5.712,0-10.252-4.688-10.252-10.399c0-5.712,4.541-10.253,10.252-10.262
	h245.037l-74.257-74.256c-3.958-3.95-3.958-10.538,0-14.497C187.337,2.814,193.926,2.814,197.884,6.911L197.884,6.911z"/>
</svg>
