<?xml version="1.0" encoding="utf-8"?>
<!-- Generator: Adobe Illustrator 16.0.0, SVG Export Plug-In . SVG Version: 6.00 Build 0)  -->
<!DOCTYPE svg PUBLIC "-//W3C//DTD SVG 1.1//EN" "http://www.w3.org/Graphics/SVG/1.1/DTD/svg11.dtd">
<svg version="1.1" id="Layer_1" xmlns="http://www.w3.org/2000/svg" xmlns:xlink="http://www.w3.org/1999/xlink" x="0px" y="0px"
	 width="595.44px" height="537px" viewBox="0 0 595.44 537" enable-background="new 0 0 595.44 537" xml:space="preserve">
<path d="M577.92,83.476c-7.362-7.516-16.459-11.392-27.223-11.392H406.04V24.286c0-9.813-7.59-17.728-17.408-17.728h-1.897h-1.896
	H209.163h-1.905h-1.897c-9.811,0-17.725,7.914-17.725,17.728v47.798H43.294c-10.756,0-19.859,3.876-27.22,11.392
	C8.875,90.837,5,99.94,5,110.387v381.751c0,10.446,3.715,19.705,11.075,27.222c7.206,7.36,16.463,11.081,27.22,11.081h507.403
	c10.764,0,20.022-3.721,27.223-11.081c7.36-7.517,11.08-16.775,11.08-27.222V110.387C589,99.94,585.125,90.837,577.92,83.476
	L577.92,83.476z M222.771,41.694h148.454v30.39H222.771V41.694L222.771,41.694z M553.864,492.138c0,2.216-0.952,3.168-3.167,3.168
	H43.294c-1.58,0-3.477-1.899-3.477-3.168V234.785h212.077v8.549c0,9.812,7.597,17.41,17.408,17.41h55.078
	c9.811,0,17.725-7.598,17.725-17.41v-8.549h211.759V492.138L553.864,492.138z M553.864,199.966H39.817v-89.579
	c0-2.215,1.262-3.167,3.477-3.167h507.403c2.215,0,3.167,0.953,3.167,3.167V199.966L553.864,199.966z"/>
</svg>
