<?xml version="1.0" encoding="utf-8"?>
<!-- Generator: Adobe Illustrator 16.0.0, SVG Export Plug-In . SVG Version: 6.00 Build 0)  -->
<!DOCTYPE svg PUBLIC "-//W3C//DTD SVG 1.1//EN" "http://www.w3.org/Graphics/SVG/1.1/DTD/svg11.dtd">
<svg version="1.1" id="Layer_1" xmlns="http://www.w3.org/2000/svg" xmlns:xlink="http://www.w3.org/1999/xlink" x="0px" y="0px"
	 width="595.44px" height="469px" viewBox="0 0 595.44 469" enable-background="new 0 0 595.44 469" xml:space="preserve">
<path d="M433.727,255.667c-20.422,25.637-48.289,45.902-83.587,60.781c-35.305,14.879-73.711,22.321-115.205,22.306
	c-18.689,0-37.807-1.734-57.359-5.211c-26.941,19.117-57.143,33.027-90.6,41.715c-7.818,1.953-17.165,3.691-28.03,5.215h-0.975
	c-2.389,0-4.615-0.867-6.68-2.605c-2.063-1.742-3.313-4.02-3.748-6.84c-0.223-0.656-0.326-1.359-0.326-2.113
	c0-0.758,0.053-1.473,0.162-2.117c0.105-0.656,0.326-1.301,0.652-1.953l0.813-1.633c0,0,0.385-0.594,1.139-1.789
	c0.762-1.199,1.199-1.738,1.309-1.621c0.105,0.102,0.594-0.438,1.465-1.637c0.873-1.195,1.309-1.684,1.309-1.461
	c1.08-1.305,3.58-4.023,7.492-8.152c3.912-4.113,6.736-7.328,8.475-9.605c1.745-2.277,4.186-5.43,7.336-9.446
	c3.15-4.023,5.865-8.207,8.148-12.551c2.279-4.348,4.506-9.125,6.68-14.344c-26.942-15.637-48.124-34.871-63.549-57.68
	C13.221,222.112,5.5,197.769,5.5,171.913c0-30.195,10.213-58.113,30.633-83.752c20.424-25.639,48.284-45.896,83.59-60.782
	c35.305-14.881,73.707-22.32,115.203-22.32c41.502,0,79.9,7.439,115.205,22.32c35.306,14.885,63.173,35.143,83.587,60.782
	c20.422,25.639,30.633,53.557,30.633,83.752C464.352,202.116,454.141,230.034,433.727,255.667L433.727,255.667z M566.359,328.503
	c-15.422,22.712-36.602,41.888-63.539,57.536c2.172,5.219,4.398,9.996,6.68,14.34c2.281,4.348,5,8.531,8.148,12.547
	c3.148,4.023,5.594,7.176,7.328,9.453c1.742,2.277,4.563,5.48,8.477,9.613c3.906,4.121,6.406,6.84,7.492,8.145
	c0.219,0.219,0.656,0.707,1.305,1.461c0.656,0.758,1.141,1.305,1.461,1.629c0.328,0.324,0.766,0.871,1.305,1.629
	c0.547,0.762,0.914,1.359,1.141,1.789l0.813,1.625c0,0,0.219,0.652,0.648,1.953c0.43,1.309,0.484,2.02,0.164,2.117
	c-0.328,0.105-0.43,0.82-0.328,2.121c-0.648,3.039-2.063,5.422-4.234,7.16c-2.172,1.746-4.563,2.5-7.172,2.285
	c-10.867-1.523-20.203-3.254-28.031-5.215c-33.453-8.695-63.656-22.594-90.594-41.715c-19.555,3.477-38.672,5.211-57.359,5.211
	c-58.876,0-110.151-14.336-153.821-43.016c12.602,0.871,22.164,1.301,28.68,1.301c34.979,0,68.547-4.887,100.695-14.664
	c32.157-9.777,60.837-23.793,86.04-42.036c27.156-19.992,48.016-43.027,62.57-69.09c14.57-26.074,21.836-53.666,21.836-82.775
	c0-16.734-2.5-33.248-7.492-49.541c28.023,15.428,50.188,34.766,66.484,58.01c16.289,23.244,24.445,48.244,24.445,74.971
	C589.5,281.417,581.789,305.8,566.359,328.503L566.359,328.503z"/>
</svg>
