<?xml version="1.0" encoding="utf-8"?>
<!-- Generator: Adobe Illustrator 16.0.0, SVG Export Plug-In . SVG Version: 6.00 Build 0)  -->
<!DOCTYPE svg PUBLIC "-//W3C//DTD SVG 1.1//EN" "http://www.w3.org/Graphics/SVG/1.1/DTD/svg11.dtd">
<svg version="1.1" id="Layer_1" xmlns="http://www.w3.org/2000/svg" xmlns:xlink="http://www.w3.org/1999/xlink" x="0px" y="0px"
	 width="48px" height="48px" viewBox="0 0 48 48" enable-background="new 0 0 48 48" xml:space="preserve">
<g>
	<path fill="#FFFFFF" d="M24.036,47.334C11.169,47.334,0.702,36.866,0.702,24S11.169,0.667,24.036,0.667
		c12.866,0,23.333,10.467,23.333,23.333S36.901,47.334,24.036,47.334z"/>
	<path fill="#050505" d="M24.036,1.167c12.59,0,22.833,10.243,22.833,22.833c0,12.591-10.243,22.834-22.833,22.834
		S1.202,36.591,1.202,24C1.202,11.41,11.445,1.167,24.036,1.167 M24.036,0.167C10.874,0.167,0.202,10.837,0.202,24
		c0,13.163,10.671,23.834,23.833,23.834c13.163,0,23.833-10.671,23.833-23.834C47.869,10.837,37.198,0.167,24.036,0.167
		L24.036,0.167z"/>
</g>
<g>
	<path d="M27.035,21.71l-0.234,2.294H24.99V30.5h-2.678v-6.496h-1.276V21.71h1.276v-1.484c0-1.062,0.501-2.726,2.705-2.726
		l1.987,0.008v2.228h-1.443c-0.234,0-0.568,0.118-0.568,0.626v1.349H27.035z M27.035,21.71"/>
</g>
</svg>
