<?xml version="1.0" encoding="utf-8"?>
<!-- Generator: Adobe Illustrator 16.0.0, SVG Export Plug-In . SVG Version: 6.00 Build 0)  -->
<!DOCTYPE svg PUBLIC "-//W3C//DTD SVG 1.1//EN" "http://www.w3.org/Graphics/SVG/1.1/DTD/svg11.dtd">
<svg version="1.1" id="Layer_1" xmlns="http://www.w3.org/2000/svg" xmlns:xlink="http://www.w3.org/1999/xlink" x="0px" y="0px"
	 width="785.333px" height="549.998px" viewBox="0 0 785.333 549.998" enable-background="new 0 0 785.333 549.998"
	 xml:space="preserve">
<path fill-rule="evenodd" clip-rule="evenodd" d="M392.255,545.817c-122.602,0-245.205,0.001-367.809-0.002
	c-15.874-0.001-20.509-4.671-20.509-20.665c-0.003-166.371-0.003-332.743,0-499.114c0-15.94,4.652-20.594,20.57-20.594
	c245.206-0.003,490.413-0.003,735.618,0c15.867,0,20.524,4.681,20.524,20.648c0.003,166.371,0.003,332.743,0,499.114
	c0,15.893-4.716,20.611-20.586,20.611C637.462,545.818,514.86,545.817,392.255,545.817z M742.464,515.747
	c6.879,0.015,8.22-1.774,8.212-8.367c-0.204-154.566-0.216-309.132,0.028-463.697c0.011-7.006-1.962-8.155-8.43-8.149
	c-233.384,0.174-466.769,0.182-700.152-0.03c-6.879-0.006-8.225,1.773-8.216,8.368c0.203,154.564,0.214,309.13-0.029,463.695
	c-0.011,7.017,1.974,8.16,8.435,8.147c116.691-0.202,233.383-0.148,350.075-0.148C509.08,515.566,625.771,515.496,742.464,515.747z
	 M727.387,495.013c-1.453-2.076-2.405-3.498-3.417-4.877c-74.463-101.364-148.909-202.738-223.41-304.075
	c-18.777-25.539-39.245-25.554-57.996-0.064c-44.991,61.159-89.903,122.377-134.897,183.534c-1.575,2.141-2.621,4.888-5.641,6.121
	c-16.544-22.503-33.006-44.976-49.587-67.359c-2.572-3.474-5.405-6.856-8.606-9.739c-15.058-13.557-30.869-12.56-44.177,2.622
	c-2.018,2.301-3.827,4.792-5.643,7.263c-29.826,40.58-59.638,81.168-89.452,121.757c-15.685,21.353-31.37,42.707-47.611,64.818
	C281.054,495.013,503.795,495.013,727.387,495.013z M186.555,140.654c-0.207-30.939-25.346-55.78-56.354-55.685
	c-31.24,0.099-56.058,25.407-55.848,56.949c0.206,30.952,25.337,55.784,56.345,55.676
	C161.953,197.484,186.765,172.191,186.555,140.654z"/>
</svg>
