<?xml version="1.0" encoding="utf-8"?>
<!-- Generator: Adobe Illustrator 16.0.0, SVG Export Plug-In . SVG Version: 6.00 Build 0)  -->
<!DOCTYPE svg PUBLIC "-//W3C//DTD SVG 1.1//EN" "http://www.w3.org/Graphics/SVG/1.1/DTD/svg11.dtd">
<svg version="1.1" id="Layer_1" xmlns="http://www.w3.org/2000/svg" xmlns:xlink="http://www.w3.org/1999/xlink" x="0px" y="0px"
	 width="300px" height="281px" viewBox="0 0 300 281" enable-background="new 0 0 300 281" xml:space="preserve">
<path d="M160.368,18.561h-22.467c2.29,1.389,4.864,3.407,7.724,6.066c2.743,2.775,5.435,6.185,8.066,10.23
	c2.515,3.813,4.746,8.319,6.691,13.519c1.601,5.202,2.403,11.266,2.403,18.201c-0.218,12.718-3.096,22.882-8.632,30.511
	c-2.713,3.703-5.592,7.11-8.632,10.233c-3.365,3.117-6.949,6.3-10.747,9.533c-2.171,2.193-4.179,4.678-6.023,7.453
	c-2.171,2.889-3.256,6.244-3.256,10.056c0,3.697,1.112,6.76,3.339,9.187c1.892,2.316,3.73,4.331,5.513,6.07l12.36,9.879
	c7.683,6.126,14.418,12.881,20.211,20.28c5.456,7.516,8.297,17.338,8.517,29.472c0,17.22-7.792,32.478-23.385,45.766
	c-16.167,13.753-39.497,20.863-69.983,21.322c-25.522-0.229-44.578-5.535-57.165-15.919c-12.701-9.686-19.055-21.281-19.055-34.779
	c0-6.572,2.067-13.899,6.199-21.978c4.006-8.071,11.268-15.172,21.776-21.277c11.802-6.579,24.199-10.961,37.186-13.154
	c12.864-1.844,23.546-2.881,32.046-3.113c-2.626-3.37-4.967-6.973-7.023-10.807c-2.398-3.718-3.597-8.193-3.597-13.426
	c0-3.132,0.457-5.752,1.371-7.841c0.799-2.208,1.541-4.238,2.226-6.097c-4.141,0.462-8.041,0.694-11.707,0.694
	c-19.395-0.232-34.181-6.184-44.349-17.851C29.334,99.925,24.01,87.272,24.01,72.828c0-17.451,7.542-33.278,22.624-47.497
	c10.359-8.313,21.122-13.745,32.286-16.292c11.055-2.192,21.417-3.292,31.087-3.292h72.87L160.368,18.561L160.368,18.561z
	 M90.547,176.504c-7.544,1.036-15.259,2.711-23.146,5.023c-1.856,0.695-4.467,1.737-7.832,3.126
	c-3.364,1.5-6.786,3.641-10.268,6.413c-3.365,2.886-6.206,6.473-8.526,10.754c-2.67,4.505-4.001,9.937-4.001,16.293
	c0,12.483,5.795,22.771,17.4,30.865c11.022,8.094,26.105,12.251,45.248,12.486c17.17-0.235,30.279-3.933,39.329-11.099
	c8.816-7.056,13.227-16.126,13.227-27.222c0-9.018-3.02-16.878-9.051-23.58c-6.382-6.36-16.356-14.159-29.932-23.411
	c-2.32-0.229-5.045-0.345-8.178-0.345C102.96,175.577,98.203,175.809,90.547,176.504L90.547,176.504z M120.871,40.621
	c-3.446-6.831-7.98-12.386-13.604-16.675c-5.745-4.05-12.345-6.194-19.811-6.426c-9.874,0.232-18.087,4.111-24.631,11.637
	c-5.521,7.878-8.16,16.672-7.922,26.399c0,12.855,3.855,26.237,11.569,40.131c3.732,6.481,8.551,11.985,14.458,16.501
	c5.901,4.521,12.65,6.777,20.244,6.777c9.59-0.347,17.584-3.708,23.979-10.081c3.083-4.513,5.065-9.146,5.946-13.896
	c0.528-4.744,0.795-8.739,0.795-11.982C131.895,68.995,128.219,54.868,120.871,40.621L120.871,40.621z M255.691,136.376v37.322
	h-19.218v-37.322h-38.435v-18.66h38.435v-37.32h19.218v37.32h38.438v18.66H255.691L255.691,136.376z"/>
</svg>
