<?xml version="1.0" encoding="utf-8"?>
<!-- Generator: Adobe Illustrator 16.0.0, SVG Export Plug-In . SVG Version: 6.00 Build 0)  -->
<!DOCTYPE svg PUBLIC "-//W3C//DTD SVG 1.1//EN" "http://www.w3.org/Graphics/SVG/1.1/DTD/svg11.dtd">
<svg version="1.1" id="Layer_1" xmlns="http://www.w3.org/2000/svg" xmlns:xlink="http://www.w3.org/1999/xlink" x="0px" y="0px"
	 width="595.44px" height="441px" viewBox="0 0 595.44 441" enable-background="new 0 0 595.44 441" xml:space="preserve">
<path d="M585.276,136.287l-56.456,56.384c-1.816,1.814-4.198,2.72-6.576,2.72c-2.38,0-4.76-0.905-6.578-2.72l-4.875-4.871
	l-27.744,27.708c-3.754,3.75-6.209,8.348-7.1,13.296c-5.311,29.549-19.358,56.396-40.62,77.642l-7.462,7.45
	c3.743,5.245,5.771,11.5,5.771,18.068c0,8.339-3.25,16.178-9.155,22.072c-4.39,4.391-9.862,7.313-15.816,8.52
	c0.577,2.389,0.877,4.863,0.877,7.383c0,8.346-3.25,16.187-9.15,22.082c-6.101,6.084-14.111,9.127-22.112,9.127
	c-6.462,0-12.92-1.984-18.375-5.945c-1.541,4.162-3.977,7.983-7.213,11.217c-6.094,6.085-14.1,9.13-22.103,9.13
	c-8.006,0-16.007-3.045-22.101-9.13l-0.953-0.951c-1.549,4.01-3.927,7.692-7.063,10.821c-5.89,5.902-13.745,9.156-22.105,9.156
	c-3.519,0-7.001-0.61-10.293-1.756c-0.49,0.557-0.992,1.106-1.525,1.638c-6.321,6.313-14.724,9.789-23.665,9.789
	c-8.94,0-17.343-3.475-23.665-9.789c-6.709-6.7-9.959-15.563-9.77-24.362c-0.249,0.005-0.496,0.018-0.745,0.018
	c-8.94,0-17.343-3.477-23.665-9.789c-6.948-6.94-10.196-16.197-9.743-25.304c-0.559,0.027-1.113,0.043-1.672,0.043
	c-8.572,0-17.139-3.257-23.665-9.773c-6.319-6.313-9.802-14.705-9.802-23.633c0-8.632,3.261-16.756,9.189-22.99l-3.086-3.084
	c-21.018-21.003-35.004-47.518-40.446-76.685c-1.051-5.625-3.792-10.782-7.929-14.912l-16.389-16.368l-3.366,3.361
	c-1.746,1.743-4.108,2.72-6.578,2.72c-2.466,0-4.831-0.977-6.575-2.72L8.521,145.465c-3.63-3.626-3.63-9.506,0-13.133L134.211,6.809
	c3.631-3.627,9.518-3.627,13.15,0l56.458,56.384c1.743,1.741,2.722,4.102,2.722,6.566c0,2.462-0.979,4.825-2.722,6.564l-2.768,2.766
	l23.24,23.21c7.968,7.954,19.729,10.423,30.705,6.44c6.872-2.495,14.075-3.759,21.41-3.759c5.072,0,10.092,0.617,14.986,1.821
	c11.73-6.417,24.938-9.804,38.449-9.804c11.382,0,22.847,2.471,33.158,7.145c11.001,4.988,24.039,2.699,32.441-5.689l12.941-12.925
	l-5.633-5.624c-1.742-1.742-2.722-4.102-2.722-6.567c0-2.462,0.979-4.825,2.722-6.566l56.458-56.384
	c3.635-3.625,9.52-3.625,13.151,0l112.914,112.77c1.743,1.742,2.727,4.102,2.727,6.565C588,132.185,587.021,134.545,585.276,136.287
	L585.276,136.287z M232.369,412.194c2.807,2.805,6.541,4.351,10.512,4.351c3.972,0,7.706-1.546,10.512-4.351
	c5.8-5.789,5.8-15.21,0-21.001c-2.896-2.896-6.705-4.342-10.512-4.342c-3.81,0-7.614,1.446-10.512,4.342
	C226.569,396.984,226.569,406.405,232.369,412.194L232.369,412.194z M198.19,378.061c2.807,2.805,6.54,4.351,10.513,4.351
	c3.974,0,7.705-1.544,10.512-4.351c5.8-5.788,5.8-15.212,0-21c-2.898-2.896-6.705-4.343-10.512-4.343
	c-3.81,0-7.615,1.446-10.513,4.343C192.391,362.852,192.391,372.272,198.19,378.061L198.19,378.061z M163.11,343.028
	c5.799,5.791,15.231,5.789,21.027,0c5.797-5.789,5.797-15.209,0-21c-2.898-2.895-6.708-4.343-10.515-4.343
	c-3.807,0-7.614,1.448-10.512,4.343c-2.809,2.804-4.355,6.535-4.355,10.5C158.755,336.495,160.301,340.224,163.11,343.028
	L163.11,343.028z M140.784,26.508L28.246,138.9l43.307,43.251L184.094,69.761L140.784,26.508L140.784,26.508z M261.348,126.192
	c-5.434,1.971-11.075,2.931-16.654,2.931c-12.457,0-24.619-4.773-33.553-13.696l-23.24-23.21l-93.252,93.134l16.39,16.368
	c6.802,6.794,11.318,15.316,13.059,24.644c4.751,25.467,16.961,48.62,35.313,66.957l6.668,6.659
	c10.872-2.494,22.753,0.471,31.208,8.91c6.943,6.937,10.191,16.187,9.743,25.286c0.557-0.027,1.111-0.041,1.672-0.041
	c8.94,0,17.343,3.478,23.665,9.789c6.711,6.7,9.959,15.563,9.769,24.362c0.25-0.005,0.496-0.018,0.745-0.018
	c8.94,0,17.343,3.479,23.665,9.789c7.786,7.776,10.921,18.458,9.418,28.581c0.782,0.146,1.581,0.23,2.399,0.23
	c3.385,0,6.563-1.316,8.949-3.705c2.399-2.397,3.716-5.572,3.716-8.948c0-3.374-1.314-6.545-3.704-8.926
	c-0.017-0.014-0.032-0.034-0.047-0.051l-60.761-60.683c-3.632-3.626-3.632-9.505,0-13.133c3.632-3.628,9.516-3.628,13.15,0
	l81.97,81.863c4.935,4.929,12.969,4.929,17.902,0c2.389-2.387,3.707-5.563,3.707-8.94c0-3.32-1.274-6.449-3.585-8.816
	l-75.593-75.494c-3.632-3.628-3.632-9.508,0-13.133c3.632-3.625,9.516-3.625,13.15,0l75.352,75.253
	c0.029,0.029,0.061,0.052,0.087,0.081c0.093,0.094,0.182,0.188,0.272,0.281l16.394,16.372c4.935,4.93,12.974,4.928,17.915-0.004
	c2.387-2.385,3.706-5.562,3.706-8.947c0-3.378-1.316-6.552-3.71-8.938l-97.165-97.029c-3.63-3.626-3.632-9.508-0.002-13.133
	c3.632-3.628,9.515-3.628,13.149-0.003l90.209,90.069c2.394,2.395,5.572,3.712,8.951,3.712s6.559-1.317,8.947-3.708
	c2.396-2.389,3.71-5.563,3.712-8.949c0-3.375-1.316-6.551-3.708-8.938L302.302,214.135c-0.087-0.082-0.175-0.167-0.264-0.255
	l-0.007-0.007c-0.002,0-0.005-0.002-0.007-0.004l-0.313-0.312l-0.323-0.325c-0.003-0.002-0.005-0.004-0.007-0.006l-7.827-7.82
	l-28.917,28.878c-7.272,7.259-16.821,10.889-26.372,10.889c-9.55,0.002-19.099-3.627-26.37-10.889
	c-7.042-7.035-10.924-16.387-10.924-26.336s3.881-19.303,10.926-26.337l57.573-57.499
	C266.71,124.546,263.984,125.235,261.348,126.192L261.348,126.192z M408.591,111.585c-13.849,13.828-35.259,17.633-53.274,9.468
	c-7.919-3.588-16.728-5.485-25.475-5.485c-11.458,0-22.627,3.155-32.295,9.124c-4.068,2.506-7.856,5.499-11.263,8.899
	l-61.234,61.159c-3.533,3.526-5.478,8.214-5.478,13.202c0,4.987,1.945,9.676,5.475,13.205c7.29,7.276,19.149,7.279,26.441,0
	l35.479-35.433c0.004-0.004,0.011-0.014,0.015-0.017c0.006-0.007,0.013-0.011,0.02-0.018l15.43-15.412
	c3.63-3.625,9.52-3.625,13.151,0c3.632,3.628,3.632,9.507-0.002,13.135l-8.876,8.864l7.826,7.825c0.002,0,0.004,0.002,0.006,0.004
	l0.287,0.286c0.002,0,0.002,0,0.004,0.001l0.329,0.33c0.056,0.049,0.108,0.102,0.164,0.154c3.192,3.105,31.885,30.056,55.816,20.278
	c4.758-1.943,10.182,0.331,12.124,5.076c1.944,4.748-0.331,10.17-5.084,12.11c-6.067,2.479-12.164,3.522-18.118,3.522
	c-1.294,0-2.577-0.062-3.856-0.156l58.825,58.746l7.144-7.136c18.566-18.55,30.832-41.995,35.47-67.795
	c1.565-8.698,5.802-16.703,12.253-23.145l27.746-27.71L421.536,98.66L408.591,111.585L408.591,111.585z M465.784,30.088
	l-43.309,43.251l99.765,99.637l43.309-43.253L465.784,30.088L465.784,30.088z M531.608,146.11c-5.137,0-9.3-4.158-9.3-9.287
	s4.163-9.287,9.3-9.287c5.135,0,9.298,4.158,9.298,9.287S536.743,146.11,531.608,146.11L531.608,146.11z M66.711,155.284
	c-5.137,0-9.299-4.158-9.299-9.286s4.163-9.287,9.299-9.287c5.135,0,9.297,4.158,9.297,9.287S71.846,155.284,66.711,155.284
	L66.711,155.284z"/>
</svg>
