<?xml version="1.0" encoding="utf-8"?>
<!-- Generator: Adobe Illustrator 16.0.0, SVG Export Plug-In . SVG Version: 6.00 Build 0)  -->
<!DOCTYPE svg PUBLIC "-//W3C//DTD SVG 1.1//EN" "http://www.w3.org/Graphics/SVG/1.1/DTD/svg11.dtd">
<svg version="1.1" id="Layer_1" xmlns="http://www.w3.org/2000/svg" xmlns:xlink="http://www.w3.org/1999/xlink" x="0px" y="0px"
	 width="300px" height="274px" viewBox="0 13.5 300 274" enable-background="new 0 13.5 300 274" xml:space="preserve">
<path d="M295.607,97.277c-4.252-45.545-37.375-78.583-78.826-78.583c-27.617,0-52.903,14.462-67.132,37.643
	c-14.1-23.482-38.349-37.648-65.522-37.648c-41.447,0-74.576,33.038-78.82,78.583c-0.338,2.011-1.716,12.596,2.474,29.863
	c6.04,24.899,19.986,47.551,40.327,65.491l101.476,89.614L252.8,192.632c20.339-17.944,34.287-40.594,40.328-65.496
	C297.314,109.879,295.938,99.288,295.607,97.277L295.607,97.277z M282.221,124.637c-5.514,22.746-18.291,43.466-36.916,59.886
	l-95.655,83.056l-94.012-83.036c-18.66-16.45-31.43-37.166-36.948-59.909c-3.966-16.344-2.336-25.568-2.332-25.629l0.084-0.552
	c3.642-39.9,32.104-68.861,67.686-68.861c26.255,0,49.366,15.701,60.335,40.968l5.161,11.899l5.158-11.899
	c10.794-24.882,35.129-40.964,62.006-40.964c35.575,0,64.044,28.968,67.758,69.382C284.555,99.065,286.186,108.3,282.221,124.637
	L282.221,124.637z"/>
</svg>
