<?xml version="1.0" encoding="utf-8"?>
<!-- Generator: Adobe Illustrator 16.0.0, SVG Export Plug-In . SVG Version: 6.00 Build 0)  -->
<!DOCTYPE svg PUBLIC "-//W3C//DTD SVG 1.1//EN" "http://www.w3.org/Graphics/SVG/1.1/DTD/svg11.dtd">
<svg version="1.1" id="Layer_1" xmlns="http://www.w3.org/2000/svg" xmlns:xlink="http://www.w3.org/1999/xlink" x="0px" y="0px"
	 width="300px" height="275px" viewBox="0 0 300 275" enable-background="new 0 0 300 275" xml:space="preserve">
<path fill="#FF0000" d="M294.519,83.813c-4.252-45.545-37.375-78.583-78.826-78.583c-27.617,0-52.903,14.462-67.132,37.643
	c-14.1-23.482-38.349-37.648-65.522-37.648c-41.447,0-74.576,33.038-78.82,78.583c-0.338,2.011-1.716,12.596,2.474,29.863
	c6.04,24.899,19.986,47.551,40.327,65.491l101.475,89.614l103.217-89.609c20.339-17.945,34.287-40.594,40.328-65.496
	C296.226,96.414,294.85,85.823,294.519,83.813L294.519,83.813z"/>
</svg>
