<?xml version="1.0" encoding="utf-8"?>
<!-- Generator: Adobe Illustrator 16.0.0, SVG Export Plug-In . SVG Version: 6.00 Build 0)  -->
<!DOCTYPE svg PUBLIC "-//W3C//DTD SVG 1.1//EN" "http://www.w3.org/Graphics/SVG/1.1/DTD/svg11.dtd">
<svg version="1.1" id="Layer_1" xmlns="http://www.w3.org/2000/svg" xmlns:xlink="http://www.w3.org/1999/xlink" x="0px" y="0px"
	 width="300px" height="300px" viewBox="0 0 300 300" enable-background="new 0 0 300 300" xml:space="preserve">
<path fill-rule="evenodd" clip-rule="evenodd" d="M288.446,287.944c-10.745,10.74-28.17,10.74-38.914,0l-48.568-48.558
	c-19.972,12.792-43.574,20.437-69.057,20.437c-70.917,0-128.412-57.488-128.412-128.402C3.495,60.505,60.989,3.02,131.907,3.02
	c70.923,0,128.416,57.486,128.416,128.402c0,25.478-7.644,49.082-20.444,69.048l48.568,48.565
	C299.192,259.777,299.192,277.196,288.446,287.944L288.446,287.944z M131.907,39.705c-50.656,0-91.725,41.058-91.725,91.716
	c0,50.653,41.068,91.717,91.725,91.717c50.659,0,91.724-41.064,91.724-91.717C223.631,80.763,182.565,39.705,131.907,39.705
	L131.907,39.705z"/>
</svg>
