<?xml version="1.0" encoding="utf-8"?>
<!-- Generator: Adobe Illustrator 16.0.0, SVG Export Plug-In . SVG Version: 6.00 Build 0)  -->
<!DOCTYPE svg PUBLIC "-//W3C//DTD SVG 1.1//EN" "http://www.w3.org/Graphics/SVG/1.1/DTD/svg11.dtd">
<svg version="1.1" id="Layer_1" xmlns="http://www.w3.org/2000/svg" xmlns:xlink="http://www.w3.org/1999/xlink" x="0px" y="0px"
	 width="225.5px" height="296.119px" viewBox="0 0 225.5 296.119" enable-background="new 0 0 225.5 296.119" xml:space="preserve">
<path fill-rule="evenodd" clip-rule="evenodd" d="M113.088,295.119c0,0-110.088-122.603-110.088-183.366
	C3,50.991,52.287,1.736,113.088,1.736c60.799,0,110.088,49.255,110.088,110.017C223.176,172.517,113.088,295.119,113.088,295.119
	L113.088,295.119z M113.088,20.069c-50.665,0-91.741,41.565-91.741,92.826c0,51.277,91.741,154.72,91.741,154.72
	s91.74-103.443,91.74-154.72C204.828,61.634,163.754,20.069,113.088,20.069L113.088,20.069z M113.088,148.43
	c-25.333,0-45.871-20.523-45.871-45.843c0-25.319,20.538-45.847,45.871-45.847s45.87,20.527,45.87,45.847
	C158.958,127.906,138.421,148.43,113.088,148.43L113.088,148.43z M113.088,75.079c-15.199,0-27.522,12.317-27.522,27.508
	c0,15.194,12.323,27.504,27.522,27.504s27.521-12.311,27.521-27.504C140.609,87.396,128.287,75.079,113.088,75.079L113.088,75.079z"
	/>
</svg>
