<?xml version="1.0" encoding="utf-8"?>
<!-- Generator: Adobe Illustrator 16.0.0, SVG Export Plug-In . SVG Version: 6.00 Build 0)  -->
<!DOCTYPE svg PUBLIC "-//W3C//DTD SVG 1.1//EN" "http://www.w3.org/Graphics/SVG/1.1/DTD/svg11.dtd">
<svg version="1.1" id="Layer_1" xmlns="http://www.w3.org/2000/svg" xmlns:xlink="http://www.w3.org/1999/xlink" x="0px" y="0px"
	 width="588px" height="588px" viewBox="0 0 588 588" enable-background="new 0 0 588 588" xml:space="preserve">
<path d="M208.428,294.496c0,1.984-0.452,3.848-0.572,5.823l207.373,103.694c17.752-15.035,40.469-24.424,65.56-24.424
	c56.413,0.011,102.133,45.754,102.133,102.18c0,56.493-45.72,102.224-102.133,102.224c-56.46,0-102.128-45.73-102.128-102.224
	c0-2.032,0.45-3.86,0.567-5.825L171.854,372.246c-17.803,14.98-40.466,24.367-65.564,24.367
	c-56.404,0-102.127-45.685-102.127-102.117c0-56.48,45.723-102.23,102.127-102.23c25.098,0,47.765,9.442,65.564,24.428
	l207.375-103.7c-0.117-1.983-0.567-3.847-0.567-5.883c0-56.369,45.668-102.12,102.128-102.12
	c56.413,0,102.133,45.751,102.133,102.12c0,56.484-45.72,102.231-102.133,102.231c-25.151,0-47.82-9.447-65.56-24.491
	L207.856,288.61C207.969,290.597,208.428,292.468,208.428,294.496L208.428,294.496z"/>
</svg>
