<?xml version="1.0" encoding="utf-8"?>
<!-- Generator: Adobe Illustrator 16.0.0, SVG Export Plug-In . SVG Version: 6.00 Build 0)  -->
<!DOCTYPE svg PUBLIC "-//W3C//DTD SVG 1.1//EN" "http://www.w3.org/Graphics/SVG/1.1/DTD/svg11.dtd">
<svg version="1.1" id="Layer_1" xmlns="http://www.w3.org/2000/svg" xmlns:xlink="http://www.w3.org/1999/xlink" x="0px" y="0px"
	 width="595.44px" height="626px" viewBox="0 0 595.44 626" enable-background="new 0 0 595.44 626" xml:space="preserve">
<path d="M291.67,168.202c-45.094,0-81.776-36.725-81.776-81.862c0-45.138,36.685-81.861,81.776-81.861
	c45.093,0,81.778,36.723,81.778,81.861C373.448,131.478,336.764,168.202,291.67,168.202L291.67,168.202z M291.67,41.136
	c-24.899,0-45.158,20.278-45.155,45.205c0,24.925,20.256,45.204,45.155,45.204c24.902,0,45.157-20.278,45.16-45.204
	C336.83,61.414,316.572,41.136,291.67,41.136L291.67,41.136z M218.173,288.112v-36.658h147.006v36.658H218.173L218.173,288.112z
	 M540.993,393.862c-3.587,36.142-17.689,70.779-40.623,99.09c-23.255,28.709-54.704,49.95-89.682,60.821v67.746H306.916v-59.417
	h-30.493v59.417H172.655v-67.763c-24.968-7.751-48.233-20.787-67.966-38.173c-20.029-17.648-36.095-39.477-46.975-63.698H5.35
	V299.185h52.388c14.428-32.143,37.796-59.71,67.203-79.235V141.7h18.312c32.595,0,61.956,18.904,75.926,47.467
	c2.883-0.133,5.761-0.2,8.63-0.2h127.727c96.592,0,176.247,73.936,185.478,168.238h47.636v36.657H540.993L540.993,393.862z
	 M355.533,225.621H227.809c-6.158,0-12.395,0.383-18.534,1.141l-15.673,1.935l-4.214-15.234
	c-4.007-14.48-14.52-25.902-27.828-31.445v58.626l-9.082,5.304c-30.096,17.575-53.271,45.233-65.262,77.885l-4.407,12.008H41.971
	v79.384h40.817l4.407,12.01c8.549,23.299,22.966,44.335,41.69,60.832c18.852,16.61,41.701,28.275,66.077,33.732l14.313,3.204v59.859
	h30.527v-59.42H343.54v59.42h30.526v-59.838l14.314-3.204c32.661-7.313,62.329-25.766,83.547-51.959
	c21.826-26.944,33.365-59.56,33.362-94.332C505.29,292.868,438.107,225.621,355.533,225.621L355.533,225.621z M144.481,337.957
	c-11.091,0-20.082-9.001-20.082-20.103c0-11.103,8.99-20.103,20.082-20.103c11.091,0,20.081,9,20.081,20.103
	C164.562,328.956,155.572,337.957,144.481,337.957L144.481,337.957z"/>
</svg>
