<?xml version="1.0" encoding="utf-8"?>
<!-- Generator: Adobe Illustrator 16.0.0, SVG Export Plug-In . SVG Version: 6.00 Build 0)  -->
<!DOCTYPE svg PUBLIC "-//W3C//DTD SVG 1.1//EN" "http://www.w3.org/Graphics/SVG/1.1/DTD/svg11.dtd">
<svg version="1.1" id="Layer_1" xmlns="http://www.w3.org/2000/svg" xmlns:xlink="http://www.w3.org/1999/xlink" x="0px" y="0px"
	 width="595.44px" height="597px" viewBox="0 0 595.44 597" enable-background="new 0 0 595.44 597" xml:space="preserve">
<path d="M297.72,591.536c-162.029,0-293.396-131.318-293.396-293.329c0-162.01,131.367-293.329,293.396-293.329
	c162.034,0,293.396,131.319,293.396,293.329C591.115,460.218,459.754,591.536,297.72,591.536L297.72,591.536z M297.72,28.332
	c-141.774,0-269.918,128.126-269.918,269.875c0,141.749,128.145,269.875,269.918,269.875c141.773,0,269.919-128.126,269.919-269.875
	C567.639,156.458,439.493,28.332,297.72,28.332L297.72,28.332z M370.922,312.5h45.07v91.32H314.591v-84.922
	c0-23.846,5.532-47.195,8.454-64.772c2.941-17.578,10.622-23.779,23.072-41.417c12.445-17.621,31.57-32.153,57.362-43.566
	l23.33,43.842C391.096,227.474,371.266,261.254,370.922,312.5L370.922,312.5z M213.209,312.5h45.064v91.32H156.891v-84.922
	c0-23.846,5.52-47.195,8.454-64.772c2.922-17.578,10.499-23.779,22.729-41.417c12.211-17.621,31.44-32.153,57.712-43.566
	l23.305,43.842C233.721,227.474,213.891,261.254,213.209,312.5L213.209,312.5z"/>
</svg>
