<?xml version="1.0" encoding="utf-8"?>
<!-- Generator: Adobe Illustrator 16.0.0, SVG Export Plug-In . SVG Version: 6.00 Build 0)  -->
<!DOCTYPE svg PUBLIC "-//W3C//DTD SVG 1.1//EN" "http://www.w3.org/Graphics/SVG/1.1/DTD/svg11.dtd">
<svg version="1.1" id="Layer_1" xmlns="http://www.w3.org/2000/svg" xmlns:xlink="http://www.w3.org/1999/xlink" x="0px" y="0px"
	 width="595.44px" height="601px" viewBox="0 0 595.44 601" enable-background="new 0 0 595.44 601" xml:space="preserve">
<path d="M297.005,595.004c-162.677,0-295.002-132.338-295.002-295.002C2.003,137.342,134.328,5,297.005,5
	C459.66,5,591.998,137.342,591.998,300.002C591.998,462.666,459.66,595.004,297.005,595.004L297.005,595.004z M297.005,40.686
	c-142.983,0-259.32,116.333-259.32,259.316c0,142.988,116.337,259.299,259.32,259.299c142.979,0,259.325-116.311,259.325-259.299
	C556.33,157.019,439.984,40.686,297.005,40.686L297.005,40.686z M227.877,272.19c-21.37,0-38.681-17.31-38.681-38.667
	c0-21.37,17.311-38.681,38.681-38.681c21.356,0,38.667,17.311,38.667,38.681C266.543,254.88,249.233,272.19,227.877,272.19
	L227.877,272.19z M373.134,272.19c-21.352,0-38.671-17.31-38.671-38.667c0-21.37,17.319-38.681,38.671-38.681
	c21.353,0,38.672,17.311,38.672,38.681C411.806,254.88,394.486,272.19,373.134,272.19L373.134,272.19z M300.012,436.949
	c-82.161,0-133.752-54.733-134.507-55.589l26.258-24.146c3.793,4.067,94.54,98.712,228.772-2.147l21.439,28.51
	C388.813,423.559,340.66,436.949,300.012,436.949L300.012,436.949z"/>
</svg>
