<?xml version="1.0" encoding="utf-8"?>
<!-- Generator: Adobe Illustrator 16.0.0, SVG Export Plug-In . SVG Version: 6.00 Build 0)  -->
<!DOCTYPE svg PUBLIC "-//W3C//DTD SVG 1.1//EN" "http://www.w3.org/Graphics/SVG/1.1/DTD/svg11.dtd">
<svg version="1.1" id="Layer_1" xmlns="http://www.w3.org/2000/svg" xmlns:xlink="http://www.w3.org/1999/xlink" x="0px" y="0px"
	 width="556px" height="529.271px" viewBox="0 0 556 529.271" enable-background="new 0 0 556 529.271" xml:space="preserve">
<path fill-rule="evenodd" clip-rule="evenodd" d="M439.04,529.271c-4.032-1.529-8.271-2.665-12.064-4.649
	c-47.423-24.815-94.842-49.638-142.072-74.816c-5.56-2.965-9.516-2.693-14.879,0.171c-46.634,24.9-93.43,49.495-140.182,74.174
	c-1.357,0.716-2.746,1.381-4.153,1.988c-15.026,6.495-25.976-1.303-23.617-17.604c3.388-23.412,7.606-46.707,11.612-70.028
	c5.414-31.517,11.055-62.994,16.276-94.543c0.411-2.483-0.909-6.185-2.739-7.975c-36.006-35.209-72.229-70.195-108.344-105.292
	c-4.407-4.282-8.971-8.551-12.577-13.472c-8.571-11.696-4.491-22.728,9.641-25.591c11.803-2.391,23.816-3.759,35.752-5.471
	c29.301-4.202,58.613-8.33,87.919-12.506c13.89-1.979,27.808-3.795,41.629-6.178c2.695-0.464,6.137-2.632,7.314-4.977
	c23.603-47.042,46.909-94.234,70.33-141.366c2.045-4.116,4.064-8.351,6.808-11.991c6.938-9.209,16.701-9.435,23.692-0.274
	c3.813,4.998,6.698,10.782,9.502,16.458c22.239,45.035,44.405,90.102,66.432,135.239c2.226,4.558,4.723,6.647,10.183,7.389
	c41.494,5.629,82.912,11.837,124.355,17.843c12.148,1.76,24.333,3.308,36.456,5.231c7.048,1.118,14.186,2.902,16.71,10.78
	c2.678,8.352-2.137,14.424-7.579,19.782c-17.396,17.13-34.927,34.125-52.443,51.132c-21.774,21.14-43.695,42.128-65.207,63.53
	c-2.045,2.033-2.706,6.73-2.181,9.887c8.916,53.366,18.159,106.679,27.182,160.028c0.607,3.601,0.464,7.46-0.07,11.092
	C451.5,525.606,447.75,528.541,439.04,529.271z M152.261,463.666c2.846-1.363,4.438-2.063,5.974-2.871
	c37.859-19.912,75.741-39.779,113.519-59.843c4.126-2.191,7.27-2.309,11.505-0.036c27.449,14.727,55.065,29.142,82.646,43.625
	c11.929,6.264,23.898,12.447,36.22,18.859c0-2.392,0.225-3.956-0.031-5.438c-7.427-42.721-14.794-85.453-22.534-128.118
	c-0.784-4.335,0.09-6.82,3.056-9.657c26.378-25.237,52.646-50.591,78.937-75.918c5.92-5.704,11.806-11.445,18.548-17.984
	c-45.725-6.881-89.886-13.658-134.109-19.985c-4.545-0.65-6.384-2.667-8.118-6.153c-18.927-38.077-37.91-76.126-56.896-114.176
	c-0.98-1.966-2.11-3.856-3.493-6.367c-0.98,1.851-1.514,2.796-1.993,3.768c-17.179,34.798-34.859,69.362-51.255,104.527
	c-5.743,12.318-12.165,19.232-26.849,20.601c-28.33,2.64-56.417,7.887-84.601,12.084c-12.176,1.813-24.341,3.703-36.511,5.557
	c-0.296,0.649-0.593,1.299-0.89,1.947c1.005,0.481,2.223,0.742,2.986,1.476c31.384,30.184,62.757,60.379,94,90.709
	c1.766,1.715,3.74,4.786,3.397,6.859c-5.026,30.472-10.442,60.88-15.737,91.309C157.479,433.098,154.99,447.765,152.261,463.666z"/>
</svg>
