<?xml version="1.0" encoding="utf-8"?>
<!-- Generator: Adobe Illustrator 16.0.0, SVG Export Plug-In . SVG Version: 6.00 Build 0)  -->
<!DOCTYPE svg PUBLIC "-//W3C//DTD SVG 1.1//EN" "http://www.w3.org/Graphics/SVG/1.1/DTD/svg11.dtd">
<svg version="1.1" id="Layer_1" xmlns="http://www.w3.org/2000/svg" xmlns:xlink="http://www.w3.org/1999/xlink" x="0px" y="0px"
	 width="178.137px" height="169.928px" viewBox="0 0 178.137 169.928" enable-background="new 0 0 178.137 169.928"
	 xml:space="preserve">
<path d="M32.076,163.636c2.081-10.144,4.237-20.726,6.429-31.301c1.416-6.834,2.791-13.68,4.377-20.475
	c0.646-2.77-0.059-4.546-2.206-6.463C28.252,94.309,15.99,83.042,3.658,71.852C1.521,69.914-0.75,68,0.238,64.693
	c0.979-3.28,3.755-3.731,6.723-4.054c16.707-1.823,33.392-3.848,50.111-5.549c2.887-0.294,4.3-1.256,5.46-3.876
	c6.714-15.177,13.634-30.263,20.462-45.391c1.241-2.749,2.243-5.769,5.982-5.822c3.743-0.054,4.865,2.896,6.111,5.661
	c6.748,14.981,13.564,29.931,20.222,44.952c1.254,2.828,2.656,4.205,6.092,4.537c16.892,1.629,33.735,3.752,50.608,5.588
	c2.729,0.298,4.927,1.107,5.839,3.809c0.932,2.76-0.521,4.748-2.494,6.535c-12.592,11.399-25.1,22.892-37.784,34.188
	c-2.31,2.058-2.894,3.997-2.271,6.916c3.428,16.09,6.666,32.222,10.076,48.315c0.639,3.014,1.537,5.919-1.368,8.229
	c-3.239,2.576-5.946,0.42-8.663-1.124c-14.008-7.963-28.062-15.849-41.954-24.008c-3.093-1.815-5.345-1.979-8.523-0.112
	c-14.463,8.499-29.081,16.735-43.688,24.987C36.217,171.277,32.018,169.172,32.076,163.636"/>
</svg>
