<?xml version="1.0" encoding="utf-8"?>
<!-- Generator: Adobe Illustrator 16.0.0, SVG Export Plug-In . SVG Version: 6.00 Build 0)  -->
<!DOCTYPE svg PUBLIC "-//W3C//DTD SVG 1.1//EN" "http://www.w3.org/Graphics/SVG/1.1/DTD/svg11.dtd">
<svg version="1.1" id="Layer_1" xmlns="http://www.w3.org/2000/svg" xmlns:xlink="http://www.w3.org/1999/xlink" x="0px" y="0px"
	 width="300px" height="300px" viewBox="0 0 300 300" enable-background="new 0 0 300 300" xml:space="preserve">
<path d="M285.909,223.914c-26.521-22.934-51.059-55.289-51.059-136.071C234.851,41.061,196.789,3,150.004,3
	c-46.79,0-84.855,38.061-84.855,84.843c0,80.854-24.532,113.178-51.072,136.092c-7.359,6.407-11.581,15.637-11.581,25.321
	c0,5.332,4.322,9.651,9.652,9.651h91.596c4.467,21.444,23.509,37.606,46.256,37.606c22.746,0,41.789-16.16,46.256-37.606h91.595
	c5.332,0,9.652-4.319,9.652-9.651C297.503,239.494,293.272,230.25,285.909,223.914L285.909,223.914z M150,277.211
	c-12.02,0-22.29-7.629-26.227-18.303h52.456C172.291,269.582,162.019,277.211,150,277.211L150,277.211z M25.602,239.607
	c0.351-0.382,0.726-0.745,1.121-1.09c40.463-34.934,57.728-79.995,57.728-150.674c0-36.139,29.408-65.539,65.553-65.539
	c36.143,0,65.542,29.4,65.542,65.539c0,70.616,17.266,115.674,57.75,150.686c0.395,0.339,0.77,0.698,1.123,1.078H25.602
	L25.602,239.607z"/>
</svg>
