<?xml version="1.0" encoding="utf-8"?>
<!-- Generator: Adobe Illustrator 16.0.0, SVG Export Plug-In . SVG Version: 6.00 Build 0)  -->
<!DOCTYPE svg PUBLIC "-//W3C//DTD SVG 1.1//EN" "http://www.w3.org/Graphics/SVG/1.1/DTD/svg11.dtd">
<svg version="1.1" id="Layer_1" xmlns="http://www.w3.org/2000/svg" xmlns:xlink="http://www.w3.org/1999/xlink" x="0px" y="0px"
	 width="92.604px" height="92.8px" viewBox="0 0 92.604 92.8" enable-background="new 0 0 92.604 92.8" xml:space="preserve">
<path d="M3.097,92.8c-0.852-0.001-1.588-0.306-2.19-0.907C0.33,91.317,0,90.481,0,89.6l0.099-19.495c0-0.958,0.519-1.75,0.953-2.246
	l53.553-53.452L68.01,0.904C68.621,0.329,69.438,0,70.287,0c0.838,0,1.621,0.322,2.206,0.907l19.195,19.397
	c1.215,1.29,1.224,3.269,0.004,4.489l-67,67c-0.602,0.602-1.34,0.907-2.193,0.907L3.097,92.8z M6.403,71.483L6.292,86.408
	l15.024-0.11L71.715,36L56.8,21.086L6.403,71.483z M61.286,16.6L76.2,31.514l9.014-9.014L70.3,7.586L61.286,16.6z"/>
</svg>
