<?xml version="1.0" encoding="utf-8"?>
<!-- Generator: Adobe Illustrator 16.0.0, SVG Export Plug-In . SVG Version: 6.00 Build 0)  -->
<!DOCTYPE svg PUBLIC "-//W3C//DTD SVG 1.1//EN" "http://www.w3.org/Graphics/SVG/1.1/DTD/svg11.dtd">
<svg version="1.1" id="Layer_1" xmlns="http://www.w3.org/2000/svg" xmlns:xlink="http://www.w3.org/1999/xlink" x="0px" y="0px"
	 width="64.001px" height="64px" viewBox="0 0 64.001 64" enable-background="new 0 0 64.001 64" xml:space="preserve">
<path fill="#1D1D1B" d="M62.463,1.543C61.446,0.526,60.06,0.001,58.633,0c-1.43,0.021-2.777,0.591-3.801,1.609l-2.446,2.443
	c-0.01,0.012-0.015,0.025-0.023,0.035L20.453,35.906c-0.104,0.104-0.158,0.232-0.234,0.353c-0.131,0.152-0.245,0.317-0.327,0.505
	l-3.254,7.5c-0.324,0.75-0.169,1.62,0.397,2.211c0.392,0.41,0.927,0.632,1.476,0.632c0.241,0,0.486-0.043,0.719-0.132l7.824-2.942
	c0.217-0.081,0.406-0.209,0.579-0.353c0.126-0.08,0.262-0.14,0.367-0.245L60.035,11.49c0.006-0.006,0.008-0.014,0.015-0.02
	l2.341-2.33C64.509,7.029,64.541,3.62,62.463,1.543 M26.558,39.119l-1.777-1.773L53.932,8.277l1.776,1.773L26.558,39.119
	 M59.508,6.262l-0.916,0.912l-1.784-1.779l0.911-0.91c0.266-0.264,0.609-0.411,0.973-0.416c0.344-0.008,0.652,0.119,0.883,0.348
	C60.065,4.907,60.033,5.736,59.508,6.262 M58.454,22.253c1.127,0,2.04,0.911,2.04,2.034v33.611c0,3.364-2.746,6.102-6.12,6.102H6.12
	C2.745,64,0,61.263,0,57.898V9.787c0-3.365,2.745-6.102,6.12-6.102h33.403c1.127,0,2.04,0.911,2.04,2.034
	c0,1.123-0.913,2.034-2.04,2.034H6.12c-1.126,0-2.04,0.913-2.04,2.034v48.111c0,1.12,0.914,2.032,2.04,2.032h48.254
	c1.125,0,2.04-0.912,2.04-2.032V24.287C56.414,23.164,57.326,22.253,58.454,22.253"/>
</svg>
