<?xml version="1.0" encoding="utf-8"?>
<!-- Generator: Adobe Illustrator 16.0.0, SVG Export Plug-In . SVG Version: 6.00 Build 0)  -->
<!DOCTYPE svg PUBLIC "-//W3C//DTD SVG 1.1//EN" "http://www.w3.org/Graphics/SVG/1.1/DTD/svg11.dtd">
<svg version="1.1" id="Layer_1" xmlns="http://www.w3.org/2000/svg" xmlns:xlink="http://www.w3.org/1999/xlink" x="0px" y="0px"
	 width="280px" height="265.771px" viewBox="0 0 280 265.771" enable-background="new 0 0 280 265.771" xml:space="preserve">
<path d="M96.306,99.427c-27.412,0-49.713-22.301-49.713-49.712C46.593,22.302,68.894,0,96.306,0
	c27.413,0,49.714,22.302,49.714,49.715C146.02,77.126,123.719,99.427,96.306,99.427 M96.306,14.268
	c-19.545,0-35.446,15.901-35.446,35.447c0,19.544,15.901,35.445,35.446,35.445c19.546,0,35.447-15.901,35.447-35.445
	C131.753,30.169,115.852,14.268,96.306,14.268 M187.261,212.268c1.905,0,3.697-0.742,5.046-2.089l26.749-26.75
	c1.348-1.348,2.09-3.139,2.09-5.044s-0.742-3.696-2.09-5.045l-26.749-26.754c-1.349-1.348-3.141-2.09-5.045-2.09
	c-1.905,0-3.698,0.742-5.045,2.089c-2.78,2.782-2.781,7.308-0.001,10.091l21.707,21.708l-21.707,21.705
	c-2.78,2.781-2.781,7.308-0.002,10.089C183.563,211.526,185.355,212.268,187.261,212.268 M192.611,265.771
	c-26.858,0-51.856-12.137-68.584-33.298l-1.874-2.371H7.134c-3.933,0-7.134-3.2-7.134-7.134c0-53.104,43.203-96.306,96.306-96.306
	c6.627,0,13.307,0.697,19.855,2.07l3.908,0.82l2.382-3.204c16.464-22.138,42.692-35.354,70.161-35.354
	c48.187,0,87.389,39.202,87.389,87.388C280,226.568,240.798,265.771,192.611,265.771 M192.611,105.261
	c-40.318,0-73.121,32.802-73.121,73.121s32.802,73.121,73.121,73.121c40.319,0,73.121-32.802,73.121-73.121
	S232.931,105.261,192.611,105.261 M96.306,140.93c-39.795,0-73.758,28.415-80.759,67.563l-1.313,7.341h98.939l-2.953-8.328
	c-3.316-9.351-4.997-19.149-4.997-29.124c0-9.835,1.635-19.503,4.859-28.736l2.605-7.457l-7.857-0.81
	C101.938,141.083,99.071,140.93,96.306,140.93"/>
</svg>
