<?xml version="1.0" encoding="utf-8"?>
<!-- Generator: Adobe Illustrator 16.0.0, SVG Export Plug-In . SVG Version: 6.00 Build 0)  -->
<!DOCTYPE svg PUBLIC "-//W3C//DTD SVG 1.1//EN" "http://www.w3.org/Graphics/SVG/1.1/DTD/svg11.dtd">
<svg version="1.1" id="Layer_1" xmlns="http://www.w3.org/2000/svg" xmlns:xlink="http://www.w3.org/1999/xlink" x="0px" y="0px"
	 width="296.303px" height="430.113px" viewBox="0 0 296.303 430.113" enable-background="new 0 0 296.303 430.113"
	 xml:space="preserve">
<path d="M289.303,107.051c-1.53-5.738-4.64-11.852-6.939-17.205C254.841,23.704,194.706,0,146.15,0C81.149,0,9.558,43.586,0,133.427
	v18.355c0,0.766,0.264,7.647,0.639,11.089c5.358,42.816,39.143,88.32,64.375,131.136c27.146,45.873,55.314,90.999,83.221,136.106
	c17.208-29.436,34.354-59.259,51.17-87.933c4.583-8.415,9.902-16.825,14.491-24.857c3.058-5.348,8.899-10.696,11.568-15.672
	c27.146-49.699,70.838-99.782,70.838-149.104v-20.262C296.304,126.938,289.676,108.204,289.303,107.051 M147.34,199.193
	c-19.107,0-40.021-9.554-50.344-35.939c-1.538-4.2-1.414-12.617-1.414-13.388v-11.852c0-33.636,28.56-48.932,53.406-48.932
	c30.588,0,54.245,24.472,54.245,55.06C203.233,174.729,177.928,199.193,147.34,199.193"/>
</svg>
