<?xml version="1.0" encoding="utf-8"?>
<!-- Generator: Adobe Illustrator 16.0.0, SVG Export Plug-In . SVG Version: 6.00 Build 0)  -->
<!DOCTYPE svg PUBLIC "-//W3C//DTD SVG 1.1//EN" "http://www.w3.org/Graphics/SVG/1.1/DTD/svg11.dtd">
<svg version="1.1" id="Layer_1" xmlns="http://www.w3.org/2000/svg" xmlns:xlink="http://www.w3.org/1999/xlink" x="0px" y="0px"
	 width="32px" height="32px" viewBox="0 0 32 32" enable-background="new 0 0 32 32" xml:space="preserve">
<path fill="#010002" d="M29,0H7C5.343,0,4,1.342,4,3v2H3C1.343,5,0,6.342,0,8v20c0,2.209,1.791,4,4,4h24c2.209,0,4-1.791,4-4V3
	C32,1.342,30.656,0,29,0 M30,28c0,1.102-0.898,2-2,2H4c-1.103,0-2-0.898-2-2V8c0-0.552,0.448-1,1-1h1v20c0,0.553,0.447,1,1,1
	s1-0.447,1-1V3c0-0.552,0.448-1,1-1h22c0.551,0,1,0.448,1,1V28z M19.498,13.005c-0.275,0-0.5-0.224-0.5-0.5s0.225-0.5,0.5-0.5h8
	c0.277,0,0.5,0.224,0.5,0.5s-0.223,0.5-0.5,0.5H19.498 M19.498,10.005c-0.275,0-0.5-0.224-0.5-0.5s0.225-0.5,0.5-0.5h8
	c0.277,0,0.5,0.224,0.5,0.5s-0.223,0.5-0.5,0.5H19.498 M19.498,7.005c-0.275,0-0.5-0.224-0.5-0.5s0.225-0.5,0.5-0.5h8
	c0.277,0,0.5,0.224,0.5,0.5s-0.223,0.5-0.5,0.5H19.498 M16.5,27.004c0.276,0,0.5,0.225,0.5,0.5c0,0.277-0.225,0.5-0.5,0.5h-8
	c-0.276,0-0.5-0.223-0.5-0.5c0-0.275,0.224-0.5,0.5-0.5H16.5 M16.5,24.004c0.276,0,0.5,0.225,0.5,0.5c0,0.277-0.225,0.5-0.5,0.5h-8
	c-0.276,0-0.5-0.223-0.5-0.5c0-0.275,0.224-0.5,0.5-0.5H16.5 M16.5,21.004c0.276,0,0.5,0.225,0.5,0.5c0,0.277-0.225,0.5-0.5,0.5h-8
	c-0.276,0-0.5-0.223-0.5-0.5c0-0.275,0.224-0.5,0.5-0.5H16.5 M27.5,27.004c0.275,0,0.5,0.225,0.5,0.5c0,0.277-0.225,0.5-0.5,0.5h-8
	c-0.277,0-0.5-0.223-0.5-0.5c0-0.275,0.223-0.5,0.5-0.5H27.5 M27.5,24.004c0.275,0,0.5,0.225,0.5,0.5c0,0.277-0.225,0.5-0.5,0.5h-8
	c-0.277,0-0.5-0.223-0.5-0.5c0-0.275,0.223-0.5,0.5-0.5H27.5 M27.5,21.004c0.275,0,0.5,0.225,0.5,0.5c0,0.277-0.225,0.5-0.5,0.5h-8
	c-0.277,0-0.5-0.223-0.5-0.5c0-0.275,0.223-0.5,0.5-0.5H27.5 M27.5,15.004c0.275,0,0.5,0.224,0.5,0.5s-0.225,0.5-0.5,0.5h-19
	c-0.276,0-0.5-0.224-0.5-0.5s0.224-0.5,0.5-0.5H27.5 M27.5,18.004c0.275,0,0.5,0.225,0.5,0.5c0,0.277-0.225,0.5-0.5,0.5h-19
	c-0.276,0-0.5-0.223-0.5-0.5c0-0.275,0.224-0.5,0.5-0.5H27.5 M9,13h7c0.553,0,1-0.447,1-1V5.004c0-0.553-0.447-1-1-1H9
	c-0.553,0-1,0.447-1,1V12C8,12.552,8.447,13,9,13 M10,6h5v5h-5V6z"/>
</svg>
