<?xml version="1.0" encoding="utf-8"?>
<!-- Generator: Adobe Illustrator 16.0.0, SVG Export Plug-In . SVG Version: 6.00 Build 0)  -->
<!DOCTYPE svg PUBLIC "-//W3C//DTD SVG 1.1//EN" "http://www.w3.org/Graphics/SVG/1.1/DTD/svg11.dtd">
<svg version="1.1" id="Layer_1" xmlns="http://www.w3.org/2000/svg" xmlns:xlink="http://www.w3.org/1999/xlink" x="0px" y="0px"
	 width="612px" height="774.267px" viewBox="0 0 612 774.267" enable-background="new 0 0 612 774.267" xml:space="preserve">
<path d="M559.217,91.169H455.838V23.991C455.838,10.469,444.931,0,431.41,0c-1.313,0-2.188,0.438-2.614,0.875
	C428.358,0.438,427.483,0,427.046,0H184.079h-1.74h-1.75c-13.521,0-23.99,10.469-23.99,23.991V91.17H52.783
	C23.116,91.17,0,114.286,0,143.953v38.387v47.981h45.803v491.6c0,29.668,22.679,52.346,52.346,52.346h415.703
	c29.667,0,52.782-22.678,52.782-52.346v-491.6H612V182.34v-38.387C612,114.286,588.875,91.169,559.217,91.169 M204.58,47.981h202.84
	v43.188H204.58V47.981z M518.216,721.922c0,3.061-1.312,4.362-4.364,4.362H98.149c-3.052,0-4.364-1.303-4.364-4.362V230.32h424.431
	V721.922z M563.582,182.339H48.418v-38.387c0-3.053,1.312-4.802,4.364-4.802h506.435c3.053,0,4.365,1.749,4.365,4.802V182.339z
	 M393.898,286.593h48.418v396.941h-48.418V286.593z M282.228,286.593h48.418v396.941h-48.418V286.593z M170.557,286.593h48.418
	v396.941h-48.418V286.593z"/>
</svg>
