<?xml version="1.0" encoding="utf-8"?>
<!-- Generator: Adobe Illustrator 16.0.0, SVG Export Plug-In . SVG Version: 6.00 Build 0)  -->
<!DOCTYPE svg PUBLIC "-//W3C//DTD SVG 1.1//EN" "http://www.w3.org/Graphics/SVG/1.1/DTD/svg11.dtd">
<svg version="1.1" id="Layer_1" xmlns="http://www.w3.org/2000/svg" xmlns:xlink="http://www.w3.org/1999/xlink" x="0px" y="0px"
	 width="512px" height="443.935px" viewBox="0 0 512 443.935" enable-background="new 0 0 512 443.935" xml:space="preserve">
<path d="M189.744,163.189c-20.92-20.474-48.768-31.741-78.438-31.741h-0.209C49.729,131.559-0.109,181.574,0,242.942
	c0.045,25.228,16.407,63.132,50.02,115.878c23.791,37.334,47.191,67.699,48.175,68.974c3.21,4.155,8.164,6.587,13.413,6.587h0.071
	c5.274-0.023,10.238-2.498,13.427-6.699c0.98-1.29,24.261-32.029,47.912-69.743c33.401-53.264,49.617-91.408,49.571-116.613
	C222.536,211.616,210.871,183.867,189.744,163.189 M111.489,388.995c-34.353-47.248-77.54-116.433-77.593-146.111
	c-0.076-42.678,34.584-77.462,77.262-77.538h0.147c20.752,0,40.186,7.836,54.732,22.071c14.574,14.263,22.621,33.431,22.657,53.973
	C188.746,271.092,145.709,341.135,111.489,388.995 M488.206,22.966C473.07,8.154,452.934,0,431.487,0h-0.15h-0.001
	c-44.398,0.079-80.456,36.266-80.378,80.665c0.032,18.08,11.34,44.589,34.57,81.043c16.164,25.365,32.079,46.018,32.749,46.885
	c3.21,4.156,8.163,6.587,13.411,6.587h0.07c5.274-0.023,10.239-2.498,13.428-6.699c0.667-0.877,16.499-21.781,32.564-47.401
	c23.078-36.799,34.281-63.465,34.249-81.523C511.963,58.042,503.514,37.943,488.206,22.966 M431.575,169.541
	c-22.509-31.78-46.691-72.193-46.722-88.936c-0.044-25.71,20.835-46.663,46.544-46.709h0.089c26.103,0,46.572,20.066,46.618,45.721
	C478.134,96.409,454.012,137.345,431.575,169.541 M298.211,409.881c9.366-0.022,16.972,7.559,16.982,16.913
	c0.022,9.354-7.56,16.959-16.914,16.981h-0.034c-9.344,0-16.924-7.569-16.948-16.925
	C281.287,417.496,288.857,409.892,298.211,409.881 M308.957,271.756c9.039,2.44,14.382,11.751,11.942,20.777
	c-2.045,7.56-8.893,12.53-16.35,12.53c-1.469,0-2.96-0.191-4.439-0.599c-9.038-2.44-14.384-11.75-11.933-20.778
	C290.619,274.648,299.93,269.304,308.957,271.756 M479.96,333.864c2.632,8.983-2.509,18.395-11.492,21.038
	c-1.593,0.463-3.196,0.689-4.778,0.689c-7.331,0-14.089-4.803-16.247-12.191c-2.645-8.982,2.497-18.394,11.491-21.026
	C467.916,319.741,477.327,324.882,479.96,333.864 M207.382,410.039c9.367-0.011,16.971,7.56,16.982,16.914
	c0.023,9.367-7.559,16.972-16.914,16.982h-0.034c-9.344,0-16.925-7.57-16.948-16.914
	C190.457,417.654,198.027,410.062,207.382,410.039 M161.509,410.039c9.366-0.011,16.97,7.56,16.982,16.914
	c0.023,9.367-7.559,16.972-16.914,16.982h-0.034c-9.344,0-16.925-7.57-16.948-16.914
	C144.584,417.654,152.154,410.062,161.509,410.039 M467.915,367.41c8.712,3.436,12.984,13.276,9.547,21.976
	c-2.633,6.666-9.016,10.733-15.772,10.733c-2.067,0-4.169-0.372-6.214-1.186c-8.7-3.435-12.971-13.276-9.548-21.976
	C449.363,368.246,459.215,363.975,467.915,367.41 M447.342,408.458c4.779,8.044,2.113,18.438-5.932,23.219
	c-2.712,1.604-5.694,2.373-8.632,2.373c-5.785,0-11.423-2.973-14.599-8.316c-4.768-8.045-2.112-18.451,5.943-23.219
	C432.179,397.747,442.574,400.402,447.342,408.458 M447.828,288.512c7.591,5.468,9.308,16.065,3.841,23.659
	c-3.32,4.599-8.508,7.039-13.771,7.039c-3.423,0-6.894-1.039-9.887-3.197c-7.593-5.48-9.321-16.066-3.842-23.659
	C429.637,284.761,440.234,283.043,447.828,288.512 M292.065,253.385c1.671,9.208-4.43,18.032-13.638,19.706
	c-1.028,0.191-2.044,0.282-3.051,0.282c-8.032,0-15.163-5.729-16.652-13.921c-1.686-9.209,4.429-18.032,13.636-19.704
	C281.569,238.075,290.394,244.177,292.065,253.385 M349.79,272.49c9.355-0.021,16.958,7.548,16.982,16.914
	c0.021,9.355-7.561,16.959-16.915,16.982h-0.033c-9.345,0-16.925-7.57-16.948-16.914C332.854,280.117,340.423,272.513,349.79,272.49
	 M395.199,272.389c9.366-0.012,16.97,7.559,16.98,16.914c0.022,9.367-7.548,16.971-16.902,16.981h-0.033
	c-9.345,0-16.937-7.559-16.948-16.902C378.274,280.016,385.844,272.412,395.199,272.389 M389.052,409.712
	c9.356-0.013,16.958,7.559,16.973,16.926c0.021,9.354-7.561,16.959-16.915,16.97h-0.033c-9.345,0-16.925-7.559-16.948-16.914
	C372.115,417.339,379.686,409.735,389.052,409.712 M335.147,191.785c9.354-0.023,16.958,7.547,16.981,16.914
	c0.022,9.355-7.548,16.958-16.915,16.982h-0.032c-9.346,0-16.926-7.559-16.948-16.914
	C318.21,199.412,325.78,191.808,335.147,191.785 M381.652,191.785c9.354-0.023,16.958,7.547,16.981,16.914
	c0.022,9.355-7.548,16.958-16.915,16.982h-0.032c-9.346,0-16.926-7.559-16.948-16.914
	C364.715,199.412,372.285,191.808,381.652,191.785 M252.803,409.96c9.355-0.022,16.958,7.559,16.971,16.914
	c0.022,9.366-7.547,16.959-16.914,16.981h-0.034c-9.344,0-16.926-7.57-16.937-16.914
	C235.866,417.575,243.448,409.971,252.803,409.96 M305.114,206.507c5.502,7.57,3.819,18.168-3.751,23.672
	c-3.005,2.18-6.497,3.23-9.943,3.23c-5.242,0-10.417-2.418-13.727-6.982c-5.502-7.582-3.82-18.18,3.75-23.682v0.011
	C289.014,197.253,299.612,198.926,305.114,206.507 M343.631,409.802c9.356-0.022,16.959,7.548,16.982,16.913
	c0.012,9.354-7.559,16.959-16.925,16.981h-0.023c-9.354,0-16.937-7.569-16.948-16.925
	C326.694,417.417,334.277,409.813,343.631,409.802 M431.493,67.904c10.957,0,19.84,8.883,19.84,19.84s-8.883,19.84-19.84,19.84
	s-19.84-8.883-19.84-19.84S420.536,67.904,431.493,67.904 M111.291,222.536c13.429,0,24.315,10.886,24.315,24.315
	s-10.886,24.315-24.315,24.315c-13.429,0-24.315-10.887-24.315-24.315S97.862,222.536,111.291,222.536"/>
</svg>
