<?xml version="1.0" encoding="utf-8"?>
<!-- Generator: Adobe Illustrator 16.0.0, SVG Export Plug-In . SVG Version: 6.00 Build 0)  -->
<!DOCTYPE svg PUBLIC "-//W3C//DTD SVG 1.1//EN" "http://www.w3.org/Graphics/SVG/1.1/DTD/svg11.dtd">
<svg version="1.1" id="Layer_1" xmlns="http://www.w3.org/2000/svg" xmlns:xlink="http://www.w3.org/1999/xlink" x="0px" y="0px"
	 width="595.439px" height="547px" viewBox="0 147.34 595.439 547" enable-background="new 0 147.34 595.439 547"
	 xml:space="preserve">
<g>
	<path d="M238.176,569.47c50.774,0,96.932-18.002,132.936-48.467l161.554,161.554c3.692,3.693,8.309,5.539,13.386,5.539
		s9.693-1.846,13.386-5.539c7.386-7.385,7.386-19.386,0-26.771L397.883,494.231c30.003-36.003,48.466-82.623,48.466-132.936
		c0-114.934-93.239-208.173-208.173-208.173c-114.472,0-208.173,93.701-208.173,208.173
		C30.003,476.229,123.704,569.47,238.176,569.47z M238.176,190.973c94.162,0,170.323,76.622,170.323,170.323
		c0,94.163-76.161,170.324-170.323,170.324S67.853,454.997,67.853,361.296S144.475,190.973,238.176,190.973z"/>
</g>
</svg>
