<?xml version="1.0" encoding="utf-8"?>
<!-- Generator: Adobe Illustrator 16.0.0, SVG Export Plug-In . SVG Version: 6.00 Build 0)  -->
<!DOCTYPE svg PUBLIC "-//W3C//DTD SVG 1.1//EN" "http://www.w3.org/Graphics/SVG/1.1/DTD/svg11.dtd">
<svg version="1.1" id="Layer_1" xmlns="http://www.w3.org/2000/svg" xmlns:xlink="http://www.w3.org/1999/xlink" x="0px" y="0px"
	 width="200px" height="162.333px" viewBox="0 0 200 162.333" enable-background="new 0 0 200 162.333" xml:space="preserve">
<path d="M197.667,20.67c-7.199,3.192-14.942,5.352-23.063,6.315c8.293-4.968,14.655-12.829,17.658-22.209
	c-7.756,4.603-16.354,7.941-25.498,9.741c-7.322-7.801-17.757-12.675-29.314-12.675c-22.169,0-40.148,17.98-40.148,40.153
	c0,3.146,0.353,6.209,1.044,9.149C64.976,49.469,35.388,33.486,15.583,9.188c-3.456,5.928-5.438,12.83-5.438,20.186
	c0,13.929,7.094,26.223,17.861,33.42c-6.577-0.206-12.772-2.011-18.184-5.028c-0.003,0.171-0.003,0.342-0.003,0.511
	c0,19.451,13.846,35.68,32.209,39.367c-3.365,0.921-6.919,1.409-10.575,1.409c-2.593,0-5.105-0.247-7.554-0.717
	c5.106,15.948,19.932,27.558,37.506,27.884c-13.745,10.771-31.054,17.189-49.872,17.189c-3.232,0-6.437-0.19-9.572-0.563
	c17.76,11.396,38.87,18.042,61.542,18.042c73.854,0,114.241-61.184,114.241-114.245c0-1.741-0.039-3.475-0.117-5.192
	C185.479,35.791,192.287,28.722,197.667,20.67"/>
</svg>
