<?xml version="1.0" encoding="utf-8"?>
<!-- Generator: Adobe Illustrator 16.0.0, SVG Export Plug-In . SVG Version: 6.00 Build 0)  -->
<!DOCTYPE svg PUBLIC "-//W3C//DTD SVG 1.1//EN" "http://www.w3.org/Graphics/SVG/1.1/DTD/svg11.dtd">
<svg version="1.1" id="Layer_1" xmlns="http://www.w3.org/2000/svg" xmlns:xlink="http://www.w3.org/1999/xlink" x="0px" y="0px"
	 width="48px" height="38.036px" viewBox="0 0 48 38.036" enable-background="new 0 0 48 38.036" xml:space="preserve">
<path d="M44,0H4C1.8,0,0,1.8,0,4v30.036c0,2.2,1.8,4,4,4h40c2.2,0,4-1.8,4-4V4C48,1.8,46.2,0,44,0 M20.204,7.807l9.593,6.55
	l-9.593,6.55V7.807z M40.001,30.23H18.875c-0.57,1.238-1.816,2.104-3.27,2.104s-2.699-0.866-3.27-2.104H8
	c-0.829,0-1.5-0.673-1.5-1.5c0-0.828,0.671-1.5,1.5-1.5h4.336c0.57-1.24,1.815-2.106,3.27-2.106s2.7,0.866,3.27,2.106h21.126
	c0.828,0,1.5,0.672,1.5,1.5S40.829,30.23,40.001,30.23 M15.605,27.333c0.772,0,1.397,0.625,1.397,1.397
	c0,0.771-0.625,1.396-1.397,1.396s-1.397-0.625-1.397-1.396C14.208,27.958,14.833,27.333,15.605,27.333"/>
</svg>
