<?xml version="1.0" encoding="utf-8"?>
<!-- Generator: Adobe Illustrator 16.0.0, SVG Export Plug-In . SVG Version: 6.00 Build 0)  -->
<!DOCTYPE svg PUBLIC "-//W3C//DTD SVG 1.1//EN" "http://www.w3.org/Graphics/SVG/1.1/DTD/svg11.dtd">
<svg version="1.1" id="Layer_1" xmlns="http://www.w3.org/2000/svg" xmlns:xlink="http://www.w3.org/1999/xlink" x="0px" y="0px"
	 width="336.961px" height="375.27px" viewBox="0 0 336.961 375.27" enable-background="new 0 0 336.961 375.27"
	 xml:space="preserve">
<path d="M168.479,375.27c-15.924,0-30.942-6.511-42.291-18.334c-7.878-8.209-13.29-18.258-15.745-29.188H13.409
	c-6.276,0-11.791-4.454-13.112-10.59c-1.322-6.135,1.871-12.463,7.592-15.048c37.467-16.919,38.989-92.26,39-93.019v-50.991
	c0-48.366,28.474-91.851,72.709-111.329C120.738,20.805,142.264,0,168.481,0c26.219,0,47.744,20.805,48.884,46.773
	c44.234,19.477,72.71,62.963,72.71,111.329v51.033c0.011,0.715,1.592,76.083,38.999,92.977c5.72,2.584,8.913,8.912,7.59,15.048
	c-1.324,6.136-6.838,10.589-13.114,10.589h-97.035c-2.453,10.932-7.864,20.979-15.745,29.188
	C199.425,368.759,184.406,375.27,168.479,375.27 M138.51,327.75c5.219,12.363,17.041,20.697,29.972,20.697
	c12.932,0,24.753-8.334,29.971-20.697H138.51z M288.455,300.923c-5.705-8.293-10.557-18.188-14.464-29.519H62.97
	c-3.907,11.329-8.757,21.225-14.463,29.519H288.455z M267.011,244.578c-3.516-18.787-3.748-33.554-3.762-35.268v-51.208
	c0-52.255-42.512-94.766-94.768-94.766c-52.254,0-94.767,42.511-94.767,94.766v51.097c-0.014,1.737-0.234,16.513-3.765,35.379
	H267.011z M168.481,36.51c6.438,0,12.879,0.51,19.218,1.521c-3.872-6.783-11.191-11.204-19.218-11.204
	c-8.024,0-15.344,4.421-19.217,11.203C155.601,37.02,162.042,36.51,168.481,36.51"/>
</svg>
