<?xml version="1.0" encoding="utf-8"?>
<!-- Generator: Adobe Illustrator 16.0.0, SVG Export Plug-In . SVG Version: 6.00 Build 0)  -->
<!DOCTYPE svg PUBLIC "-//W3C//DTD SVG 1.1//EN" "http://www.w3.org/Graphics/SVG/1.1/DTD/svg11.dtd">
<svg version="1.1" id="Layer_1" xmlns="http://www.w3.org/2000/svg" xmlns:xlink="http://www.w3.org/1999/xlink" x="0px" y="0px"
	 width="588px" height="452px" viewBox="0 0 588 452" enable-background="new 0 0 588 452" xml:space="preserve">
<path d="M294,452c-47.696,0-92.367-11.712-125.786-32.979C136.478,398.826,119,372.538,119,345V231.095l-75-37.499v129.012
	l5.962,3.471C56.874,330.104,61,337.177,61,345c0,12.131-9.869,22-22,22s-22-9.869-22-22c0-7.823,4.122-14.888,11.026-18.897
	L34,322.634V188.612l-21.832-10.915C4.663,173.944,0,166.396,0,158s4.663-15.944,12.168-19.697l272-136
	C287.225,0.775,290.533,0,294,0c3.468,0,6.775,0.775,9.831,2.303l272,136C583.337,142.056,588,149.604,588,158
	s-4.663,15.944-12.169,19.697L469,231.113V345c0,27.538-17.478,53.826-49.214,74.021C386.367,440.288,341.696,452,294,452 M146,345
	c0,20.316,16.625,40.864,45.613,56.375C220.087,416.609,256.449,425,294,425s73.913-8.391,102.387-23.625
	C425.375,385.864,442,365.316,442,345V244.593l-138.169,69.104C300.774,315.225,297.467,316,294,316s-6.775-0.775-9.832-2.304
	L146,244.593V345z M33.145,158L294,288.427L554.854,158L294,27.572L33.145,158z"/>
</svg>
