<?xml version="1.0" encoding="utf-8"?>
<!-- Generator: Adobe Illustrator 16.0.0, SVG Export Plug-In . SVG Version: 6.00 Build 0)  -->
<!DOCTYPE svg PUBLIC "-//W3C//DTD SVG 1.1//EN" "http://www.w3.org/Graphics/SVG/1.1/DTD/svg11.dtd">
<svg version="1.1" id="Layer_1" xmlns="http://www.w3.org/2000/svg" xmlns:xlink="http://www.w3.org/1999/xlink" x="0px" y="0px"
	 width="51.976px" height="51.977px" viewBox="0 0 51.976 51.977" enable-background="new 0 0 51.976 51.977" xml:space="preserve">
<path d="M44.373,7.603c-10.137-10.137-26.632-10.138-36.77,0c-10.138,10.138-10.137,26.632,0,36.77
	c10.137,10.138,26.632,10.138,36.77,0C54.51,34.235,54.51,17.74,44.373,7.603 M36.241,36.241c-0.781,0.781-2.047,0.781-2.828,0
	l-7.425-7.425l-7.778,7.777c-0.781,0.781-2.047,0.781-2.828,0c-0.781-0.78-0.781-2.047,0-2.828l7.778-7.777l-7.425-7.425
	c-0.781-0.781-0.781-2.048,0-2.828c0.781-0.781,2.047-0.781,2.828,0l7.425,7.425l7.071-7.071c0.78-0.781,2.047-0.781,2.827,0
	c0.781,0.781,0.781,2.047,0,2.828l-7.07,7.071l7.425,7.425C37.022,34.194,37.022,35.46,36.241,36.241"/>
</svg>
