<?xml version="1.0" encoding="utf-8"?>
<!-- Generator: Adobe Illustrator 16.0.0, SVG Export Plug-In . SVG Version: 6.00 Build 0)  -->
<!DOCTYPE svg PUBLIC "-//W3C//DTD SVG 1.1//EN" "http://www.w3.org/Graphics/SVG/1.1/DTD/svg11.dtd">
<svg version="1.1" id="Layer_1" xmlns="http://www.w3.org/2000/svg" xmlns:xlink="http://www.w3.org/1999/xlink" x="0px" y="0px"
	 width="58px" height="58px" viewBox="0 0 58 58" enable-background="new 0 0 58 58" xml:space="preserve">
<path d="M54.319,37.839C56.509,39.024,58,41.341,58,44c0,3.859-3.14,7-7,7s-7-3.141-7-7s3.14-7,7-7c0.489,0,0.966,0.051,1.427,0.147
	C52.8,35.451,53,33.726,53,32c0-8.396-4.276-16.04-11.438-20.45c-0.47-0.29-0.616-0.905-0.326-1.376
	c0.289-0.47,0.902-0.617,1.376-0.327C50.369,14.623,55,22.905,55,32C55,33.96,54.762,35.918,54.319,37.839 M38.171,54.182
	C35.256,55.388,32.171,56,29,56c-6.385,0-12.527-2.575-17.017-7.092C13.229,47.643,14,45.911,14,44c0-3.859-3.14-7-7-7s-7,3.141-7,7
	s3.14,7,7,7c1.226,0,2.378-0.319,3.381-0.875C15.26,55.136,21.994,58,29,58c3.435,0,6.778-0.663,9.936-1.971
	c0.511-0.211,0.754-0.796,0.542-1.308C39.267,54.213,38.681,53.971,38.171,54.182 M4,31.213c0.024,0.002,0.048,0.003,0.071,0.003
	c0.521,0,0.959-0.401,0.997-0.93c0.712-10.089,7.586-18.52,17.22-21.314C23.142,11.874,25.825,14,29,14c3.86,0,7-3.141,7-7
	s-3.14-7-7-7c-3.851,0-6.985,3.127-6.999,6.975C11.42,9.922,3.851,19.12,3.073,30.146C3.034,30.696,3.449,31.175,4,31.213"/>
</svg>
