<?xml version="1.0" encoding="utf-8"?>
<!-- Generator: Adobe Illustrator 16.0.0, SVG Export Plug-In . SVG Version: 6.00 Build 0)  -->
<!DOCTYPE svg PUBLIC "-//W3C//DTD SVG 1.1//EN" "http://www.w3.org/Graphics/SVG/1.1/DTD/svg11.dtd">
<svg version="1.1" id="Layer_1" xmlns="http://www.w3.org/2000/svg" xmlns:xlink="http://www.w3.org/1999/xlink" x="0px" y="0px"
	 width="120px" height="120px" viewBox="0 0 120 120" enable-background="new 0 0 120 120" xml:space="preserve">
<g>
	<g>
		<path d="M118.943,99.859L66.297,12.548C64.966,10.341,62.576,8.992,60,8.992c-2.577,0-4.966,1.349-6.297,3.556L1.056,99.859
			c-1.369,2.271-1.41,5.104-0.106,7.412c1.304,2.309,3.75,3.736,6.402,3.736h105.295c2.651,0,5.098-1.428,6.401-3.736
			C120.354,104.963,120.313,102.13,118.943,99.859z M60.039,39.194c3.023,0,5.582,1.706,5.582,4.729
			c0,9.226-1.086,22.483-1.086,31.71c0,2.402-2.635,3.41-4.496,3.41c-2.48,0-4.574-1.008-4.574-3.41
			c0-9.227-1.085-22.484-1.085-31.71C54.38,40.899,56.86,39.194,60.039,39.194z M60.117,96.332c-3.411,0-5.97-2.791-5.97-5.969
			c0-3.257,2.559-5.971,5.97-5.971c3.178,0,5.892,2.714,5.892,5.971C66.009,93.541,63.295,96.332,60.117,96.332z"/>
	</g>
</g>
</svg>
