<?xml version="1.0" encoding="utf-8"?>
<!-- Generator: Adobe Illustrator 16.0.0, SVG Export Plug-In . SVG Version: 6.00 Build 0)  -->
<!DOCTYPE svg PUBLIC "-//W3C//DTD SVG 1.1//EN" "http://www.w3.org/Graphics/SVG/1.1/DTD/svg11.dtd">
<svg version="1.1" id="Layer_1" xmlns="http://www.w3.org/2000/svg" xmlns:xlink="http://www.w3.org/1999/xlink" x="0px" y="0px"
	 width="310.001px" height="222.601px" viewBox="0 0 310.001 222.601" enable-background="new 0 0 310.001 222.601"
	 xml:space="preserve">
<path fill="#231F20" d="M307.444,204.49c1.784-3.976,2.72-8.406,2.532-13.095V31.207c0-7.84-2.843-14.965-7.554-20.425
	c-0.235-0.372-0.486-0.734-0.769-1.073c-0.54-0.648-1.171-1.183-1.855-1.632C294.267,3.05,286.9,0,278.771,0H31.206
	C13.869,0,0,13.87,0,31.207v160.188c0,3.975,0.736,7.763,2.068,11.247c0.021,2.443,0.9,4.898,2.786,6.784
	c0.642,0.643,1.356,1.208,2.11,1.697c5.705,7.019,14.415,11.478,24.242,11.478h248.259c9.673,0,18.636-4.69,24.316-12.019
	c0.469-0.356,0.922-0.737,1.341-1.156C306.331,207.975,307.108,206.27,307.444,204.49z M209.463,105.247l79.71-70.542v145.762
	L209.463,105.247z M20.804,180.466V34.091l80.045,70.839L20.804,180.466z M36.91,20.805h236.848L155.334,125.516L36.91,20.805z
	 M278.771,201.796H31.206c-0.712,0-1.412-0.082-2.093-0.233l87.242-82.91l32.046,28.36c2.08,2.081,4.16,2.774,6.934,2.774
	c2.08,0,4.854-1.387,6.935-2.774l31.693-28.048l87.389,82.466C280.52,201.661,279.655,201.796,278.771,201.796z"/>
</svg>
