<?xml version="1.0" encoding="utf-8"?>
<!-- Generator: Adobe Illustrator 16.0.0, SVG Export Plug-In . SVG Version: 6.00 Build 0)  -->
<!DOCTYPE svg PUBLIC "-//W3C//DTD SVG 1.1//EN" "http://www.w3.org/Graphics/SVG/1.1/DTD/svg11.dtd">
<svg version="1.1" id="Layer_1" xmlns="http://www.w3.org/2000/svg" xmlns:xlink="http://www.w3.org/1999/xlink" x="0px" y="0px"
	 width="47.001px" height="43.451px" viewBox="0 0 47.001 43.451" enable-background="new 0 0 47.001 43.451" xml:space="preserve">
<path d="M46.907,18.345c0.163,0.347,0.11,0.756-0.135,1.052l-4.938,5.925c-0.187,0.224-0.465,0.354-0.758,0.354
	c-0.294,0-0.571-0.13-0.759-0.354l-4.938-5.925c-0.246-0.295-0.299-0.704-0.136-1.051c0.164-0.347,0.511-0.569,0.896-0.569h2.904
	C37.241,9.873,30.168,3.952,21.726,3.952c-9.801,0-17.776,7.974-17.776,17.776c0,9.8,7.975,17.774,17.776,17.774
	c6.325,0,12.225-3.406,15.397-8.887c0.545-0.945,1.753-1.267,2.697-0.72c0.945,0.547,1.268,1.754,0.722,2.698
	c-3.875,6.696-11.085,10.857-18.816,10.857C9.746,43.451,0,33.705,0,21.726S9.747,0,21.726,0c10.629,0,19.497,7.677,21.358,17.776
	h2.927C46.396,17.776,46.744,17.998,46.907,18.345 M21.726,4.938c1.09,0,1.975,0.885,1.977,1.975v11.986
	c0.813,0.57,1.356,1.482,1.449,2.526l6.877,3.971c0.945,0.545,1.269,1.754,0.724,2.696c-0.366,0.635-1.03,0.988-1.712,0.988
	c-0.336,0-0.674-0.085-0.986-0.266l-6.87-3.965c-0.443,0.209-0.936,0.334-1.458,0.334c-1.906,0-3.457-1.552-3.457-3.458
	c0-1.172,0.588-2.204,1.481-2.83V6.913C19.751,5.822,20.635,4.938,21.726,4.938 M21.726,23.207c0.816,0,1.481-0.665,1.481-1.48
	c0-0.816-0.665-1.481-1.481-1.481s-1.481,0.665-1.481,1.481C20.245,22.542,20.909,23.207,21.726,23.207"/>
</svg>
