<?xml version="1.0" encoding="utf-8"?>
<!-- Generator: Adobe Illustrator 16.0.0, SVG Export Plug-In . SVG Version: 6.00 Build 0)  -->
<!DOCTYPE svg PUBLIC "-//W3C//DTD SVG 1.1//EN" "http://www.w3.org/Graphics/SVG/1.1/DTD/svg11.dtd">
<svg version="1.1" id="Layer_1" xmlns="http://www.w3.org/2000/svg" xmlns:xlink="http://www.w3.org/1999/xlink" x="0px" y="0px"
	 width="382.6px" height="477px" viewBox="0 0 382.6 477" enable-background="new 0 0 382.6 477" xml:space="preserve">
<path d="M191.2,0C85.8,0,0,85.8,0,191.2c0,12,1.1,24.1,3.4,35.9c0.1,0.7,0.5,2.8,1.3,6.4c2.9,12.9,7.2,25.6,12.8,37.7
	c20.6,48.5,65.9,123,165.3,202.8c2.5,2,5.5,3,8.5,3s6-1,8.5-3c99.3-79.8,144.7-154.3,165.3-202.8c5.601-12.101,9.9-24.7,12.801-37.7
	c0.8-3.6,1.199-5.7,1.3-6.4c2.2-11.8,3.399-23.9,3.399-35.9C382.4,85.8,296.6,0,191.2,0 M352.4,222.4c0,0.2-0.101,0.4-0.101,0.6
	c-0.1,0.5-0.399,2-0.899,4.3v0.2c-2.5,11.2-6.2,22.1-11.101,32.6c-0.1,0.101-0.1,0.301-0.2,0.4C321.4,304.8,280.4,372.4,191.2,446.1
	C102,372.4,61,304.8,42.3,260.5c-0.1-0.1-0.1-0.3-0.2-0.4C37.3,249.7,33.6,238.7,31,227.5v-0.2c-0.6-2.3-0.8-3.8-0.9-4.3
	c0-0.2-0.1-0.4-0.1-0.7c-2-10.3-3-20.7-3-31.2c0-90.5,73.7-164.2,164.2-164.2s164.2,73.7,164.2,164.2
	C355.4,201.7,354.4,212.2,352.4,222.4 M191.2,71.9c-66.9,0-121.4,54.5-121.4,121.4c0,66.9,54.5,121.4,121.4,121.4
	c66.899,0,121.399-54.5,121.399-121.4C312.6,126.4,258.1,71.9,191.2,71.9 M191.2,287.7c-52.1,0-94.4-42.4-94.4-94.4
	s42.4-94.4,94.4-94.4s94.399,42.4,94.399,94.4S243.3,287.7,191.2,287.7"/>
</svg>
