<?xml version="1.0" encoding="utf-8"?>
<!-- Generator: Adobe Illustrator 16.0.0, SVG Export Plug-In . SVG Version: 6.00 Build 0)  -->
<!DOCTYPE svg PUBLIC "-//W3C//DTD SVG 1.1//EN" "http://www.w3.org/Graphics/SVG/1.1/DTD/svg11.dtd">
<svg version="1.1" id="Layer_1" xmlns="http://www.w3.org/2000/svg" xmlns:xlink="http://www.w3.org/1999/xlink" x="0px" y="0px"
	 width="185.184px" height="185.189px" viewBox="0 0 185.184 185.189" enable-background="new 0 0 185.184 185.189"
	 xml:space="preserve">
<path d="M172.069,79.479c7.241,0,13.114,5.873,13.114,13.116c0,7.242-5.873,13.115-13.113,13.115h-66.367v66.364
	c0,7.242-5.873,13.114-13.115,13.114c-7.243,0-13.115-5.872-13.115-13.114v-66.361H13.115C5.873,105.713,0,99.841,0,92.598
	c0-7.242,5.873-13.115,13.115-13.115h66.361V13.115C79.476,5.873,85.348,0,92.591,0c7.243,0,13.115,5.872,13.115,13.115v66.364
	H172.069"/>
</svg>
