<?xml version="1.0" encoding="utf-8"?>
<!-- Generator: Adobe Illustrator 16.0.0, SVG Export Plug-In . SVG Version: 6.00 Build 0)  -->
<!DOCTYPE svg PUBLIC "-//W3C//DTD SVG 1.1//EN" "http://www.w3.org/Graphics/SVG/1.1/DTD/svg11.dtd">
<svg version="1.1" id="Layer_1" xmlns="http://www.w3.org/2000/svg" xmlns:xlink="http://www.w3.org/1999/xlink" x="0px" y="0px"
	 width="511.627px" height="456.81px" viewBox="0 0 511.627 456.81" enable-background="new 0 0 511.627 456.81"
	 xml:space="preserve">
<path d="M506.206,151.604c3.614,3.624,5.42,7.908,5.421,12.856c0,4.949-1.807,9.23-5.424,12.847L360.025,323.49
	c-3.622,3.613-7.906,5.424-12.854,5.424c-4.946,0-9.227-1.811-12.847-5.424c-3.614-3.614-5.421-7.898-5.421-12.847v-73.091H264.95
	c-18.654,0-35.356,0.567-50.109,1.711c-14.753,1.143-29.408,3.189-43.968,6.14c-14.561,2.949-27.218,6.994-37.974,12.135
	c-10.754,5.141-20.793,11.753-30.118,19.843c-9.329,8.09-16.94,17.694-22.841,28.835c-5.902,11.136-10.517,24.313-13.85,39.543
	c-3.328,15.226-4.996,32.452-4.996,51.675c0,10.461,0.476,22.176,1.429,35.114c0,1.144,0.239,3.375,0.715,6.708
	c0.477,3.333,0.715,5.851,0.715,7.568c0,2.849-0.809,5.23-2.424,7.133c-1.619,1.902-3.856,2.854-6.711,2.854
	c-3.046,0-5.712-1.622-7.994-4.859c-1.331-1.711-2.569-3.805-3.715-6.275c-1.142-2.478-2.425-5.332-3.854-8.565
	c-1.43-3.234-2.426-5.514-2.996-6.849C12.087,376.013,0,333.093,0,301.5c0-37.877,5.042-69.572,15.127-95.074
	c30.839-76.706,114.107-115.06,249.823-115.06h63.953V18.276c0-4.948,1.811-9.231,5.428-12.85C337.945,1.809,342.229,0,347.178,0
	s9.23,1.809,12.848,5.426L506.206,151.604"/>
</svg>
