<?xml version="1.0" encoding="utf-8"?>
<!-- Generator: Adobe Illustrator 16.0.0, SVG Export Plug-In . SVG Version: 6.00 Build 0)  -->
<!DOCTYPE svg PUBLIC "-//W3C//DTD SVG 1.1//EN" "http://www.w3.org/Graphics/SVG/1.1/DTD/svg11.dtd">
<svg version="1.1" id="Layer_1" xmlns="http://www.w3.org/2000/svg" xmlns:xlink="http://www.w3.org/1999/xlink" x="0px" y="0px"
	 width="611.989px" height="447.097px" viewBox="0 0 611.989 447.097" enable-background="new 0 0 611.989 447.097"
	 xml:space="preserve">
<path d="M305.994,335.323c-30.85,0-55.887,25.037-55.887,55.888c0,30.85,25.038,55.887,55.887,55.887
	c30.85,0,55.888-25.037,55.888-55.887C361.882,360.36,336.844,335.323,305.994,335.323 M605.437,139.923
	C530.697,50.988,421.55,0,305.994,0C190.439,0,81.31,50.988,6.552,139.923c-9.93,11.811-8.402,29.434,3.428,39.363
	c5.234,4.396,11.587,6.558,17.939,6.558c7.973,0,15.891-3.391,21.423-9.967C113.426,99.629,206.98,55.888,305.993,55.888
	c99.014,0,192.568,43.741,256.651,119.971c5.533,6.576,13.45,9.967,21.424,9.967c6.354,0,12.725-2.143,17.958-6.558
	C613.838,169.356,615.366,151.715,605.437,139.923 M305.994,111.774c-82.544,0-160.489,36.419-213.878,99.926
	c-9.929,11.811-8.402,29.434,3.428,39.363c5.234,4.396,11.605,6.559,17.958,6.559c7.973,0,15.891-3.392,21.405-9.968
	c42.716-50.837,105.086-79.993,171.088-79.993c66.004,0,128.372,29.155,171.107,79.993c5.533,6.596,13.45,9.968,21.404,9.968
	c6.353,0,12.724-2.144,17.959-6.559c11.829-9.929,13.355-27.57,3.428-39.363C466.483,148.194,388.54,111.774,305.994,111.774
	 M305.994,223.548c-49.553,0-96.331,21.852-128.334,59.948c-9.93,11.811-8.402,29.434,3.428,39.362
	c5.234,4.396,11.605,6.558,17.958,6.558c7.973,0,15.891-3.391,21.405-9.967c21.368-25.429,52.552-40.016,85.543-40.016
	c32.992,0,64.178,14.587,85.545,40.016c5.532,6.596,13.449,9.967,21.404,9.967c6.354,0,12.725-2.143,17.958-6.558
	c11.83-9.93,13.357-27.553,3.429-39.362C402.324,245.4,355.547,223.548,305.994,223.548"/>
</svg>
