<?xml version="1.0" encoding="utf-8"?>
<!-- Generator: Adobe Illustrator 16.0.0, SVG Export Plug-In . SVG Version: 6.00 Build 0)  -->
<!DOCTYPE svg PUBLIC "-//W3C//DTD SVG 1.1//EN" "http://www.w3.org/Graphics/SVG/1.1/DTD/svg11.dtd">
<svg version="1.1" id="Layer_1" xmlns="http://www.w3.org/2000/svg" xmlns:xlink="http://www.w3.org/1999/xlink" x="0px" y="0px"
	 width="410.755px" height="482.9px" viewBox="0 0 410.755 482.9" enable-background="new 0 0 410.755 482.9" xml:space="preserve">
<path d="M203.627,260.2h1.601h0.6h1c29.3-0.5,53-10.8,70.5-30.5c38.5-43.4,32.1-117.8,31.4-124.9c-2.5-53.3-27.7-78.8-48.5-90.7
	c-15.5-8.9-33.601-13.7-53.801-14.1h-0.699h-0.4h-0.6c-11.1,0-32.9,1.8-53.8,13.7c-21,11.9-46.6,37.4-49.1,91.1
	c-0.7,7.1-7.1,81.5,31.4,124.9C150.627,249.4,174.327,259.7,203.627,260.2 M128.527,107.3c0-0.3,0.1-0.6,0.1-0.8
	c3.3-71.7,54.2-79.4,76-79.4h0.4h0.8c27,0.6,72.9,11.6,76,79.4c0,0.3,0,0.6,0.1,0.8c0.101,0.7,7.101,68.7-24.699,104.5
	c-12.601,14.2-29.4,21.2-51.5,21.4h-0.5h-0.5c-22-0.2-38.9-7.2-51.4-21.4C121.627,176.2,128.427,107.9,128.527,107.3 M410.728,383.6
	c0.1,5.2,0.199,31.899-4.801,45.2c-1,2.6-2.899,4.8-5.199,6.3c-3,1.899-74.9,47.8-195.2,47.8c-120.3,0-192.2-45.8-195.2-47.8
	c-2.4-1.5-4.2-3.7-5.2-6.3c-5.3-13.4-5.2-40.101-5.1-45.301v-0.3c0.1-0.8,0.1-1.6,0.1-2.5c0.6-19.7,1.9-66,45.3-80.899
	c0.3-0.101,0.6-0.2,1-0.301c45.3-11.5,82.6-37.5,83-37.8c6.1-4.3,14.5-2.8,18.8,3.3c4.3,6.101,2.8,14.5-3.3,18.801
	c-1.7,1.1-41.5,28.899-91.3,41.699c-23.3,8.301-25.9,33.2-26.6,56c0,0.9-0.1,1.7-0.1,2.5c-0.2,9,0.5,22.9,2.1,30.9
	c16.3,9.2,80.2,41.1,176.399,41.1c96.601,0,160.101-31.8,176.301-41c1.6-8,2.199-21.899,2.1-30.899c-0.1-0.8-0.1-1.601-0.1-2.5
	c-0.7-22.8-3.301-47.7-26.601-56c-49.8-12.8-89.6-40.5-91.3-41.7c-6.1-4.3-7.6-12.7-3.3-18.8c4.3-6.101,12.7-7.601,18.8-3.3
	c0.4,0.3,37.9,26.3,83,37.8c0.3,0.1,0.7,0.2,1,0.3c43.4,14.8,44.7,61.1,45.3,80.9c0,0.899,0.101,1.699,0.101,2.5V383.6"/>
</svg>
