<?xml version="1.0" encoding="utf-8"?>
<!-- Generator: Adobe Illustrator 16.0.0, SVG Export Plug-In . SVG Version: 6.00 Build 0)  -->
<!DOCTYPE svg PUBLIC "-//W3C//DTD SVG 1.1//EN" "http://www.w3.org/Graphics/SVG/1.1/DTD/svg11.dtd">
<svg version="1.1" id="Layer_1" xmlns="http://www.w3.org/2000/svg" xmlns:xlink="http://www.w3.org/1999/xlink" x="0px" y="0px"
	 width="490px" height="439.211px" viewBox="0 0 490 439.211" enable-background="new 0 0 490 439.211" xml:space="preserve">
<path d="M445.06,128.958C410.115,51.974,333.233,1.433,248.63,0.031C160.869-1.423,81.118,49.124,44.916,128.961
	C19.6,132.335,0,154.057,0,180.281v78.647c0,26.228,19.604,47.95,44.924,51.321C80.517,388.771,158.449,439.211,245,439.211
	c86.558,0,164.489-50.435,200.077-128.963c25.319-3.371,44.923-25.094,44.923-51.32v-78.647
	C490,154.049,470.387,132.322,445.06,128.958 M248.32,18.719c74.363,1.232,142.218,43.957,175.786,109.772H65.871
	C100.599,60.199,171.068,17.439,248.32,18.719 M245,420.521c-76.138,0-144.986-42.659-179.12-109.803h358.24
	C389.989,377.861,321.144,420.521,245,420.521 M471.31,258.928c0,18.252-14.848,33.101-33.1,33.101H51.79
	c-18.252,0-33.1-14.849-33.1-33.101v-78.647c0-18.252,14.848-33.1,33.1-33.1h386.42c18.252,0,33.1,14.848,33.1,33.1V258.928z
	 M151.728,183.758H175.2L147.667,264.7h-23.472l-14.893-44.083L94.252,264.7H70.936l-27.533-80.942h23.326l15.797,48.897
	l15.797-48.897h21.811l15.797,48.897L151.728,183.758z M287.431,183.758h23.473L283.369,264.7h-23.471l-14.894-44.083l-15.05,44.083
	h-23.316l-27.533-80.942h23.326l15.796,48.897l15.798-48.897h21.811l15.797,48.897L287.431,183.758z M423.134,183.758h23.472
	L419.072,264.7h-23.472l-14.893-44.083l-15.05,44.083h-23.316l-27.533-80.942h23.326l15.796,48.897l15.798-48.897h21.811
	l15.798,48.897L423.134,183.758z"/>
</svg>
