<?xml version="1.0" encoding="utf-8"?>
<!-- Generator: Adobe Illustrator 16.0.0, SVG Export Plug-In . SVG Version: 6.00 Build 0)  -->
<!DOCTYPE svg PUBLIC "-//W3C//DTD SVG 1.1//EN" "http://www.w3.org/Graphics/SVG/1.1/DTD/svg11.dtd">
<svg version="1.1" id="Layer_2" xmlns="http://www.w3.org/2000/svg" xmlns:xlink="http://www.w3.org/1999/xlink" x="0px" y="0px"
	 width="400px" height="325.225px" viewBox="0 0 400 325.225" enable-background="new 0 0 400 325.225" xml:space="preserve">
<g>
	<rect x="165.791" y="262.125" fill="none" width="0.003" height="31.045"/>
	<path fill="none" d="M336.69,58.489c-0.549-5.389-5.101-9.595-10.635-9.595C331.59,48.895,336.142,53.1,336.69,58.489z"/>
	<path fill="#282E3E" d="M372.229,262.12c5.901,0,10.688-4.781,10.688-10.686V21.369c0-5.903-4.786-10.688-10.688-10.688H31.285
		c-5.901,0-10.688,4.785-10.688,10.688v230.065c0,5.904,4.787,10.686,10.688,10.686h113.133v31.05H31.285
		c-5.901,0-10.688,4.787-10.688,10.686c0,5.904,4.787,10.691,10.688,10.691h123.818h93.306h123.82
		c5.901,0,10.688-4.787,10.688-10.691c0-5.898-4.786-10.686-10.688-10.686H259.097v-31.05H372.229z M237.72,293.169L237.72,293.169
		h-71.926h-0.003v-31.045h0.003v-0.005h71.926V293.169z M248.408,240.75L248.408,240.75h-93.306H41.973V32.056h319.568V240.75
		H248.408z"/>
	<polygon fill="#282E3E" points="165.794,262.125 237.72,262.125 237.72,293.169 237.72,293.169 237.72,262.12 165.794,262.12 	"/>
	<path fill="#E3604B" d="M326.056,48.895H69.5c-5.904,0-10.688,4.784-10.688,10.688v149.29c0,5.905,4.784,10.687,10.688,10.687
		c5.901,0,10.688-4.781,10.688-10.687V70.27h245.867c5.534,0,10.086-4.206,10.635-9.596c0.034-0.359,0.052-0.723,0.052-1.092
		s-0.018-0.734-0.052-1.093C336.142,53.1,331.59,48.895,326.056,48.895z"/>
	<path fill="#E3604B" d="M326.056,70.27c5.534,0,10.086-4.206,10.635-9.596C336.142,66.064,331.59,70.27,326.056,70.27z"/>
</g>
</svg>
