<?xml version="1.0" encoding="utf-8"?>
<!-- Generator: Adobe Illustrator 16.0.0, SVG Export Plug-In . SVG Version: 6.00 Build 0)  -->
<!DOCTYPE svg PUBLIC "-//W3C//DTD SVG 1.1//EN" "http://www.w3.org/Graphics/SVG/1.1/DTD/svg11.dtd">
<svg version="1.1" id="Layer_1" xmlns="http://www.w3.org/2000/svg" xmlns:xlink="http://www.w3.org/1999/xlink" x="0px" y="0px"
	 width="160px" height="160px" viewBox="0 0 160 160" enable-background="new 0 0 160 160" xml:space="preserve">
<g>
	<defs>
		
			<rect id="SVGID_1_" x="1.646" y="1.133" transform="matrix(-0.946 0.3243 -0.3243 -0.946 182.7665 129.6797)" width="157.865" height="157.867"/>
	</defs>
	<clipPath id="SVGID_2_">
		<use xlink:href="#SVGID_1_"  overflow="visible"/>
	</clipPath>
	<path clip-path="url(#SVGID_2_)" fill="#333333" d="M130.855,19.205c-0.171,0.306-0.349,0.603-0.537,0.897
		c10.678,8.84,19.129,20.636,23.952,34.704c13.95,40.7-7.734,85.003-48.432,98.952s-85-7.734-98.948-48.434
		c-13.951-40.697,7.733-85,48.43-98.951c14.72-5.045,29.909-5.425,43.964-1.934c0.137-0.322,0.281-0.642,0.434-0.956
		C85.425-0.104,69.964,0.263,54.984,5.397C13.746,19.533-8.225,64.421,5.912,105.659c14.134,41.241,59.021,63.212,100.26,49.076
		c41.24-14.136,63.211-59.022,49.075-100.264C150.343,40.161,141.731,28.17,130.855,19.205"/>
</g>
</svg>
