<?xml version="1.0" encoding="utf-8"?>
<!-- Generator: Adobe Illustrator 16.0.0, SVG Export Plug-In . SVG Version: 6.00 Build 0)  -->
<!DOCTYPE svg PUBLIC "-//W3C//DTD SVG 1.1//EN" "http://www.w3.org/Graphics/SVG/1.1/DTD/svg11.dtd">
<svg version="1.1" id="Layer_1" xmlns="http://www.w3.org/2000/svg" xmlns:xlink="http://www.w3.org/1999/xlink" x="0px" y="0px"
	 width="160px" height="160px" viewBox="0 0 160 160" enable-background="new 0 0 160 160" xml:space="preserve">
<g>
	<defs>
		
			<rect id="SVGID_1_" x="1.646" y="1.133" transform="matrix(-0.9948 -0.1023 0.1023 -0.9948 152.548 167.9542)" width="157.866" height="157.867"/>
	</defs>
	<clipPath id="SVGID_2_">
		<use xlink:href="#SVGID_1_"  overflow="visible"/>
	</clipPath>
	<path clip-path="url(#SVGID_2_)" fill="#333333" d="M151.741,45.894c-0.283,0.206-0.569,0.4-0.863,0.59
		c5.986,12.502,8.714,26.755,7.193,41.549c-4.4,42.799-42.663,73.928-85.459,69.527S-1.312,114.897,3.09,72.101
		C7.489,29.304,45.751-1.824,88.547,2.574c15.479,1.592,29.428,7.615,40.723,16.678c0.26-0.235,0.524-0.464,0.795-0.687
		c-11.471-9.251-25.661-15.4-41.413-17.02C45.286-2.911,6.519,28.628,2.062,71.993c-4.461,43.367,27.078,82.135,70.444,86.593
		c43.367,4.458,82.133-27.08,86.592-70.448C160.646,73.09,157.856,58.593,151.741,45.894"/>
</g>
</svg>
