<?xml version="1.0" encoding="utf-8"?>
<!-- Generator: Adobe Illustrator 16.0.0, SVG Export Plug-In . SVG Version: 6.00 Build 0)  -->
<!DOCTYPE svg PUBLIC "-//W3C//DTD SVG 1.1//EN" "http://www.w3.org/Graphics/SVG/1.1/DTD/svg11.dtd">
<svg version="1.1" id="Layer_1" xmlns="http://www.w3.org/2000/svg" xmlns:xlink="http://www.w3.org/1999/xlink" x="0px" y="0px"
	 width="160px" height="160px" viewBox="0 0 160 160" enable-background="new 0 0 160 160" xml:space="preserve">
<g>
	<defs>
		
			<rect id="SVGID_1_" x="1.646" y="1.133" transform="matrix(-0.7228 0.691 -0.691 -0.7228 194.1528 82.2608)" width="157.866" height="157.867"/>
	</defs>
	<clipPath id="SVGID_2_">
		<use xlink:href="#SVGID_1_"  overflow="visible"/>
	</clipPath>
	<path clip-path="url(#SVGID_2_)" fill="#333333" d="M100.703,3.733c-0.026,0.349-0.063,0.693-0.11,1.039
		c13.4,3.549,26.019,10.714,36.296,21.464c29.729,31.101,28.619,80.413-2.479,110.141c-31.099,29.728-80.411,28.618-110.139-2.482
		C-5.458,102.798-4.348,53.485,26.749,23.756C37.997,13.003,51.628,6.29,65.851,3.566c-0.011-0.351-0.013-0.7-0.007-1.05
		C51.363,5.252,37.48,12.067,26.035,23.01c-31.511,30.124-32.636,80.088-2.511,111.599c30.124,31.515,80.087,32.64,111.599,2.516
		c31.513-30.125,32.639-80.088,2.513-111.602C127.182,14.587,114.336,7.312,100.703,3.733"/>
</g>
</svg>
