<?xml version="1.0" encoding="utf-8"?>
<!-- Generator: Adobe Illustrator 16.0.0, SVG Export Plug-In . SVG Version: 6.00 Build 0)  -->
<!DOCTYPE svg PUBLIC "-//W3C//DTD SVG 1.1//EN" "http://www.w3.org/Graphics/SVG/1.1/DTD/svg11.dtd">
<svg version="1.1" id="Layer_1" xmlns="http://www.w3.org/2000/svg" xmlns:xlink="http://www.w3.org/1999/xlink" x="0px" y="0px"
	 width="311.333px" height="400px" viewBox="0 0 311.333 400" enable-background="new 0 0 311.333 400" xml:space="preserve">
<g>
	<defs>
		<rect id="SVGID_1_" x="11.139" y="10.667" width="290.222" height="380.665"/>
	</defs>
	<clipPath id="SVGID_2_">
		<use xlink:href="#SVGID_1_"  overflow="visible"/>
	</clipPath>
	<path clip-path="url(#SVGID_2_)" fill="#ABABAB" d="M301.344,133.986c0-1.379,0-2.759,0-4.438c-2.7,0-4.875,0-7.05,0
		c-32.428,0.003-64.855,0.025-97.285,0.001c-11.47-0.008-18.794-7.389-18.8-18.863c-0.012-21.491,0.008-42.981,0.012-64.471
		c0.002-11.684,0.001-23.367,0.001-35.535c-1.53,0-2.417,0-3.304,0c-48.643-0.005-97.286-0.028-145.929,0.001
		c-10.736,0.007-17.719,7.376-17.719,18.525c0,114.143,0.107,228.285-0.131,342.427c-0.025,12.23,8.471,19.731,19.948,19.699
		c83.516-0.232,167.033-0.114,250.55-0.125c12.944-0.001,19.717-6.781,19.718-19.797
		C301.367,292.269,301.352,213.128,301.344,133.986"/>
	<path clip-path="url(#SVGID_2_)" fill="#ABABAB" d="M205.638,120.788c30.351,0.013,60.7,0.004,91.051,0.004h3.351
		c0.111-0.306,0.225-0.611,0.336-0.917c-37.218-36.083-74.439-72.166-112.499-109.062v4.985c0,29.063-0.019,58.128,0.01,87.191
		C187.897,114.895,193.796,120.783,205.638,120.788"/>
</g>
<circle fill="#FFFFFF" cx="157.987" cy="262.527" r="89.604"/>
<g>
	<defs>
		<rect id="SVGID_3_" x="93.307" y="210.643" width="129.359" height="105.771"/>
	</defs>
	<clipPath id="SVGID_4_">
		<use xlink:href="#SVGID_3_"  overflow="visible"/>
	</clipPath>
	<path clip-path="url(#SVGID_4_)" fill="#E76048" d="M146.066,316.413c-17.637-14.829-35.146-29.553-52.759-44.361
		c4.818-5.778,9.526-11.428,14.339-17.2c11.875,9.978,23.659,19.882,35.572,29.896c2.1-2.503,4.112-4.884,6.109-7.277
		c18.252-21.878,36.499-43.755,54.749-65.632c1.292-1.548,1.308-1.55,2.849-0.261c4.986,4.181,9.966,8.37,14.957,12.55
		c0.184,0.154,0.413,0.253,0.785,0.479C197.066,255.287,171.636,285.765,146.066,316.413"/>
</g>
</svg>
