<?xml version="1.0" encoding="utf-8"?>
<!-- Generator: Adobe Illustrator 16.0.0, SVG Export Plug-In . SVG Version: 6.00 Build 0)  -->
<!DOCTYPE svg PUBLIC "-//W3C//DTD SVG 1.1//EN" "http://www.w3.org/Graphics/SVG/1.1/DTD/svg11.dtd">
<svg version="1.1" id="Layer_1" xmlns="http://www.w3.org/2000/svg" xmlns:xlink="http://www.w3.org/1999/xlink" x="0px" y="0px"
	 width="400px" height="325.225px" viewBox="0 0 400 325.225" enable-background="new 0 0 400 325.225" xml:space="preserve">
<g>
	<path fill="none" d="M193.236,148.017c1.12,0.382,2.287,0.576,3.456,0.576C195.522,148.593,194.355,148.399,193.236,148.017z"/>
	<polygon fill="none" points="291.323,173.493 291.32,173.493 341.203,190.649 	"/>
	<path fill="none" d="M196.692,262.048c1.164,0,2.329-0.19,3.446-0.576C199.021,261.858,197.856,262.048,196.692,262.048z"/>
	<path fill="none" d="M196.692,148.593c1.164,0,2.329-0.188,3.446-0.573C199.021,148.402,197.856,148.593,196.692,148.593z"/>
	<polygon fill="none" points="291.323,230.218 341.203,247.376 291.323,230.218 	"/>
	<polygon fill="none" points="196.698,183.453 341.203,133.923 291.323,116.765 291.323,116.767 341.203,133.923 	"/>
	<path fill="none" d="M196.692,205.321c1.164,0,2.329-0.19,3.446-0.573C199.021,205.13,197.856,205.321,196.692,205.321z"/>
	<polygon fill="#E3604B" points="341.203,77.196 197.299,27.7 52.796,77.229 196.698,126.725 	"/>
	<path fill="#282E3E" d="M377.395,237.341l-53.331-18.343l53.321-18.275c4.294-1.474,7.18-5.511,7.183-10.051
		s-2.878-8.583-7.173-10.06l-53.331-18.343l53.321-18.278c4.294-1.47,7.18-5.505,7.183-10.048c0.003-4.54-2.878-8.582-7.173-10.057
		l-53.331-18.345l53.321-18.275c4.294-1.472,7.18-5.51,7.183-10.051c0.003-4.54-2.878-8.582-7.173-10.059L200.762,6.407
		c-2.235-0.77-4.668-0.772-6.905-0.004L16.615,67.156c-4.297,1.472-7.181,5.51-7.183,10.051c-0.005,4.54,2.878,8.582,7.172,10.059
		l53.332,18.343l-53.321,18.274c-4.297,1.473-7.181,5.511-7.183,10.051c-0.005,4.542,2.878,8.583,7.172,10.058l53.332,18.343
		l-53.321,18.275c-4.294,1.474-7.181,5.508-7.183,10.048c-0.005,4.543,2.878,8.583,7.172,10.06l53.332,18.343l-53.321,18.274
		c-4.297,1.477-7.181,5.512-7.183,10.055c-0.005,4.54,2.878,8.58,7.172,10.056l176.632,60.753c1.122,0.384,2.29,0.574,3.459,0.574
		c1.161,0,2.329-0.19,3.446-0.572l177.244-60.752c4.294-1.472,7.18-5.509,7.183-10.049
		C384.57,242.858,381.689,238.818,377.395,237.341z M52.796,77.229L197.299,27.7l143.904,49.496l-144.505,49.529L52.796,77.229z
		 M52.796,133.955l49.867-17.091l90.573,31.153c1.12,0.382,2.287,0.576,3.456,0.576c1.164,0,2.329-0.191,3.446-0.573l91.186-31.255
		v0.002v-0.002l49.88,17.158l-144.505,49.529L52.796,133.955z M52.796,190.685l49.867-17.092l90.573,31.148
		c1.12,0.389,2.287,0.579,3.456,0.579c1.164,0,2.329-0.19,3.446-0.573l91.183-31.255l0,0h0.003l49.88,17.156l-144.505,49.528
		L52.796,190.685z M196.698,296.906L52.796,247.411l49.867-17.093l90.573,31.152c1.12,0.385,2.287,0.578,3.456,0.578
		c1.164,0,2.329-0.19,3.446-0.576l91.186-31.254l0,0l0,0l49.88,17.158L196.698,296.906z"/>
	<polygon fill="#282E3E" points="291.323,230.218 200.138,261.472 291.323,230.218 	"/>
	<path fill="#282E3E" d="M193.236,261.47c1.12,0.385,2.287,0.578,3.456,0.578C195.522,262.048,194.355,261.855,193.236,261.47z"/>
	<path fill="#282E3E" d="M193.236,204.742c1.12,0.389,2.287,0.579,3.456,0.579C195.522,205.321,194.355,205.13,193.236,204.742z"/>
	<polygon fill="#282E3E" points="291.32,173.493 200.138,204.748 291.32,173.493 	"/>
	<polygon fill="#282E3E" points="291.323,116.765 200.138,148.02 291.323,116.767 	"/>
</g>
</svg>
