<?xml version="1.0" encoding="utf-8"?>
<!-- Generator: Adobe Illustrator 16.0.0, SVG Export Plug-In . SVG Version: 6.00 Build 0)  -->
<!DOCTYPE svg PUBLIC "-//W3C//DTD SVG 1.1//EN" "http://www.w3.org/Graphics/SVG/1.1/DTD/svg11.dtd">
<svg version="1.1" id="Layer_3" xmlns="http://www.w3.org/2000/svg" xmlns:xlink="http://www.w3.org/1999/xlink" x="0px" y="0px"
	 width="400px" height="325.225px" viewBox="0 0 400 325.225" enable-background="new 0 0 400 325.225" xml:space="preserve">
<g>
	<g>
		<path fill="#282E3E" d="M15.904,267.239l34.968,27.757c5.771-5.771,11.545-11.544,17.318-17.316l-32.553-25.845V33.305h276.927
			L336.9,8.969H23.47c-6.722,0-12.166,5.447-12.166,12.166v236.443c0,0.15-0.005,0.2,0,0.216
			C11.327,261.345,12.902,264.857,15.904,267.239z"/>
		<path fill="#282E3E" d="M388.177,52.262l-24.329,24.33v175.243l-46.596,36.984l-51.193-40.634c-4.433-3.518-10.699-3.518-15.131,0
			l-51.194,40.634l-26.821-21.292l-17.319,17.32l36.573,29.03c4.432,3.518,10.701,3.518,15.13,0.005l51.192-40.639l51.197,40.639
			c5.063,4.222,11.941,2.721,15.13,0l58.761-46.644c2.877-2.282,4.459-5.611,4.6-9.012c0.021,0.182,0,0.182,0-0.096V52.262z"/>
		<path fill="#E3604B" d="M89.069,109.426h147.372l24.333-24.332H89.069c-6.722,0-12.169,5.445-12.169,12.168
			C76.9,103.981,82.348,109.426,89.069,109.426z"/>
		<path fill="#E3604B" d="M89.069,164.506h92.291c8.11-8.11,16.224-16.218,24.334-24.333H89.069c-6.722,0-12.169,5.45-12.169,12.168
			C76.9,159.06,82.348,164.506,89.069,164.506z"/>
		<path fill="#E3604B" d="M310.414,140.174h-10.15c-8.111,8.114-16.221,16.223-24.333,24.333h34.483
			c6.723,0,12.17-5.446,12.17-12.164C322.581,145.624,317.133,140.174,310.414,140.174z"/>
		<path fill="#E3604B" d="M89.069,219.591h37.209l24.335-24.338H89.069c-6.722,0-12.169,5.444-12.169,12.169
			C76.9,214.142,82.348,219.591,89.069,219.591z"/>
		<path fill="#E3604B" d="M310.414,195.253h-65.229l-24.335,24.338h89.564c6.723,0,12.17-5.449,12.17-12.169
			C322.581,200.704,317.133,195.253,310.414,195.253z"/>
	</g>
</g>
</svg>
