<?xml version="1.0" encoding="utf-8"?>
<!-- Generator: Adobe Illustrator 16.0.0, SVG Export Plug-In . SVG Version: 6.00 Build 0)  -->
<!DOCTYPE svg PUBLIC "-//W3C//DTD SVG 1.1//EN" "http://www.w3.org/Graphics/SVG/1.1/DTD/svg11.dtd">
<svg version="1.1" id="Layer_2" xmlns="http://www.w3.org/2000/svg" xmlns:xlink="http://www.w3.org/1999/xlink" x="0px" y="0px"
	 width="400px" height="325.225px" viewBox="0 0 400 325.225" enable-background="new 0 0 400 325.225" xml:space="preserve">
<rect x="16.821" y="119.458" fill="#E3604B" width="264.117" height="190.134"/>
<polygon fill="#E3604B" points="28.25,127.925 152.688,245.434 280.938,127.925 "/>
<path fill="#282E3E" d="M384.178,9.103H119.46c-6.271,0-11.354,5.084-11.354,11.356v40.313H68.311
	c-6.271,0-11.353,5.084-11.353,11.356v38.524H18.339c-6.272,0-11.356,5.084-11.356,11.356v182.76
	c0,6.271,5.084,11.356,11.356,11.356h264.718c6.271,0,11.356-5.085,11.356-11.356v-38.524h38.616
	c6.271,0,11.356-5.084,11.356-11.355v-40.313h39.795c6.271,0,11.356-5.085,11.356-11.356V20.458
	C395.534,14.187,390.45,9.103,384.178,9.103z M254.07,133.365l-103.374,95.683L47.323,133.365H254.07z M29.695,147.995
	l34.494,31.932l-34.494,32.648V147.995z M271.7,293.412H29.695V243.57c0.583-0.374,1.144-0.808,1.667-1.301l49.533-46.883
	l62.088,57.469c2.176,2.017,4.946,3.024,7.713,3.024s5.537-1.008,7.713-3.024l62.087-57.469l50.404,47.701
	c0.255,0.244,0.522,0.472,0.799,0.688V293.412L271.7,293.412z M271.7,212.575l-34.499-32.648l34.499-31.932V212.575z
	 M321.673,243.532h-27.26V122.008c0-6.271-5.085-11.356-11.356-11.356H79.667V83.484h242.005V243.532z M372.822,191.863h-28.437
	V72.128c0-6.271-5.088-11.356-11.356-11.356H130.816V31.815h242.006V191.863z"/>
</svg>
