<?xml version="1.0" encoding="utf-8"?>
<!-- Generator: Adobe Illustrator 16.0.0, SVG Export Plug-In . SVG Version: 6.00 Build 0)  -->
<!DOCTYPE svg PUBLIC "-//W3C//DTD SVG 1.1//EN" "http://www.w3.org/Graphics/SVG/1.1/DTD/svg11.dtd">
<svg version="1.1" id="Layer_1" xmlns="http://www.w3.org/2000/svg" xmlns:xlink="http://www.w3.org/1999/xlink" x="0px" y="0px"
	 width="400px" height="400px" viewBox="0 0 400 400" enable-background="new 0 0 400 400" xml:space="preserve">
<path fill-rule="evenodd" clip-rule="evenodd" d="M243.294,84.844c22.462,22.907,44.551,45.435,67.271,68.606
	c-0.786,0.857-3.432,3.978-6.315,6.865c-58.311,58.347-116.555,116.769-175.156,174.825c-5.381,5.329-12.67,9.508-19.839,12.117
	c-24.167,8.794-48.708,16.565-73.039,24.924c-4.206,1.443-8.089,3.826-12.121,5.774c-1.875-1.877-3.751-3.75-5.626-5.628
	c9.379-26.219,18.056-52.726,28.462-78.529c4.551-11.289,10.952-22.806,19.39-31.392
	C125.108,202.584,184.654,143.501,243.294,84.844z M327.922,17.863c-4.688,0-9.38,0-14.065,0
	c-15.436,13.84-30.869,27.682-44.69,40.078c23.908,24.027,45.891,46.116,69.244,69.583c12.943-14.492,26.545-29.722,40.148-44.956
	c0-4.69,0-9.377,0-14.066C361.681,51.622,344.801,34.742,327.922,17.863z"/>
</svg>
